<?xml version="1.0" encoding="iso-8859-1"?>
<!-- Generator: Adobe Illustrator 16.0.0, SVG Export Plug-In . SVG Version: 6.00 Build 0)  -->
<!DOCTYPE svg PUBLIC "-//W3C//DTD SVG 1.1//EN" "http://www.w3.org/Graphics/SVG/1.1/DTD/svg11.dtd">
<svg version="1.1" xmlns="http://www.w3.org/2000/svg" xmlns:xlink="http://www.w3.org/1999/xlink" x="0px" y="0px"
	 width="46.994px" height="27.41px" viewBox="0 0 46.994 27.41" style="enable-background:new 0 0 46.994 27.41;"
	 xml:space="preserve">
<g id="_x32_-shopping">
	<linearGradient id="SVGID_1_" gradientUnits="userSpaceOnUse" x1="10.4844" y1="-2.5825" x2="35.4239" y2="24.2044">
		<stop  offset="0" style="stop-color:#F1C34B"/>
		<stop  offset="0.1363" style="stop-color:#F8CC4D"/>
		<stop  offset="0.3648" style="stop-color:#FED34F"/>
		<stop  offset="1" style="stop-color:#FFD54F"/>
	</linearGradient>
	<path style="fill:url(#SVGID_1_);" d="M46.994,2.743C46.994,1.23,46.184,0,45.18,0H1.813C0.811,0,0,1.23,0,2.743v18.718h46.994
		V2.743z"/>
	<linearGradient id="SVGID_2_" gradientUnits="userSpaceOnUse" x1="4.0757" y1="6.9907" x2="43.5221" y2="31.6824">
		<stop  offset="0" style="stop-color:#104C83"/>
		<stop  offset="0.5334" style="stop-color:#14497F"/>
		<stop  offset="1" style="stop-color:#1A4277"/>
	</linearGradient>
	<path style="fill:url(#SVGID_2_);" d="M41.756,10.125h0.168l0.26,0.53h0.354l-0.283-0.53c0.197-0.017,0.318-0.109,0.318-0.34
		c0-0.134-0.033-0.255-0.15-0.327c-0.098-0.06-0.238-0.056-0.35-0.056h-0.623v1.253h0.307V10.125z M41.756,9.62h0.254
		c0.1,0,0.258,0,0.258,0.134c0,0.129-0.086,0.153-0.205,0.153h-0.307V9.62z M40.746,13.502l-1.221-4.989l-2.33,0.001l-2.857,4.987
		h-0.633l0.578-3.411l1.154,0.046l0.275-1.622l-4.432,0.001l-0.273,1.621l1.168-0.046l-0.578,3.411h-1.684l0.23-1.357h-1.838
		l0.084-0.49l1.623-0.001l0.217-1.297l-1.623,0.001l0.082-0.476l1.775-0.001l0.232-1.364l-3.898,0.002l-0.844,4.984h-2.313
		c0.85-0.211,1.484-0.824,1.62-1.622l0.565-3.362h-2.061l-0.501,2.966c-0.033,0.211-0.124,0.542-0.46,0.542
		c-0.331,0-0.603-0.317-0.603-0.317l-0.847,1.338c0.27,0.205,0.625,0.362,1.007,0.455h-0.928l-0.983-1.613
		c-0.09-0.145-0.207-0.225-0.302-0.298l0.006-0.04c0.823-0.224,1.214-0.542,1.343-1.297c0.212-1.258-0.813-1.735-2.123-1.735
		L16.833,8.52l-0.843,4.982h-0.497l-1.222-4.981l-2.328,0.001l-2.853,4.98H8.454l0.577-3.403l1.153,0.045l0.275-1.622L6.028,8.524
		l-0.274,1.622l1.169-0.047l-0.576,3.403H0v12.13c0,0.982,0.811,1.777,1.813,1.777H45.18c1.004,0,1.814-0.795,1.814-1.777v-12.13
		H40.746z M18.664,9.884h0.161c0.36,0,0.668,0.045,0.602,0.43c-0.062,0.37-0.414,0.417-0.762,0.417h-0.146L18.664,9.884z
		 M18.321,11.908h0.038l0.647,1.594h-0.955L18.321,11.908z M12.806,10.184h0.078c0.004,0.211,0.004,0.431,0.03,0.643l0.097,0.879
		h-0.846L12.806,10.184z M11.587,12.891h1.592l0.085,0.611h-1.946L11.587,12.891z M7.64,16.396l0.386,0.084
		c0.724,0.162,1.208,0.549,1.087,1.342c-0.167,1.119-1.306,1.672-2.356,1.672c-0.609,0-1.294-0.16-1.802-0.428l0.739-1.326
		l0.08,0.072c0.281,0.234,0.632,0.428,1.038,0.428c0.173,0,0.461-0.068,0.49-0.281c0.035-0.211-0.195-0.23-0.352-0.26l-0.345-0.063
		c-0.67-0.117-1.191-0.51-1.081-1.24c0.167-1.111,1.309-1.732,2.364-1.732c0.554,0,1.043,0.13,1.478,0.408l-0.656,1.201
		c-0.273-0.201-0.591-0.357-0.971-0.357c-0.153,0-0.388,0.057-0.417,0.25C7.294,16.34,7.51,16.363,7.64,16.396z M13.903,19.418h-1.7
		l0.245-1.627h-1.083l-0.243,1.627h-1.7l0.701-4.68h1.7l-0.237,1.578h1.083l0.237-1.578h1.698L13.903,19.418z M20.241,17.09
		c-0.228,1.502-1.565,2.404-3.047,2.404c-1.48,0-2.549-0.902-2.324-2.404c0.222-1.471,1.575-2.426,3.05-2.426
		C19.394,14.664,20.46,15.619,20.241,17.09z M38.058,10.176h0.081c0.002,0.211,0.002,0.431,0.027,0.642l0.1,0.88h-0.85
		L38.058,10.176z M36.838,12.883h1.594l0.088,0.619h-1.953L36.838,12.883z M25.162,16.455c-0.142,0.955-0.85,1.553-1.835,1.553h-0.9
		l-0.213,1.41h-1.699l0.701-4.68h2.237C24.585,14.738,25.339,15.295,25.162,16.455z M29.852,16.455
		c-0.145,0.955-0.85,1.553-1.834,1.553h-0.902l-0.213,1.41h-1.697l0.699-4.68h2.234C29.273,14.738,30.025,15.295,29.852,16.455z
		 M31.666,19.418h-1.764l0.701-4.68h1.767L31.666,19.418z M37.328,19.418h-1.691l-1.18-2.457h-0.053
		c0.01,0.32,0.016,0.625-0.031,0.934l-0.229,1.523h-1.686l0.702-4.68h1.692l1.195,2.594h0.053c-0.015-0.391-0.033-0.795,0.027-1.191
		l0.213-1.402h1.686L37.328,19.418z M42.758,18.658c-0.598,0.541-1.434,0.834-2.186,0.834c-1.48,0-2.547-0.883-2.322-2.385
		c0.232-1.527,1.533-2.446,3.059-2.446c0.844,0,1.943,0.403,2.203,1.204l-1.738,0.584c-0.098-0.236-0.33-0.361-0.613-0.361
		c-0.631,0-1.057,0.523-1.143,1.088c-0.078,0.514,0.186,1,0.756,1c0.277,0,0.652-0.125,0.781-0.412h-0.801l0.166-1.102h2.721
		C43.518,17.424,43.42,18.064,42.758,18.658z M22.894,16.016h-0.167l-0.123,0.814h0.175c0.309,0,0.651-0.051,0.708-0.43
		C23.541,16.035,23.182,16.016,22.894,16.016z M17.688,16.201c-0.561,0-0.972,0.416-1.046,0.914c-0.08,0.535,0.24,0.898,0.773,0.898
		c0.535,0,0.964-0.363,1.043-0.898C18.532,16.617,18.249,16.201,17.688,16.201z M27.58,16.016h-0.17l-0.121,0.813h0.178
		c0.308,0,0.648-0.049,0.707-0.428C28.227,16.035,27.867,16.016,27.58,16.016z M41.986,11.336c0.717,0,1.297-0.57,1.297-1.272
		c0-0.706-0.58-1.273-1.297-1.273c-0.721,0-1.297,0.567-1.297,1.273C40.689,10.766,41.266,11.336,41.986,11.336z M41.986,9.111
		c0.523,0,0.971,0.441,0.971,0.952c0,0.508-0.447,0.953-0.971,0.953s-0.971-0.444-0.971-0.953
		C41.016,9.552,41.463,9.111,41.986,9.111z"/>
</g>
<g id="Layer_1">
</g>
</svg>
