<?xml version="1.0" encoding="UTF-8"?>
<svg width="68px" height="40px" viewBox="0 0 68 40" version="1.1" xmlns="http://www.w3.org/2000/svg" xmlns:xlink="http://www.w3.org/1999/xlink">
    <!-- Generator: sketchtool 51.1 (57501) - http://www.bohemiancoding.com/sketch -->
    <title>26036DEA-4A89-4671-B970-432FAE787420</title>
    <desc>Created with sketchtool.</desc>
    <defs></defs>
    <g id="Home" stroke="none" stroke-width="1" fill="none" fill-rule="evenodd">
        <g id="0.0_Home" transform="translate(-16.000000, -32.000000)" fill="#D32027" fill-rule="nonzero">
            <g id="logo" transform="translate(16.000000, 32.000000)">
                <g id="Group">
                    <path d="M31.5308505,2.14093596 L31.0298196,1.93262491 C31.0298196,1.93262491 33.1056186,1.32998593 34.8620103,1.05688248 C34.8620103,1.05688248 35.6553093,1.2303589 35.8884278,1.42682618 C35.8884278,1.42612949 33.7938402,1.63583392 31.5308505,2.14093596" id="Shape"></path>
                    <polygon id="Shape" points="26.3034278 2.08102041 26.0473454 1.94516538 27.7285825 1.50276566 27.9784021 1.54596059"></polygon>
                    <path d="M30.4084021,1.69226601 L29.581701,1.46096411 C29.581701,1.46096411 31.3540979,0.944714989 31.9254124,0.870865588 C31.9254124,0.870865588 33.5948196,0.749641098 33.9281443,0.8234905 C33.9274485,0.822793807 31.0917526,1.44215341 30.4084021,1.69226601" id="Shape"></path>
                    <path d="M35.7339433,0.926901119 C35.7339433,0.926901119 36.6239691,0.870168895 36.8529124,0.870168895 C37.0658505,0.870168895 38.9113144,1.23174227 38.9113144,1.23174227 C38.9113144,1.23174227 36.9204124,1.33537313 36.7019072,1.3701689 L35.7339433,0.926901119 Z" id="Shape"></path>
                    <path d="M37.2558247,1.68073486 L37.8354897,2.04735398 C37.8354897,2.04735398 40.708067,1.81982188 41.5765206,1.99885184 L40.4902577,1.54735398 C40.4909536,1.54735398 37.6302062,1.66432973 37.2558247,1.68073486" id="Shape"></path>
                    <path d="M41.7170876,1.60935961 C41.7170876,1.60935961 43.2438402,1.87061928 43.891701,2.2301126 L42.6808763,2.08102041 L41.7170876,1.60935961 Z" id="Shape"></path>
                    <path d="M44.4783247,1.90754398 L44.4783247,0.74755102 L39.290567,0.74755102 C39.2912629,0.74755102 40.9745876,0.834637579 44.4783247,1.90754398" id="Shape"></path>
                    <path d="M28.6060825,1.31382266 L28.8510309,1.35228008 C28.8510309,1.35228008 30.3868299,0.928412386 30.7681701,0.859021816 L30.3847423,0.859021816 C30.3847423,0.859021816 28.8475515,1.22353132 28.6060825,1.31382266" id="Shape"></path>
                    <path d="M0,0.791442646 L0,9.92577762 L5.69018041,9.92577762 L5.69018041,17.9175369 C5.69018041,17.9175369 7.63654639,13.5186207 12.9927062,8.586038 C12.9927062,8.586038 17.3746392,4.626038 21.8045876,3.05499648 L21.8045876,0.791442646 L0,0.791442646 Z" id="Shape"></path>
                    <path d="M5.72149485,19.5248065 C5.72149485,19.5248065 6.39927835,18.5006685 6.5092268,18.3766573 L6.59203608,17.8060662 C6.59203608,17.8060662 5.7639433,19.0245813 5.73610825,19.07962 L5.72149485,19.5248065 Z" id="Shape"></path>
                    <path d="M7.01443299,17.6709078 L7.12994845,17.038311 C7.12994845,17.038311 8.12296392,15.6936946 9.38597938,14.2710486 L9.34283505,14.8458198 C9.34353093,14.8437298 7.77015464,16.6209923 7.01443299,17.6709078" id="Shape"></path>
                    <path d="M6.88221649,18.5097255 C6.88221649,18.5097255 8.75064433,15.9842153 9.31221649,15.4812034 L9.28925258,16.4119845 C9.28925258,16.4119845 8.13201031,17.7182829 6.80914948,19.4391133 L6.88221649,18.5097255 Z" id="Shape"></path>
                    <polygon id="Shape" points="6.42015464 20.0041309 6.43407216 19.1604363 5.72149485 20.2117452 5.7110567 21.005278"></polygon>
                    <path d="M5.73541237,21.671316 L6.42015464,20.6861928 C6.42015464,20.6861928 6.55097938,22.6801267 6.65884021,23.2047361 C6.65884021,23.2047361 5.83283505,24.6176284 5.73889175,24.7311893 L5.73541237,21.671316 Z" id="Shape"></path>
                    <path d="M5.74028351,25.4968543 C5.74028351,25.4968543 6.59134021,23.9724912 6.74164948,23.8171288 C6.74164948,23.8171288 6.86064433,24.7416397 7.32479381,26.3551795 C7.32479381,26.3551795 5.98801546,28.6709852 5.73541237,29.3203026 L5.74028351,25.4968543 Z" id="Shape"></path>
                    <path d="M6.08822165,29.4972625 L7.4368299,26.91114 C7.4368299,26.91114 8.18002577,29.2896481 8.30041237,29.4972625 L6.08822165,29.4972625 Z" id="Shape"></path>
                    <path d="M8.6928866,29.4714849 L9.10762887,29.4714849 L11.4485567,26.1789163 C11.4485567,26.1789163 10.524433,23.7864743 10.3017526,22.9225757 C10.3017526,22.9225757 8.55023196,25.0098663 7.75206186,26.4450528 C7.75206186,26.4457495 8.24474227,28.4034553 8.6928866,29.4714849" id="Shape"></path>
                    <path d="M7.59131443,25.9267136 C7.59131443,25.9267136 7.08262887,23.7175018 7.05966495,23.2757987 C7.05966495,23.2757987 8.20646907,21.3975158 9.60448454,19.863399 C9.60448454,19.863399 10.0345361,22.122076 10.1778866,22.4495215 C10.1785825,22.4488248 8.31920103,24.7109852 7.59131443,25.9267136" id="Shape"></path>
                    <path d="M6.97128866,22.6801267 C6.97128866,22.6801267 6.72286082,21.0115482 6.80845361,20.1093315 C6.80845361,20.1093315 8.60798969,17.6158691 9.29342784,16.9595848 C9.29342784,16.9595848 9.46600515,18.9806897 9.53559278,19.3394863 C9.53559278,19.340183 8.57041237,20.3462069 6.97128866,22.6801267" id="Shape"></path>
                    <path d="M9.8842268,18.9374947 C9.8842268,18.9374947 9.75548969,17.9509782 9.69007732,16.5304222 C9.69007732,16.5304222 11.7178608,14.417354 12.6719072,13.6983673 C12.6719072,13.6983673 13.0984794,15.5264884 13.1687629,15.7480366 C13.1694588,15.7487333 11.7366495,16.9498311 9.8842268,18.9374947" id="Shape"></path>
                    <path d="M9.6907732,15.9633146 L9.72626289,15.0360169 C9.72626289,15.0360169 11.7999742,12.8003308 12.4826289,12.394159 L12.6287629,13.2629346 C12.6287629,13.2636312 11.7888402,13.8732372 9.6907732,15.9633146" id="Shape"></path>
                    <path d="M9.77845361,14.3950598 L9.89466495,13.669803 C9.89466495,13.669803 12.0894588,11.422273 12.4360052,11.1707671 L12.4158247,11.9357354 C12.4158247,11.9357354 10.7617268,13.3214567 9.77845361,14.3950598" id="Shape"></path>
                    <path d="M10.035232,12.9612667 L10.5432216,11.70095 C10.5432216,11.70095 12.2216753,10.1041309 12.6364175,9.79340605 L12.4826289,10.6238635 C12.4826289,10.6245602 10.5759278,12.3948557 10.035232,12.9612667" id="Shape"></path>
                    <path d="M12.8465722,12.0688037 L12.96,12.9340957 C12.96,12.9340957 16.059433,10.5381703 16.1178866,10.5193596 C16.1178866,10.5193596 15.9014691,9.85541168 15.8694588,9.73836735 C15.8694588,9.73767065 13.3455155,11.6061999 12.8465722,12.0688037" id="Shape"></path>
                    <path d="M12.7943814,11.5706685 L12.8778866,10.8252076 C12.8778866,10.8252076 15.0128351,8.96294863 15.6474742,8.63341309 C15.6474742,8.63341309 15.738634,9.22211823 15.7713402,9.31199156 L12.7943814,11.5706685 Z" id="Shape"></path>
                    <path d="M12.9627835,10.1905208 C12.9627835,10.1905208 13.0664691,9.57046446 13.2237371,9.31129486 C13.2237371,9.31129486 14.2842526,8.42788881 15.5354381,7.65247009 L15.5744072,8.20355384 C15.5744072,8.20355384 14.1541237,9.18658691 12.9627835,10.1905208" id="Shape"></path>
                    <path d="M14.0163402,8.2342083 C14.0163402,8.2342083 15.4609794,7.11601689 15.5688402,7.04216749 L15.5737113,7.20449683 L14.0163402,8.2342083 Z" id="Shape"></path>
                    <path d="M15.9689691,6.94114708 L15.9988918,6.73771288 C15.9988918,6.73771288 17.6669072,5.57075299 18.4275,5.1443772 L18.5854639,5.43489796 C18.584768,5.43489796 16.1338918,6.75861365 15.9689691,6.94114708" id="Shape"></path>
                    <path d="M15.9508763,7.38981703 C15.9508763,7.38981703 18.0426804,6.0974525 18.7573454,5.77767065 L18.9939433,6.20683322 C18.9939433,6.20683322 17.1150773,7.13900774 15.9599227,7.95901478 L15.9508763,7.38981703 Z" id="Shape"></path>
                    <path d="M16.1178866,9.06118227 L16.0155928,8.37424349 C16.0155928,8.37424349 18.084433,7.04216749 19.1734794,6.55378607 L19.378067,6.911886 C19.378067,6.91258269 17.538866,7.92209008 16.1178866,9.06118227" id="Shape"></path>
                    <path d="M16.2180928,9.45481351 C16.2180928,9.45481351 18.5861598,7.73676988 19.5548196,7.26789585 L20.0168814,8.07814919 L17.0781959,9.84078114 L16.2953351,9.82336383 L16.2180928,9.45481351 Z" id="Shape"></path>
                    <polygon id="Shape" points="17.8186082 9.8811893 20.2040722 8.42788881 21.0940979 10.0219212"></polygon>
                    <polygon id="Shape" points="21.4531701 9.8261506 20.5471392 8.22375792 21.8713918 7.47481351 21.8651289 9.57046446"></polygon>
                    <polygon id="Shape" points="20.3787371 7.86217452 21.8651289 7.02057002 21.8713918 6.11417312 19.9194588 7.08466573"></polygon>
                    <path d="M19.7482732,6.71123856 L19.5429897,6.36707248 C19.5429897,6.36707248 21.3606186,5.42723434 21.8651289,5.26629838 L21.8651289,5.67386348 C21.8651289,5.67456017 20.2792268,6.4207178 19.7482732,6.71123856" id="Shape"></path>
                    <path d="M19.3606701,6.01175932 L19.1463402,5.58259676 C19.1463402,5.58259676 21.5255412,4.38776918 21.8651289,4.25191414 L21.8651289,4.82877551 C21.8651289,4.82807882 19.8846649,5.72890218 19.3606701,6.01175932" id="Shape"></path>
                    <path d="M18.9410567,5.23216045 L18.8018814,4.93885292 C18.8018814,4.93885292 21.2534536,3.59562984 21.87,3.41170303 L21.8505155,3.84225897 C21.8505155,3.84225897 19.3996392,4.94860662 18.9410567,5.23216045" id="Shape"></path>
                    <path d="M13.0483763,13.3960028 C13.0483763,13.3960028 15.6836598,11.2209289 16.1345876,11.0174947 L16.1345876,13.3688318 L13.494433,15.452639 C13.4937371,15.452639 13.1096134,13.8732372 13.0483763,13.3960028" id="Shape"></path>
                    <path d="M13.6134278,15.9047924 C13.6134278,15.9047924 14.0984536,17.7593878 14.2912113,18.2101478 C14.2912113,18.2101478 16.0517784,16.6544335 16.1178866,16.5833709 L16.1178866,13.8983178 C16.1178866,13.8976214 14.0984536,15.3815764 13.6134278,15.9047924" id="Shape"></path>
                    <path d="M13.9655412,18.5097255 C13.9655412,18.5097255 13.365,16.5833709 13.2689691,16.1806826 C13.2689691,16.1806826 11.2822423,17.9419212 9.9753866,19.448867 C9.9753866,19.448867 10.2022423,21.2853483 10.4903351,22.0851513 C10.4889433,22.085848 13.3322938,19.007164 13.9655412,18.5097255" id="Shape"></path>
                    <path d="M14.4303866,18.6386137 L16.1178866,17.0954398 L16.1178866,21.580746 L15.7198454,21.9040113 C15.7198454,21.9033146 14.968299,20.3280929 14.4303866,18.6386137" id="Shape"></path>
                    <path d="M10.6260309,22.572836 C10.6260309,22.572836 13.3169845,19.5547643 14.1165464,18.9583955 C14.1165464,18.9583955 15.2536082,21.8810204 15.3906959,22.1457635 C15.3906959,22.1457635 12.5369072,24.7945883 11.7547423,25.8291766 C11.7547423,25.8298733 11.0219845,24.3960802 10.6260309,22.572836" id="Shape"></path>
                    <path d="M11.902268,26.243012 C11.902268,26.243012 13.2334794,29.0367488 13.4937371,29.5125897 L14.1541237,29.5125897 L16.1338918,27.3479662 L16.1338918,23.6227516 L15.5549227,22.5268543 C15.5549227,22.5268543 13.1096134,24.6608234 11.902268,26.243012" id="Shape"></path>
                    <polygon id="Shape" points="11.6197423 26.5655806 13.0483763 29.4972625 9.58987113 29.4972625"></polygon>
                    <polygon id="Shape" points="14.7052577 29.4972625 16.1338918 27.9422449 16.1338918 29.4972625"></polygon>
                    <polygon id="Shape" points="16.1819072 22.8257354 15.8938144 22.2426038 16.1819072 22.0252357"></polygon>
                    <path d="M22.6152835,9.61505278 C22.6152835,9.61505278 25.1315722,8.1603589 25.897732,7.80574243 L27.2171134,9.86028853 L22.6271134,10.0957706 L22.6152835,9.61505278 Z" id="Shape"></path>
                    <polygon id="Shape" points="22.6410309 9.1231879 22.6410309 7.10904996 24.7008247 5.99155524 25.6660052 7.46157635"></polygon>
                    <polygon id="Shape" points="22.6152835 6.63669247 22.6152835 5.71636172 24.0905412 5.04405348 24.5004124 5.67316678"></polygon>
                    <polygon id="Shape" points="23.8845619 4.75353272 22.6278093 5.31715693 22.6278093 4.93676284 23.6952835 4.47903589"></polygon>
                    <polygon id="Shape" points="23.4663402 4.15019704 23.1601546 3.68898663 22.6034536 3.9133216 22.6152835 4.5333779"></polygon>
                    <polygon id="Shape" points="22.9818711 3.36990148 22.6152835 3.50227305 22.6303144 2.93725545"></polygon>
                    <path d="M23.1058763,2.88988037 L23.3062887,3.21593244 L25.8114433,2.27121745 L25.5177835,2.09495426 C25.5184794,2.09425757 23.3675258,2.75959887 23.1058763,2.88988037" id="Shape"></path>
                    <path d="M23.540799,3.56358198 C23.540799,3.56358198 25.8107474,2.68156932 26.2053093,2.5540746 L26.7049485,2.88988037 L23.8629897,3.98717101 L23.540799,3.56358198 Z" id="Shape"></path>
                    <path d="M24.5004124,4.90959184 C24.5004124,4.90959184 26.5087113,3.98717101 27.6819588,3.66320901 L28.2414433,4.12581281 C28.2414433,4.12581281 25.8511082,4.90959184 24.8685309,5.43559465 L24.5004124,4.90959184 Z" id="Shape"></path>
                    <path d="M25.0891237,5.79787474 C25.0891237,5.79787474 27.4001289,4.72914849 28.5671134,4.42121042 C28.5671134,4.42121042 29.8015979,5.52616467 29.9268557,5.70242787 C29.9268557,5.70242787 27.1384794,6.69173118 26.0473454,7.24560169 L25.0891237,5.79787474 Z" id="Shape"></path>
                    <path d="M27.5128608,9.56767769 L26.3034278,7.61693878 C26.3034278,7.61693878 28.4773454,6.51477129 30.2553093,6.0598311 C30.2553093,6.0598311 31.0527835,6.83315975 31.7465722,7.89491907 C31.7465722,7.89422238 28.1683763,9.21027445 27.5128608,9.56767769" id="Shape"></path>
                    <path d="M27.9192526,9.83451091 C27.9192526,9.83451091 30.8635052,8.56026038 31.9984794,8.25232231 L33.8703866,10.8983603 C33.8703866,10.8983603 30.7626031,12.0207319 29.4195619,12.6846798 L28.3590464,10.9575792 L28.3590464,9.82336383 L27.9192526,9.83451091 Z" id="Shape"></path>
                    <polygon id="Shape" points="29.0243041 12.8686066 28.3472165 11.7420549 28.3472165 13.2085925"></polygon>
                    <path d="M28.3576546,13.67886 C28.3576546,13.67886 29.0500515,13.3374806 29.2337629,13.2315834 C29.2337629,13.2315834 31.2392784,16.6558269 31.3360052,16.8954891 C31.3360052,16.8954891 28.6158247,18.1815834 28.3569588,18.3766573 L28.3569588,13.67886 L28.3576546,13.67886 Z" id="Shape"></path>
                    <path d="M28.3472165,18.8302041 C28.3472165,18.8302041 30.9477062,17.4368191 31.5141495,17.2640394 L33.8822165,21.6120971 C33.8822165,21.6120971 29.8176031,23.7112315 29.4954124,23.9536805 L28.3757474,22.0391696 L28.3472165,18.8302041 Z" id="Shape"></path>
                    <polygon id="Shape" points="29.109201 24.1396974 28.3576546 22.7950809 28.3576546 24.6434061"></polygon>
                    <path d="M29.6895619,24.30133 C29.6895619,24.30133 33.0645619,22.3526812 34.0805412,21.9938846 L36.3045619,26.4074314 C36.3045619,26.4074314 32.990799,28.1212949 32.1439175,28.6215201 L29.6895619,24.30133 Z" id="Shape"></path>
                    <path d="M31.7862371,28.8019634 L29.3165722,24.5249683 L28.3576546,25.1220338 L28.3576546,29.4833286 L30.7507732,29.4833286 C30.7507732,29.4833286 31.6915979,28.8611823 31.7862371,28.8019634" id="Shape"></path>
                    <polygon id="Shape" points="31.4849227 29.539064 31.9970876 29.2046517 32.1870619 29.5557847"></polygon>
                    <path d="M32.6359021,29.4833286 L32.3408505,28.9998241 C32.3408505,28.9998241 35.2391753,27.2796904 36.4840979,26.7885222 L37.7902577,29.4833286 L32.6359021,29.4833286 Z" id="Shape"></path>
                    <path d="M38.2286598,29.457551 L38.7463918,29.457551 L38.7463918,25.8438072 C38.7463918,25.8438072 37.338634,26.3886207 36.8626546,26.6289796 L38.2286598,29.457551 Z" id="Shape"></path>
                    <path d="M36.7019072,26.2297748 L34.4556186,21.8057776 C34.4556186,21.8057776 37.8932474,20.293955 38.7463918,20.1002745 L38.7463918,25.4125545 C38.7463918,25.4125545 36.7659278,26.2137509 36.7019072,26.2297748" id="Shape"></path>
                    <path d="M34.2538144,21.4623082 C34.2538144,21.4623082 37.7276289,19.9281914 38.7310825,19.6578747 L38.7310825,19.3227657 C38.7310825,19.3227657 37.4054381,16.5359958 36.5355928,15.2512949 C36.5355928,15.2512949 32.5301289,16.7094722 31.9114948,17.0822027 L34.2538144,21.4623082 Z" id="Shape"></path>
                    <path d="M31.7076031,16.7094722 C31.7076031,16.7094722 34.7952062,15.3815764 36.3323969,14.8785644 C36.3323969,14.8785644 34.3679381,11.4891555 34.0638402,11.2738776 C34.0638402,11.2738776 30.7229381,12.4039127 29.5970103,13.0253624 L31.7076031,16.7094722 Z" id="Shape"></path>
                    <path d="M36.7269588,14.7454961 L34.4883247,11.1331457 C34.4883247,11.1331457 37.4840722,10.2037579 38.7470876,10.0400352 L38.7317784,14.1233498 L36.7269588,14.7454961 Z" id="Shape"></path>
                    <polygon id="Shape" points="36.9684278 15.1119564 38.7463918 14.5559958 38.7310825 18.4484166"></polygon>
                    <path d="M34.2823454,10.7645954 L32.3972165,8.11855735 C32.3972165,8.11855735 35.5822423,7.13970443 37.1577062,6.87496129 C37.1577062,6.87496129 38.8834794,8.77832512 39.3657216,9.51263899 C39.3657216,9.51263899 35.2370876,10.4266995 34.2823454,10.7645954" id="Shape"></path>
                    <path d="M32.1620103,7.74513019 C32.1620103,7.74513019 35.8752062,6.66665025 36.8167268,6.53776214 C36.8167268,6.53776214 35.4966495,5.15552428 35.0192784,4.82807882 C35.0192784,4.82807882 31.2956443,5.64669247 30.723634,5.88565799 L32.1620103,7.74513019 Z" id="Shape"></path>
                    <path d="M30.3979639,5.55263899 C30.3979639,5.55263899 29.1718299,4.37174525 29.0396134,4.28047854 C29.0396134,4.28047854 31.5419845,3.57612245 32.9170361,3.33924701 C32.9170361,3.33924701 34.368634,4.28047854 34.5940979,4.52501759 C34.5940979,4.52501759 31.2037887,5.28998593 30.3979639,5.55263899" id="Shape"></path>
                    <path d="M32.3986082,3.03827586 C32.3986082,3.03827586 31.6902062,2.63349754 31.4466495,2.56591837 C31.4466495,2.56591837 29.0403093,3.13163265 28.1231443,3.47231527 L28.665232,3.95860662 C28.665232,3.95790992 30.2323454,3.50227305 32.3986082,3.03827586" id="Shape"></path>
                    <path d="M33.4973969,3.23056298 C33.4973969,3.23056298 34.8620103,4.14044335 35.1250515,4.38776918 C35.1250515,4.38776918 38.0985309,3.85410274 39.3650258,3.75029557 C39.3650258,3.75029557 38.3483505,2.81881773 37.726933,2.46559465 C37.7276289,2.46559465 34.2426804,3.07311049 33.4973969,3.23056298" id="Shape"></path>
                    <path d="M33.0047165,2.9240183 C33.0047165,2.9240183 36.4973196,2.2301126 37.2161598,2.14023927 L36.5515979,1.75218156 C36.5515979,1.75218156 33.603866,2.06151302 32.1209536,2.41612949 L33.0047165,2.9240183 Z" id="Shape"></path>
                    <path d="M24.0905412,4.31391977 C24.0905412,4.31391977 26.1614691,3.42772695 27.1134278,3.16646728 L27.3089691,3.34551724 C27.3089691,3.34551724 24.9374227,4.22892329 24.2749485,4.56263899 L24.0905412,4.31391977 Z" id="Shape"></path>
                    <path d="M27.545567,3.02782548 L27.7285825,3.17134412 C27.7285825,3.17134412 29.9359021,2.51087966 30.8509794,2.32068262 C30.8509794,2.32068262 30.4633763,2.12421534 30.3673454,2.12421534 L27.545567,3.02782548 Z" id="Shape"></path>
                    <polygon id="Shape" points="27.1697938 2.71710063 29.7320103 1.91799437 28.800232 1.67763547 26.6959021 2.37154117"></polygon>
                    <polygon id="Shape" points="43.4748711 2.56591837 44.4783247 3.30580577 44.4783247 2.71570725"></polygon>
                    <path d="M38.3191237,2.38617171 C38.3191237,2.38617171 40.6920619,2.16810697 42.5458763,2.44957072 C42.5458763,2.44957072 43.8596907,3.18597467 44.0976804,3.50227305 C44.0976804,3.50227305 42.0065722,3.42772695 39.9307732,3.65136524 L38.3191237,2.38617171 Z" id="Shape"></path>
                    <path d="M40.3100258,4.01294863 L41.9418557,5.75258973 C41.9418557,5.75258973 43.8589948,5.61812808 44.4790206,5.66132301 L44.4790206,3.93073892 C44.4783247,3.93073892 42.6801804,3.68898663 40.3100258,4.01294863" id="Shape"></path>
                    <path d="M39.7442784,4.08679803 C39.7442784,4.08679803 37.6434278,4.28047854 35.5349227,4.72914849 C35.5349227,4.72914849 37.2558247,6.32666432 37.2996649,6.43256158 C37.2996649,6.43256158 39.4742784,5.96926108 41.4303866,5.80902182 C41.4303866,5.80902182 40.2341753,4.47903589 39.7442784,4.08679803" id="Shape"></path>
                    <path d="M42.2730928,6.14761436 C42.2730928,6.14761436 43.9376289,6.04311049 44.4720619,6.07933849 L44.4720619,8.8452076 L44.3969072,8.85705137 C44.3969072,8.85705137 42.7824742,6.73771288 42.2730928,6.14761436" id="Shape"></path>
                    <path d="M43.9459794,8.89954961 C43.9459794,8.89954961 42.2035052,6.49038705 41.7741495,6.17966221 C41.7741495,6.17966221 38.3093814,6.56144968 37.6434278,6.79693174 C37.6434278,6.79693174 39.4102577,8.80967628 39.7971649,9.43321605 C39.7978608,9.43251935 43.0232474,8.95946517 43.9459794,8.89954961" id="Shape"></path>
                    <path d="M39.8639691,9.84635468 C39.8639691,9.84635468 42.5173454,9.31547502 44.4957216,9.25625616 L44.4957216,10.0546657 L39.8639691,9.84635468 Z" id="Shape"></path>
                    <path d="M66.4568814,2.78955665 L63.6385825,10.1236383 C63.6385825,10.1236383 59.1787113,6.87008445 56.0117784,8.36657987 C56.0117784,8.36657987 52.1503608,5.07192118 48.33,3.42703026 C48.33,3.42703026 51.0933247,0.964222379 54.5121649,0.533666432 C57.9421392,0.101717101 59.6352062,0.188106967 63.061701,1.14118227 C63.061701,1.14118227 65.5355412,2.14929627 66.4568814,2.78955665" id="Shape"></path>
                    <path d="M48.0245103,3.72242787 C48.0245103,3.72242787 49.6626031,4.49296974 49.9228608,4.65320901 C49.9228608,4.65320901 48.5144072,4.22683322 48.346701,4.19199859 L47.8561082,3.85340605 L48.0245103,3.72242787 Z" id="Shape"></path>
                    <path d="M47.3940464,4.38149894 L48.1762113,4.55288529 C48.1762113,4.55288529 50.3243814,6.14831105 50.5971649,6.49387051 C50.5971649,6.49387051 48.7301289,6.08630542 47.1136082,5.8194722 L46.6696392,5.31506685 L47.3940464,4.38149894 Z" id="Shape"></path>
                    <path d="M49.3000515,4.88451091 C49.3000515,4.88451091 51.2554639,5.52546798 51.7244845,5.75258973 C51.7244845,5.75258973 53.2888144,6.87008445 53.7988918,7.43022519 L51.3904639,6.68128079 C51.3911598,6.68267417 49.9346907,5.3387544 49.3000515,4.88451091" id="Shape"></path>
                    <polygon id="Shape" points="46.3342268 5.77279381 46.548 5.79536664 46.4611546 5.61812808"></polygon>
                    <path d="M46.1741753,6.11417312 L46.9097165,6.18105559 C46.9097165,6.18105559 48.4232474,8.03356087 48.8519072,8.76369458 C48.8519072,8.76369458 47.2646134,8.66128079 45.1658505,8.78529205 C45.1658505,8.78529205 45.3384278,7.53890922 46.1741753,6.11417312" id="Shape"></path>
                    <path d="M47.5304381,6.31482055 L49.3689433,8.79504574 C49.3689433,8.79504574 52.2241237,9.08486981 53.2345361,9.47083744 C53.2345361,9.47083744 52.7175,8.56095707 51.1775258,7.0414708 C51.1775258,7.0414708 48.3905412,6.40608726 47.5304381,6.31482055" id="Shape"></path>
                    <path d="M51.9214175,7.25535538 C51.9214175,7.25535538 54.0661082,7.87262491 54.4725,8.09208304 L55.4188918,9.15175229 C55.4188918,9.15175229 55.1739433,9.91114708 55.7014175,10.2755172 C55.7014175,10.2755172 53.9951289,9.66660802 53.8531701,9.61505278 C53.8531701,9.61505278 52.3034536,7.53890922 51.9214175,7.25535538" id="Shape"></path>
                    <polygon id="Shape" points="55.3270361 8.45993666 55.6410155 8.83782266 55.7729536 8.6605841"></polygon>
                    <path d="M53.6151804,9.97524279 C53.6151804,9.97524279 52.1009536,9.45481351 49.6500773,9.23465869 C49.6500773,9.23465869 51.3542784,11.9677833 51.8121649,12.9710204 C51.8121649,12.9710204 54.0828093,13.2650246 55.874691,13.8042646 C55.8753866,13.8042646 54.6784794,11.5009993 53.6151804,9.97524279" id="Shape"></path>
                    <polygon id="Shape" points="56.711134 10.7478747 57.1052784 10.9226052 57.0802268 10.8172653"></polygon>
                    <path d="M57.3798711,10.9032372 L58.3290464,11.1303589 L59.2726546,12.2290429 C59.2726546,12.2290429 57.9630155,11.3616608 57.5559278,11.1624068 L57.3798711,10.9032372 Z" id="Shape"></path>
                    <path d="M57.2942784,11.4675581 C57.2942784,11.4675581 55.2108247,10.4148557 54.253299,10.1633498 C54.253299,10.1633498 55.9289691,12.8693033 56.3722423,13.9317593 C56.3722423,13.9317593 58.4508247,14.6054609 59.4438406,15.3251443 C59.4445361,15.3251443 58.5635567,13.2009289 57.2942784,11.4675581" id="Shape"></path>
                    <path d="M58.1098454,11.9399156 C58.1098454,11.9399156 59.8738918,13.1117523 60.4431186,13.7129979 C60.4431186,13.7129979 62.083299,15.8372132 62.7311598,17.919627 C62.7311598,17.919627 61.3129639,16.5561999 60.0763918,15.7264391 C60.0756959,15.7250457 58.5705155,12.4777621 58.1098454,11.9399156" id="Shape"></path>
                    <path d="M59.7312371,15.9528642 C59.7312371,15.9528642 57.9296134,14.8144687 56.615799,14.4347713 C56.615799,14.4347713 58.0680928,18.00114 58.2316237,18.7521745 C58.2316237,18.7521745 59.8738918,19.3555102 61.1306443,20.1309289 C61.1299485,20.1302322 60.3568299,17.1908867 59.7312371,15.9528642" id="Shape"></path>
                    <path d="M60.339433,16.3910837 C60.339433,16.3910837 61.5140722,19.7979099 61.6191495,20.4193596 C61.6191495,20.4193596 63.2836856,21.5591485 63.9858247,22.3875158 C63.9858247,22.3875158 63.3532732,19.5275932 63.061701,18.7974595 C63.0623969,18.7974595 60.9872938,16.775658 60.339433,16.3910837" id="Shape"></path>
                    <polygon id="Shape" points="63.2655928 18.2003941 63.3415825 18.4967166 63.5628711 18.7003941"></polygon>
                    <path d="M63.6726804,19.4203026 L64.0874227,19.9560591 C64.0874227,19.9560591 65.1312371,22.2697748 65.7526546,24.6357424 C65.7526546,24.6357424 64.8932474,23.3196904 64.4917268,22.9211823 C64.4917268,22.9204856 63.9078866,20.123962 63.6726804,19.4203026" id="Shape"></path>
                    <path d="M64.6448196,23.7537298 C64.6448196,23.7537298 65.5411082,24.901879 65.6976804,25.2376847 C65.6976804,25.2376847 65.0776546,26.027734 64.9844072,26.0967065 L64.6448196,23.7537298 Z" id="Shape"></path>
                    <path d="M64.5933247,26.4750106 C64.5933247,26.4750106 64.2829639,23.8401196 64.1375258,23.1343702 C64.1375258,23.1343702 62.4966495,21.3703448 61.7986856,21.0540464 C61.7986856,21.0540464 62.5112629,24.2309641 62.4667268,25.5080014 C62.4667268,25.5080014 63.9656443,26.5363195 64.209201,26.8352006 L64.5933247,26.4750106 Z" id="Shape"></path>
                    <path d="M62.4966495,26.0061365 C62.4966495,26.0061365 63.6803351,26.7954891 63.9078866,27.1034272 C63.9078866,27.1034272 62.8585052,27.9422449 62.5112629,28.053019 L62.4966495,26.0061365 Z" id="Shape"></path>
                    <path d="M62.1027835,25.7476636 C62.1027835,25.7476636 60.3081186,24.7667206 59.2601289,24.4657495 C59.2601289,24.4657495 59.5043814,29.1008445 59.4814175,29.3230894 C59.4814175,29.3230894 60.958067,28.9113441 62.1201804,28.2634201 C62.1194845,28.2627234 62.1535825,26.0681422 62.1027835,25.7476636" id="Shape"></path>
                    <path d="M62.0763402,25.273216 C62.0763402,25.273216 60.5537629,24.4343983 59.2121134,24.0156861 C59.2121134,24.0156861 58.9908247,20.8513089 58.376366,19.2321956 C58.376366,19.2321956 60.3679639,20.0222449 61.2837371,20.6973399 C61.2837371,20.6973399 62.1535825,24.0407671 62.0763402,25.273216" id="Shape"></path>
                    <path d="M58.7876289,23.904912 C58.7876289,23.904912 57.9623196,23.5983673 55.873299,23.2291203 L55.5378866,22.0391696 C55.5378866,22.0391696 56.3924227,21.7806967 56.7125258,21.1550669 C57.0194072,20.5266502 56.8830155,19.4892752 55.7459536,19.197361 C54.6200258,18.9047502 54.4404897,18.9047502 54.4404897,18.9047502 L54.1635309,18.1669529 C54.1635309,18.1669529 56.9185052,18.6281633 57.9212629,19.0503589 C57.920567,19.0510556 58.8286856,21.888684 58.7876289,23.904912" id="Shape"></path>
                    <path d="M55.4175,23.1740816 L55.1481959,22.1513371 C55.1481959,22.1513371 53.5776031,22.5777129 51.1218557,21.6413582 L51.5296392,22.9525334 C51.5303351,22.9525334 54.3528093,22.969254 55.4175,23.1740816" id="Shape"></path>
                    <path d="M51.1315979,22.9574103 L50.6389175,21.4497678 C50.6389175,21.4497678 48.3223454,20.3085855 47.1574485,19.1987544 L46.1741753,21.7535257 L46.7482732,23.3106334 C46.7482732,23.3106334 49.3000515,22.9574103 51.1315979,22.9574103" id="Shape"></path>
                    <path d="M53.7112113,18.1293315 L53.9672938,18.8127868 C53.9672938,18.8127868 51.1865722,18.3759606 50.2464433,17.964912 C50.2464433,17.9656087 52.9332216,17.9948698 53.7112113,18.1293315" id="Shape"></path>
                    <path d="M53.5275,17.6966854 C53.5275,17.6966854 52.1893299,17.5190289 49.5032474,17.586608 C49.5032474,17.586608 47.3481186,13.3953061 47.171366,13.1869951 C47.171366,13.1869951 50.2053866,13.04905 51.5393814,13.336784 C51.5393814,13.336784 53.1552062,16.5171851 53.5275,17.6966854" id="Shape"></path>
                    <path d="M54.0187887,17.7503308 C54.0187887,17.7503308 57.0305412,18.216418 57.7695619,18.5989022 C57.7695619,18.5989022 56.7800258,15.5780436 56.1043299,14.2787122 C56.1043299,14.2787122 53.0376031,13.4315341 52.0515464,13.4064532 C52.0515464,13.4064532 53.7571392,16.9923293 54.0187887,17.7503308" id="Shape"></path>
                    <path d="M46.7176546,13.1869951 L45.3238144,13.2803519 C45.3238144,13.2803519 45.9925515,15.9410204 48.9187113,17.3671499 C48.9180155,17.3671499 47.2416495,13.9665939 46.7176546,13.1869951" id="Shape"></path>
                    <path d="M44.9856186,10.4148557 L46.4935825,12.8045109 L45.2069072,12.8915975 C45.2069072,12.8922942 44.8401804,11.4153061 44.9856186,10.4148557" id="Shape"></path>
                    <path d="M45.0385052,9.73767065 L46.9382474,12.7870936 C46.9382474,12.7870936 48.9006186,12.6686559 51.3257474,12.9480296 C51.3257474,12.9480296 49.6250258,9.71398311 49.1476546,9.20957776 C49.1476546,9.20957776 47.3543814,9.04446165 45.1018299,9.22002815 L45.0385052,9.73767065 Z" id="Shape"></path>
                    <polygon id="Shape" points="46.327268 23.3391977 45.9695876 22.2593244 45.4741237 23.5008304"></polygon>
                    <path d="M51.2659021,23.3566151 C51.2659021,23.3566151 48.6083505,23.3886629 46.9111082,23.7049613 C46.9111082,23.7049613 48.33,28.5253765 48.33,28.6452076 C48.33,28.6452076 49.8010825,28.3741942 52.4134021,28.2961647 C52.4134021,28.2961647 51.8121649,25.0823223 51.2659021,23.3566151" id="Shape"></path>
                    <path d="M46.4671392,23.7572132 L45.298067,23.9731879 L43.9821649,27.2950176 C43.9821649,27.2950176 46.6153608,28.5887755 47.6487371,28.7789726 L47.9291753,28.7239338 C47.9291753,28.7232372 46.9563402,24.9408937 46.4671392,23.7572132" id="Shape"></path>
                    <path d="M48.4893557,29.033962 C48.4893557,29.033962 50.7843557,28.6549613 52.4739433,28.6884025 L52.6750517,29.8226179 C52.6757474,29.8219212 49.275,29.3558339 48.4893557,29.033962" id="Shape"></path>
                    <path d="M52.9019072,28.6751654 C52.9019072,28.6751654 55.7285567,28.7490148 56.3040464,28.9113441 L56.3478866,29.8922871 C56.3478866,29.8922871 54.421701,30.0560099 53.0703093,29.8511823 L52.9019072,28.6751654 Z" id="Shape"></path>
                    <path d="M56.7125258,28.9844968 L56.7250515,29.8511823 C56.7250515,29.8511823 58.3624485,29.6721323 58.910799,29.4714849 C58.9101031,29.4714849 57.9303093,29.2346094 56.7125258,28.9844968" id="Shape"></path>
                    <path d="M59.0840722,29.1078114 C59.0840722,29.1078114 58.1592526,28.8165939 56.6624227,28.5567277 C56.6624227,28.5567277 56.4654897,25.882822 55.9296649,23.6652498 C55.9296649,23.6652498 57.9971134,24.0066291 58.8293814,24.3326812 C58.8286856,24.3333779 59.1126031,28.5156228 59.0840722,29.1078114" id="Shape"></path>
                    <path d="M56.2407216,28.4898452 C56.2407216,28.4898452 54.5142526,28.2815341 52.8225773,28.2669036 C52.8225773,28.2669036 52.0383247,24.5368121 51.6715979,23.3391977 C51.6715979,23.3391977 54.6374227,23.4123505 55.5232732,23.6088177 C55.5225773,23.608121 56.1460825,26.3837438 56.2407216,28.4898452" id="Shape"></path>
                    <path d="M58.9448969,11.2731809 C58.9448969,11.2731809 62.0206701,14.8249191 63.1201546,17.1309711 C63.1201546,17.1309711 64.8633247,19.8508586 66.1437371,24.5465658 C66.1437371,24.5465658 66.9509536,23.2925194 67.2696649,21.4546446 C67.2696649,21.4546446 67.7887887,18.7974595 66.8618814,16.5192752 C66.8618814,16.5192752 65.9134021,13.724145 62.4166237,12.2722379 C62.4159278,12.2729346 60.2427062,11.4327234 58.9448969,11.2731809" id="Shape"></path>
                    <path d="M9.74783505,12.5362843 C9.74783505,12.5362843 9.43051546,13.4217804 9.43051546,13.5102604 C9.43051546,13.5980436 7.12298969,16.4057143 7.12298969,16.4057143 L7.20440722,15.9528642 C7.20440722,15.9528642 9.04708763,13.2636312 9.74783505,12.5362843" id="Shape"></path>
                    <path d="M6.59273196,17.2501056 L6.71311856,16.6021816 C6.71311856,16.6021816 5.79247423,18.2700633 5.73610825,18.4128853 L5.71731959,18.5898452 L6.59273196,17.2501056 Z" id="Shape"></path>
                    <path d="M22.6479897,2.68226601 L22.6479897,0.821400422 L29.4105155,0.821400422 C29.4105155,0.821400422 26.2338402,1.39895848 22.6479897,2.68226601" id="Shape"></path>
                    <polygon id="Shape" points="28.2838918 34.3413652 27.5894072 36.4021816 28.9860309 36.4021816 28.3019845 34.3413652"></polygon>
                    <path d="M0.677087629,39.8213373 L66.7310567,39.8213373 L66.7310567,31.0613371 L0.677087629,31.0613371 L0.677087629,39.8213373 Z M5.80152062,38.8240771 L4.49953608,38.8240771 L1.78561856,32.3269028 L3.6067268,32.3269028 L5.16479381,36.2755234 L6.73747423,32.3269028 L8.56762887,32.3269028 L5.80152062,38.8240771 Z M17.5228608,38.8240771 L15.8478866,38.8240771 L15.8478866,32.3269028 L17.5228608,32.3269028 L17.5228608,38.8240771 Z M29.8670103,38.8240771 L29.4418299,37.6923158 L27.1210825,37.6923158 L26.6861598,38.8240771 L24.8928866,38.8240771 L27.3862113,32.3269028 L29.2205412,32.3269028 L31.6568041,38.8240771 L29.8670103,38.8240771 Z M42.1638402,36.7110843 C42.1638402,38.0839721 41.4533505,38.9989984 40.0233247,38.9989984 C39.3037887,38.9989984 38.7436082,38.6331273 38.3573969,38.0358862 L39.3295361,37.0149315 C39.5181186,37.276268 39.7811598,37.5668742 40.0073196,37.5668742 C40.5013918,37.5668742 40.4784278,36.9696332 40.4784278,36.6079434 L40.4784278,32.3269028 L42.1638402,32.3269028 L42.1638402,36.7110843 Z M53.7654897,33.7590269 L51.7662371,33.7590269 L51.7662371,34.8461868 L53.6652835,34.8461868 L53.6652835,36.2762203 L51.7662371,36.2762203 L51.7662371,37.3975282 L53.7654897,37.3975282 L53.7654897,38.824774 L50.0836082,38.824774 L50.0836082,32.3269028 L53.7654897,32.3269028 L53.7654897,33.7590269 Z M65.4784794,38.383638 C64.9677062,38.8143206 64.2975773,38.9996953 63.6441495,38.9996953 C62.8271907,38.9996953 62.0311082,38.7216332 61.3693299,38.2561058 L62.088866,36.8943683 C62.5112629,37.2651177 63.0081186,37.568268 63.5787371,37.568268 C63.9767784,37.568268 64.3970876,37.3752275 64.3970876,36.9131845 C64.3970876,36.4448694 63.7360052,36.2769172 63.3804124,36.169595 C62.3219845,35.8720198 61.6309794,35.5960484 61.6309794,34.3437238 C61.6309794,33.0217095 62.5641495,32.1547691 63.8598711,32.1547691 C64.5112113,32.1547691 65.3059021,32.3701104 65.8834794,32.6941677 L65.2091753,34.0043348 C64.9015979,33.7409076 64.5112113,33.5701677 64.0943814,33.5701677 C63.7895876,33.5701677 63.3804124,33.7555424 63.3804124,34.1130508 C63.3804124,34.4949505 63.8313402,34.6392083 64.119433,34.7332894 L64.5550515,34.8580341 C65.4478608,35.1319148 66.1534794,35.5897763 66.1534794,36.6386069 C66.1541753,37.2825401 65.9948196,37.9438957 65.4784794,38.383638 Z" id="Shape"></path>
                </g>
            </g>
        </g>
    </g>
</svg>