<?xml version="1.0" encoding="UTF-8"?>
<svg width="90px" height="49px" viewBox="0 0 90 49" version="1.1" xmlns="http://www.w3.org/2000/svg" xmlns:xlink="http://www.w3.org/1999/xlink">
    <!-- Generator: sketchtool 52.2 (67145) - http://www.bohemiancoding.com/sketch -->
    <title>D4F33AC9-9BA2-41EC-8517-683069E4CF04</title>
    <desc>Created with sketchtool.</desc>
    <g id="CHO" stroke="none" stroke-width="1" fill="none" fill-rule="evenodd">
        <g id="0.5_CHO_Error" transform="translate(-31.000000, -128.000000)" fill-rule="nonzero">
            <g id="Illus-error" transform="translate(32.000000, 129.000000)">
                <path d="M65,39 C65,40.6568542 63.6867019,42 62.0666667,42 L23.9333333,42 C22.3132981,42 21,40.6568542 21,39 L21,10 C21,8.34314575 22.3132981,7 23.9333333,7 L62.0666667,7 C63.6867019,7 65,8.34314575 65,10 L65,21.299354" id="Rectangle" fill="#FFFFFF"></path>
                <path d="M24,7 L62,7 C63.6568542,7 65,8.34314575 65,10 L65,15 L21,15 L21,10 C21,8.34314575 22.3431458,7 24,7 Z" id="Rectangle-2" fill="#FCC3C3"></path>
                <circle id="Oval-3" fill="#BA3232" cx="15.5" cy="46.5" r="1.5"></circle>
                <circle id="Oval-3" stroke="#BA3232" stroke-width="0.8" fill="#FCC3C3" cx="11" cy="32" r="3"></circle>
                <path d="M65,39 C65,40.6568542 63.6867019,42 62.0666667,42 L23.9333333,42 C22.3132981,42 21,40.6568542 21,39 L21,10 C21,8.34314575 22.3132981,7 23.9333333,7 L62.0666667,7 C63.6867019,7 65,8.34314575 65,10 L65,21.299354" id="Rectangle" stroke="#BA3232" stroke-linecap="round"></path>
                <path d="M24.5,14.5 L62.5,14.5" id="Line" stroke="#BA3232" stroke-linecap="round"></path>
                <path d="M28.5,21.25 L42.5,21.25" id="Line" stroke-opacity="0.577700408" stroke="#BA5B5B" stroke-linecap="round"></path>
                <path d="M28.5,26.2083333 L56.5,26.2083333" id="Line" stroke-opacity="0.577700408" stroke="#BA5B5B" stroke-linecap="round"></path>
                <path d="M28.5,36.2013889 L56.5,36.2013889" id="Line" stroke-opacity="0.577700408" stroke="#BA5B5B" stroke-linecap="round"></path>
                <path d="M28.5,31.2013889 L55.5,31.2013889" id="Line" stroke-opacity="0.577700408" stroke="#BA5B5B" stroke-linecap="round"></path>
                <circle id="Oval" fill="#BA3232" cx="26" cy="11" r="1"></circle>
                <circle id="Oval-2" fill="#BA3232" cx="65.5" cy="30.5" r="6.5"></circle>
                <g id="Group" transform="translate(62.000000, 27.000000)" stroke="#FFFFFF" stroke-linecap="round">
                    <path d="M0.5,0.5 L6.5,6.5" id="Line-2"></path>
                    <path d="M0.5,6.5 L6.5,0.5" id="Line-3"></path>
                </g>
                <g id="Group" transform="translate(4.242641, 42.242641) rotate(45.000000) translate(-4.242641, -42.242641) translate(1.242641, 39.242641)" stroke="#BA3232" stroke-linecap="round" stroke-width="2">
                    <path d="M0.428571429,0.428571429 L5.57142857,5.57142857" id="Line-2"></path>
                    <path d="M0.428571429,5.57142857 L5.57142857,0.428571429" id="Line-3"></path>
                </g>
                <circle id="Oval-3" fill="#BA3232" cx="82.5" cy="16.5" r="1.5"></circle>
                <circle id="Oval-3" stroke="#BA3232" stroke-width="0.8" fill="#FCC3C3" cx="75" cy="10" r="2"></circle>
                <g id="Group" transform="translate(84.828427, 2.828427) rotate(45.000000) translate(-84.828427, -2.828427) translate(82.828427, 0.828427)" stroke="#BA3232" stroke-linecap="round" stroke-width="2">
                    <path d="M0.285714286,0.285714286 L3.71428571,3.71428571" id="Line-2"></path>
                    <path d="M0.285714286,3.71428571 L3.71428571,0.285714286" id="Line-3"></path>
                </g>
                <circle id="Oval" fill="#BA3232" cx="29" cy="11" r="1"></circle>
                <circle id="Oval" fill="#BA3232" cx="32" cy="11" r="1"></circle>
            </g>
        </g>
    </g>
</svg>