<?xml version="1.0" encoding="UTF-8"?>
<svg width="100px" height="52px" viewBox="0 0 100 52" version="1.1" xmlns="http://www.w3.org/2000/svg" xmlns:xlink="http://www.w3.org/1999/xlink">
    <!-- Generator: sketchtool 51.1 (57501) - http://www.bohemiancoding.com/sketch -->
    <title>B0D32118-F1B3-4715-9479-04E73732112D</title>
    <desc>Created with sketchtool.</desc>
    <defs></defs>
    <g id="Home" stroke="none" stroke-width="1" fill="none" fill-rule="evenodd" opacity="0.6">
        <g id="0.0_Home" transform="translate(0.000000, -1751.000000)" fill="#FFFFFF">
            <path d="M65.2524977,1765.78242 C65.0634379,1765.64506 64.949759,1765.41447 64.9725484,1765.16327 C65.0076002,1764.7841 65.342859,1764.50156 65.7219617,1764.53404 C67.2408544,1764.66406 68.6566307,1765.02371 69.9292018,1765.60267 C70.2757401,1765.75949 70.4255893,1766.16949 70.2670838,1766.51628 C70.1072087,1766.86379 69.6987609,1767.01787 69.3526293,1766.86049 C68.2229213,1766.34682 66.9587937,1766.02635 65.5955211,1765.91016 C65.4669429,1765.89887 65.3498079,1765.85312 65.2524977,1765.78242 Z M74.2910083,1773.65473 C74.1380923,1773.54363 74.03185,1773.37063 74.0122093,1773.1673 C73.9308924,1772.34257 73.7169588,1771.53784 73.3764722,1770.77633 C73.1993382,1770.37816 72.9855892,1769.9953 72.7427936,1769.6384 C72.528752,1769.32377 72.6107497,1768.89402 72.9257124,1768.67801 C73.2406751,1768.462 73.6708006,1768.54353 73.8828755,1768.85501 C74.1716776,1769.27956 74.4240288,1769.73324 74.6346931,1770.20453 C75.0361911,1771.1019 75.2882178,1772.05066 75.3830001,1773.0229 C75.420028,1773.40225 75.1434685,1773.74198 74.7646702,1773.78158 C74.5893071,1773.7996 74.4227941,1773.75048 74.2910083,1773.65473 Z M56.6620665,1767.79296 C56.5908911,1767.74125 56.5282175,1767.67433 56.4797145,1767.59375 C56.2833292,1767.26885 56.3872971,1766.84394 56.7132054,1766.64444 C56.9611251,1766.49264 57.2143479,1766.34641 57.4716533,1766.20741 C58.4680032,1765.66863 59.555456,1765.24651 60.7053571,1764.9536 C61.0738712,1764.86034 61.4481891,1765.08182 61.5396931,1765.45285 C61.6308986,1765.82195 61.4063101,1766.19772 61.0364263,1766.2917 C59.9967241,1766.55689 59.0158618,1766.93754 58.1196051,1767.42158 C57.8842142,1767.54912 57.6531635,1767.68238 57.4254901,1767.82151 C57.1807165,1767.97132 56.8800414,1767.95133 56.6620665,1767.79296 Z M95.0084121,1796.96636 C94.9083217,1796.89364 94.8266455,1796.79324 94.7769455,1796.66987 C94.6345329,1796.31746 94.8049,1795.91341 95.157502,1795.76838 C96.4370727,1795.24203 97.7085191,1794.70465 98.9737815,1794.16876 C99.3259358,1794.02084 99.7293383,1794.18475 99.8750463,1794.53613 C100.021161,1794.88696 99.8549439,1795.29231 99.5033457,1795.44064 C98.2334182,1795.97827 96.9573068,1796.51739 95.674034,1797.04532 C95.4439022,1797.1399 95.1946916,1797.1017 95.0084121,1796.96636 Z M71.4172787,1781.94368 C71.4094939,1781.93803 71.4021158,1781.93181 71.3948871,1781.92656 C71.0968926,1781.69123 71.0473562,1781.25659 71.2842922,1780.95738 C71.4146321,1780.79201 71.5402659,1780.62494 71.6631194,1780.45584 C72.3479127,1779.51448 72.897142,1778.5422 73.2951323,1777.56526 C73.4392212,1777.21141 73.8415378,1777.04005 74.1936893,1777.18213 C74.5408364,1777.32057 74.7140517,1777.7253 74.570112,1778.08011 C74.1295336,1779.16127 73.5255239,1780.23233 72.7752358,1781.26384 C72.6418055,1781.44749 72.5047813,1781.63025 72.3627526,1781.80936 C72.131661,1782.1017 71.7136577,1782.15902 71.4172787,1781.94368 Z M86.6032604,1800.11926 C86.4892685,1800.03644 86.3999421,1799.9185 86.3536984,1799.77283 C86.2388693,1799.41052 86.4391815,1799.02139 86.802296,1798.90281 C88.0338965,1798.5033 89.303669,1798.05709 90.6818872,1797.53997 C91.0390197,1797.40507 91.4353311,1797.58693 91.5660811,1797.9437 C91.6977939,1798.30031 91.5146785,1798.69852 91.1579529,1798.83285 C89.7591487,1799.35726 88.4705669,1799.80948 87.2183805,1800.21628 C87.0009268,1800.28756 86.7745264,1800.24369 86.6032604,1800.11926 Z M50.564546,1774.27009 C50.2881851,1774.0693 50.1994467,1773.68745 50.3702557,1773.37868 C50.7573797,1772.68214 51.1867905,1772.00692 51.6485082,1771.37142 C52.0280524,1770.84902 52.4359146,1770.34377 52.8597416,1769.87151 C53.1147699,1769.58715 53.5467713,1769.55968 53.8333081,1769.81663 C54.1149897,1770.0709 54.1371182,1770.50701 53.8820898,1770.79137 C53.4888548,1771.22854 53.1120997,1771.69565 52.7606247,1772.17941 C52.3322645,1772.769 51.932875,1773.39589 51.5746601,1774.04329 C51.3885829,1774.37775 50.9692832,1774.49999 50.6367516,1774.3157 C50.6115124,1774.3025 50.5873444,1774.28665 50.564546,1774.27009 Z M64.399862,1787.43594 C64.3092245,1787.37009 64.2337469,1787.28103 64.1828412,1787.17219 C64.0217685,1786.82675 64.1717926,1786.41562 64.5165952,1786.25209 C64.9019724,1786.07013 65.2828192,1785.87804 65.6587288,1785.67636 C66.4436773,1785.25432 67.2153565,1784.75933 67.9510381,1784.20396 C68.2560591,1783.97474 68.6885288,1784.03316 68.9154124,1784.3383 C69.1432588,1784.64328 69.0804509,1785.07586 68.7750232,1785.30564 C67.9822373,1785.90335 67.1503752,1786.43674 66.3039413,1786.89196 C65.9066732,1787.10549 65.5043187,1787.30848 65.0982474,1787.50021 C64.862394,1787.61202 64.5961506,1787.57855 64.399862,1787.43594 Z M77.9029377,1802.26468 C77.7594747,1802.16045 77.6562849,1802.00079 77.6283999,1801.81114 C77.5719656,1801.43394 77.8312873,1801.08169 78.2075072,1801.02226 C79.4997446,1800.81993 80.846019,1800.54907 82.2070026,1800.21703 C82.5784462,1800.12675 82.9484385,1800.35536 83.0361994,1800.72452 C83.1237027,1801.09521 82.894815,1801.46872 82.5243342,1801.55884 C81.1262469,1801.89985 79.7421635,1802.17831 78.4114118,1802.38688 C78.2248749,1802.4156 78.0436205,1802.36689 77.9029377,1802.26468 Z M48.1690352,1782.84917 C47.9905405,1782.71949 47.8781786,1782.50697 47.8858344,1782.26957 C47.9351878,1780.85456 48.1453531,1779.42634 48.5111532,1778.0248 C48.6079245,1777.6554 48.9839951,1777.43246 49.3523893,1777.52645 C49.7216382,1777.62278 49.9405263,1777.99739 49.8441617,1778.36623 C49.5044729,1779.66869 49.3086743,1780.99527 49.2637605,1782.30829 C49.2502311,1782.68941 48.9315867,1782.99001 48.5509534,1782.97951 C48.4077158,1782.97553 48.2763544,1782.92714 48.1690352,1782.84917 Z M8.23994747,1754.33174 C7.97359559,1754.13823 7.87857963,1753.7732 8.03150115,1753.46684 C8.20164288,1753.12508 8.61603173,1752.98387 8.95650903,1753.15254 C10.1186617,1753.72913 11.2815578,1754.438 12.4142484,1755.26095 L12.568575,1755.37479 C12.8734851,1755.60059 12.9351318,1756.03377 12.7076488,1756.33985 C12.4809794,1756.64482 12.0535787,1756.71156 11.7494149,1756.49057 L11.7432982,1756.48613 L11.5945322,1756.37633 C10.5296807,1755.60267 9.4331311,1754.93344 8.33906045,1754.39177 C8.30370393,1754.37379 8.27053067,1754.35396 8.23994747,1754.33174 Z M55.8070665,1789.87421 C55.6569308,1789.76513 55.5511363,1789.59502 55.5294616,1789.39449 C55.4876194,1789.01592 55.7601372,1788.6724 56.1383385,1788.62894 C57.4810015,1788.4718 58.8134038,1788.21653 60.1011809,1787.87066 C60.4674298,1787.77233 60.8451513,1787.9903 60.9421339,1788.35846 C61.0381537,1788.72678 60.8174576,1789.10538 60.4502458,1789.20387 C59.0972256,1789.56821 57.6975726,1789.83536 56.2893942,1789.99965 C56.1110342,1790.02063 55.9410766,1789.97157 55.8070665,1789.87421 Z M18.1386157,1762.70751 C18.0924628,1762.67398 18.0494151,1762.63501 18.0122119,1762.58916 C17.1112655,1761.49401 16.1970763,1760.47907 15.2951965,1759.57231 C15.0269803,1759.30302 15.0289642,1758.86646 15.299454,1758.59589 C15.5695369,1758.32589 16.0098674,1758.32672 16.2733776,1758.59431 C17.2060718,1759.53116 18.1498551,1760.57786 19.0776561,1761.7062 C19.3184528,1761.99921 19.2763537,1762.43485 18.9814238,1762.67825 C18.7334543,1762.8839 18.3860616,1762.88729 18.1386157,1762.70751 Z M68.9767575,1802.60094 C68.7843614,1802.46116 68.6699362,1802.22575 68.6982042,1801.97168 C68.7380703,1801.59173 69.0778185,1801.31588 69.4562979,1801.3539 C70.4595639,1801.45576 71.4699182,1801.50459 72.4579862,1801.49874 C72.8026397,1801.49678 73.1480657,1801.49025 73.4916334,1801.47809 C73.8728345,1801.46676 74.1891965,1801.76334 74.199522,1802.14553 C74.2095489,1802.5258 73.9095939,1802.84511 73.5292474,1802.85877 C73.1723081,1802.87063 72.8151784,1802.87806 72.4567464,1802.88027 C71.4197483,1802.88565 70.3601653,1802.83441 69.3092978,1802.72792 C69.1844218,1802.71504 69.0712874,1802.66962 68.9767575,1802.60094 Z M-0.388401302,1752.32397 C-0.560223287,1752.19914 -0.67220473,1751.99544 -0.671206939,1751.76605 C-0.670493154,1751.38503 -0.36078673,1751.07452 0.0199812157,1751.07313 C1.46312114,1751.0677 2.87257286,1751.20803 4.20899381,1751.48863 C4.5791499,1751.5685 4.8441469,1751.93812 4.7650465,1752.31009 C4.68594611,1752.68207 4.35012833,1752.92912 3.97864356,1752.85342 L4.11958612,1752.17648 L3.97049292,1752.85177 C3.96289834,1752.85053 3.90817638,1752.83815 3.9005818,1752.83691 C2.67523197,1752.57883 1.36265139,1752.449 0.0157036227,1752.45418 C-0.135751909,1752.45449 -0.275521486,1752.40598 -0.388401302,1752.32397 Z M23.3580969,1769.96263 C23.2941502,1769.91617 23.2368206,1769.85826 23.1910716,1769.78909 C22.5031013,1768.7563 21.7011185,1767.55768 20.8818336,1766.38756 C20.6638323,1766.07605 20.7397544,1765.6453 21.0516383,1765.42534 C21.3637797,1765.20386 21.7927521,1765.28113 22.0111192,1765.58863 C22.8392337,1766.77116 23.6464113,1767.97782 24.3383149,1769.0169 C24.5496172,1769.33296 24.4630627,1769.76197 24.1457265,1769.9754 C23.8985267,1770.14141 23.5844126,1770.12706 23.3580969,1769.96263 Z M46.8927239,1789.54753 C46.68309,1789.39522 46.5694081,1789.12956 46.6235094,1788.85747 C46.6977545,1788.48282 47.0595022,1788.2375 47.4332785,1788.30889 C47.8823363,1788.39476 48.3352718,1788.47062 48.7904169,1788.53525 C48.6466288,1788.1134 48.518463,1787.68408 48.4078861,1787.25044 C48.3141989,1786.88124 48.537526,1786.5037 48.9055924,1786.40754 C49.2742148,1786.31179 49.6494955,1786.53311 49.7434403,1786.90078 C49.9008608,1787.51903 50.0967546,1788.12758 50.3268079,1788.71134 C50.6959836,1788.74345 51.0660401,1788.76851 51.4354586,1788.78625 C51.8157671,1788.80421 52.1068256,1789.1286 52.0858508,1789.50944 C52.0648761,1789.89029 51.7402234,1790.18395 51.3603217,1790.16543 C51.2311202,1790.15967 51.1021762,1790.15239 50.973639,1790.14455 C51.0465852,1790.28737 51.1210502,1790.43044 51.1986614,1790.57152 C51.3810925,1790.9051 51.2576363,1791.32526 50.9235627,1791.51028 C50.5890824,1791.69586 50.1716877,1791.57225 49.9885922,1791.24075 C49.7681149,1790.83676 49.5628121,1790.4224 49.3735795,1790.00347 C48.6309816,1789.91819 47.8934264,1789.80493 47.1650636,1789.66498 C47.0638113,1789.64531 46.9711281,1789.60449 46.8927239,1789.54753 Z M60.3540979,1800.35264 C60.0983111,1800.1668 59.9981297,1799.81941 60.1323501,1799.51657 C60.2875192,1799.16735 60.6950715,1799.00749 61.0425317,1799.1607 C62.2485251,1799.69215 63.5242451,1800.14167 64.8344173,1800.49815 C65.2016321,1800.59728 65.4158962,1800.97708 65.313456,1801.34494 C65.2115718,1801.71319 64.8317172,1801.93081 64.4653159,1801.83057 C63.0898977,1801.45747 61.7488496,1800.98445 60.4813386,1800.42541 C60.4353497,1800.40569 60.393022,1800.38092 60.3540979,1800.35264 Z M28.4558571,1777.3081 C28.4030316,1777.26972 28.3554944,1777.22406 28.3135032,1777.1696 C27.5622858,1776.1841 26.7670782,1775.08023 25.881915,1773.79381 C25.6662462,1773.48142 25.7465758,1773.05046 26.0604263,1772.83364 C26.3745345,1772.6153 26.8028015,1772.6912 27.017806,1773.00567 C27.8896501,1774.273 28.672244,1775.35915 29.4106984,1776.32597 C29.6409856,1776.62759 29.5823277,1777.06147 29.2798295,1777.29424 C29.0311401,1777.48568 28.6955182,1777.48222 28.4558571,1777.3081 Z M55.8444167,1797.78022 C54.7845697,1797.01019 53.8070076,1796.15966 52.9387605,1795.25338 C52.6761312,1794.97873 52.6859672,1794.54189 52.96176,1794.27689 C53.237146,1794.01245 53.6754835,1794.01953 53.9360378,1794.29352 C54.7484742,1795.14214 55.6643402,1795.93845 56.6580162,1796.66039 L56.9669943,1796.8806 L56.9758913,1796.88707 C57.2794991,1797.10765 57.3487667,1797.53267 57.1316585,1797.84202 C56.9117027,1798.15529 56.4812379,1798.23092 56.1711887,1798.01335 L55.8444167,1797.78022 Z M38.5157213,1786.52728 C38.2382482,1786.32569 38.1503235,1785.94272 38.3220953,1785.63379 C38.5083218,1785.3003 38.9283268,1785.17942 39.2608584,1785.36371 C40.4192738,1786.00859 41.6473076,1786.57402 42.910051,1787.0449 C43.2677485,1787.17817 43.4451401,1787.57482 43.3110192,1787.93248 C43.1763423,1788.28974 42.7787055,1788.4722 42.4230829,1788.33958 C41.0954182,1787.84463 39.8046055,1787.24984 38.5854451,1786.57281 C38.5610195,1786.55848 38.5379636,1786.54344 38.5157213,1786.52728 Z M34.5494812,1783.81845 C34.5378039,1783.80996 34.5265335,1783.80092 34.5152631,1783.79187 C33.4696073,1782.92865 32.468196,1781.98465 31.4547036,1780.90526 C31.1948136,1780.62918 31.2094639,1780.19156 31.4872234,1779.9297 C31.7653896,1779.66728 32.1999167,1779.67843 32.4609188,1779.95532 C33.4346179,1780.99125 34.3950565,1781.89693 35.3956306,1782.72398 C35.6881875,1782.96562 35.7293156,1783.40014 35.4858562,1783.69548 C35.2519024,1783.9789 34.8408557,1784.03014 34.5494812,1783.81845 Z M-9.17215945,1753.93057 C-9.28337109,1753.84977 -9.37184292,1753.73416 -9.41845239,1753.59251 C-9.53890946,1753.2321 -9.3430457,1752.83973 -8.98204718,1752.71705 C-7.59281305,1752.24557 -6.22172975,1751.87041 -4.90560243,1751.60245 C-4.53206915,1751.52566 -4.17072791,1751.76852 -4.0967046,1752.14139 C-4.02349489,1752.51538 -4.26669089,1752.87934 -4.63981737,1752.95557 C-5.89847172,1753.21224 -7.21379122,1753.57146 -8.54756005,1754.02507 C-8.7676038,1754.09874 -8.99811323,1754.05702 -9.17215945,1753.93057 Z M-17.3270378,1757.66395 C-17.4037739,1757.6082 -17.4691195,1757.53677 -17.5186672,1757.44944 C-17.7069838,1757.11929 -17.5922343,1756.69707 -17.260982,1756.50659 C-16.043728,1755.80408 -14.789379,1755.14991 -13.5323258,1754.56101 C-13.1866687,1754.3998 -12.7775446,1754.54649 -12.6186551,1754.89376 C-12.4591014,1755.23895 -12.6100883,1755.65023 -12.9561522,1755.81199 C-14.1778519,1756.38381 -15.3965898,1757.01937 -16.5794941,1757.70149 C-16.8227224,1757.84215 -17.1151796,1757.81787 -17.3270378,1757.66395 Z M-24.6753033,1762.82344 C-24.720344,1762.79072 -24.7613168,1762.75239 -24.7982215,1762.70847 C-25.0417575,1762.4169 -25.0021402,1761.98116 -24.7095837,1761.73519 C-23.6387165,1760.83308 -22.5202858,1759.96723 -21.3865664,1759.15869 C-21.0755371,1758.9364 -20.645277,1759.00605 -20.4265704,1759.31894 C-20.2077555,1759.62933 -20.2821586,1760.06033 -20.5927812,1760.28206 C-21.695894,1761.06835 -22.7850878,1761.91266 -23.8281287,1762.7905 C-24.0756504,1762.99905 -24.4261892,1763.00443 -24.6753033,1762.82344 Z M-31.0407034,1769.16411 C-31.0546048,1769.15401 -31.0686555,1769.14295 -31.0822995,1769.13132 C-31.3716019,1768.8852 -31.4050272,1768.44944 -31.1579329,1768.15845 C-30.2521916,1767.09189 -29.2962704,1766.0498 -28.3154729,1765.06001 C-28.0466514,1764.78823 -27.6099147,1764.78816 -27.3413327,1765.05345 C-27.0723029,1765.32162 -27.071805,1765.75828 -27.3411826,1766.02965 C-28.2967849,1766.99412 -29.2286229,1768.01007 -30.1109864,1769.04914 C-30.3463918,1769.32637 -30.7526652,1769.37338 -31.0407034,1769.16411 Z M-36.2814434,1776.4639 C-36.5661452,1776.25705 -36.6500839,1775.86158 -36.4637199,1775.55128 C-35.7450307,1774.35395 -34.9714703,1773.16996 -34.1656702,1772.03164 C-33.9446023,1771.71918 -33.5145443,1771.64411 -33.2041965,1771.8636 C-32.9272239,1772.08109 -32.8227227,1772.51374 -33.0433838,1772.82564 C-33.8294,1773.93556 -34.5833257,1775.09019 -35.2844552,1776.25751 C-35.4809482,1776.58525 -35.9049686,1776.69294 -36.229771,1776.49802 C-36.2482292,1776.48718 -36.2653177,1776.47562 -36.2814434,1776.4639 Z M-40.2568526,1784.52218 C-40.5042985,1784.3424 -40.6088318,1784.01153 -40.4908307,1783.7123 C-39.9794927,1782.41564 -39.410667,1781.12054 -38.8003126,1779.86418 C-38.6335072,1779.51999 -38.2206782,1779.37509 -37.8783162,1779.53999 C-37.5336216,1779.70402 -37.3950283,1780.11782 -37.5619829,1780.46104 C-38.1574087,1781.68634 -38.7116042,1782.94843 -39.209275,1784.21225 C-39.349214,1784.56739 -39.7502281,1784.74398 -40.1037084,1784.60607 C-40.1589601,1784.5839 -40.2106998,1784.55571 -40.2568526,1784.52218 Z M-42.82005,1793.12743 C-43.0313521,1792.97391 -43.1447764,1792.70672 -43.0888987,1792.43336 C-42.8106484,1791.07515 -42.4704094,1789.70294 -42.0774005,1788.35282 C-41.9708104,1787.98628 -41.5886905,1787.77372 -41.2226551,1787.87798 C-40.8558061,1787.98111 -40.6483903,1788.3645 -40.7548312,1788.73201 C-41.1372516,1790.04534 -41.4682718,1791.38147 -41.7385646,1792.70183 C-41.8148847,1793.07583 -42.1799687,1793.31873 -42.5526739,1793.2447 C-42.6520004,1793.22472 -42.7427579,1793.18359 -42.82005,1793.12743 Z M-43.8061151,1801.61415 C-43.9829417,1801.48568 -44.0954118,1801.27564 -44.0895325,1801.03953 C-44.0547301,1799.79188 -43.9703889,1798.52632 -43.8399504,1797.278 C-43.8004911,1796.89861 -43.4610414,1796.62084 -43.0831181,1796.65845 C-42.704788,1796.6955 -42.4298259,1797.03386 -42.4692852,1797.41325 C-42.5972448,1798.62658 -42.6787005,1799.85659 -42.7117293,1801.06789 C-42.7222209,1801.44951 -43.038641,1801.75172 -43.4193826,1801.74371 C-43.5643967,1801.74101 -43.6976838,1801.69293 -43.8061151,1801.61415 Z" id="Fill-65"></path>
        </g>
    </g>
</svg>