<svg aria-hidden="true" style="position: absolute; width: 0; height: 0; overflow: hidden;" version="1.1" xmlns="http://www.w3.org/2000/svg" xmlns:xlink="http://www.w3.org/1999/xlink">
<defs>
<symbol id="icon-facebook" viewBox="0 0 32 32">
<title>icon-facebook</title>
<path fill="#fff" d="M30.234 32c0.975 0 1.766-0.791 1.766-1.766v-28.468c0-0.976-0.791-1.766-1.766-1.766h-28.468c-0.976 0-1.766 0.791-1.766 1.766v28.468c0 0.975 0.791 1.766 1.766 1.766h28.468z"></path>
<path fill="#4a4a4a" d="M22.853 32v-12.164h4.324l0.647-4.741h-4.972v-3.027c0-1.373 0.404-2.308 2.488-2.308l2.659-0.001v-4.24c-0.46-0.058-2.038-0.187-3.874-0.187-3.833 0-6.457 2.209-6.457 6.266v3.496h-4.335v4.741h4.335v12.164h5.185z"></path>
</symbol>
<symbol id="icon-instagram" viewBox="0 0 32 32">
<title>icon-instagram</title>
<path fill="#fff" stroke="#fff" stroke-width="2.6667" stroke-miterlimit="4" stroke-linecap="butt" stroke-linejoin="miter" d="M5.333 1.333h21.26c2.209 0 4 1.791 4 4v21.26c0 2.209-1.791 4-4 4h-21.26c-2.209 0-4-1.791-4-4v-21.26c0-2.209 1.791-4 4-4z"></path>
<path fill="none" stroke="#4a4a4a" stroke-width="2.6667" stroke-miterlimit="4" stroke-linecap="butt" stroke-linejoin="miter" d="M15.963 9.315v0c3.672 0 6.648 2.977 6.648 6.648v0c0 3.672-2.977 6.648-6.648 6.648v0c-3.672 0-6.648-2.977-6.648-6.648v0c0-3.672 2.977-6.648 6.648-6.648z"></path>
<path fill="#4a4a4a" d="M25.596 6v0c0.882 0 1.596 0.715 1.596 1.596v0c0 0.882-0.715 1.596-1.596 1.596v0c-0.882 0-1.596-0.715-1.596-1.596v0c0-0.882 0.715-1.596 1.596-1.596z"></path>
</symbol>
<symbol id="icon-linkedin" viewBox="0 0 32 32">
<title>icon-linkedin</title>
<path fill="#fff" d="M2.667 0h26.667c1.473 0 2.667 1.194 2.667 2.667v26.667c0 1.473-1.194 2.667-2.667 2.667h-26.667c-1.473 0-2.667-1.194-2.667-2.667v-26.667c0-1.473 1.194-2.667 2.667-2.667z"></path>
<path fill="#4a4a4a" d="M5.871 13.507h4.158v14.491h-4.158v-14.491zM7.844 11.695h-0.030c-1.505 0-2.481-1.108-2.481-2.511 0-1.431 1.005-2.517 2.54-2.517 1.534 0 2.477 1.083 2.507 2.513 0 1.403-0.973 2.515-2.536 2.515v0zM26.667 28h-4.715v-7.5c0-1.963-0.738-3.302-2.359-3.302-1.241 0-1.93 0.903-2.252 1.776-0.12 0.311-0.102 0.747-0.102 1.184v7.842h-4.671c0 0 0.060-13.285 0-14.493h4.671v2.274c0.276-0.994 1.769-2.414 4.151-2.414 2.955 0 5.277 2.086 5.277 6.573v8.059z"></path>
</symbol>
<symbol id="icon-twitter" viewBox="0 0 32 32">
<title>icon-twitter</title>
<path fill="#fff" d="M2.667 0h26.667c1.473 0 2.667 1.194 2.667 2.667v26.667c0 1.473-1.194 2.667-2.667 2.667h-26.667c-1.473 0-2.667-1.194-2.667-2.667v-26.667c0-1.473 1.194-2.667 2.667-2.667z"></path>
<path fill="#4a4a4a" d="M25.487 9.618c0.904-0.582 1.598-1.506 1.923-2.606-0.846 0.541-1.782 0.932-2.78 1.143-0.796-0.917-1.935-1.488-3.194-1.488-2.417 0-4.375 2.11-4.375 4.712 0 0.369 0.036 0.729 0.111 1.073-3.636-0.197-6.861-2.071-9.021-4.923-0.377 0.698-0.592 1.507-0.592 2.37 0 1.634 0.773 3.076 1.947 3.923-0.717-0.024-1.392-0.239-1.983-0.589v0.058c0 2.284 1.508 4.189 3.512 4.62-0.368 0.111-0.754 0.166-1.155 0.166-0.282 0-0.557-0.028-0.823-0.084 0.556 1.871 2.173 3.236 4.088 3.272-1.499 1.265-3.386 2.017-5.436 2.017-0.353 0-0.702-0.020-1.044-0.065 1.937 1.336 4.237 2.117 6.709 2.117 8.052 0 12.452-7.18 12.452-13.407 0-0.205-0.003-0.409-0.011-0.609 0.855-0.665 1.599-1.495 2.184-2.44-0.785 0.375-1.629 0.628-2.513 0.742z"></path>
</symbol>
<symbol id="icon-youtube" viewBox="0 0 32 32">
<title>icon-youtube</title>
<path fill="#fff" d="M32 21.569v-11.405c0 0 0-5.497-5.515-5.497h-20.973c0 0-5.513 0-5.513 5.497v11.405c0 0 0 5.497 5.513 5.497h20.973c0 0 5.515 0 5.515-5.497zM22.213 15.883l-10.476 6.133v-12.268l10.476 6.135z"></path>
</symbol>
</defs>
</svg>
