<svg aria-hidden="true" style="position: absolute; width: 0; height: 0; overflow: hidden;" version="1.1" xmlns="http://www.w3.org/2000/svg" xmlns:xlink="http://www.w3.org/1999/xlink">
<defs>
<symbol id="icon-add" viewBox="0 0 32 32">
<title>icon-add</title>
<path d="M16 0.762c-8.411 0-15.238 6.827-15.238 15.238s6.827 15.238 15.238 15.238c8.411 0 15.238-6.827 15.238-15.238s-6.827-15.238-15.238-15.238v0zM23.619 17.524h-6.095v6.095h-3.048v-6.095h-6.095v-3.048h6.095v-6.095h3.048v6.095h6.095v3.048z"></path>
</symbol>
<symbol id="icon-cars" viewBox="0 0 32 32">
<title>icon-cars</title>
<path d="M28.047 11.912h-0.159c-0.020-0.154-0.057-0.312-0.132-0.478l-2.555-5.659c-0.244-0.541-0.905-0.701-1.737-0.96 0 0-3.58-0.815-7.232-0.815-3.802 0-7.683 0.815-7.683 0.815-0.793 0.225-1.327 0.243-1.699 0.96l-2.335 5.659c-0.069 0.165-0.099 0.324-0.113 0.478h-0.314c-1.188 0-2.309 1.466-2.052 2.681l1.584 7.496v3.772c0 0.491 0.401 0.889 0.896 0.889h2.379c0.495 0 0.896-0.398 0.896-0.889v-1.421h16.174v1.421c0 0.491 0.401 0.889 0.896 0.889h2.38c0.495 0 0.896-0.398 0.896-0.889v-3.937l1.808-7.332c0.3-1.215-0.711-2.681-1.899-2.681zM7.976 11.281l1.452-3.323c0.161-0.391 0.582-0.574 1.228-0.694 0 0 2.804-0.589 5.552-0.589 2.639 0 5.225 0.589 5.225 0.589 0.675 0.12 1.079 0.303 1.255 0.694l1.612 3.323c0.301 0.665-0.063 1.050-0.769 1.239 0 0-3.849 1.066-7.644 1.066-3.689 0-7.327-1.066-7.327-1.066-0.717-0.302-0.857-0.574-0.583-1.239zM7.087 18.371c-0.95 0-1.72-0.765-1.72-1.707s0.77-1.707 1.72-1.707c0.95 0 1.72 0.764 1.72 1.707s-0.77 1.707-1.72 1.707zM21.567 20.19c-0.299 0.697-1.076 1.208-1.765 1.208h-7.176c-0.688 0-1.465-0.511-1.764-1.208-0.337-0.785 0.051-1.498 0.904-1.498h8.897c0.854 0 1.241 0.713 0.905 1.498zM25.143 18.371c-0.95 0-1.72-0.765-1.72-1.707s0.77-1.707 1.72-1.707c0.95 0 1.72 0.764 1.72 1.707s-0.77 1.707-1.72 1.707z"></path>
</symbol>
<symbol id="icon-cruises" viewBox="0 0 32 32">
<title>icon-cruises</title>
<path d="M28.207 27.693c-0.375-0.352-0.969-0.336-1.324 0.036-0.123 0.129-0.271 0.233-0.437 0.305-0.15 0.065-0.316 0.101-0.499 0.101-0.18 0-0.348-0.036-0.499-0.102-0.165-0.070-0.314-0.174-0.436-0.306-0.158-0.165-0.331-0.313-0.518-0.441l3.050-11.762c0.033-0.126 0.016-0.244-0.052-0.356-0.066-0.111-0.164-0.181-0.29-0.213l-10.837-2.672c-0.077-0.019-0.149-0.019-0.227 0l-10.835 2.672c-0.128 0.032-0.225 0.103-0.291 0.215-0.068 0.111-0.084 0.229-0.053 0.355l3.048 11.762c-0.187 0.128-0.36 0.277-0.518 0.441-0.122 0.131-0.271 0.235-0.436 0.306-0.151 0.066-0.318 0.102-0.499 0.102-0.182 0-0.349-0.036-0.499-0.101-0.166-0.072-0.314-0.176-0.437-0.305-0.356-0.371-0.949-0.388-1.324-0.036-0.376 0.352-0.392 0.94-0.037 1.312 0.299 0.313 0.655 0.564 1.046 0.734 0.39 0.169 0.812 0.261 1.251 0.261 0.437 0 0.861-0.093 1.249-0.261 0.391-0.17 0.745-0.42 1.045-0.73 0.128-0.131 0.276-0.237 0.437-0.308 0.15-0.065 0.318-0.1 0.499-0.1s0.349 0.036 0.499 0.1c0.162 0.070 0.31 0.175 0.439 0.306 0.299 0.311 0.652 0.562 1.046 0.732 0.389 0.169 0.81 0.261 1.25 0.261s0.861-0.093 1.249-0.261c0.397-0.173 0.751-0.423 1.049-0.734 0.121-0.127 0.269-0.232 0.435-0.304 0.151-0.065 0.318-0.1 0.499-0.1s0.348 0.036 0.499 0.1c0.166 0.072 0.314 0.176 0.436 0.304 0.297 0.311 0.652 0.562 1.049 0.734 0.388 0.169 0.81 0.261 1.249 0.261s0.861-0.093 1.25-0.261c0.393-0.17 0.747-0.42 1.045-0.732 0.128-0.131 0.277-0.236 0.439-0.306 0.15-0.065 0.318-0.1 0.499-0.1s0.349 0.036 0.499 0.1c0.162 0.070 0.311 0.176 0.438 0.308 0.3 0.31 0.654 0.56 1.045 0.73 0.388 0.169 0.812 0.261 1.249 0.261 0.439 0 0.861-0.093 1.251-0.261 0.392-0.17 0.748-0.421 1.046-0.734 0.356-0.371 0.34-0.959-0.037-1.312zM17.193 2c0.39 0 0.708 0.315 0.708 0.7v2.567h5.89c0.521 0 0.943 0.418 0.943 0.934 0 0.514-0.422 0.932-0.943 0.932h-0.943v1.868h1.177c0.39 0 0.708 0.315 0.708 0.7v3.202l-8.028-1.979c-0.303-0.074-0.608-0.074-0.911 0l-8.026 1.978-0.001-3.201c0-0.385 0.318-0.7 0.707-0.7h1.177v-1.868h-0.943c-0.521 0-0.941-0.418-0.942-0.932 0-0.516 0.422-0.934 0.942-0.934h5.889v-2.567c0-0.385 0.318-0.7 0.708-0.7h1.884zM12.482 7.133c-0.521 0-0.943 0.418-0.943 0.934s0.422 0.934 0.943 0.934c0.521 0 0.942-0.418 0.942-0.934s-0.422-0.934-0.942-0.934zM16.25 7.133c-0.52 0-0.942 0.418-0.942 0.934s0.422 0.934 0.942 0.934c0.521 0 0.942-0.418 0.942-0.934s-0.421-0.934-0.942-0.934zM20.963 8.067c0-0.516-0.422-0.934-0.942-0.934s-0.942 0.418-0.942 0.934 0.422 0.934 0.942 0.934c0.521 0 0.942-0.418 0.942-0.934z"></path>
</symbol>
<symbol id="icon-flights" viewBox="0 0 32 32">
<title>icon-flights</title>
<path d="M29.381 2.621c-0.826-0.828-2.165-0.828-2.99 0l-6.434 6.453-15.394-2.308c-0.347-0.036-0.785 0.072-1.139 0.428l-1.189 1.192c-0.354 0.355-0.265 0.609-0.008 0.723l12.666 5.046-4.579 4.593-4.253-0.441c-0.484-0.066-0.757 0.057-0.903 0.165l-0.955 0.734c-0.447 0.366 0.011 0.559 0.192 0.688l4.285 2.194c0.388 0.223 0.859 0.301 1.199 0.177-0.091 0.339-0.053 0.779 0.091 1.117l2.187 4.298c0.072 0.187 0.322 0.641 0.687 0.193l0.731-0.959c0.107-0.145 0.22-0.438 0.164-0.904l-0.44-4.259 4.546-4.559 4.983 12.582c0.089 0.228 0.348 0.366 0.703 0.011l1.207-1.211c0.354-0.356 0.463-0.828 0.426-1.143l-2.28-15.293 6.497-6.515c0.826-0.829 0.826-2.172 0-3z"></path>
</symbol>
<symbol id="icon-hotels" viewBox="0 0 32 32">
<title>icon-hotels</title>
<path d="M18.787 8.757c0 1.522-1.234 2.757-2.757 2.757s-2.757-1.235-2.757-2.757c0-1.523 1.235-2.757 2.757-2.757s2.757 1.234 2.757 2.757z"></path>
<path d="M15.964 8.909c-7.712 0-13.964 6.252-13.964 13.964h27.928c0-7.712-6.252-13.964-13.964-13.964z"></path>
<path d="M12.545 25.228h6.444v-2.864h-6.444z"></path>
<path d="M29.928 25.328c0 0.63-0.555 1.145-1.233 1.145h-25.461c-0.679 0-1.233-0.516-1.233-1.145s0.555-1.146 1.233-1.146h25.461c0.678 0 1.233 0.516 1.233 1.146z"></path>
</symbol>
<symbol id="icon-packages" viewBox="0 0 32 32">
<title>icon-packages</title>
<path d="M26.346 9.118h-3.645v-3.676c0-0.796-0.638-1.441-1.424-1.441h-8.954c-0.787 0-1.424 0.646-1.424 1.441v3.676h-3.645c-1.797 0-3.254 1.475-3.254 3.293v12.295c0 1.819 1.457 3.293 3.254 3.293h19.092c1.797 0 3.254-1.475 3.254-3.293v-12.295c0-1.819-1.457-3.293-3.254-3.293zM9.134 17.687l-1.188-2.57c-0.045-0.097-0.004-0.214 0.093-0.26l5.429-2.57c0.097-0.046 0.212-0.004 0.257 0.094l1.188 2.57c0.045 0.098 0.004 0.215-0.093 0.261l-5.429 2.57c-0.097 0.045-0.212 0.004-0.257-0.094zM15.979 21.286l-1.179 2.713c-0.048 0.111-0.176 0.161-0.286 0.113l-2.681-1.194c-0.11-0.048-0.159-0.178-0.111-0.289l1.179-2.713c0.048-0.111 0.177-0.162 0.286-0.113l2.681 1.193c0.11 0.049 0.16 0.179 0.112 0.289zM20.163 9.118h-6.725v-2.283c0-0.363 0.053-0.658 0.413-0.658h5.841c0.36 0 0.472 0.295 0.472 0.658v2.283zM23.191 23.106c-1.587 0-2.874-1.303-2.874-2.909 0-1.607 1.287-2.91 2.874-2.91s2.875 1.302 2.875 2.91c0 1.606-1.287 2.909-2.875 2.909z"></path>
</symbol>
<symbol id="icon-date" viewBox="0 0 32 32">
<title>icon-date</title>
<path d="M23.778 17.6h-7.778v8h7.778v-8zM22.222 0v3.2h-12.444v-3.2h-3.111v3.2h-1.556c-1.727 0-3.096 1.44-3.096 3.2l-0.016 22.4c0 1.76 1.384 3.2 3.111 3.2h21.778c1.711 0 3.111-1.44 3.111-3.2v-22.4c0-1.76-1.4-3.2-3.111-3.2h-1.556v-3.2h-3.111zM26.889 28.8h-21.778v-17.6h21.778v17.6z"></path>
</symbol>
<symbol id="icon-landing" viewBox="0 0 30 32">
<title>icon-landing</title>
<path d="M0 27.482h28.612v3.012h-28.612v-3.012zM10.812 18.854l14.547 3.885c1.205 0.316 2.44-0.392 2.771-1.596 0.316-1.19-0.392-2.44-1.596-2.771l-7.996-2.138-4.156-13.598-2.906-0.753v12.469l-7.484-2.003-1.4-3.494-2.184-0.587v7.785l10.406 2.801z"></path>
</symbol>
<symbol id="icon-location" viewBox="0 0 32 32">
<title>icon-location</title>
<path d="M16 2.667c-5.16 0-9.333 4.173-9.333 9.333 0 7 9.333 17.333 9.333 17.333s9.333-10.333 9.333-17.333c0-5.16-4.173-9.333-9.333-9.333v0zM16 15.333c-1.84 0-3.333-1.493-3.333-3.333s1.493-3.333 3.333-3.333c1.84 0 3.333 1.493 3.333 3.333s-1.493 3.333-3.333 3.333v0z"></path>
</symbol>
<symbol id="icon-person" viewBox="0 0 32 32">
<title>icon-person</title>
<path d="M16 16c4.42 0 8-3.58 8-8s-3.58-8-8-8c-4.42 0-8 3.58-8 8s3.58 8 8 8v0zM16 20c-5.34 0-16 2.68-16 8v4h32v-4c0-5.32-10.66-8-16-8v0z"></path>
</symbol>
<symbol id="icon-phone" viewBox="0 0 32 32">
<title>icon-phone</title>
<path d="M8.827 14.387c1.92 3.773 5.013 6.853 8.787 8.787l2.933-2.933c0.36-0.36 0.893-0.48 1.36-0.32 1.493 0.493 3.107 0.76 4.76 0.76 0.733 0 1.333 0.6 1.333 1.333v4.653c0 0.733-0.6 1.333-1.333 1.333-12.52 0-22.667-10.147-22.667-22.667 0-0.733 0.6-1.333 1.333-1.333h4.667c0.733 0 1.333 0.6 1.333 1.333 0 1.667 0.267 3.267 0.76 4.76 0.147 0.467 0.040 0.987-0.333 1.36l-2.933 2.933z"></path>
</symbol>
<symbol id="icon-profile" viewBox="0 0 32 32">
<title>icon-profile</title>
<path d="M16 2.667c-7.36 0-13.333 5.973-13.333 13.333s5.973 13.333 13.333 13.333c7.36 0 13.333-5.973 13.333-13.333s-5.973-13.333-13.333-13.333v0zM16 6.667c2.213 0 4 1.787 4 4s-1.787 4-4 4c-2.213 0-4-1.787-4-4s1.787-4 4-4v0zM16 25.6c-3.333 0-6.28-1.707-8-4.293 0.040-2.653 5.333-4.107 8-4.107 2.653 0 7.96 1.453 8 4.107-1.72 2.587-4.667 4.293-8 4.293v0z"></path>
</symbol>
<symbol id="icon-takeoff" viewBox="0 0 32 32">
<title>icon-takeoff</title>
<path d="M1.041 28.347h29.98v3.156h-29.98v-3.156zM31.921 13.578c-0.331-1.262-1.641-2.020-2.903-1.673l-8.379 2.241-10.919-10.146-3.014 0.805 6.533 11.314-7.842 2.099-3.108-2.43-2.288 0.615 2.872 4.986 1.215 2.099 2.525-0.663 8.379-2.256 15.243-4.055c1.278-0.379 2.020-1.673 1.688-2.935z"></path>
</symbol>
<symbol id="icon-star" viewBox="0 0 32 32">
<title>star-full</title>
<path d="M32 12.408l-11.056-1.607-4.944-10.018-4.944 10.018-11.056 1.607 8 7.798-1.889 11.011 9.889-5.199 9.889 5.199-1.889-11.011 8-7.798z"></path>
</symbol>
<symbol id="icon-info" viewBox="0 0 32 32">
<title>info</title>
<path d="M16 0c-8.837 0-16 7.164-16 16s7.163 16 16 16 16-7.164 16-16c0-8.836-7.163-16-16-16zM16 6c1.104 0 2 0.896 2 2s-0.896 2-2 2-2-0.896-2-2 0.896-2 2-2zM11 24l3-2h2v-8h-2l-1-2h5v10h2l3 2h-12z"></path>
</symbol>
<symbol id="icon-arrow-right" viewBox="0 0 32 32">
<title>arrow-right2</title>
<path d="M19.414 27.414l10-10c0.781-0.781 0.781-2.047 0-2.828l-10-10c-0.781-0.781-2.047-0.781-2.828 0s-0.781 2.047 0 2.828l6.586 6.586h-19.172c-1.105 0-2 0.895-2 2s0.895 2 2 2h19.172l-6.586 6.586c-0.39 0.39-0.586 0.902-0.586 1.414s0.195 1.024 0.586 1.414c0.781 0.781 2.047 0.781 2.828 0z"></path>
</symbol>
<symbol id="icon-child" viewBox="0 0 32 32">
<title>icon-child</title>
<path d="M9 11.75c-.69 0-1.25.56-1.25 1.25s.56 1.25 1.25 1.25 1.25-.56 1.25-1.25-.56-1.25-1.25-1.25zm6 0c-.69 0-1.25.56-1.25 1.25s.56 1.25 1.25 1.25 1.25-.56 1.25-1.25-.56-1.25-1.25-1.25zM12 2C6.48 2 2 6.48 2 12s4.48 10 10 10 10-4.48 10-10S17.52 2 12 2zm0 18c-4.41 0-8-3.59-8-8 0-.29.02-.58.05-.86 2.36-1.05 4.23-2.98 5.21-5.37C11.07 8.33 14.05 10 17.42 10c.78 0 1.53-.09 2.25-.26.21.71.33 1.47.33 2.26 0 4.41-3.59 8-8 8z"></path>
</symbol>
<symbol id="icon-pencil" viewBox="0 0 32 32">
<title>pencil</title>
<path d="M27 0c2.761 0 5 2.239 5 5 0 1.126-0.372 2.164-1 3l-2 2-7-7 2-2c0.836-0.628 1.874-1 3-1zM2 23l-2 9 9-2 18.5-18.5-7-7-18.5 18.5zM22.362 11.362l-14 14-1.724-1.724 14-14 1.724 1.724z"></path>
</symbol>
</defs>
</svg>
