<?xml version="1.0" encoding="UTF-8"?>
<svg width="12px" height="12px" viewBox="0 0 12 12" version="1.1" xmlns="http://www.w3.org/2000/svg" xmlns:xlink="http://www.w3.org/1999/xlink">
    <!-- Generator: sketchtool 48.2 (47327) - http://www.bohemiancoding.com/sketch -->
    <title>148815DE-70FC-402C-AA1D-1905A456B7E2</title>
    <desc>Created with sketchtool.</desc>
    <defs></defs>
    <g id="2.5_Cho_Mobile" stroke="none" stroke-width="1" fill="none" fill-rule="evenodd" transform="translate(-18.000000, -146.000000)">
        <g id="ic_work" transform="translate(18.000000, 146.000000)" fill="#1134D7">
            <path d="M10.8,3 L8.4,3 L8.4,1.8 C8.4,1.134 7.866,0.6 7.2,0.6 L4.8,0.6 C4.134,0.6 3.6,1.134 3.6,1.8 L3.6,3 L1.2,3 C0.534,3 0.006,3.534 0.006,4.2 L0,10.8 C0,11.466 0.534,12 1.2,12 L10.8,12 C11.466,12 12,11.466 12,10.8 L12,4.2 C12,3.534 11.466,3 10.8,3 L10.8,3 Z M7.2,3 L4.8,3 L4.8,1.8 L7.2,1.8 L7.2,3 L7.2,3 Z" id="Shape"></path>
        </g>
    </g>
</svg>