<?xml version="1.0" encoding="UTF-8"?>
<svg width="17px" height="16px" viewBox="0 0 17 16" version="1.1" xmlns="http://www.w3.org/2000/svg" xmlns:xlink="http://www.w3.org/1999/xlink">
    <!-- Generator: sketchtool 51.2 (57519) - http://www.bohemiancoding.com/sketch -->
    <title>6CD4B478-4B37-43FF-AA81-B8F13FD39F25</title>
    <desc>Created with sketchtool.</desc>
    <defs></defs>
    <g id="CHO" stroke="none" stroke-width="1" fill="none" fill-rule="evenodd">
        <g id="CHO_Paso1" transform="translate(-922.000000, -554.000000)" fill="#D32027">
            <g id="ic_local_airport" transform="translate(930.500000, 562.000000) scale(-1, 1) rotate(-270.000000) translate(-930.500000, -562.000000) translate(923.000000, 554.000000)">
                <path d="M15,11.2 L15,9.6 L8.68421053,5.6 L8.68421053,1.2 C8.68421053,0.536 8.15526316,0 7.5,0 C6.84473684,0 6.31578947,0.536 6.31578947,1.2 L6.31578947,5.6 L0,9.6 L0,11.2 L6.31578947,9.2 L6.31578947,13.6 L4.73684211,14.8 L4.73684211,16 L7.5,15.2 L10.2631579,16 L10.2631579,14.8 L8.68421053,13.6 L8.68421053,9.2 L15,11.2 L15,11.2 Z" id="Shape"></path>
            </g>
        </g>
    </g>
</svg>