<?xml version="1.0" encoding="UTF-8"?>
<svg width="9px" height="14px" viewBox="0 0 9 14" version="1.1" xmlns="http://www.w3.org/2000/svg" xmlns:xlink="http://www.w3.org/1999/xlink">
    <!-- Generator: sketchtool 48.2 (47327) - http://www.bohemiancoding.com/sketch -->
    <title>54182B11-BC1B-47A8-826F-01A842EC59F6</title>
    <desc>Created with sketchtool.</desc>
    <defs></defs>
    <g id="2.5_Cho_Mobile" stroke="none" stroke-width="1" fill="none" fill-rule="evenodd" transform="translate(-20.000000, -169.000000)">
        <g id="travel-1" transform="translate(20.000000, 169.000000)" fill="gray" fill-rule="nonzero">
            <path d="M3.03615742,0.564511577 L3.43416534,0.564511577 L3.43416534,1.79288877 C3.43416534,1.87880743 3.55033486,1.94745204 3.67112275,1.94745204 C3.79191063,1.94745204 3.90784332,1.87880743 3.90784332,1.79288877 L3.90784332,0.564511577 L5.09203826,0.564511577 L5.09203826,1.79288877 C5.09203826,1.87880743 5.14911646,1.94745204 5.26978592,1.94745204 C5.39069223,1.94745204 5.44729675,1.87880743 5.44729675,1.79288877 L5.44729675,0.564511577 L5.96372416,0.564511577 C6.07705162,0.564511577 6.16870831,0.419319199 6.16870831,0.281917081 C6.16882673,0.146095596 6.07705162,0 5.96372416,0 L3.03615742,0 C2.92282996,0 2.83117327,0.146095596 2.83117327,0.281917081 C2.83105485,0.419206297 2.92282996,0.564511577 3.03615742,0.564511577 Z M7.55990053,2.48385094 L1.43998105,2.48385094 C0.612820884,2.48385094 0,3.12750704 0,3.92200063 L0,11.415666 C0,12.2093693 0.612820884,12.8709768 1.43998105,12.8709768 L1.53945343,12.8709768 L1.53945343,13.6469545 C1.53945343,13.8239853 1.63928106,14 1.82508125,14 L2.41362614,14 C2.5999,14 2.72376679,13.8239853 2.72376679,13.6469545 L2.72376679,12.8708639 L6.15793213,12.8708639 L6.15793213,13.6468416 C6.15793213,13.8238724 6.35711372,13.9998871 6.54338759,13.9998871 L7.13193247,13.9998871 C7.31773266,13.9998871 7.46054657,13.8238724 7.46054657,13.6468416 L7.46054657,12.8708639 L7.56001895,12.8708639 C8.3870607,12.8708639 9,12.2093693 9,11.4155531 L9,3.92188773 C8.99988158,3.12739413 8.38694228,2.48385094 7.55990053,2.48385094 Z M6.15781371,4.77949371 C6.15781371,5.05271732 5.98657912,5.30629592 5.72013526,5.30629592 L3.2796279,5.30629592 C3.01365772,5.30629592 2.84206787,5.05271732 2.84206787,4.77949371 L2.84206787,3.95146813 L6.15781371,3.95146813 L6.15781371,4.77949371 Z" id="Shape"></path>
        </g>
    </g>
</svg>