<?xml version="1.0" encoding="iso-8859-1"?>
<!-- Generator: Adobe Illustrator 16.0.0, SVG Export Plug-In . SVG Version: 6.00 Build 0)  -->
<!DOCTYPE svg PUBLIC "-//W3C//DTD SVG 1.1//EN" "http://www.w3.org/Graphics/SVG/1.1/DTD/svg11.dtd">
<svg version="1.1" xmlns="http://www.w3.org/2000/svg" xmlns:xlink="http://www.w3.org/1999/xlink" x="0px" y="0px"
	 width="94.631px" height="7.953px" viewBox="0 0 94.631 7.953" style="enable-background:new 0 0 94.631 7.953;"
	 xml:space="preserve">
<g id="_x31_1-bind">
	<path style="fill:#EBD14C;" d="M24.991,1.419c0.199,0.454,0.259,0.949,0.418,1.414C25.46,2.982,25.5,3.076,25.686,3.09
		c0.18,0.013,0.352,0.111,0.533,0.144c0.307,0.057,0.583,0.219,0.898,0.255c0.118,0.015,0.205,0.011,0.163-0.137
		c-0.142-0.501-0.289-1-0.436-1.5c-0.02-0.067-0.035-0.127-0.119-0.164c-0.2-0.086-0.416-0.163-0.612-0.218
		c-0.318-0.091-0.656-0.139-0.977-0.24c-0.113-0.036-0.174-0.015-0.154,0.093C24.987,1.372,24.982,1.398,24.991,1.419z M25.47,5.053
		c0.443-0.253,0.896-0.493,1.342-0.743c0.073-0.041,0.129-0.115,0.184-0.164c0.004-0.056-0.018-0.073-0.049-0.09
		c-0.466-0.228-0.905-0.501-1.351-0.767c-0.125-0.075-0.274-0.069-0.391,0.014c-0.368,0.265-0.805,0.411-1.16,0.703
		c-0.199,0.165-0.22,0.189,0.002,0.32c0.412,0.241,0.822,0.481,1.231,0.726C25.348,5.094,25.391,5.098,25.47,5.053z M28.584,3.513
		c0.483-0.123,0.962-0.234,1.435-0.371c0.128-0.037,0.31-0.018,0.371-0.17c0.217-0.529,0.267-1.109,0.479-1.642
		c0.018-0.044,0.022-0.096-0.031-0.127c-0.052-0.031-0.099-0.056-0.141,0.018c-0.012,0.023-0.048,0.042-0.076,0.047
		c-0.461,0.063-0.89,0.251-1.343,0.346c-0.138,0.029-0.227,0.079-0.267,0.231C28.916,2.2,28.771,2.545,28.71,2.904
		C28.674,3.11,28.489,3.29,28.584,3.513z M27.78,3.045c0.105,0.198,0.19,0.188,0.287,0.009c0.235-0.436,0.5-0.854,0.717-1.301
		c0.055-0.112,0.062-0.185,0.005-0.283c-0.262-0.455-0.521-0.912-0.782-1.366C27.984,0.065,27.978,0.008,27.904,0
		c-0.024,0.021-0.067,0.041-0.082,0.074c-0.222,0.504-0.541,0.956-0.791,1.445c-0.046,0.088-0.017,0.158,0.033,0.244
		C27.311,2.187,27.552,2.613,27.78,3.045z M30.455,5.459c-0.043-0.153-0.104-0.242-0.295-0.281
		c-0.174-0.033-0.358-0.069-0.532-0.138c-0.243-0.093-0.502-0.153-0.757-0.215c-0.187-0.045-0.298,0.039-0.262,0.174
		c0.123,0.456,0.274,0.902,0.356,1.37c0.021,0.113,0.071,0.22,0.191,0.258c0.235,0.075,0.471,0.158,0.712,0.205
		c0.337,0.067,0.662,0.172,1.006,0.268c0-0.054,0.011-0.104-0.002-0.147C30.735,6.453,30.593,5.957,30.455,5.459z M31.944,4.03
		c-0.345-0.244-0.745-0.385-1.09-0.628c-0.11-0.078-0.235-0.168-0.433-0.168c-0.041,0.017-0.127,0.044-0.202,0.085
		c-0.402,0.229-0.795,0.479-1.208,0.689c-0.207,0.106-0.18,0.14-0.011,0.25c0.434,0.287,0.931,0.467,1.336,0.799
		c0.077,0.063,0.154,0.017,0.225-0.023c0.463-0.261,0.926-0.525,1.387-0.791C32.071,4.173,32.086,4.131,31.944,4.03z M27.152,4.801
		c-0.449,0.121-0.896,0.254-1.35,0.358c-0.221,0.048-0.335,0.12-0.389,0.37c-0.104,0.479-0.278,0.943-0.419,1.412
		c-0.014,0.053-0.03,0.118,0.022,0.161c0.032,0.025,0.073,0.01,0.113-0.003c0.518-0.185,1.039-0.345,1.579-0.446
		c0.095-0.019,0.106-0.082,0.127-0.15c0.149-0.516,0.302-1.03,0.451-1.543C27.322,4.84,27.28,4.786,27.152,4.801z M27.947,5.014
		c-0.308,0.512-0.598,0.99-0.886,1.47c-0.068,0.114-0.08,0.24,0.001,0.342c0.263,0.337,0.511,0.681,0.726,1.052
		c0.062,0.106,0.131,0.096,0.203-0.001c0.254-0.343,0.512-0.682,0.767-1.021c0.068-0.09,0.142-0.179,0.068-0.305
		C28.535,6.046,28.247,5.539,27.947,5.014z"/>
	<path style="fill:#034B74;" d="M44.086,4.367c0-0.619-0.142-1.07-0.424-1.354c-0.283-0.284-0.737-0.426-1.361-0.426
		c-0.232,0-0.476,0.043-0.732,0.126c-0.257,0.085-0.458,0.187-0.602,0.305l0.322,0.637c0.258-0.256,0.625-0.384,1.1-0.384
		c0.623,0,0.934,0.347,0.934,1.043c-0.203-0.068-0.387-0.102-0.546-0.102c-0.593,0-1.079,0.149-1.46,0.452
		c-0.383,0.301-0.572,0.668-0.572,1.106c0,0.363,0.124,0.668,0.37,0.915c0.248,0.243,0.541,0.366,0.878,0.366
		c0.63,0,1.097-0.191,1.402-0.574c0.067,0.202,0.178,0.35,0.332,0.438s0.386,0.133,0.697,0.133V6.665
		c-0.225-0.126-0.336-0.376-0.336-0.755V4.367z M43.322,5.896c-0.298,0.366-0.639,0.551-1.024,0.551
		c-0.529,0-0.792-0.223-0.792-0.67c0-0.271,0.123-0.505,0.366-0.705c0.244-0.197,0.558-0.295,0.944-0.295
		c0.097,0,0.265,0.026,0.507,0.08V5.896z M38.762,3.652c0.246-0.057,0.471-0.197,0.675-0.424c0.203-0.224,0.305-0.473,0.305-0.746
		c0-0.467-0.159-0.824-0.478-1.075c-0.319-0.251-0.769-0.375-1.352-0.375c-0.316,0-0.83,0.018-1.547,0.052V6.97h1.68
		c0.611,0,1.107-0.152,1.487-0.461c0.377-0.31,0.566-0.722,0.566-1.238c0-0.448-0.106-0.8-0.317-1.059
		C39.567,3.95,39.226,3.764,38.762,3.652z M37.17,1.727c0.21-0.019,0.452-0.028,0.718-0.028c0.699,0,1.05,0.271,1.05,0.815
		c0,0.619-0.381,0.929-1.142,0.929c-0.25,0-0.459-0.01-0.626-0.025V1.727z M38.908,6.044c-0.232,0.188-0.6,0.282-1.104,0.282
		c-0.146,0-0.358-0.011-0.633-0.037V4.042l0.646-0.022c0.516,0,0.886,0.091,1.105,0.274c0.223,0.183,0.332,0.464,0.332,0.847
		C39.254,5.555,39.139,5.855,38.908,6.044z M8.058,6.346c0-1.112,0.002-2.225-0.001-3.338C8.056,2.591,7.91,2.325,7.599,2.294
		c-0.397-0.04-0.802-0.009-1.208-0.009v0.75h0.35c0.353,0.002,0.367,0.016,0.368,0.367c0.001,0.67-0.001,1.339,0,2.007
		c0,0.547-0.002,1.096,0.004,1.644C7.115,7.329,7.222,7.588,7.51,7.631c0.423,0.062,0.853,0.057,1.296,0.081V6.92
		C8.708,6.912,8.651,6.907,8.595,6.906C8.019,6.894,8.059,6.98,8.058,6.346z M2.886,2.214C2.464,2.324,2.08,2.579,1.675,2.77
		c0-0.038,0.001-0.129,0-0.22c0-0.565,0.004-1.132-0.004-1.697c-0.004-0.36-0.148-0.615-0.426-0.652
		C0.839,0.146,0.425,0.149,0,0.124v0.817c0.144,0,0.273,0.011,0.401-0.001c0.246-0.023,0.332,0.075,0.324,0.325
		c-0.016,0.499-0.005,1-0.004,1.5c0,1.253,0.001,2.508,0.001,3.763c0.001,0.366-0.006,0.372-0.382,0.379c-0.11,0.001-0.22,0-0.339,0
		v0.786c0.241,0,0.465-0.005,0.688,0.001c0.461,0.014,0.882-0.038,0.984-0.622c0.052,0.035,0.086,0.05,0.108,0.075
		c0.905,0.979,2.81,0.864,3.705-0.186c0.595-0.698,0.748-1.515,0.668-2.402C6.001,2.827,4.569,1.777,2.886,2.214z M4.99,5.99
		C4.712,6.63,4.085,7.045,3.406,7.024C2.664,7.001,2.128,6.644,1.854,5.956c-0.127-0.318-0.168-0.67-0.231-0.935
		c0.047-0.318,0.063-0.554,0.12-0.78c0.195-0.764,0.819-1.267,1.59-1.298c0.816-0.037,1.448,0.38,1.721,1.147
		C5.281,4.731,5.262,5.367,4.99,5.99z M10.229,0.16H9.313V1.2h0.915V0.16z M47.283,2.586c-0.569,0-0.981,0.211-1.233,0.634
		l-0.241-0.553h-0.521V6.97h0.762V3.771c0.103-0.151,0.248-0.281,0.438-0.385c0.191-0.105,0.373-0.158,0.547-0.158
		c0.323,0,0.555,0.093,0.694,0.276c0.136,0.185,0.206,0.505,0.206,0.962V6.97h0.764V4.306C48.699,3.162,48.228,2.586,47.283,2.586z
		 M20.939,6.47c0-1.754,0.001-3.511,0-5.266c0-0.179,0.001-0.359-0.018-0.537c-0.025-0.253-0.177-0.439-0.421-0.469
		c-0.408-0.049-0.821-0.052-1.244-0.075v0.82c0.159,0,0.308,0.01,0.456-0.003c0.214-0.017,0.276,0.076,0.271,0.282
		c-0.012,0.453-0.003,0.906-0.005,1.359c0,0.075-0.015,0.151-0.024,0.255c-1.148-1.126-3.083-0.826-3.904,0.277
		c-0.715,0.96-0.765,2.604-0.096,3.607c0.848,1.274,2.788,1.491,3.896,0.439c0.037-0.037,0.084-0.063,0.132-0.099
		c0.134,0.441,0.212,0.562,0.561,0.599c0.368,0.039,0.743,0.009,1.108,0.009V6.916c-0.107-0.004-0.191-0.01-0.275-0.012
		C20.939,6.896,20.939,6.896,20.939,6.47z M19.904,5.762c-0.282,0.923-0.97,1.264-1.737,1.244c-0.889-0.021-1.494-0.599-1.658-1.487
		c-0.104-0.563-0.066-1.107,0.194-1.623c0.322-0.639,0.854-0.951,1.299-0.96c1.014,0.005,1.601,0.417,1.857,1.134
		C20.059,4.627,20.077,5.197,19.904,5.762z M14.689,6.604c0.017-0.309,0.009-0.622,0.002-0.934c-0.014-0.688,0.005-1.377-0.062-2.06
		c-0.064-0.667-0.419-1.183-1.098-1.363c-1.131-0.3-2.146-0.102-2.971,0.79c-0.026,0.03-0.063,0.047-0.12,0.087
		C10.433,2.749,10.402,2.371,10,2.306C9.601,2.241,9.183,2.291,8.771,2.291v0.73c0.101,0.008,0.184,0.015,0.266,0.016
		c0.452,0.005,0.452,0.005,0.452,0.45c0,1.291-0.001,2.583-0.001,3.877V7.68h0.938c0.013-0.051,0.02-0.069,0.02-0.087
		c0.002-0.83,0.03-1.663-0.005-2.49c-0.05-1.141,0.812-2.095,2.104-2.147c0.686-0.025,1.062,0.298,1.152,0.974
		c0.029,0.215,0.046,0.431,0.048,0.648c0.005,0.82-0.002,1.638,0.003,2.46c0.003,0.365,0.162,0.588,0.519,0.625
		c0.378,0.038,0.764,0.006,1.146,0.006V6.904c-0.147,0-0.278-0.012-0.408,0.002C14.777,6.926,14.678,6.847,14.689,6.604z
		 M94.11,6.17c-0.133-0.133-0.2-0.315-0.2-0.545V0.903h-0.764v4.849c0,0.865,0.495,1.299,1.484,1.299V6.366
		C94.415,6.366,94.242,6.301,94.11,6.17z M84.042,3.354V2.667h-0.767V6.97h0.767V4.503c0-0.352,0.1-0.65,0.302-0.9
		c0.204-0.249,0.44-0.375,0.71-0.375c0.168,0,0.337,0.059,0.502,0.174l0.317-0.742c-0.257-0.05-0.454-0.073-0.589-0.073
		C84.734,2.586,84.32,2.843,84.042,3.354z M86.193,3.311h0.592V6.97h0.763V2.667h-1.354V3.311z M81.762,6.407
		c-0.269,0-0.467-0.076-0.588-0.23C81.052,6.025,80.99,5.77,80.99,5.405V3.27h1.182V2.667H80.99V1.474l-0.763,0.293v0.9H79.73V3.27
		h0.497v2.443c0,0.385,0.117,0.707,0.353,0.959c0.232,0.252,0.522,0.379,0.86,0.379c0.378,0,0.726-0.041,1.041-0.122L82.37,6.26
		C82.161,6.358,81.958,6.407,81.762,6.407z M78.189,4.559l-0.546-0.248c-0.314-0.143-0.471-0.352-0.471-0.628
		c0-0.131,0.063-0.239,0.187-0.325c0.127-0.086,0.279-0.13,0.462-0.13c0.304,0,0.609,0.122,0.91,0.363l0.219-0.709
		c-0.477-0.197-0.873-0.296-1.186-0.296c-0.415,0-0.752,0.099-1.011,0.296c-0.256,0.2-0.385,0.476-0.385,0.828
		c0,0.138,0.022,0.266,0.068,0.385c0.042,0.12,0.111,0.233,0.2,0.338c0.09,0.106,0.195,0.2,0.316,0.283
		c0.122,0.083,0.358,0.205,0.709,0.366c0.457,0.204,0.685,0.446,0.685,0.732c0,0.395-0.236,0.593-0.708,0.593
		c-0.261,0-0.602-0.139-1.028-0.418l-0.27,0.724c0.397,0.225,0.824,0.338,1.277,0.338c0.481,0,0.855-0.109,1.125-0.329
		c0.272-0.215,0.405-0.519,0.405-0.905c0-0.293-0.074-0.54-0.228-0.734C78.769,4.886,78.523,4.712,78.189,4.559z M91.885,4.367
		c0-0.619-0.144-1.07-0.425-1.354c-0.283-0.284-0.734-0.426-1.359-0.426c-0.232,0-0.477,0.043-0.734,0.126
		c-0.254,0.085-0.455,0.187-0.599,0.305l0.32,0.637c0.257-0.256,0.626-0.384,1.101-0.384c0.622,0,0.932,0.347,0.932,1.043
		c-0.202-0.068-0.384-0.102-0.546-0.102c-0.592,0-1.079,0.149-1.46,0.452c-0.383,0.301-0.573,0.668-0.573,1.106
		c0,0.363,0.125,0.668,0.371,0.915c0.249,0.243,0.542,0.366,0.879,0.366c0.63,0,1.099-0.191,1.401-0.574
		c0.069,0.202,0.18,0.35,0.334,0.438c0.152,0.088,0.386,0.133,0.695,0.133V6.665c-0.224-0.126-0.337-0.376-0.337-0.755V4.367z
		 M91.12,5.896c-0.297,0.366-0.638,0.551-1.022,0.551c-0.528,0-0.795-0.223-0.795-0.67c0-0.271,0.124-0.505,0.368-0.705
		c0.244-0.197,0.56-0.295,0.943-0.295c0.096,0,0.267,0.026,0.506,0.08V5.896z M87.205,1.04c-0.133,0-0.245,0.045-0.336,0.137
		c-0.091,0.091-0.136,0.202-0.136,0.334c0,0.131,0.046,0.242,0.138,0.335c0.093,0.092,0.204,0.138,0.334,0.138
		c0.129,0,0.241-0.046,0.335-0.138c0.092-0.093,0.138-0.204,0.138-0.335c0-0.13-0.046-0.24-0.138-0.332
		C87.446,1.085,87.334,1.04,87.205,1.04z M70.27,2.899c-0.231-0.207-0.569-0.313-1.013-0.313c-0.533,0-0.993,0.229-1.378,0.686
		c-0.386,0.457-0.577,1.007-0.577,1.652c0,0.644,0.166,1.159,0.502,1.542c0.333,0.388,0.771,0.58,1.311,0.58
		c0.505,0,0.891-0.133,1.155-0.398v0.317h0.765V0.903H70.27V2.899z M70.27,6.051c-0.042,0.086-0.149,0.165-0.318,0.241
		c-0.168,0.076-0.313,0.115-0.434,0.115c-0.941,0-1.414-0.517-1.414-1.554c0-0.472,0.128-0.859,0.381-1.166
		c0.252-0.305,0.584-0.459,0.992-0.459c0.336,0,0.6,0.145,0.793,0.436V6.051z M60.955,6.97h0.803V1.083h-0.803V6.97z M74.819,5.688
		c-0.068,0.189-0.206,0.356-0.414,0.503c-0.208,0.145-0.439,0.216-0.69,0.216c-0.577,0-0.865-0.332-0.865-0.996V2.667h-0.765v2.824
		c0,0.498,0.127,0.884,0.379,1.154c0.248,0.27,0.609,0.405,1.082,0.405c0.247,0,0.497-0.07,0.758-0.212
		c0.257-0.139,0.429-0.295,0.516-0.463V6.97h0.763V2.667h-0.763V5.688z M55.525,2.586c-0.583,0-1.053,0.205-1.412,0.613
		c-0.357,0.407-0.536,0.944-0.536,1.609c0,0.687,0.171,1.231,0.514,1.634c0.344,0.406,0.823,0.607,1.435,0.607
		c0.602,0,1.076-0.199,1.424-0.601c0.348-0.4,0.521-0.948,0.521-1.641c0-0.698-0.17-1.242-0.511-1.634
		C56.62,2.783,56.143,2.586,55.525,2.586z M56.363,5.996c-0.2,0.287-0.481,0.431-0.838,0.431c-0.762,0-1.146-0.539-1.146-1.618
		c0-0.498,0.105-0.891,0.313-1.175c0.208-0.282,0.485-0.426,0.833-0.426c0.762,0,1.143,0.532,1.143,1.601
		C56.668,5.309,56.565,5.705,56.363,5.996z M51.716,6.407c-0.441,0-0.787-0.131-1.035-0.396c-0.25-0.262-0.373-0.647-0.373-1.15
		c0-0.505,0.119-0.904,0.363-1.194c0.244-0.293,0.574-0.438,0.988-0.438c0.191,0,0.384,0.036,0.583,0.106
		c0.196,0.068,0.333,0.143,0.41,0.222l0.378-0.539c-0.122-0.1-0.313-0.195-0.573-0.291c-0.262-0.093-0.502-0.14-0.725-0.14
		c-0.691,0-1.234,0.208-1.634,0.622c-0.396,0.416-0.596,0.967-0.596,1.652c0,0.672,0.189,1.206,0.575,1.6
		c0.383,0.394,0.867,0.59,1.454,0.59c0.606,0,1.112-0.134,1.523-0.397l-0.302-0.645C52.405,6.276,52.062,6.407,51.716,6.407z
		 M65.041,2.586c-0.569,0-0.98,0.211-1.233,0.634l-0.24-0.553h-0.522V6.97h0.763V3.771c0.103-0.151,0.247-0.281,0.438-0.385
		c0.191-0.105,0.372-0.158,0.548-0.158c0.324,0,0.555,0.093,0.693,0.276c0.138,0.185,0.207,0.505,0.207,0.962V6.97h0.763V4.306
		C66.456,3.162,65.984,2.586,65.041,2.586z"/>
</g>
<g id="Layer_1">
</g>
</svg>
