<?xml version="1.0" encoding="iso-8859-1"?>
<!-- Generator: Adobe Illustrator 16.0.0, SVG Export Plug-In . SVG Version: 6.00 Build 0)  -->
<!DOCTYPE svg PUBLIC "-//W3C//DTD SVG 1.1//EN" "http://www.w3.org/Graphics/SVG/1.1/DTD/svg11.dtd">
<svg version="1.1" xmlns="http://www.w3.org/2000/svg" xmlns:xlink="http://www.w3.org/1999/xlink" x="0px" y="0px"
	 width="94.336px" height="15.098px" viewBox="0 0 94.336 15.098" style="enable-background:new 0 0 94.336 15.098;"
	 xml:space="preserve">
<g id="_x31_2-entrerios">
	<rect x="0.741" style="fill:#004896;" width="5.851" height="5.85"/>
	<rect x="7.725" style="fill:#4160A5;" width="5.851" height="5.85"/>
	<rect x="14.754" style="fill:#6A7BB7;" width="5.851" height="5.85"/>
	<rect x="21.738" style="fill:#939BC9;" width="5.85" height="5.85"/>
	<polygon style="fill:#EF3E33;" points="0,0.386 4.396,2.925 0,5.463 	"/>
	<path d="M36.14,10.443c-0.112-0.137-0.259-0.247-0.442-0.332c-0.182-0.084-0.38-0.126-0.595-0.126
		c-0.275,0-0.521,0.066-0.733,0.198c-0.213,0.133-0.393,0.335-0.54,0.603v-0.691h-0.613v4.893h0.679v-2.675
		c0-0.59,0.095-1.007,0.289-1.249c0.193-0.243,0.453-0.365,0.778-0.365c0.172,0,0.323,0.046,0.454,0.137s0.227,0.22,0.287,0.385
		c0.062,0.166,0.092,0.429,0.092,0.789v2.979h0.678v-3.008c0-0.451-0.027-0.786-0.083-1.004
		C36.335,10.757,36.252,10.579,36.14,10.443z M26.971,11.392c0.246-0.15,0.437-0.35,0.571-0.599
		c0.136-0.247,0.203-0.527,0.203-0.838c0-0.333-0.079-0.639-0.236-0.914c-0.156-0.276-0.357-0.48-0.604-0.61
		C26.66,8.3,26.326,8.234,25.904,8.234h-2.079v6.753h2.109c0.488,0,0.871-0.069,1.151-0.21c0.279-0.14,0.503-0.364,0.67-0.673
		c0.168-0.309,0.251-0.668,0.251-1.076c0-0.412-0.092-0.759-0.276-1.039C27.545,11.708,27.292,11.51,26.971,11.392z M24.558,9.031
		h1.112c0.402,0,0.682,0.031,0.837,0.093c0.155,0.061,0.28,0.173,0.374,0.334c0.095,0.16,0.141,0.363,0.141,0.605
		c0,0.261-0.052,0.468-0.154,0.62c-0.104,0.151-0.25,0.259-0.441,0.324c-0.132,0.043-0.354,0.064-0.669,0.064h-1.199V9.031z
		 M27.088,13.714c-0.109,0.182-0.268,0.313-0.478,0.394c-0.145,0.055-0.369,0.082-0.673,0.082h-1.38v-2.32h1.282
		c0.379,0,0.655,0.041,0.834,0.122c0.176,0.081,0.317,0.209,0.421,0.387c0.104,0.176,0.157,0.393,0.157,0.646
		C27.252,13.302,27.197,13.531,27.088,13.714z M32.157,12.938v-1.105c0-0.448-0.031-0.79-0.095-1.022
		c-0.063-0.233-0.214-0.429-0.453-0.588c-0.24-0.157-0.57-0.236-0.99-0.236c-0.541,0-0.956,0.119-1.246,0.358
		c-0.29,0.24-0.482,0.621-0.578,1.147l0.668,0.11c0.073-0.361,0.188-0.606,0.345-0.738c0.157-0.132,0.394-0.196,0.71-0.196
		c0.35,0,0.609,0.099,0.777,0.294c0.121,0.136,0.181,0.371,0.181,0.705l-0.005,0.212c-0.258,0.113-0.663,0.209-1.216,0.29
		c-0.411,0.059-0.719,0.149-0.921,0.272c-0.203,0.122-0.363,0.292-0.479,0.511c-0.117,0.219-0.175,0.468-0.175,0.751
		c0,0.427,0.124,0.766,0.372,1.018c0.25,0.252,0.583,0.378,1,0.378c0.265,0,0.52-0.061,0.766-0.18
		c0.244-0.12,0.481-0.298,0.708-0.534c0.022,0.233,0.068,0.434,0.139,0.604h0.709c-0.086-0.19-0.144-0.386-0.173-0.588
		C32.172,14.198,32.157,13.711,32.157,12.938z M31.471,12.837c0,0.402-0.049,0.708-0.147,0.918c-0.098,0.21-0.246,0.379-0.444,0.504
		c-0.198,0.127-0.418,0.189-0.66,0.189c-0.256,0-0.455-0.07-0.6-0.21s-0.217-0.325-0.217-0.559c0-0.151,0.032-0.284,0.096-0.4
		c0.063-0.114,0.15-0.203,0.264-0.266c0.114-0.063,0.313-0.12,0.599-0.168c0.491-0.086,0.862-0.191,1.11-0.313V12.837z
		 M4.553,13.636L1.81,8.631H1.103v6.363h0.663V9.987l2.739,5.007h0.707V8.631H4.553V13.636z M8.697,12.854
		c0,0.578-0.084,0.978-0.252,1.193c-0.196,0.252-0.448,0.378-0.755,0.378c-0.165,0-0.312-0.048-0.44-0.146
		c-0.129-0.097-0.217-0.226-0.265-0.387c-0.048-0.16-0.072-0.478-0.072-0.952v-2.557H6.275v2.856c0,0.425,0.035,0.761,0.106,1.007
		c0.07,0.245,0.212,0.449,0.423,0.609c0.212,0.161,0.466,0.241,0.765,0.241c0.252,0,0.477-0.065,0.677-0.196
		c0.199-0.13,0.373-0.325,0.521-0.585v0.678H9.34v-4.61H8.697V12.854z M19.573,10.28c-0.512,0-0.935,0.202-1.27,0.607
		c-0.334,0.405-0.501,1.006-0.501,1.801c0,0.794,0.168,1.393,0.506,1.799c0.337,0.406,0.759,0.61,1.265,0.61
		c0.516,0,0.939-0.203,1.272-0.607c0.332-0.405,0.499-1.021,0.499-1.85c0-0.764-0.17-1.348-0.508-1.753
		C20.498,10.482,20.077,10.28,19.573,10.28z M20.365,14.015c-0.215,0.294-0.474,0.44-0.774,0.44c-0.321,0-0.591-0.146-0.808-0.437
		c-0.217-0.292-0.325-0.734-0.325-1.331c0-0.592,0.107-1.034,0.321-1.325c0.214-0.293,0.474-0.44,0.776-0.44
		c0.322,0,0.591,0.146,0.808,0.438c0.217,0.291,0.326,0.733,0.326,1.328C20.689,13.277,20.581,13.72,20.365,14.015z M11.896,10.28
		c-0.512,0-0.935,0.208-1.27,0.627c-0.334,0.418-0.501,1.024-0.501,1.82c0,0.767,0.166,1.354,0.497,1.76s0.765,0.61,1.3,0.61
		c0.426,0,0.782-0.126,1.069-0.376c0.289-0.249,0.487-0.621,0.598-1.112l-0.66-0.101c-0.188,0.632-0.522,0.946-1.002,0.946
		c-0.308,0-0.567-0.132-0.781-0.395c-0.215-0.264-0.334-0.654-0.361-1.173h2.821l0.005-0.207c0-0.778-0.164-1.373-0.49-1.784
		C12.793,10.485,12.385,10.28,11.896,10.28z M10.824,12.246c0.02-0.404,0.132-0.727,0.334-0.965c0.202-0.24,0.447-0.359,0.733-0.359
		c0.318,0,0.58,0.145,0.785,0.43c0.143,0.197,0.228,0.495,0.257,0.895H10.824z M15.987,13.196c-0.102,0.342-0.181,0.635-0.235,0.877
		c-0.069-0.307-0.15-0.616-0.243-0.928l-0.813-2.762h-0.677l1.438,4.61h0.597l1.438-4.61h-0.66L15.987,13.196z M74.426,9.985
		c-0.545,0-0.994,0.222-1.35,0.665c-0.354,0.443-0.531,1.089-0.531,1.932c0,0.814,0.176,1.438,0.527,1.869
		c0.352,0.431,0.813,0.646,1.379,0.646c0.453,0,0.83-0.134,1.137-0.398c0.305-0.266,0.516-0.659,0.633-1.181l-0.699-0.107
		c-0.201,0.67-0.555,1.005-1.064,1.005c-0.324,0-0.602-0.141-0.83-0.42c-0.227-0.279-0.354-0.692-0.383-1.243h2.994l0.006-0.221
		c0-0.826-0.174-1.457-0.52-1.894C75.377,10.203,74.943,9.985,74.426,9.985z M73.287,12.071c0.021-0.43,0.141-0.771,0.355-1.024
		c0.213-0.254,0.473-0.38,0.777-0.38c0.338,0,0.615,0.152,0.834,0.457c0.15,0.208,0.242,0.523,0.271,0.947H73.287z M85.078,14.987
		h0.676v-4.893h-0.676V14.987z M71.25,10.153c-0.131,0.112-0.275,0.34-0.432,0.685v-0.743h-0.613v4.893h0.678v-2.562
		c0-0.355,0.043-0.692,0.129-1.009c0.049-0.181,0.133-0.322,0.254-0.423c0.119-0.102,0.252-0.152,0.396-0.152
		c0.158,0,0.322,0.061,0.492,0.18l0.229-0.77c-0.236-0.178-0.467-0.267-0.695-0.267C71.525,9.985,71.379,10.041,71.25,10.153z
		 M82.664,12.288c-0.107-0.127-0.264-0.252-0.471-0.376c0.508-0.085,0.895-0.286,1.16-0.603c0.266-0.315,0.396-0.729,0.396-1.238
		c0-0.387-0.076-0.727-0.234-1.019c-0.156-0.293-0.355-0.504-0.6-0.629c-0.244-0.126-0.623-0.189-1.137-0.189h-2.453v6.753h0.732
		v-2.999h0.846c0.246,0,0.436,0.033,0.572,0.1c0.137,0.065,0.277,0.194,0.424,0.385c0.145,0.19,0.361,0.561,0.648,1.11l0.736,1.404
		h0.922l-0.967-1.838C83.074,12.834,82.883,12.546,82.664,12.288z M81.633,11.215h-1.574V8.981h1.748
		c0.393,0,0.691,0.097,0.891,0.293c0.199,0.194,0.299,0.463,0.299,0.803c0,0.236-0.053,0.443-0.156,0.621
		c-0.105,0.179-0.246,0.31-0.424,0.393S81.977,11.215,81.633,11.215z M84.902,9.487h0.563l0.828-1.289h-0.889L84.902,9.487z
		 M94.199,12.876c-0.092-0.183-0.221-0.328-0.387-0.434c-0.164-0.106-0.529-0.249-1.092-0.427c-0.41-0.136-0.654-0.232-0.738-0.295
		c-0.139-0.103-0.207-0.245-0.207-0.425c0-0.185,0.07-0.336,0.217-0.452c0.145-0.118,0.363-0.177,0.658-0.177
		c0.518,0,0.809,0.267,0.869,0.801l0.664-0.109c-0.047-0.339-0.129-0.598-0.248-0.779c-0.119-0.181-0.293-0.326-0.52-0.433
		c-0.225-0.108-0.486-0.161-0.785-0.161c-0.473,0-0.842,0.13-1.109,0.391s-0.4,0.602-0.4,1.019c0,0.242,0.049,0.459,0.146,0.649
		c0.1,0.19,0.236,0.343,0.414,0.455c0.178,0.114,0.533,0.253,1.061,0.416c0.365,0.109,0.596,0.202,0.691,0.275
		c0.139,0.108,0.207,0.259,0.207,0.451c0,0.225-0.082,0.409-0.242,0.555c-0.16,0.146-0.389,0.22-0.682,0.22
		c-0.295,0-0.529-0.084-0.709-0.252c-0.178-0.168-0.285-0.426-0.326-0.771l-0.676,0.129c0.152,1.05,0.711,1.575,1.672,1.575
		c0.514,0,0.918-0.145,1.213-0.435c0.297-0.288,0.445-0.667,0.445-1.134C94.336,13.276,94.291,13.06,94.199,12.876z M39.796,14.118
		c-0.183,0.198-0.403,0.298-0.66,0.298c-0.329,0-0.599-0.149-0.809-0.447c-0.211-0.297-0.316-0.779-0.316-1.445
		c0-0.646,0.11-1.116,0.33-1.412c0.219-0.296,0.496-0.444,0.831-0.444c0.224,0,0.416,0.082,0.575,0.245s0.272,0.41,0.337,0.74
		l0.658-0.12c-0.08-0.516-0.262-0.902-0.546-1.16c-0.283-0.259-0.633-0.387-1.048-0.387c-0.537,0-0.977,0.213-1.319,0.637
		c-0.343,0.426-0.514,1.064-0.514,1.914c0,0.845,0.17,1.483,0.51,1.915c0.339,0.431,0.771,0.646,1.296,0.646
		c0.433,0,0.804-0.153,1.112-0.461c0.309-0.307,0.501-0.752,0.578-1.335l-0.668-0.106C40.095,13.613,39.979,13.921,39.796,14.118z
		 M88.588,9.985c-0.543,0-0.994,0.215-1.348,0.645c-0.355,0.431-0.531,1.066-0.531,1.911c0,0.842,0.178,1.479,0.537,1.91
		c0.355,0.431,0.805,0.646,1.342,0.646c0.545,0,0.996-0.215,1.35-0.645c0.354-0.431,0.529-1.084,0.529-1.963
		c0-0.81-0.18-1.43-0.539-1.86C89.568,10.2,89.121,9.985,88.588,9.985z M89.428,13.947c-0.229,0.313-0.504,0.469-0.822,0.469
		c-0.34,0-0.627-0.154-0.857-0.464c-0.229-0.309-0.344-0.78-0.344-1.413c0-0.627,0.113-1.096,0.34-1.406
		c0.229-0.311,0.504-0.466,0.824-0.466c0.342,0,0.627,0.154,0.857,0.464c0.23,0.309,0.346,0.778,0.346,1.408
		C89.771,13.166,89.656,13.636,89.428,13.947z M50.387,10.658c-0.125-0.213-0.285-0.377-0.477-0.496
		c-0.191-0.117-0.398-0.177-0.623-0.177c-0.313,0-0.596,0.094-0.853,0.28c-0.255,0.188-0.46,0.476-0.613,0.862
		c-0.154,0.387-0.23,0.858-0.23,1.413c0,0.811,0.173,1.44,0.519,1.887s0.754,0.67,1.227,0.67c0.225,0,0.434-0.063,0.627-0.186
		c0.193-0.126,0.354-0.305,0.475-0.542v0.617h0.635V8.234h-0.686V10.658z M50.135,13.973c-0.213,0.296-0.463,0.443-0.752,0.443
		c-0.291,0-0.547-0.154-0.767-0.461c-0.22-0.308-0.329-0.777-0.329-1.409c0-0.646,0.103-1.124,0.309-1.427
		c0.205-0.301,0.451-0.452,0.736-0.452c0.322,0,0.59,0.157,0.803,0.472c0.213,0.315,0.318,0.814,0.318,1.499
		C50.453,13.234,50.348,13.68,50.135,13.973z M69.266,14.277c-0.158,0-0.27-0.055-0.326-0.166c-0.041-0.076-0.061-0.246-0.061-0.511
		v-2.859h0.688v-0.646h-0.688V8.387l-0.678,0.498v1.21h-0.496v0.646h0.496v2.813c0,0.485,0.027,0.809,0.082,0.973
		c0.053,0.162,0.152,0.29,0.297,0.385c0.145,0.093,0.334,0.139,0.57,0.139c0.15,0,0.32-0.024,0.508-0.073l-0.092-0.732
		C69.443,14.267,69.344,14.277,69.266,14.277z M53.785,9.985c-0.543,0-0.99,0.222-1.348,0.665c-0.354,0.443-0.531,1.089-0.531,1.932
		c0,0.814,0.176,1.438,0.527,1.869c0.354,0.431,0.813,0.646,1.381,0.646c0.451,0,0.83-0.134,1.135-0.398
		c0.305-0.266,0.516-0.659,0.633-1.181l-0.699-0.107c-0.201,0.67-0.555,1.005-1.064,1.005c-0.324,0-0.602-0.141-0.83-0.42
		c-0.227-0.279-0.354-0.692-0.381-1.243h2.994l0.004-0.221c0-0.826-0.174-1.457-0.521-1.894
		C54.738,10.203,54.305,9.985,53.785,9.985z M52.648,12.071c0.021-0.43,0.139-0.771,0.354-1.024c0.217-0.254,0.475-0.38,0.779-0.38
		c0.338,0,0.615,0.152,0.834,0.457c0.15,0.208,0.24,0.523,0.271,0.947H52.648z M43.009,9.985c-0.544,0-0.992,0.215-1.348,0.645
		c-0.354,0.431-0.532,1.066-0.532,1.911c0,0.842,0.18,1.479,0.537,1.91c0.357,0.431,0.806,0.646,1.343,0.646
		c0.546,0,0.996-0.215,1.35-0.645c0.353-0.431,0.529-1.084,0.529-1.963c0-0.81-0.18-1.43-0.539-1.86
		C43.989,10.2,43.543,9.985,43.009,9.985z M43.849,13.947c-0.229,0.313-0.502,0.469-0.822,0.469c-0.341,0-0.626-0.154-0.856-0.464
		c-0.23-0.309-0.345-0.78-0.345-1.413c0-0.627,0.113-1.096,0.341-1.406c0.227-0.311,0.502-0.466,0.824-0.466
		c0.341,0,0.627,0.154,0.856,0.464c0.23,0.309,0.345,0.778,0.345,1.408C44.191,13.166,44.078,13.636,43.849,13.947z M59.438,11.892
		H62.5v-0.797h-3.063V9.031h3.27V8.234h-4.002v6.753h4.131v-0.798h-3.398V11.892z M66.676,10.443
		c-0.111-0.137-0.26-0.247-0.441-0.332c-0.184-0.084-0.381-0.126-0.596-0.126c-0.275,0-0.52,0.066-0.732,0.198
		c-0.213,0.133-0.395,0.335-0.541,0.603v-0.691h-0.611v4.893h0.676v-2.675c0-0.59,0.098-1.007,0.291-1.249
		c0.193-0.243,0.453-0.365,0.777-0.365c0.172,0,0.324,0.046,0.453,0.137c0.133,0.091,0.227,0.22,0.289,0.385
		c0.063,0.166,0.092,0.429,0.092,0.789v2.979h0.678v-3.008c0-0.451-0.029-0.786-0.082-1.004
		C66.871,10.757,66.787,10.579,66.676,10.443z"/>
</g>
<g id="Layer_1">
</g>
</svg>
