<?xml version="1.0" encoding="iso-8859-1"?>
<!-- Generator: Adobe Illustrator 16.0.0, SVG Export Plug-In . SVG Version: 6.00 Build 0)  -->
<!DOCTYPE svg PUBLIC "-//W3C//DTD SVG 1.1//EN" "http://www.w3.org/Graphics/SVG/1.1/DTD/svg11.dtd">
<svg version="1.1" xmlns="http://www.w3.org/2000/svg" xmlns:xlink="http://www.w3.org/1999/xlink" x="0px" y="0px"
	 width="93.949px" height="17.635px" viewBox="0 0 93.949 17.635" style="enable-background:new 0 0 93.949 17.635;"
	 xml:space="preserve">
<g id="_x31_3-santafe">
	<path style="fill:#FCCE16;" d="M8.195,7.947C8.239,7.99,8.269,8.056,8.361,8.065V7.87c0-1.385-0.021-2.772,0.012-4.157
		c0.011-0.468-0.084-0.833-0.469-1.105C7.883,2.592,7.869,2.568,7.847,2.552c-0.07-0.054-0.06-0.099,0.001-0.158
		C8.09,2.162,8.333,1.928,8.569,1.688C8.646,1.609,8.694,1.63,8.76,1.698c0.226,0.231,0.453,0.46,0.687,0.686
		C9.52,2.453,9.53,2.5,9.449,2.571c-0.128,0.114-0.24,0.246-0.37,0.356C8.974,3.018,8.94,3.119,8.94,3.255
		c0.004,1.531,0.002,3.062,0.002,4.593v0.244C9.01,8.037,9.042,8.015,9.07,7.988c1.446-1.446,2.892-2.894,4.341-4.337
		c0.091-0.091,0.081-0.158,0.027-0.256c-0.388-0.71-0.85-1.366-1.437-1.926c-1.028-0.979-2.222-1.549-3.674-1.459
		c-0.91,0.056-1.715,0.396-2.439,0.928C5.022,1.573,4.381,2.402,3.86,3.334C3.784,3.472,3.79,3.551,3.906,3.667
		C5.339,5.09,6.766,6.52,8.195,7.947z M13.333,13.933c-0.064-0.033-0.101-0.12-0.156-0.174c-1.362-1.364-2.723-2.729-4.087-4.092
		C9.052,9.629,9.025,9.566,8.934,9.574v5.696c0,0.394,0,0.385-0.39,0.396c-0.164,0.004-0.208-0.042-0.207-0.207
		c0.005-1.888,0.003-3.775,0.003-5.663V9.559C8.298,9.58,8.285,9.583,8.276,9.59c-1.476,1.473-2.951,2.948-4.428,4.421
		c-0.067,0.066-0.057,0.113-0.018,0.186c0.52,0.964,1.175,1.812,2.057,2.477c1.59,1.195,3.53,1.282,5.211,0.222
		c1.001-0.632,1.721-1.523,2.302-2.539C13.497,14.188,13.567,14.047,13.333,13.933z"/>
	<path style="fill:#0F0F0F;" d="M30.615,10.8c0.031-0.729,0.111-1.458,0.027-2.191c-0.092-0.801-0.522-1.303-1.305-1.472
		c-0.358-0.078-0.719-0.099-1.081-0.028c-0.567,0.111-1.078,0.333-1.438,0.816c-0.058,0.077-0.066,0.122,0.023,0.187
		c0.204,0.144,0.405,0.294,0.595,0.456c0.093,0.081,0.137,0.054,0.197-0.028c0.139-0.189,0.318-0.336,0.536-0.424
		c0.337-0.136,0.679-0.165,1.005,0.032c0.328,0.195,0.253,0.531,0.229,0.821c-0.016,0.183-0.237,0.085-0.36,0.13
		c-0.048,0.018-0.103,0.019-0.155,0.027c-0.604,0.107-1.197,0.247-1.712,0.606c-0.761,0.532-0.942,1.644-0.369,2.287
		c0.405,0.454,0.93,0.502,1.486,0.416c0.428-0.065,0.807-0.263,1.178-0.498c0.021,0.112,0.049,0.205,0.055,0.301
		c0.006,0.102,0.046,0.136,0.147,0.135c0.323-0.006,0.646-0.004,0.97-0.001c0.098,0.001,0.116-0.016,0.088-0.122
		C30.608,11.773,30.595,11.29,30.615,10.8z M29.414,10.933c0,0.038-0.003,0.074-0.041,0.103c-0.282,0.205-0.565,0.411-0.92,0.468
		c-0.325,0.055-0.548-0.036-0.666-0.257c-0.139-0.259-0.093-0.574,0.126-0.799c0.195-0.198,0.445-0.298,0.705-0.377
		c0.255-0.078,0.516-0.134,0.797-0.174C29.415,10.249,29.415,10.59,29.414,10.933z M28.411,3.497c0.138-0.002,0.276-0.003,0.415,0
		c0.079,0.002,0.095-0.043,0.113-0.107c0.205-0.731,0.413-1.461,0.629-2.223c-0.142,0-0.261,0.008-0.378-0.002
		c-0.135-0.013-0.192,0.027-0.223,0.17c-0.097,0.445-0.216,0.886-0.327,1.33c-0.044-0.013-0.05-0.045-0.059-0.078
		c-0.079-0.338-0.161-0.676-0.239-1.014c-0.097-0.426-0.096-0.423-0.524-0.407c-0.094,0.003-0.133,0.021-0.106,0.123
		c0.196,0.7,0.392,1.4,0.583,2.102C28.315,3.453,28.334,3.499,28.411,3.497z M21.345,3.5c0.162,0.004,0.211-0.038,0.208-0.206
		c-0.01-0.666-0.004-1.332-0.004-1.997c0.014-0.003,0.027-0.005,0.042-0.007c0.349,0.615,0.716,1.219,1.038,1.849
		c0.147,0.287,0.317,0.404,0.636,0.365c0.139-0.017,0.168-0.049,0.167-0.182c-0.006-0.878-0.002-1.755-0.002-2.633
		c0-0.426,0-0.42-0.418-0.423c-0.137-0.001-0.179,0.036-0.177,0.176c0.008,0.6,0.004,1.201,0.001,1.801
		c0,0.044,0.035,0.104-0.033,0.136c-0.328-0.573-0.678-1.131-0.97-1.719c-0.16-0.32-0.354-0.44-0.698-0.397
		c-0.137,0.017-0.172,0.045-0.172,0.181c0.006,0.892,0.003,1.782,0.003,2.673C20.967,3.497,20.967,3.489,21.345,3.5z M27.447,3.315
		c0.274-0.214,0.273-0.236-0.016-0.419c-0.077-0.048-0.141-0.134-0.243-0.01c-0.151,0.183-0.361,0.25-0.586,0.159
		c-0.232-0.094-0.271-0.317-0.305-0.537c-0.013-0.09,0.041-0.077,0.091-0.077c0.191,0,0.383,0,0.574,0c0.053,0,0.106,0.002,0.159,0
		c0.182-0.012,0.455,0.081,0.525-0.036c0.102-0.169,0.01-0.419-0.056-0.628c-0.122-0.394-0.379-0.609-0.76-0.64
		c-0.416-0.033-0.769,0.159-0.941,0.516c-0.156,0.32-0.169,0.66-0.119,1.003C25.889,3.468,26.792,3.826,27.447,3.315z M26.8,1.558
		c0.11,0.013,0.2,0.065,0.262,0.156c0.059,0.086,0.129,0.193,0.081,0.29c-0.037,0.073-0.154,0.028-0.234,0.029
		c-0.203,0.005-0.406,0.001-0.61,0.001C26.349,1.667,26.505,1.522,26.8,1.558z M24.563,3.508c0.184-0.043,0.333-0.148,0.531-0.263
		c-0.062,0.249,0.059,0.276,0.228,0.251c0.039-0.005,0.08-0.005,0.119,0c0.131,0.02,0.167-0.034,0.166-0.163
		c-0.006-0.594-0.003-1.187-0.003-1.781c0-0.391,0-0.385-0.394-0.389c-0.126-0.001-0.168,0.029-0.166,0.162
		c0.008,0.456,0.004,0.91,0.002,1.366c0,0.064,0.011,0.128-0.041,0.186c-0.126,0.143-0.42,0.248-0.576,0.185
		c-0.197-0.079-0.171-0.261-0.172-0.423c-0.003-0.442,0-0.884-0.002-1.326c0-0.059,0.029-0.144-0.079-0.146
		c-0.132-0.002-0.263,0.001-0.396-0.001c-0.082-0.002-0.076,0.053-0.076,0.106c0.001,0.542-0.013,1.082,0.005,1.623
		C23.727,3.363,24.104,3.618,24.563,3.508z M25.521,8.856c-0.162-0.107-0.336-0.197-0.515-0.301c0.18-0.088,0.35-0.169,0.495-0.291
		c0.471-0.394,0.576-0.919,0.543-1.496c-0.031-0.54-0.273-0.957-0.733-1.236c-0.421-0.256-0.892-0.358-1.376-0.365
		c-0.937-0.014-1.874-0.001-2.811-0.008c-0.132-0.001-0.161,0.037-0.161,0.164c0.004,2.29,0.005,4.58,0,6.87
		c-0.001,0.157,0.049,0.18,0.19,0.178c0.639-0.006,1.28-0.003,1.92-0.002c0.461,0.001,0.924,0.013,1.379-0.075
		c0.539-0.104,1.046-0.276,1.403-0.727c0.438-0.553,0.403-1.187,0.28-1.829C26.061,9.36,25.84,9.07,25.521,8.856z M22.341,7.155
		V6.423c0-0.073-0.013-0.149,0.104-0.145c0.487,0.017,0.975-0.032,1.461,0.03s0.774,0.388,0.769,0.863
		c-0.005,0.461-0.316,0.814-0.792,0.843c-0.474,0.027-0.949,0.013-1.423,0.022c-0.102,0-0.122-0.042-0.12-0.13
		C22.344,7.656,22.341,7.405,22.341,7.155z M23.804,11.227c-0.442,0.006-0.883-0.002-1.325,0.004
		c-0.117,0.002-0.143-0.035-0.14-0.145c0.007-0.297,0.002-0.594,0.002-0.891c0-0.303-0.001-0.606,0-0.909
		c0-0.057-0.02-0.125,0.079-0.122c0.526,0.018,1.054-0.035,1.579,0.03c0.644,0.08,0.858,0.515,0.827,1.065
		C24.789,10.914,24.461,11.216,23.804,11.227z M31.582,2.32c0.028-0.118-0.015-0.247-0.038-0.375
		c-0.087-0.478-0.448-0.8-0.903-0.818c-0.501-0.019-0.852,0.236-0.996,0.723c-0.079,0.271-0.081,0.544-0.035,0.82
		c0.084,0.514,0.444,0.85,0.921,0.867c0.512,0.017,0.883-0.27,1.005-0.79C31.568,2.614,31.599,2.477,31.582,2.32z M30.97,2.773
		c-0.059,0.188-0.173,0.298-0.387,0.298c-0.213,0-0.33-0.111-0.387-0.298c-0.092-0.304-0.092-0.609,0.007-0.913
		c0.061-0.185,0.196-0.277,0.388-0.274c0.185,0.003,0.307,0.096,0.368,0.273c0.054,0.159,0.072,0.321,0.069,0.508
		C31.034,2.491,31.013,2.634,30.97,2.773z M77.082,8.173c0.239,0.005,0.476-0.003,0.713,0.004c0.104,0.003,0.153-0.014,0.148-0.137
		c-0.011-0.243-0.008-0.487-0.001-0.731c0.003-0.102-0.022-0.137-0.131-0.134c-0.23,0.008-0.462-0.005-0.69,0.005
		c-0.138,0.007-0.182-0.027-0.179-0.171c0.01-0.462-0.003-0.924,0.007-1.385c0.005-0.154-0.046-0.188-0.188-0.183
		c-0.298,0.011-0.595,0.011-0.892,0c-0.146-0.005-0.174,0.047-0.172,0.18c0.007,0.455-0.005,0.911,0.006,1.366
		c0.004,0.161-0.046,0.216-0.199,0.191c-0.031-0.005-0.066,0-0.099,0c-0.419,0-0.42,0-0.418,0.42
		c0.001,0.184-0.06,0.422,0.031,0.536c0.096,0.123,0.344,0.026,0.524,0.04c0.008,0.001,0.015,0.001,0.021,0
		c0.116-0.019,0.14,0.034,0.139,0.144c-0.006,0.502-0.003,1.003-0.003,1.504v1.445c0.012,0.672,0.265,1.028,0.843,1.158
		c0.438,0.099,0.878,0.013,1.317-0.022c0.084-0.007,0.082-0.065,0.08-0.128c0-0.238-0.008-0.476,0.004-0.712
		c0.008-0.161-0.022-0.223-0.2-0.164c-0.174,0.058-0.359,0.089-0.545,0.048c-0.157-0.037-0.254-0.122-0.254-0.3
		c0.003-0.951,0.004-1.9-0.001-2.851C76.942,8.179,76.992,8.172,77.082,8.173z M82.323,10.698c0.034-0.709,0.107-1.418,0.016-2.132
		c-0.095-0.741-0.497-1.235-1.187-1.408c-0.521-0.131-1.046-0.129-1.559,0.039c-0.413,0.135-0.779,0.344-1.052,0.699
		c-0.086,0.112-0.073,0.164,0.039,0.239c0.175,0.119,0.349,0.244,0.499,0.39c0.136,0.131,0.204,0.084,0.303-0.04
		c0.181-0.227,0.419-0.373,0.706-0.44c0.667-0.156,1.036,0.138,1.043,0.818c0.002,0.161-0.058,0.207-0.196,0.219
		c-0.308,0.025-0.612,0.086-0.911,0.165c-0.552,0.143-1.079,0.34-1.474,0.783c-0.63,0.708-0.508,2.141,0.672,2.402
		c0.268,0.06,0.536,0.045,0.804-0.003c0.413-0.071,0.782-0.256,1.15-0.495c0.021,0.123,0.039,0.221,0.054,0.318
		c0.012,0.086,0.052,0.121,0.145,0.12c0.323-0.006,0.646-0.004,0.971-0.001c0.101,0.001,0.119-0.021,0.092-0.124
		C82.299,11.738,82.299,11.221,82.323,10.698z M80.723,11.279c-0.194,0.094-0.381,0.204-0.602,0.231
		c-0.233,0.029-0.454,0-0.598-0.209c-0.155-0.23-0.146-0.472-0.016-0.711c0.103-0.188,0.273-0.3,0.46-0.389
		c0.33-0.155,0.683-0.228,1.039-0.292c0.106-0.019,0.124,0.015,0.122,0.106c-0.005,0.145-0.002,0.29-0.002,0.436
		c0,0.039-0.007,0.081,0.002,0.118C81.204,10.928,81.025,11.131,80.723,11.279z M74.446,7.676c-0.325-0.507-0.988-0.722-1.665-0.551
		c-0.414,0.104-0.766,0.331-1.144,0.584c0-0.148-0.006-0.266,0.001-0.383c0.007-0.104-0.013-0.154-0.137-0.151
		c-0.289,0.009-0.579,0.006-0.87,0.001c-0.097-0.002-0.139,0.017-0.139,0.128c0.004,1.643,0.004,3.285,0,4.928
		c0,0.122,0.048,0.14,0.151,0.139c0.298-0.006,0.595-0.012,0.892,0.002c0.158,0.007,0.195-0.043,0.194-0.196
		c-0.007-1.055,0.013-2.111-0.013-3.166c-0.011-0.365,0.131-0.575,0.425-0.735c0.134-0.074,0.271-0.133,0.418-0.17
		c0.551-0.136,0.83,0.047,0.918,0.604C73.502,8.853,73.501,9,73.502,9.144c0.001,1.017,0.004,2.033-0.003,3.048
		c-0.001,0.152,0.042,0.187,0.187,0.181c0.29-0.012,0.58-0.011,0.871-0.001c0.142,0.007,0.175-0.041,0.175-0.177
		c-0.007-1.162,0.001-2.323-0.007-3.483C74.722,8.347,74.648,7.992,74.446,7.676z M93.223,10.934
		c-0.132-0.099-0.202-0.075-0.299,0.045c-0.085,0.105-0.194,0.198-0.308,0.275c-0.477,0.327-1.355,0.369-1.645-0.524
		c-0.062-0.188-0.095-0.38-0.119-0.578c-0.015-0.132,0.02-0.182,0.166-0.177c0.455,0.012,0.911,0.005,1.367,0.005
		c0.469,0,0.937-0.005,1.405,0.002c0.117,0.001,0.158-0.021,0.158-0.15c-0.003-0.383-0.041-0.763-0.133-1.134
		c-0.241-0.975-0.769-1.491-1.685-1.606c-0.953-0.119-1.814,0.273-2.229,1.229c-0.34,0.784-0.36,1.597-0.164,2.418
		c0.136,0.566,0.398,1.055,0.888,1.398c0.484,0.34,1.031,0.372,1.59,0.313c0.679-0.071,1.247-0.349,1.655-0.918
		c0.067-0.096,0.082-0.139-0.034-0.205C93.625,11.207,93.417,11.08,93.223,10.934z M91.856,8.012
		c0.676,0.008,0.918,0.571,0.951,1.023c0.009,0.125-0.069,0.087-0.124,0.088c-0.283,0.003-0.566,0.001-0.85,0.001
		s-0.565-0.003-0.849,0.002c-0.094,0.001-0.137-0.011-0.134-0.124C90.867,8.426,91.289,8.005,91.856,8.012z M89.091,8.031
		c-0.667,0.006-1.335-0.002-2.002,0.006c-0.159,0.002-0.197-0.046-0.193-0.2c0.01-0.435,0.013-0.872,0-1.307
		c-0.007-0.175,0.04-0.219,0.215-0.217c0.933,0.01,1.863,0,2.794,0.009c0.152,0.001,0.189-0.041,0.184-0.188
		c-0.012-0.263-0.012-0.528-0.001-0.792c0.006-0.143-0.026-0.19-0.181-0.189c-1.399,0.006-2.801,0.006-4.2,0
		c-0.148,0-0.187,0.037-0.186,0.186c0.007,1.142,0.005,2.284,0.005,3.426c0,1.134,0.002,2.27-0.004,3.406
		c-0.001,0.148,0.025,0.21,0.191,0.202c0.33-0.014,0.661-0.015,0.99,0c0.175,0.009,0.2-0.054,0.2-0.21
		c-0.008-0.932-0.001-1.862-0.008-2.792c0-0.14,0.038-0.176,0.175-0.175c0.673,0.008,1.348,0,2.021,0.007
		c0.143,0.002,0.197-0.022,0.189-0.18c-0.015-0.27-0.015-0.542,0-0.812C89.288,8.056,89.233,8.029,89.091,8.031z M69.884,10.184
		c0.025-0.566,0.071-1.132-0.026-1.696c-0.093-0.54-0.331-0.987-0.856-1.217c-0.496-0.218-1.021-0.257-1.549-0.155
		c-0.533,0.103-1.01,0.322-1.364,0.76c-0.084,0.105-0.109,0.174,0.026,0.262c0.186,0.125,0.362,0.265,0.531,0.411
		c0.097,0.083,0.15,0.084,0.232-0.021c0.202-0.265,0.47-0.442,0.803-0.496c0.477-0.076,1.036,0.053,0.993,0.771
		c-0.015,0.219-0.083,0.265-0.275,0.287c-0.53,0.063-1.05,0.174-1.54,0.394c-0.626,0.28-1.07,0.707-1.139,1.435
		c-0.089,0.942,0.579,1.609,1.519,1.546c0.539-0.037,1.004-0.235,1.459-0.521c0.047,0.101,0.047,0.194,0.062,0.286
		c0.013,0.076,0.023,0.146,0.141,0.142c0.322-0.009,0.646-0.004,0.97-0.001c0.078,0,0.126-0.006,0.099-0.108
		C69.776,11.576,69.85,10.879,69.884,10.184z M68.609,11.031c-0.277,0.211-0.563,0.407-0.916,0.472
		c-0.344,0.062-0.578-0.048-0.692-0.307c-0.116-0.269-0.03-0.608,0.202-0.803c0.31-0.258,0.688-0.345,1.063-0.432
		c0.126-0.029,0.257-0.045,0.396-0.068c0,0.342-0.001,0.67,0.001,0.999C68.664,10.947,68.658,10.995,68.609,11.031z M54.196,9.976
		c0.461,0.009,0.924,0.004,1.385,0.004c0.469,0,0.938-0.005,1.406,0.002c0.117,0.001,0.161-0.022,0.158-0.15
		c-0.011-0.469-0.062-0.933-0.208-1.38c-0.181-0.545-0.486-1.001-1.042-1.22c-0.971-0.382-2.323-0.149-2.842,1.172
		c-0.285,0.729-0.307,1.477-0.15,2.233c0.128,0.624,0.403,1.166,0.956,1.528c0.474,0.309,1,0.343,1.541,0.287
		c0.678-0.07,1.245-0.349,1.657-0.911c0.069-0.093,0.094-0.148-0.032-0.219c-0.229-0.13-0.449-0.273-0.666-0.424
		c-0.096-0.067-0.143-0.044-0.205,0.035c-0.125,0.164-0.282,0.294-0.464,0.392c-0.629,0.339-1.28,0.091-1.521-0.576
		c-0.07-0.198-0.108-0.405-0.122-0.617C54.038,10.014,54.068,9.973,54.196,9.976z M54.048,8.996
		c0.046-0.552,0.374-0.991,0.985-0.984c0.629,0.006,0.92,0.504,0.963,0.996c0.009,0.102-0.027,0.121-0.119,0.119
		c-0.29-0.005-0.58-0.002-0.869-0.002c-0.278,0-0.555-0.004-0.832,0.003C54.072,9.129,54.039,9.103,54.048,8.996z M64.694,8.798
		c-0.48-0.38-1.048-0.592-1.607-0.816c-0.353-0.143-0.713-0.271-1.026-0.497c-0.24-0.176-0.379-0.405-0.313-0.714
		c0.064-0.317,0.275-0.498,0.58-0.577c0.722-0.188,1.309,0.088,1.639,0.777c0.044,0.088,0.082,0.11,0.179,0.077
		c0.31-0.105,0.62-0.21,0.937-0.295c0.176-0.047,0.188-0.101,0.112-0.262c-0.706-1.467-2.619-1.755-3.795-1.098
		c-1.09,0.61-1.428,2.332-0.105,3.169c0.48,0.303,1.008,0.503,1.528,0.721c0.358,0.15,0.722,0.291,1.011,0.562
		c0.467,0.436,0.343,1.163-0.246,1.411c-0.362,0.152-0.741,0.168-1.122,0.062c-0.494-0.137-0.799-0.487-1.019-0.925
		c-0.056-0.109-0.1-0.141-0.221-0.084c-0.277,0.136-0.562,0.256-0.847,0.371c-0.121,0.05-0.149,0.095-0.088,0.225
		c0.477,1.007,1.62,1.644,2.813,1.556c0.387-0.002,0.76-0.07,1.115-0.223c0.758-0.32,1.11-0.92,1.186-1.719
		C65.472,9.817,65.255,9.241,64.694,8.798z M39.366,10.695c-0.092-0.057-0.138-0.062-0.189,0.044
		c-0.07,0.143-0.168,0.267-0.277,0.382c-0.557,0.589-1.402,0.403-1.657-0.363c-0.123-0.363-0.125-0.736-0.125-1.112
		c0.014-0.377,0.04-0.75,0.218-1.093c0.158-0.307,0.409-0.467,0.759-0.478c0.453-0.014,0.754,0.213,0.933,0.602
		c0.08,0.175,0.158,0.172,0.306,0.105c0.209-0.096,0.423-0.185,0.642-0.247c0.187-0.052,0.176-0.134,0.108-0.277
		c-0.353-0.749-0.966-1.111-1.763-1.179c-0.851-0.072-1.673,0.235-2.088,1.112c-0.496,1.046-0.479,2.115,0.002,3.166
		c0.186,0.404,0.491,0.719,0.905,0.902c0.974,0.43,2.318,0.276,2.99-0.973c0.057-0.106,0.028-0.14-0.062-0.188
		C39.829,10.97,39.594,10.837,39.366,10.695z M42.797,7.082c-0.903-0.083-1.752,0.263-2.18,1.186
		c-0.302,0.653-0.362,1.341-0.271,2.045c0.137,1.051,0.705,2.107,2.119,2.155c0.732,0.024,1.359-0.207,1.803-0.822
		c0.402-0.559,0.518-1.197,0.521-1.867c0.007-0.231-0.009-0.462-0.047-0.689C44.562,8.032,43.957,7.189,42.797,7.082z M43.556,9.782
		c0.013,0.356-0.014,0.709-0.137,1.048c-0.153,0.423-0.451,0.634-0.875,0.633c-0.41-0.003-0.704-0.216-0.854-0.633
		c-0.167-0.468-0.174-0.954-0.138-1.44c0.02-0.269,0.06-0.533,0.176-0.781c0.159-0.343,0.419-0.525,0.803-0.533
		c0.379-0.006,0.659,0.154,0.826,0.493C43.544,8.952,43.567,9.365,43.556,9.782z M52.227,5.155
		c-0.295,0.007-0.593,0.013-0.889-0.001c-0.168-0.008-0.206,0.044-0.204,0.207c0.01,0.746,0.004,1.491,0.004,2.267
		c-0.419-0.373-0.826-0.559-1.24-0.558c-0.808,0.003-1.381,0.401-1.731,1.103c-0.508,1.02-0.45,2.069-0.04,3.097
		c0.545,1.366,2.114,1.558,3.043,0.645c0.023-0.025,0.047-0.071,0.101-0.045c0.015,0.121,0.04,0.245,0.043,0.368
		c0.003,0.103,0.038,0.136,0.141,0.134c0.257-0.006,0.515-0.008,0.771,0c0.112,0.004,0.147-0.031,0.147-0.145
		c-0.003-2.309-0.003-4.618,0-6.927C52.372,5.188,52.341,5.152,52.227,5.155z M51.033,11.096c-0.362,0.336-0.767,0.473-1.247,0.289
		c-0.315-0.121-0.497-0.372-0.592-0.675c-0.204-0.651-0.214-1.309,0.025-1.954c0.313-0.842,1.283-0.869,1.878-0.279
		c0.057,0.058,0.038,0.122,0.039,0.185c0.003,0.363,0.001,0.727,0.001,1.089c0,0.37-0.003,0.739,0.002,1.108
		C51.141,10.96,51.107,11.026,51.033,11.096z M33.53,7.13c-0.408,0.101-0.752,0.33-1.127,0.578c0-0.16-0.005-0.285,0.002-0.41
		c0.005-0.097-0.034-0.124-0.125-0.122c-0.298,0.004-0.595,0.007-0.892-0.001c-0.116-0.003-0.123,0.049-0.123,0.141
		c0.002,1.637,0.003,3.272-0.002,4.909c0,0.132,0.049,0.15,0.162,0.147c0.296-0.007,0.593-0.011,0.89,0.001
		c0.15,0.006,0.187-0.039,0.186-0.186c-0.006-1.063,0.018-2.126-0.014-3.187c-0.011-0.375,0.156-0.572,0.438-0.73
		c0.119-0.066,0.249-0.119,0.381-0.156c0.582-0.159,0.908,0.077,0.942,0.678c0.007,0.137,0.014,0.275,0.014,0.413
		c0.001,0.997,0.002,1.993-0.002,2.99c0,0.133,0.029,0.185,0.173,0.179c0.303-0.011,0.606-0.007,0.911-0.001
		c0.103,0.001,0.154-0.017,0.153-0.138c-0.015-1.233,0.038-2.468-0.025-3.7C35.408,7.268,34.418,6.912,33.53,7.13z"/>
	<path style="fill-rule:evenodd;clip-rule:evenodd;fill:#EF4123;" d="M8.155,8.69C7.824,8.369,7.483,8.056,7.166,7.724
		c-0.527-0.55-1.079-1.077-1.607-1.625C5.376,5.909,5.162,5.75,4.99,5.552C4.675,5.188,4.329,4.856,3.982,4.524
		C3.96,4.486,3.914,4.488,3.886,4.44C3.799,4.29,3.671,4.22,3.479,4.251C3.208,4.296,2.931,4.307,2.657,4.336
		C1.959,4.41,1.264,4.508,0.569,4.613C0.508,4.622,0.469,4.647,0.461,4.706C0.435,4.92,0.341,5.12,0.334,5.338
		C0.319,5.395,0.3,5.451,0.289,5.509c-0.172,0.92-0.263,1.848-0.284,2.785c-0.032,1.503,0.092,2.988,0.433,4.455
		c0.029,0.124,0.076,0.169,0.203,0.187c0.987,0.133,1.976,0.243,2.968,0.323c0.141,0.011,0.231-0.019,0.327-0.119
		c0.749-0.778,1.528-1.529,2.29-2.298c0.64-0.646,1.282-1.29,1.938-1.92C8.264,8.824,8.241,8.772,8.155,8.69z"/>
	<path style="fill-rule:evenodd;clip-rule:evenodd;fill:#006FAC;" d="M9.439,8.69c0.332-0.321,0.671-0.634,0.989-0.966
		c0.528-0.55,1.08-1.077,1.607-1.625c0.182-0.19,0.396-0.349,0.568-0.546c0.316-0.364,0.661-0.696,1.008-1.028
		c0.021-0.039,0.069-0.037,0.096-0.084c0.086-0.151,0.214-0.221,0.407-0.189c0.271,0.045,0.548,0.056,0.822,0.085
		c0.698,0.073,1.393,0.172,2.087,0.276c0.06,0.009,0.101,0.035,0.107,0.093C17.16,4.92,17.253,5.12,17.26,5.338
		c0.016,0.057,0.034,0.113,0.045,0.171c0.172,0.92,0.264,1.848,0.284,2.785c0.032,1.503-0.092,2.988-0.432,4.455
		c-0.029,0.124-0.077,0.169-0.203,0.187c-0.987,0.133-1.975,0.243-2.968,0.323c-0.14,0.011-0.231-0.019-0.327-0.119
		c-0.749-0.778-1.529-1.529-2.289-2.298c-0.641-0.646-1.282-1.29-1.939-1.92C9.33,8.824,9.354,8.772,9.439,8.69z"/>
</g>
<g id="Layer_1">
</g>
</svg>
