<?xml version="1.0" encoding="iso-8859-1"?>
<!-- Generator: Adobe Illustrator 16.0.0, SVG Export Plug-In . SVG Version: 6.00 Build 0)  -->
<!DOCTYPE svg PUBLIC "-//W3C//DTD SVG 1.1//EN" "http://www.w3.org/Graphics/SVG/1.1/DTD/svg11.dtd">
<svg version="1.1" xmlns="http://www.w3.org/2000/svg" xmlns:xlink="http://www.w3.org/1999/xlink" x="0px" y="0px"
	 width="94.184px" height="15.055px" viewBox="0 0 94.184 15.055" style="enable-background:new 0 0 94.184 15.055;"
	 xml:space="preserve">
<g id="_x31_5-nacion">
	<path style="fill:#2D368D;" d="M3.999,4.629V9.66H4.99V4.629H3.999z M7.994,4.629V9.66h1.004V4.629H7.994z M6.001,4.629V9.66h0.997
		V4.629H6.001z M2.988,4.248h9.011L7.494,2.001L2.988,4.248z M5.746,3.621l1.748-0.868l1.749,0.868H5.746z M89.281,8.549h-1.535
		v0.219c0.238,0,0.4,0.041,0.482,0.139c0.078,0.08,0.115,0.236,0.115,0.459l0.029,2.895L85.07,8.549h-1.318v0.219
		c0.223,0,0.381,0.041,0.463,0.139c0.076,0.08,0.111,0.229,0.111,0.432v3.451c0,0.197-0.035,0.34-0.111,0.416
		c-0.082,0.094-0.24,0.141-0.463,0.141v0.221h1.51v-0.221l-0.281-0.041l-0.168-0.088c-0.086-0.084-0.127-0.252-0.127-0.496
		l-0.064-3.303l3.801,4.182h0.285V9.338c0-0.203,0.035-0.352,0.111-0.432c0.086-0.098,0.24-0.139,0.463-0.139V8.549z M3.741,10.754
		h7.489v-0.738H3.741V10.754z M9.995,4.629V9.66h0.984V4.629H9.995z M38.95,5.934c0.261,0.226,0.561,0.4,0.905,0.518
		c0.353,0.13,0.709,0.193,1.084,0.193c0.419,0,0.806-0.066,1.162-0.2c0.334-0.14,0.624-0.331,0.865-0.582
		c0.243-0.233,0.424-0.508,0.552-0.824c0.122-0.318,0.179-0.64,0.179-0.984c0-0.373-0.075-0.722-0.231-1.044
		c-0.147-0.318-0.352-0.593-0.624-0.832c-0.263-0.228-0.565-0.402-0.908-0.522c-0.352-0.129-0.709-0.19-1.084-0.19
		c-0.417,0-0.805,0.071-1.161,0.213c-0.333,0.128-0.624,0.316-0.866,0.565c-0.241,0.236-0.421,0.511-0.551,0.828
		c-0.13,0.314-0.19,0.641-0.19,0.982c0,0.372,0.076,0.723,0.244,1.058C38.473,5.421,38.677,5.694,38.95,5.934z M39.726,2.091
		l0.511-0.295l0.437-0.061c0.299,0,0.574,0.072,0.828,0.217c0.241,0.133,0.45,0.328,0.627,0.589
		c0.167,0.245,0.301,0.523,0.396,0.839c0.093,0.314,0.139,0.64,0.139,0.981c0,0.766-0.204,1.32-0.597,1.672
		c-0.148,0.131-0.317,0.224-0.513,0.279l-0.436,0.063c-0.298,0-0.577-0.071-0.828-0.217c-0.239-0.138-0.448-0.331-0.627-0.588
		c-0.168-0.233-0.302-0.514-0.396-0.839c-0.093-0.315-0.136-0.641-0.136-0.984C39.13,2.992,39.331,2.443,39.726,2.091z
		 M56.648,5.281H56.41c-0.074,0.41-0.238,0.687-0.477,0.844c-0.195,0.121-0.498,0.177-0.904,0.177c-0.305,0-0.52-0.047-0.639-0.141
		c-0.102-0.068-0.152-0.193-0.152-0.368V4.119h0.533c0.309,0,0.52,0.049,0.629,0.143c0.109,0.093,0.164,0.28,0.164,0.559h0.242
		V3.178h-0.242L55.514,3.47L55.4,3.688c-0.109,0.119-0.316,0.176-0.615,0.176h-0.547v-2.04h0.615c0.412,0,0.717,0.066,0.902,0.205
		c0.178,0.128,0.293,0.364,0.346,0.709h0.227l-0.035-1.183h-3.521v0.2c0.219,0.009,0.375,0.057,0.457,0.142
		c0.086,0.084,0.129,0.23,0.129,0.436v3.441c0,0.206-0.043,0.355-0.129,0.437c-0.082,0.085-0.238,0.135-0.457,0.14v0.205h3.775
		L56.648,5.281z M12.787,2.193c-0.689-0.688-1.477-1.223-2.371-1.605C9.485,0.195,8.514,0,7.494,0c-1.022,0-1.996,0.194-2.92,0.587
		C3.679,0.97,2.886,1.504,2.197,2.193c-0.698,0.699-1.23,1.495-1.61,2.396C0.195,5.521,0,6.498,0,7.525
		c0,1.024,0.195,1.997,0.586,2.922c0.38,0.9,0.912,1.703,1.61,2.402c0.689,0.689,1.482,1.225,2.377,1.605
		c0.924,0.4,1.898,0.6,2.92,0.6c1.02,0,1.991-0.199,2.922-0.6c0.894-0.381,1.682-0.916,2.371-1.605
		c0.697-0.699,1.238-1.502,1.611-2.402c0.39-0.926,0.588-1.898,0.588-2.922c0-1.027-0.198-2.004-0.588-2.936
		C14.025,3.688,13.484,2.892,12.787,2.193z M13.478,10.064c-0.326,0.775-0.787,1.463-1.388,2.068
		c-0.598,0.605-1.286,1.072-2.068,1.406c-0.801,0.344-1.642,0.51-2.527,0.51c-0.877,0-1.72-0.166-2.525-0.51
		c-0.774-0.334-1.463-0.801-2.067-1.406c-0.595-0.605-1.059-1.293-1.393-2.068C1.166,9.26,0.996,8.409,0.996,7.525
		c0-0.894,0.17-1.742,0.513-2.549c0.334-0.778,0.798-1.468,1.393-2.067c0.604-0.604,1.293-1.071,2.067-1.405
		c0.805-0.344,1.648-0.513,2.525-0.513c0.885,0,1.726,0.169,2.527,0.513c0.782,0.333,1.47,0.8,2.068,1.405
		c0.601,0.599,1.062,1.289,1.388,2.067c0.343,0.807,0.512,1.655,0.512,2.549C13.989,8.409,13.82,9.26,13.478,10.064z M3.242,11.906
		h8.5v-0.744h-8.5V11.906z M64.316,5.27h-0.238l-0.166,0.522l-0.307,0.306l-0.449,0.127l-0.596,0.037L61.947,6.16
		c-0.119-0.076-0.178-0.202-0.178-0.385V2.334c0-0.205,0.035-0.351,0.111-0.436c0.092-0.085,0.252-0.133,0.475-0.142v-0.2h-2.055
		v0.2c0.217,0.009,0.375,0.057,0.457,0.142c0.086,0.084,0.129,0.23,0.129,0.436v3.441c0,0.206-0.043,0.355-0.129,0.437
		c-0.082,0.085-0.24,0.135-0.457,0.14v0.205h3.906L64.316,5.27z M21.375,6.557h1.687V6.352l-0.432-0.063
		c-0.056-0.04-0.089-0.11-0.089-0.205l0.396-1.223h1.592l0.486,1.237c0,0.093-0.042,0.16-0.117,0.19l-0.395,0.063v0.205h2.144V6.352
		c-0.178,0-0.317-0.038-0.418-0.11L25.935,5.83l-1.902-4.25h-0.118l-1.542,3.728c-0.18,0.458-0.328,0.744-0.458,0.866l-0.231,0.141
		l-0.309,0.038V6.557z M23.675,2.78l0.752,1.809h-1.403L23.675,2.78z M93.748,13.246c-0.105-0.076-0.199-0.215-0.279-0.412
		l-1.906-4.26h-0.123l-1.535,3.736c-0.188,0.447-0.344,0.738-0.475,0.859l-0.225,0.135l-0.307,0.041v0.221h1.68v-0.221l-0.416-0.066
		c-0.068-0.031-0.104-0.098-0.104-0.201c0-0.082,0.064-0.303,0.193-0.652l0.203-0.572h1.605l0.469,1.236
		c0,0.092-0.035,0.164-0.1,0.205l-0.396,0.051v0.221h2.15v-0.221C93.99,13.346,93.85,13.313,93.748,13.246z M90.543,11.586
		l0.65-1.813l0.752,1.813H90.543z M28.319,6.352l-0.283-0.051c-0.071-0.017-0.136-0.047-0.177-0.089
		c-0.075-0.074-0.121-0.245-0.128-0.497l-0.051-3.303l3.792,4.197h0.281V2.334c0-0.205,0.041-0.351,0.128-0.436
		c0.081-0.085,0.239-0.133,0.458-0.142v-0.2h-1.544v0.2c0.245,0,0.413,0.052,0.497,0.157c0.076,0.083,0.116,0.239,0.116,0.458
		l0.014,2.885l-3.31-3.7H26.8v0.2c0.22,0.009,0.378,0.057,0.473,0.142c0.075,0.084,0.115,0.23,0.115,0.436v3.441
		c0,0.206-0.041,0.352-0.115,0.437c-0.094,0.085-0.253,0.135-0.473,0.14v0.205h1.519V6.352z M65.658,6.084
		c0-0.083,0.064-0.309,0.191-0.663l0.207-0.56h1.604l0.473,1.237c0,0.093-0.033,0.16-0.104,0.19l-0.395,0.063v0.205h2.148V6.352
		c-0.191,0-0.334-0.038-0.436-0.11c-0.105-0.069-0.195-0.207-0.281-0.412l-1.904-4.25h-0.123l-1.533,3.728
		c-0.191,0.458-0.342,0.744-0.473,0.866c-0.057,0.069-0.133,0.116-0.227,0.141l-0.295,0.038v0.205h1.67V6.352l-0.42-0.063
		C65.695,6.249,65.658,6.178,65.658,6.084z M66.795,2.78l0.752,1.809h-1.402L66.795,2.78z M59.906,12.693l-0.881-1.619
		c0.316-0.102,0.559-0.27,0.736-0.514c0.156-0.205,0.232-0.445,0.232-0.711c0-0.385-0.115-0.689-0.348-0.904
		c-0.27-0.264-0.689-0.396-1.264-0.396h-2.246v0.219c0.225,0,0.381,0.041,0.465,0.139c0.082,0.08,0.123,0.229,0.123,0.432v3.451
		c0,0.197-0.041,0.34-0.123,0.416c-0.084,0.094-0.242,0.141-0.465,0.141v0.221h2.057v-0.221c-0.227,0-0.387-0.047-0.473-0.141
		c-0.074-0.076-0.115-0.219-0.115-0.416v-1.563l0.293,0.012l0.207,0.09c0.1,0.076,0.227,0.271,0.369,0.578l0.27,0.59
		c0.199,0.418,0.416,0.717,0.648,0.885c0.254,0.186,0.611,0.273,1.061,0.273l0.332-0.014v-0.18
		c-0.205-0.025-0.361-0.086-0.471-0.189C60.193,13.17,60.057,12.973,59.906,12.693z M58.066,11.01l-0.461-0.053V8.789l0.293-0.021
		c0.42,0,0.73,0.146,0.936,0.441c0.17,0.232,0.252,0.506,0.252,0.834C59.086,10.686,58.75,11.01,58.066,11.01z M40.428,9.184
		c-0.261-0.227-0.569-0.406-0.917-0.531c-0.342-0.131-0.701-0.194-1.084-0.194c-0.417,0-0.8,0.075-1.148,0.219
		c-0.339,0.135-0.631,0.326-0.87,0.574c-0.236,0.234-0.419,0.512-0.547,0.826c-0.129,0.305-0.193,0.635-0.193,0.984
		c0,0.371,0.076,0.719,0.233,1.041c0.14,0.318,0.351,0.596,0.624,0.822c0.26,0.23,0.564,0.408,0.904,0.535l1.087,0.193
		c0.414,0,0.8-0.072,1.161-0.219c0.334-0.137,0.625-0.328,0.863-0.572c0.239-0.24,0.421-0.516,0.548-0.834
		c0.13-0.307,0.193-0.625,0.193-0.967c0-0.377-0.076-0.729-0.228-1.063C40.902,9.697,40.692,9.424,40.428,9.184z M39.637,13.025
		l-0.506,0.279l-0.424,0.076c-0.296,0-0.576-0.068-0.829-0.211c-0.244-0.139-0.459-0.336-0.639-0.588
		c-0.167-0.25-0.298-0.529-0.393-0.846c-0.095-0.314-0.143-0.645-0.143-0.996c0-0.756,0.2-1.305,0.598-1.66
		c0.156-0.127,0.327-0.221,0.513-0.279l0.437-0.074c0.298,0,0.574,0.074,0.827,0.23c0.236,0.139,0.445,0.328,0.626,0.572
		c0.178,0.246,0.316,0.525,0.413,0.844c0.093,0.322,0.136,0.652,0.136,0.994C40.251,12.121,40.046,12.678,39.637,13.025z
		 M45.472,8.768c0.245,0,0.414,0.041,0.5,0.139c0.075,0.08,0.109,0.236,0.109,0.459l0.014,2.895L42.79,8.549h-1.311v0.219
		c0.217,0,0.373,0.041,0.456,0.139c0.086,0.08,0.131,0.229,0.131,0.432v3.451c0,0.197-0.044,0.34-0.131,0.416
		c-0.083,0.094-0.238,0.141-0.456,0.141v0.221h1.516v-0.221l-0.282-0.041l-0.178-0.088c-0.083-0.084-0.128-0.252-0.128-0.496
		l-0.05-3.303l3.791,4.182h0.279V9.338c0-0.203,0.042-0.352,0.117-0.432c0.093-0.098,0.249-0.139,0.471-0.139V8.549h-1.544V8.768z
		 M33.374,8.768c0.22,0,0.372,0.041,0.458,0.139c0.076,0.08,0.117,0.229,0.117,0.432v3.451c0,0.197-0.041,0.34-0.117,0.416
		c-0.086,0.094-0.239,0.141-0.458,0.141v0.221h2.043v-0.221c-0.221,0-0.378-0.047-0.465-0.141c-0.081-0.076-0.123-0.219-0.123-0.416
		V9.338c0-0.203,0.042-0.352,0.123-0.432c0.086-0.098,0.24-0.139,0.465-0.139V8.549h-2.043V8.768z M69.395,13.115
		c-0.186,0.121-0.482,0.18-0.889,0.18c-0.313,0-0.527-0.041-0.639-0.125c-0.104-0.068-0.152-0.191-0.152-0.373v-1.67h0.533
		c0.309,0,0.516,0.045,0.627,0.139s0.164,0.275,0.164,0.547h0.244V10.18h-0.244l-0.047,0.293l-0.131,0.221
		c-0.109,0.111-0.313,0.164-0.613,0.164h-0.533V8.813h0.611c0.416,0,0.717,0.068,0.904,0.209c0.18,0.135,0.291,0.373,0.35,0.717
		h0.227l-0.035-1.189h-3.523v0.219c0.219,0,0.373,0.041,0.457,0.139c0.084,0.08,0.131,0.229,0.131,0.432v3.451
		c0,0.197-0.047,0.34-0.131,0.416c-0.084,0.094-0.242,0.141-0.457,0.141v0.221h3.775l0.104-1.293h-0.246
		C69.807,12.682,69.645,12.961,69.395,13.115z M81.213,8.768c0.221,0,0.379,0.041,0.461,0.139c0.086,0.08,0.127,0.229,0.127,0.432
		v3.451c0,0.197-0.041,0.34-0.127,0.416c-0.082,0.094-0.24,0.141-0.461,0.141v0.221h2.057v-0.221c-0.221,0-0.377-0.047-0.473-0.141
		c-0.074-0.076-0.115-0.219-0.115-0.416V9.338c0-0.203,0.041-0.352,0.115-0.432c0.084-0.098,0.244-0.139,0.473-0.139V8.549h-2.057
		V8.768z M52.477,4.821c0.068-0.226,0.105-0.461,0.105-0.702c0-0.774-0.217-1.389-0.643-1.839c-0.459-0.484-1.117-0.724-1.975-0.724
		h-2.657v0.2c0.228,0.009,0.388,0.057,0.473,0.142c0.075,0.084,0.115,0.23,0.115,0.436v3.441c0,0.206-0.041,0.355-0.115,0.437
		c-0.085,0.085-0.245,0.135-0.473,0.14v0.205h2.401c1.078,0,1.865-0.311,2.359-0.931C52.256,5.396,52.395,5.128,52.477,4.821z
		 M50.934,5.83c-0.361,0.29-0.848,0.432-1.465,0.432c-0.266,0-0.445-0.032-0.541-0.089c-0.102-0.066-0.152-0.191-0.152-0.368v-3.98
		l1.43,0.074c0.223,0.049,0.42,0.148,0.588,0.294c0.23,0.205,0.408,0.466,0.537,0.793c0.143,0.355,0.215,0.768,0.215,1.235
		C51.545,4.944,51.34,5.479,50.934,5.83z M55.17,12.834l-1.887-4.26h-0.131l-1.543,3.736c-0.182,0.447-0.332,0.738-0.463,0.859
		l-0.227,0.135l-0.307,0.041v0.221h1.688v-0.221l-0.424-0.066c-0.066-0.031-0.1-0.098-0.1-0.201c0-0.082,0.059-0.303,0.188-0.652
		l0.207-0.572h1.605l0.475,1.236c0,0.092-0.035,0.164-0.102,0.205l-0.41,0.051v0.221h2.143v-0.221c-0.178,0-0.318-0.033-0.422-0.1
		C55.359,13.17,55.262,13.031,55.17,12.834z M52.26,11.586l0.65-1.813l0.756,1.813H52.26z M64.104,11.354v0.221
		c0.211,0,0.35,0.029,0.416,0.086c0.078,0.059,0.117,0.178,0.117,0.355v1.025c-0.279,0.205-0.582,0.305-0.914,0.305
		c-0.283,0-0.549-0.059-0.791-0.176c-0.256-0.121-0.484-0.295-0.678-0.512c-0.197-0.232-0.354-0.502-0.463-0.82
		c-0.113-0.332-0.166-0.689-0.166-1.068c0-0.58,0.146-1.047,0.445-1.404c0.336-0.4,0.811-0.598,1.432-0.598
		c0.543,0,0.957,0.121,1.266,0.354c0.297,0.223,0.455,0.525,0.484,0.908h0.189V8.768c-0.645-0.199-1.273-0.295-1.875-0.295
		c-0.998,0-1.766,0.278-2.309,0.829c-0.223,0.238-0.393,0.51-0.512,0.818c-0.111,0.289-0.166,0.582-0.166,0.879
		c0,0.246,0.039,0.496,0.102,0.738c0.076,0.326,0.205,0.615,0.383,0.869c0.477,0.697,1.244,1.049,2.297,1.049l1.301-0.17l0.82-0.295
		v-1.094c0-0.174,0.035-0.295,0.111-0.383c0.084-0.092,0.223-0.139,0.408-0.139v-0.221l-1.504,0.027L64.104,11.354z M22.937,8.549
		h-1.545v0.219c0.247,0,0.414,0.041,0.497,0.139c0.075,0.08,0.114,0.236,0.114,0.459l0.013,2.895L18.71,8.549h-1.315v0.219
		c0.221,0,0.38,0.041,0.462,0.139c0.085,0.08,0.125,0.229,0.125,0.432v3.451c0,0.197-0.041,0.34-0.125,0.416
		c-0.083,0.094-0.241,0.141-0.462,0.141v0.221h1.52v-0.221l-0.279-0.041l-0.182-0.088c-0.076-0.084-0.117-0.252-0.125-0.496
		l-0.056-3.303l3.789,4.182h0.286V9.338c0-0.203,0.041-0.352,0.125-0.432c0.083-0.098,0.24-0.139,0.462-0.139V8.549z M20.487,6.452
		c0.2-0.048,0.375-0.138,0.52-0.267c0.122-0.11,0.213-0.248,0.281-0.42c0.075-0.181,0.114-0.362,0.114-0.548
		c0-0.401-0.127-0.707-0.382-0.921c-0.216-0.197-0.548-0.326-0.997-0.383V3.893c0.372-0.055,0.658-0.186,0.868-0.395
		c0.205-0.206,0.308-0.451,0.308-0.729c0-0.459-0.179-0.791-0.535-0.998c-0.269-0.16-0.636-0.241-1.086-0.241h-2.195v0.22
		c0.221,0,0.378,0.042,0.462,0.135c0.085,0.076,0.125,0.22,0.125,0.424v3.457c0,0.193-0.041,0.336-0.125,0.42
		c-0.084,0.094-0.241,0.144-0.462,0.144V6.54h2.225L20.487,6.452z M18.85,1.771h0.32c0.375,0,0.658,0.103,0.852,0.306
		c0.197,0.197,0.294,0.476,0.294,0.844c0,0.637-0.377,0.958-1.134,0.958H18.85V1.771z M18.979,6.186
		c-0.085-0.055-0.128-0.171-0.128-0.34V4.069h0.088c0.478,0,0.851,0.116,1.113,0.343c0.262,0.233,0.394,0.546,0.394,0.945
		c0,0.609-0.334,0.919-0.995,0.919C19.212,6.277,19.055,6.246,18.979,6.186z M76.34,8.549l-0.037,1.404h0.254
		c0.027-0.42,0.127-0.701,0.293-0.857c0.148-0.131,0.373-0.189,0.689-0.189h0.613v3.883c0,0.197-0.043,0.34-0.129,0.416
		c-0.084,0.094-0.238,0.141-0.459,0.141v0.221h2.057v-0.221c-0.223,0-0.379-0.047-0.473-0.141c-0.074-0.076-0.115-0.219-0.115-0.416
		V8.906h0.611c0.314,0,0.547,0.059,0.689,0.189c0.174,0.156,0.271,0.438,0.291,0.857h0.26l-0.039-1.404H76.34z M35.313,6.646
		c0.813,0,1.567-0.241,2.246-0.724l-0.065-0.833c-0.282,0.437-0.614,0.765-1.004,0.984c-0.326,0.186-0.643,0.279-0.95,0.279
		c-0.297,0-0.571-0.067-0.814-0.203c-0.24-0.135-0.45-0.32-0.626-0.564c-0.169-0.227-0.302-0.491-0.396-0.799
		c-0.093-0.308-0.14-0.628-0.14-0.96c0-0.645,0.194-1.167,0.578-1.558c0.166-0.176,0.362-0.314,0.584-0.408l0.676-0.123
		c0.47,0,0.863,0.102,1.187,0.305c0.375,0.246,0.597,0.606,0.664,1.072h0.192V1.859l-1.048-0.302l-0.878-0.089
		c-0.997,0-1.765,0.282-2.313,0.841c-0.228,0.227-0.399,0.502-0.509,0.817c-0.114,0.281-0.168,0.569-0.168,0.877
		c0,0.24,0.036,0.484,0.103,0.73c0.078,0.333,0.207,0.625,0.385,0.88C33.491,6.301,34.259,6.646,35.313,6.646z M74.477,8.768
		c0.25,0,0.412,0.041,0.496,0.139c0.068,0.08,0.104,0.236,0.104,0.459l0.027,2.895l-3.305-3.711h-1.316v0.219
		c0.223,0,0.379,0.041,0.463,0.139c0.082,0.08,0.123,0.229,0.123,0.432v3.451c0,0.197-0.041,0.34-0.123,0.416
		c-0.086,0.094-0.24,0.141-0.463,0.141v0.221h1.52v-0.221l-0.281-0.041l-0.184-0.088c-0.08-0.084-0.121-0.252-0.121-0.496
		l-0.053-3.303L75.15,13.6h0.287V9.338c0-0.203,0.033-0.352,0.109-0.432c0.084-0.098,0.246-0.139,0.475-0.139V8.549h-1.545V8.768z
		 M31.737,13.078c-0.321,0.18-0.636,0.268-0.941,0.268c-0.299,0-0.57-0.066-0.82-0.203c-0.233-0.129-0.443-0.316-0.622-0.561
		c-0.174-0.23-0.305-0.5-0.397-0.805c-0.083-0.299-0.127-0.615-0.127-0.943c0-0.648,0.186-1.17,0.56-1.561l0.586-0.404l0.691-0.143
		c0.457,0,0.848,0.107,1.173,0.318c0.374,0.238,0.599,0.596,0.678,1.074h0.178V8.855L31.65,8.561l-0.881-0.102
		c-0.992,0-1.761,0.284-2.309,0.842c-0.221,0.238-0.391,0.51-0.512,0.818c-0.112,0.289-0.164,0.582-0.164,0.879
		c0,0.246,0.036,0.496,0.1,0.738c0.08,0.334,0.207,0.621,0.384,0.869c0.479,0.697,1.242,1.049,2.295,1.049
		c0.817,0,1.567-0.25,2.245-0.744l-0.06-0.828C32.468,12.523,32.131,12.857,31.737,13.078z M27.287,12.834l-1.904-4.26h-0.111
		l-1.548,3.736c-0.187,0.447-0.339,0.738-0.457,0.859l-0.232,0.135l-0.303,0.041v0.221h1.668v-0.221l-0.418-0.066
		c-0.055-0.031-0.089-0.098-0.089-0.201l0.383-1.225h1.604l0.488,1.236c0,0.092-0.038,0.164-0.114,0.205l-0.396,0.051v0.221h2.145
		v-0.221c-0.189,0-0.329-0.033-0.422-0.1L27.287,12.834z M24.376,11.586l0.639-1.813l0.765,1.813H24.376z"/>
</g>
<g id="Layer_1">
</g>
</svg>
