<?xml version="1.0" encoding="iso-8859-1"?>
<!-- Generator: Adobe Illustrator 16.0.0, SVG Export Plug-In . SVG Version: 6.00 Build 0)  -->
<!DOCTYPE svg PUBLIC "-//W3C//DTD SVG 1.1//EN" "http://www.w3.org/Graphics/SVG/1.1/DTD/svg11.dtd">
<svg version="1.1" xmlns="http://www.w3.org/2000/svg" xmlns:xlink="http://www.w3.org/1999/xlink" x="0px" y="0px" width="93.85px"
	 height="20.662px" viewBox="0 0 93.85 20.662" style="enable-background:new 0 0 93.85 20.662;" xml:space="preserve">
<g id="_x31_6-banamex">
	<path style="fill:#002F87;" d="M81.331,6.771c-2.202,0-3.875,1.877-3.875,4.545c0,2.751,1.591,4.524,4.095,4.524
		c1.158,0,2.419-0.511,3.113-1.411L83.3,13.147c-0.116,0.121-0.664,0.753-1.733,0.753c-0.938,0-1.722-0.662-1.806-1.855h5.251
		c0.019-0.168,0.032-0.394,0.032-0.729C85.044,8.638,83.653,6.771,81.331,6.771z M79.788,10.328c0.04-0.699,0.461-1.559,1.479-1.559
		c1.023,0,1.442,0.782,1.507,1.559H79.788z M32.845,9.61V9.575c1.306-0.457,1.906-1.379,1.906-2.354
		c0-1.099-0.653-1.868-1.498-2.253c-0.833-0.417-1.75-0.571-3.457-0.571c-1.374,0-2.859,0.116-3.519,0.243v10.969
		c0.583,0.087,1.576,0.173,2.963,0.173c2.341,0,3.759-0.343,4.629-0.982c0.75-0.549,1.278-1.366,1.278-2.425
		C35.148,10.874,34.115,9.938,32.845,9.61z M28.887,6.382c0.229-0.039,0.581-0.083,1.235-0.083c1.226,0,1.954,0.386,1.954,1.241
		c0,0.803-0.73,1.328-2.253,1.328h-0.937V6.382z M30.022,13.85c-0.511,0-0.858,0-1.135-0.045v-3.072h0.996
		c1.392,0,2.476,0.399,2.476,1.519C32.358,13.438,31.252,13.85,30.022,13.85z M90.768,10.957l2.61-3.997H90.67l-0.419,0.709
		c-0.296,0.514-0.632,1.084-0.796,1.408c-0.168-0.324-0.479-0.894-0.793-1.408L88.245,6.96h-2.716l2.621,3.997l-3.087,4.7h2.725
		l0.874-1.44c0.296-0.492,0.645-1.079,0.793-1.41c0.164,0.331,0.482,0.901,0.796,1.41l0.878,1.44h2.721L90.768,10.957z
		 M58.217,6.771c-1.705,0-2.824,0.704-3.121,0.892l0.879,1.58c0.188-0.1,1.013-0.604,2.182-0.604c1.034,0,1.445,0.5,1.445,1.107
		v0.466c-0.204-0.09-0.746-0.352-1.771-0.352c-1.833,0-3.435,0.962-3.435,2.883c0,2.1,1.602,3.099,3.159,3.099
		c1.232,0,1.868-0.612,2.046-0.764v0.58h2.284V9.825C61.886,7.875,60.504,6.771,58.217,6.771z M59.602,13.104
		c-0.248,0.418-0.846,0.796-1.593,0.796c-0.977,0-1.326-0.548-1.326-1.158c0-0.697,0.475-1.091,1.366-1.091
		c0.88,0,1.425,0.3,1.553,0.357V13.104z M40.079,6.771c-1.704,0-2.823,0.704-3.124,0.892l0.881,1.58
		c0.188-0.1,1.014-0.604,2.186-0.604c1.026,0,1.441,0.5,1.441,1.107v0.466c-0.205-0.09-0.75-0.352-1.774-0.352
		c-1.822,0-3.428,0.962-3.428,2.883c0,2.1,1.606,3.099,3.158,3.099c1.229,0,1.863-0.612,2.044-0.764v0.58h2.29V9.825
		C43.753,7.875,42.363,6.771,40.079,6.771z M41.463,13.104c-0.251,0.418-0.846,0.796-1.593,0.796c-0.978,0-1.325-0.548-1.325-1.158
		c0-0.697,0.474-1.091,1.363-1.091c0.882,0,1.427,0.3,1.555,0.357V13.104z M72.979,6.771c-1.615,0-2.553,0.987-2.697,1.118
		c-0.14-0.172-0.775-1.118-2.229-1.118c-1.212,0-1.916,0.624-2.084,0.764V6.96h-2.276v8.697h2.276v-4.9
		c0-1.358,0.604-1.825,1.412-1.825c0.872,0,1.394,0.514,1.394,1.87v4.855h2.285v-4.9c0-1.362,0.655-1.825,1.41-1.825
		c0.886,0,1.394,0.486,1.394,1.87v4.855h2.285v-5.463C76.148,7.868,74.813,6.771,72.979,6.771z M49.936,6.771
		c-1.268,0-1.918,0.601-2.104,0.764V6.96h-2.277v8.697h2.277v-5.002c0-1.306,0.781-1.723,1.492-1.723
		c0.752,0,1.479,0.379,1.479,1.772v4.953h2.282v-5.518C53.085,7.744,51.755,6.771,49.936,6.771z"/>
	<path style="fill-rule:evenodd;clip-rule:evenodd;fill:#E81D25;" d="M19.576,9.797c-0.696-0.222-1.417-0.437-2.09-0.611
		c0.357-0.425,0.971-1.173,1.421-1.799c0.473-0.648,0.699-1.148,0.701-1.658c0.004-0.437-0.16-0.881-0.474-1.43
		c-0.562-1.014-1.533-1.976-2.42-2.623c-0.596-0.425-1.506-1.024-2.386-1.024c-0.492,0-0.973,0.203-1.366,0.738
		c-0.43,0.588-0.856,1.217-1.228,1.795c-0.296-0.465-0.821-1.284-1.273-1.907C9.789,0.362,9.261,0,8.441,0
		c-1.486,0-3.202,0.959-4.09,1.6C3.636,2.118,2.557,2.997,2.557,4.056c0,0.325,0.111,0.671,0.369,1.022
		C3.35,5.672,3.808,6.273,4.252,6.802c-0.543,0.142-1.473,0.388-2.21,0.623C0.6,7.897,0,8.543,0,10.46
		c0,0.814,0.122,1.837,0.459,2.87c0.36,1.105,1.125,3.008,2.87,2.432c0.694-0.218,1.406-0.469,2.051-0.724
		c-0.039,0.554-0.091,1.523-0.091,2.296c0,1.489,0.379,2.06,1.633,2.632c1.046,0.486,2.4,0.696,3.491,0.696
		c1.168,0,3.206-0.139,3.206-1.978c0-0.731-0.015-1.476-0.058-2.172c0.517,0.21,1.415,0.557,2.153,0.791
		c0.484,0.164,0.877,0.236,1.23,0.236c0.672,0,1.164-0.308,1.78-0.97c1.08-1.169,2.092-3.405,2.092-4.938
		C20.815,10.852,20.531,10.111,19.576,9.797z M6.825,4.6c1.333-0.953,2.709-1.183,3.736-1.183c0.394,0,0.734,0.03,0.987,0.072
		c-0.699,1.099-1.035,1.913-1.068,2.299c-0.024-0.089-0.227-0.681-1.048-0.681c-0.88,0-1.735,0.558-2.373,0.558
		c-0.455,0-0.58-0.372-0.58-0.527C6.48,4.98,6.567,4.786,6.825,4.6z M5.24,11.242c0.013,0.611-0.068,1.029-0.431,1.15
		c-0.274,0.092-0.576,0-0.733-0.482C3.371,9.733,4.087,7.892,4.478,7.076c0.794,0.917,1.424,1.539,1.856,1.719
		C6.242,8.791,6.145,8.806,6.051,8.842C5.131,9.143,5.225,10.448,5.24,11.242z M10.181,16.781c-2.29,0-3.825-1.247-4.478-1.88
		c0.597-0.233,1.116-0.484,1.485-0.695c0.255-0.152,0.518-0.298,0.73-0.528c-0.03,0.082-0.046,0.174-0.046,0.273
		c0,0.979,1.277,1.285,2.029,1.516c0.588,0.18,0.967,0.385,0.967,0.77C10.868,16.519,10.689,16.781,10.181,16.781z M12.79,13.353
		c-0.371-0.348-1.02-0.595-2.25-0.595c-1.107,0-1.972,0.18-2.393,0.566c0.101-0.202,0.158-0.465,0.158-0.808
		c0-0.386-0.087-0.885-0.294-1.503c-0.34-1.056-0.771-1.83-1.276-2.107c0.499,0.065,1.169-0.123,2.164-0.837
		c0.893-0.654,1.497-1.307,1.602-1.872c0.096,0.494,0.478,1.077,1.466,1.79c0.902,0.662,1.708,1.026,2.275,0.956
		c-0.443,0.242-0.878,0.788-1.253,1.953c-0.216,0.66-0.331,1.255-0.331,1.723C12.658,12.903,12.695,13.156,12.79,13.353z
		 M15.863,14.151c-0.797,1.089-1.774,1.704-2.331,2.01c-0.043-0.645-0.116-1.211-0.205-1.625c-0.067-0.29-0.127-0.589-0.283-0.858
		c0.073,0.053,0.156,0.1,0.253,0.127c0.924,0.298,1.615-0.821,2.065-1.457c0.304-0.434,0.577-0.716,0.867-0.716
		c0.211,0,0.528,0.151,0.528,0.538C16.758,12.509,16.437,13.308,15.863,14.151z M15.015,8.77c-0.127,0-0.256,0-0.384,0.027
		c0.151-0.098,0.394-0.375,0.394-0.781c0-0.654-0.577-1.354-0.942-1.828c-0.261-0.347-0.427-0.642-0.427-0.896
		c0-0.265,0.219-0.515,0.502-0.515c0.137,0,0.292,0.042,0.473,0.181c1.848,1.342,2.348,3.261,2.514,4.148
		C16.298,8.889,15.479,8.77,15.015,8.77z"/>
</g>
<g id="Layer_1">
</g>
</svg>
