<?xml version="1.0" encoding="iso-8859-1"?>
<!-- Generator: Adobe Illustrator 16.0.0, SVG Export Plug-In . SVG Version: 6.00 Build 0)  -->
<!DOCTYPE svg PUBLIC "-//W3C//DTD SVG 1.1//EN" "http://www.w3.org/Graphics/SVG/1.1/DTD/svg11.dtd">
<svg version="1.1" xmlns="http://www.w3.org/2000/svg" xmlns:xlink="http://www.w3.org/1999/xlink" x="0px" y="0px"
	 width="94.773px" height="9.959px" viewBox="0 0 94.773 9.959" style="enable-background:new 0 0 94.773 9.959;"
	 xml:space="preserve">
<g id="_x31_9-bbva-bancomer">
	<path style="fill:#002F87;" d="M22.344,0.002l-2.232,7.506L18.235,1.29c-0.352-1.113-0.53-1.287-1.204-1.287h-1.746l3.234,9.884
		h2.376l3.011-9.884H22.344z M13.889,3.877l0.484-0.715c1.019-1.515,0.316-3.159-1.702-3.159H8.364V9.89h4.155
		C16.173,9.89,17.267,5.634,13.889,3.877z M11.394,8.569H10.69V1.29h1.271c0.612,0,1.139,0.504,1.139,1.116
		c0,0.213-0.039,0.413-0.25,0.714l-0.823,1.235c0.861,0.206,1.437,0.862,1.437,2.089C13.464,7.937,12.573,8.569,11.394,8.569z
		 M89.102,3.45c-0.273-0.363-0.625-0.635-1.036-0.821c-0.412-0.167-0.885-0.251-1.385-0.251c-0.479,0-0.924,0.089-1.329,0.267
		c-0.601,0.268-1.103,0.721-1.452,1.332c-0.343,0.606-0.534,1.357-0.534,2.216c0,0.56,0.073,1.077,0.225,1.54
		c0.226,0.689,0.623,1.247,1.18,1.63c0.547,0.38,1.258,0.585,2.084,0.585h0.002c0.661,0,1.198-0.107,1.639-0.264
		c0.702-0.265,1.062-0.588,1.235-0.776c-0.478-0.697-0.749-0.418-1.305-0.162c-0.323,0.161-0.944,0.296-1.503,0.296
		c-0.43,0-0.8-0.064-1.107-0.185c-0.235-0.085-0.438-0.207-0.613-0.36c-0.258-0.231-0.463-0.528-0.595-0.915
		c-0.123-0.339-0.189-0.745-0.203-1.218h5.347V6.15c0-0.062,0.009-0.178,0.009-0.291c0-0.59-0.071-1.1-0.22-1.542
		C89.431,3.988,89.287,3.701,89.102,3.45z M84.433,5.499c0.045-0.339,0.125-0.636,0.234-0.903c0.189-0.459,0.464-0.796,0.802-1.019
		c0.344-0.229,0.743-0.338,1.212-0.338c0.309,0,0.595,0.042,0.836,0.126c0.183,0.069,0.349,0.16,0.492,0.285
		c0.215,0.182,0.387,0.424,0.514,0.76c0.105,0.296,0.184,0.651,0.207,1.089H84.433z M94.133,2.408
		c-0.545-0.001-1.023,0.166-1.433,0.421c-0.267,0.165-0.509,0.363-0.725,0.576c0-0.178-0.004-0.316-0.021-0.43
		c-0.003-0.089-0.02-0.161-0.042-0.233c-0.016-0.046-0.04-0.094-0.077-0.141c-0.026-0.028-0.056-0.054-0.09-0.074
		c-0.049-0.032-0.101-0.052-0.158-0.059c-0.048-0.005-0.097-0.006-0.146-0.01h-0.489V9.89h1.024V4.557
		c0.36-0.426,0.693-0.688,0.923-0.832c0.007-0.005,0.013-0.01,0.021-0.014c0.416-0.263,0.747-0.334,1.015-0.36
		c0.473-0.046,0.794-0.108,0.84-0.85C94.582,2.445,94.364,2.41,94.133,2.408z M5.52,3.877l0.482-0.715
		c1.024-1.515,0.323-3.159-1.701-3.159H0V9.89h4.154C7.805,9.89,8.908,5.634,5.52,3.877z M3.026,8.569H2.33V1.29h1.264
		c0.613,0,1.146,0.504,1.146,1.116c0,0.213-0.041,0.413-0.253,0.714L3.658,4.355c0.865,0.206,1.439,0.862,1.439,2.089
		C5.097,7.937,4.206,8.569,3.026,8.569z M69.38,2.966c-0.551-0.389-1.235-0.592-2.009-0.589c-0.514,0-0.981,0.086-1.409,0.254
		c-0.636,0.267-1.155,0.717-1.508,1.32c-0.355,0.605-0.55,1.356-0.55,2.212c0,0.576,0.086,1.098,0.251,1.566
		c0.24,0.695,0.661,1.254,1.209,1.636c0.557,0.376,1.238,0.581,2.007,0.581c0.513,0,0.986-0.094,1.416-0.264
		c0.633-0.258,1.153-0.707,1.502-1.305c0.364-0.601,0.55-1.354,0.55-2.215c0-0.572-0.083-1.102-0.242-1.563
		C70.35,3.903,69.936,3.344,69.38,2.966z M69.633,7.417c-0.174,0.542-0.457,0.945-0.829,1.223c-0.382,0.276-0.858,0.425-1.433,0.425
		c-0.387,0-0.726-0.068-1.023-0.194c-0.443-0.186-0.788-0.508-1.038-0.96c-0.241-0.452-0.375-1.033-0.375-1.746
		c0-0.468,0.057-0.885,0.172-1.247c0.17-0.537,0.457-0.948,0.832-1.229c0.377-0.286,0.855-0.433,1.433-0.433
		c0.38,0,0.723,0.065,1.017,0.192c0.445,0.195,0.791,0.522,1.032,0.981c0.249,0.451,0.382,1.037,0.382,1.736
		C69.802,6.635,69.742,7.058,69.633,7.417z M27.665,0.004h-1.889l-3.025,9.882h1.541l0.649-2.127h3.593l0.653,2.127h2.679l-3-8.879
		C28.592,0.195,28.439,0.004,27.665,0.004z M25.373,6.306l1.352-4.513l1.369,4.513H25.373z M41.154,5.426
		c-0.21-0.253-0.482-0.45-0.781-0.587c-0.152-0.075-0.31-0.138-0.472-0.188c0.073-0.032,0.143-0.068,0.21-0.108
		c0.32-0.181,0.607-0.418,0.803-0.746c0.199-0.332,0.313-0.742,0.313-1.251c0-0.468-0.088-0.877-0.253-1.207
		c-0.123-0.257-0.29-0.47-0.492-0.638c-0.301-0.261-0.675-0.439-1.087-0.544C38.978,0.041,38.514,0,38.028,0h-2.867v9.887h3.088
		c0.492,0,0.951-0.052,1.361-0.158c0.316-0.077,0.602-0.189,0.852-0.336c0.385-0.22,0.691-0.523,0.902-0.909
		c0.215-0.388,0.33-0.847,0.33-1.388c0-0.422-0.066-0.774-0.184-1.073C41.417,5.787,41.299,5.594,41.154,5.426z M36.226,0.943h1.789
		c0.308,0,0.595,0.028,0.853,0.081c0.194,0.042,0.374,0.104,0.529,0.188c0.232,0.119,0.414,0.276,0.547,0.49
		c0.127,0.221,0.203,0.503,0.203,0.868c0,0.329-0.06,0.585-0.165,0.795c-0.077,0.163-0.186,0.292-0.311,0.4
		c-0.186,0.162-0.429,0.285-0.721,0.364c-0.287,0.075-0.608,0.11-0.963,0.11h-1.76V0.943z M40.421,7.918
		c-0.081,0.174-0.194,0.326-0.326,0.451c-0.206,0.193-0.472,0.335-0.787,0.427c-0.317,0.099-0.678,0.144-1.08,0.144h-2.003V5.186
		h1.843c0.407,0,0.77,0.034,1.087,0.112c0.236,0.054,0.441,0.135,0.617,0.227c0.271,0.145,0.469,0.342,0.608,0.591
		c0.137,0.249,0.211,0.557,0.211,0.95C40.593,7.402,40.532,7.686,40.421,7.918z M55.616,2.938c-0.192-0.221-0.437-0.36-0.696-0.445
		c-0.263-0.083-0.547-0.116-0.841-0.116c-0.659,0-1.259,0.146-1.798,0.375c-0.428,0.186-0.807,0.409-1.145,0.662V3.334
		c0-0.161-0.004-0.285-0.017-0.393c-0.008-0.078-0.029-0.15-0.051-0.219c-0.017-0.047-0.048-0.095-0.083-0.133
		c-0.021-0.029-0.054-0.052-0.087-0.071c-0.053-0.029-0.104-0.045-0.153-0.052c-0.048-0.005-0.098-0.005-0.147-0.009H50.11v7.43
		h1.026V4.403c0.374-0.286,0.798-0.555,1.233-0.761c0.468-0.217,0.953-0.351,1.445-0.351c0.188,0,0.364,0.013,0.521,0.05
		c0.11,0.029,0.211,0.073,0.299,0.124c0.126,0.086,0.227,0.195,0.301,0.36c0.08,0.166,0.12,0.388,0.12,0.692v5.369h1.034V4.444
		c0-0.39-0.057-0.716-0.16-0.993C55.844,3.255,55.743,3.081,55.616,2.938z M47.853,3c-0.229-0.223-0.523-0.386-0.869-0.484
		c-0.336-0.096-0.721-0.138-1.137-0.138c-1.415,0.008-2.213,0.419-2.731,0.714c0.382,0.81,0.788,0.612,1.312,0.387
		c0.403-0.173,0.865-0.245,1.354-0.245c0.225,0,0.472,0.052,0.711,0.102c0.142,0.038,0.268,0.09,0.375,0.152
		c0.17,0.106,0.292,0.238,0.386,0.41c0.089,0.17,0.139,0.4,0.139,0.691v1.057c-0.535-0.118-1.076-0.17-1.69-0.17
		c-0.429,0-0.825,0.041-1.192,0.128c-0.266,0.064-0.507,0.155-0.739,0.273c-0.332,0.183-0.603,0.43-0.796,0.736
		c-0.191,0.313-0.288,0.684-0.288,1.116c0,0.351,0.063,0.679,0.178,0.954c0.186,0.415,0.5,0.745,0.892,0.955
		c0.397,0.215,0.862,0.321,1.388,0.321c0,0,0,0,0.001,0c0.606,0,1.087-0.113,1.497-0.306c0.281-0.136,0.524-0.304,0.75-0.504
		c0.006,0.097,0.011,0.179,0.023,0.252c0.011,0.08,0.031,0.151,0.069,0.219c0.023,0.048,0.055,0.096,0.097,0.134
		c0.067,0.054,0.14,0.089,0.218,0.106c0.076,0.021,0.165,0.026,0.258,0.026h0.357V4.544c0-0.384-0.062-0.713-0.182-1
		C48.139,3.332,48.014,3.151,47.853,3z M47.392,8.039c-0.261,0.301-0.535,0.558-0.857,0.733c-0.34,0.188-0.748,0.302-1.298,0.302
		c-0.222,0-0.428-0.026-0.62-0.08C44.48,8.955,44.36,8.898,44.25,8.827c-0.159-0.103-0.288-0.244-0.382-0.431
		c-0.093-0.191-0.146-0.426-0.146-0.722c0-0.253,0.049-0.453,0.146-0.617c0.074-0.126,0.165-0.231,0.282-0.332
		c0.169-0.14,0.396-0.24,0.672-0.313c0.266-0.071,0.575-0.103,0.923-0.103c0.608,0,1.146,0.078,1.647,0.187V8.039z M81.765,2.941
		c-0.183-0.203-0.412-0.35-0.66-0.439c-0.254-0.086-0.532-0.125-0.822-0.125c-0.597,0-1.156,0.144-1.655,0.366
		c-0.414,0.191-0.784,0.423-1.111,0.681c-0.054-0.128-0.116-0.245-0.188-0.348c-0.185-0.246-0.43-0.431-0.707-0.543
		c-0.272-0.112-0.574-0.155-0.879-0.155c-0.617,0-1.184,0.155-1.677,0.385c-0.363,0.175-0.695,0.38-0.98,0.586V3.334
		c0-0.16-0.002-0.285-0.017-0.392c-0.007-0.079-0.021-0.151-0.042-0.22c-0.02-0.047-0.043-0.095-0.084-0.133
		c-0.023-0.029-0.055-0.056-0.089-0.071c-0.053-0.029-0.101-0.045-0.155-0.052c-0.055-0.005-0.102-0.005-0.152-0.009H72.06v7.43
		h1.024v-5.54c0.348-0.28,0.701-0.536,1.084-0.728c0.41-0.202,0.841-0.328,1.332-0.328c0.177,0,0.337,0.016,0.477,0.052
		c0.106,0.029,0.195,0.072,0.272,0.122c0.116,0.085,0.205,0.191,0.271,0.348c0.068,0.164,0.108,0.375,0.108,0.657v5.416h1.027V4.34
		c0.343-0.272,0.7-0.526,1.079-0.717c0.406-0.204,0.834-0.331,1.303-0.331c0.196,0,0.367,0.016,0.506,0.052
		c0.107,0.029,0.196,0.072,0.277,0.122c0.115,0.083,0.199,0.189,0.266,0.348c0.062,0.162,0.1,0.372,0.1,0.657v5.416h1.02V4.28
		c0-0.33-0.052-0.612-0.145-0.862C81.987,3.233,81.888,3.073,81.765,2.941z M61.988,8.784c-0.305,0.148-0.706,0.266-1.23,0.266
		c-0.403,0-0.744-0.063-1.052-0.19c-0.227-0.094-0.423-0.22-0.601-0.382c-0.262-0.24-0.467-0.552-0.611-0.942
		c-0.141-0.388-0.22-0.855-0.22-1.386c0-0.469,0.068-0.88,0.189-1.237c0.175-0.533,0.471-0.941,0.859-1.218
		c0.388-0.279,0.867-0.426,1.435-0.427c0.48,0,0.845,0.081,1.124,0.199c0.522,0.225,0.893,0.49,1.272-0.319
		c-1.044-0.849-2.092-0.754-2.387-0.769c-0.511,0-0.994,0.086-1.421,0.251c-0.644,0.262-1.179,0.706-1.545,1.303
		c-0.367,0.599-0.565,1.351-0.564,2.218c0,0.567,0.078,1.094,0.233,1.559c0.234,0.7,0.641,1.259,1.196,1.649
		c0.555,0.382,1.245,0.59,2.056,0.59h0.001c0.635,0,1.158-0.127,1.571-0.299C62.35,9.625,62.4,9.605,62.45,9.581
		c0.335-0.158,0.646-0.399,0.834-0.577C62.844,8.224,62.497,8.523,61.988,8.784z"/>
</g>
<g id="Layer_1">
</g>
</svg>
