<?xml version="1.0" encoding="iso-8859-1"?>
<!-- Generator: Adobe Illustrator 16.0.0, SVG Export Plug-In . SVG Version: 6.00 Build 0)  -->
<!DOCTYPE svg PUBLIC "-//W3C//DTD SVG 1.1//EN" "http://www.w3.org/Graphics/SVG/1.1/DTD/svg11.dtd">
<svg version="1.1" xmlns="http://www.w3.org/2000/svg" xmlns:xlink="http://www.w3.org/1999/xlink" x="0px" y="0px" width="36.32px"
	 height="23.422px" viewBox="0 0 36.32 23.422" style="enable-background:new 0 0 36.32 23.422;" xml:space="preserve">
<g id="_x32_-citi">
	<path style="fill:#004785;" d="M7.497,11.267c1.251,0,2.464,0.566,3.511,1.637l0.064,0.065l1.68-2.03l-0.043-0.053
		c-1.396-1.652-3.075-2.456-5.131-2.456c-2.067,0-3.957,0.692-5.322,1.951C0.779,11.741,0,13.658,0,15.927
		c0,2.267,0.779,4.186,2.256,5.545c1.366,1.257,3.255,1.95,5.322,1.95c2.056,0,3.735-0.804,5.131-2.454l0.043-0.054l-1.68-2.03
		l-0.064,0.064c-1.047,1.072-2.26,1.638-3.511,1.638c-2.611,0-4.507-1.96-4.507-4.659C2.99,13.227,4.885,11.267,7.497,11.267z
		 M14.45,23.144h2.963V8.665H14.45V23.144z M31.488,8.665v14.479h2.967V8.665H31.488z M26.842,20.722
		c-0.957,0-1.387-0.505-1.387-1.634v-7.681h3.016V8.682h-3.016V4.174l-2.912,1.558v2.95h-2.506v2.726h2.506v8.172
		c0,2.226,1.322,3.747,3.291,3.785c1.336,0.025,2.141-0.368,2.629-0.665l0.027-0.018l0.719-2.792l-0.174,0.106
		C28.244,20.477,27.506,20.722,26.842,20.722z"/>
	<path style="fill:#ED1C24;" d="M36.32,6.324C33.848,2.616,29.279-0.001,24.402,0c-4.803,0.001-9.37,2.539-11.924,6.324h3.408
		c2.326-2.397,5.342-3.699,8.516-3.702c3.115-0.002,6.18,1.305,8.512,3.702H36.32z"/>
</g>
<g id="Layer_1">
</g>
</svg>
