<?xml version="1.0" encoding="iso-8859-1"?>
<!-- Generator: Adobe Illustrator 16.0.0, SVG Export Plug-In . SVG Version: 6.00 Build 0)  -->
<!DOCTYPE svg PUBLIC "-//W3C//DTD SVG 1.1//EN" "http://www.w3.org/Graphics/SVG/1.1/DTD/svg11.dtd">
<svg version="1.1" xmlns="http://www.w3.org/2000/svg" xmlns:xlink="http://www.w3.org/1999/xlink" x="0px" y="0px"
	 width="92.668px" height="10.746px" viewBox="0 0 92.668 10.746" style="enable-background:new 0 0 92.668 10.746;"
	 xml:space="preserve">
<g id="_x32_0-banorte">
	<path style="fill:#6D0C1D;" d="M12.137,3.229c0-1.782-1.444-3.226-3.226-3.226L8.463,0.002H0v10.739h8.911
		c1.781,0,3.226-1.444,3.226-3.225c0-1.31-0.79-2.117-0.79-2.117C12.215,4.324,12.137,3.229,12.137,3.229z M9.697,8.098
		c0,0-0.032,0.5-0.512,0.5c-0.48,0-7.024,0-7.024,0V6.448h7.024c0,0,0.512,0.009,0.512,0.534S9.697,8.098,9.697,8.098z M9.697,3.772
		c0,0-0.032,0.501-0.512,0.501c-0.48,0-7.024,0-7.024,0v-2.15h7.024c0,0,0.512,0.008,0.512,0.533
		C9.697,3.182,9.697,3.772,9.697,3.772z M65.281,6.455c2.893-0.43,2.875-3.2,2.875-3.2c0-1.781-1.445-3.225-3.225-3.225h-8.949
		v10.716h2.158V6.473h4.381l2.797,4.269h2.775L65.281,6.455z M58.131,4.317V2.165h7.033c0.287,0,0.514,0.23,0.514,0.514v1.126
		c0,0.282-0.23,0.512-0.514,0.512H58.131z M92.668,2.167V0.006H81.799v10.737h10.869V8.581h-8.711V6.455h7.047V4.293h-7.047V2.167
		H92.668z M49.313,0h-3.44c-2.965,0-5.371,2.404-5.371,5.372c0,2.964,2.406,5.37,5.371,5.37h3.44c2.969,0,5.371-2.405,5.371-5.37
		C54.684,2.404,52.281,0,49.313,0z M49.193,8.354h-3.2c-1.649,0-2.985-1.336-2.985-2.982c0-1.649,1.336-2.985,2.985-2.985h3.2
		c1.648,0,2.984,1.336,2.984,2.985C52.178,7.018,50.842,8.354,49.193,8.354z M37.397,6.977l-8.133-6.974h-2.161v10.738h2.161v-6.97
		l8.133,6.97h2.159V0.003h-2.159V6.977z M69.506,2.204h4.209v8.54h2.508v-8.54h4.154V0.044H69.506V2.204z M20.533,0.002h-2.865
		l-5.439,10.739h2.51l1.606-3.172h5.515l1.613,3.172h2.507L20.533,0.002z M17.452,5.384l1.651-3.241l1.653,3.241H17.452z"/>
</g>
<g id="Layer_1">
</g>
</svg>
