<?xml version="1.0" encoding="iso-8859-1"?>
<!-- Generator: Adobe Illustrator 16.0.0, SVG Export Plug-In . SVG Version: 6.00 Build 0)  -->
<!DOCTYPE svg PUBLIC "-//W3C//DTD SVG 1.1//EN" "http://www.w3.org/Graphics/SVG/1.1/DTD/svg11.dtd">
<svg version="1.1" xmlns="http://www.w3.org/2000/svg" xmlns:xlink="http://www.w3.org/1999/xlink" x="0px" y="0px"
	 width="55.211px" height="22.35px" viewBox="0 0 55.211 22.35" style="enable-background:new 0 0 55.211 22.35;"
	 xml:space="preserve">
<g id="_x32_1-ixe">
	<path style="fill:#0A5745;" d="M0.018,0C-0.002,0.003,0,0.028,0.001,0.053c0,7.427,0,14.851,0,22.278
		c0.003,0.014,0.014,0.021,0.035,0.018c18.394,0,36.783,0,55.175,0c0-7.45,0-14.898,0-22.348C36.816,0,18.415,0,0.018,0z"/>
	<path style="fill-rule:evenodd;clip-rule:evenodd;fill:#FFFFFF;" d="M26.743,6.015c-0.02,0.003-0.019,0.028-0.017,0.052v10.057
		H29.2V6.032C28.417,5.992,27.557,6.027,26.743,6.015z M39.068,6.015c-0.674,0.836-1.347,1.684-2.006,2.511
		c-0.224,0.281-0.439,0.571-0.681,0.836c-0.071-0.147-0.184-0.282-0.277-0.418c-0.049-0.069-0.091-0.138-0.14-0.208
		c-0.057-0.082-0.122-0.167-0.158-0.244c-0.001-0.006-0.03-0.012-0.034-0.018c-0.07-0.098-0.151-0.229-0.209-0.314
		c-0.013-0.018-0.022-0.052-0.035-0.07c-0.023-0.033-0.064-0.056-0.087-0.087c-0.005-0.008,0.004-0.026,0-0.035
		c-0.002-0.005-0.03-0.011-0.035-0.017c-0.005-0.008,0.005-0.026,0-0.035c-0.002-0.006-0.03-0.011-0.034-0.017
		c-0.007-0.008,0.004-0.027,0-0.035c-0.003-0.006-0.031-0.011-0.035-0.018c-0.006-0.008,0.004-0.026,0-0.035
		c-0.002-0.005-0.03-0.011-0.035-0.017c-0.053-0.077-0.107-0.193-0.156-0.244c-0.015-0.015-0.021-0.038-0.035-0.053
		c-0.014-0.015-0.021-0.037-0.035-0.052c-0.014-0.015-0.021-0.037-0.035-0.052c-0.012-0.013-0.005-0.019-0.018-0.034
		c-0.021-0.032-0.063-0.054-0.087-0.087c-0.006-0.008,0.004-0.026,0-0.035c-0.002-0.006-0.03-0.011-0.034-0.017
		c-0.006-0.008,0.003-0.027,0-0.036c-0.003-0.005-0.03-0.011-0.034-0.017c-0.052-0.073-0.097-0.145-0.141-0.209
		c-0.027-0.04-0.069-0.121-0.088-0.14c-0.013-0.014-0.021-0.037-0.033-0.052c-0.014-0.013-0.007-0.019-0.019-0.035
		c-0.02-0.029-0.062-0.052-0.086-0.087c-0.007-0.008,0.004-0.026,0-0.035c-0.003-0.006-0.031-0.011-0.036-0.018
		c-0.005-0.008,0.004-0.026,0-0.035c-0.002-0.005-0.03-0.011-0.035-0.017c-0.005-0.008,0.005-0.026,0-0.035
		c-0.002-0.005-0.03-0.011-0.034-0.017c-0.051-0.072-0.109-0.195-0.157-0.244c-0.014-0.016-0.021-0.039-0.034-0.053
		c-0.015-0.014-0.021-0.037-0.035-0.052c-0.054-0.057-0.067-0.104-0.122-0.122c-0.07-0.022-0.231,0-0.366,0h-2.701
		c-0.01,0.036,0.021,0.038,0.035,0.052c0.319,0.409,0.634,0.816,0.958,1.221c0.097,0.122,0.213,0.259,0.296,0.366
		c0.011,0.014,0.025,0.022,0.035,0.035c0.011,0.014,0.006,0.038,0.017,0.052c0.048,0.059,0.126,0.126,0.157,0.174
		c0.031,0.045,0.057,0.083,0.088,0.123c0.061,0.078,0.142,0.162,0.192,0.226c0.023,0.03,0.028,0.06,0.051,0.087
		c0.032,0.039,0.085,0.079,0.105,0.105c0.01,0.014,0.005,0.038,0.017,0.052c0.017,0.021,0.054,0.032,0.07,0.052
		c0.011,0.013,0.008,0.04,0.018,0.052C33.161,8.798,33.34,9,33.472,9.17c0.011,0.014,0.025,0.023,0.035,0.035
		c0.01,0.014,0.005,0.038,0.018,0.053c0.039,0.048,0.1,0.09,0.139,0.139c0.012,0.014,0.008,0.04,0.018,0.052
		c0.008,0.012,0.024,0.022,0.035,0.035c0.045,0.057,0.084,0.107,0.121,0.157c0.02,0.024,0.05,0.043,0.07,0.07
		c0.038,0.048,0.066,0.108,0.104,0.156c0.031,0.04,0.085,0.079,0.105,0.105c0.01,0.014,0.005,0.038,0.017,0.052
		c0.039,0.049,0.101,0.091,0.14,0.14c0.012,0.014,0.008,0.04,0.018,0.052c0.037,0.048,0.1,0.105,0.122,0.14
		c0.031,0.047,0.053,0.078,0.088,0.122c0.021,0.028,0.046,0.041,0.069,0.07c0.02,0.026,0.03,0.06,0.052,0.087
		c0.031,0.039,0.084,0.078,0.104,0.104c0.011,0.015,0.006,0.038,0.019,0.052c0.038,0.05,0.104,0.087,0.122,0.157
		c-0.763,0.877-1.562,1.791-2.302,2.667c-0.533,0.626-1.083,1.25-1.604,1.865c-0.163,0.192-0.345,0.391-0.488,0.575
		c-0.001,0.002-0.106,0.058-0.017,0.068h2.823c0.651-0.819,1.309-1.676,1.936-2.493c0.073-0.093,0.17-0.197,0.227-0.277
		c0.054-0.076,0.091-0.113,0.141-0.175c0.047-0.062,0.084-0.124,0.121-0.175c0.1-0.137,0.218-0.278,0.313-0.4
		c0.028-0.036,0.058-0.088,0.104-0.105c0.273,0.396,0.564,0.86,0.837,1.256c0.08,0.117,0.19,0.249,0.244,0.365
		c0.002,0.007,0.031,0.012,0.036,0.018c0.013,0.022,0.021,0.051,0.033,0.071c0.014,0.018,0.022,0.033,0.035,0.052
		c0.012,0.018,0.023,0.053,0.034,0.069c0.025,0.035,0.062,0.052,0.088,0.087c0.006,0.008-0.004,0.027,0,0.036
		c0.003,0.005,0.03,0.011,0.035,0.017c0.015,0.022,0.021,0.05,0.035,0.07c0.078,0.115,0.154,0.241,0.228,0.349
		c0.078,0.118,0.189,0.246,0.243,0.365c0.002,0.006,0.029,0.011,0.034,0.019c0.016,0.023,0.02,0.045,0.034,0.069
		c0.057,0.086,0.108,0.155,0.158,0.227c0.063,0.089,0.103,0.144,0.156,0.227c0.055,0.081,0.126,0.191,0.158,0.262
		c0.002,0.005,0.03,0.011,0.034,0.017c0.025,0.036-0.006,0.032,0.053,0.052c0.072,0.025,0.245,0,0.384,0h2.684
		c0.016-0.026-0.023-0.056-0.036-0.068c-0.033-0.044-0.061-0.091-0.086-0.122c-0.009-0.012-0.024-0.021-0.035-0.035
		c-0.123-0.158-0.273-0.344-0.383-0.488c-0.068-0.09-0.132-0.163-0.191-0.244c-0.074-0.096-0.147-0.216-0.21-0.297
		c-0.012-0.014-0.041-0.02-0.053-0.034c-0.011-0.016-0.006-0.039-0.016-0.052c-0.054-0.07-0.112-0.135-0.159-0.192
		c-0.131-0.164-0.269-0.354-0.383-0.505c-0.064-0.088-0.13-0.164-0.191-0.245c-0.765-0.988-1.533-1.978-2.284-2.962
		c0.068-0.117,0.176-0.198,0.263-0.296c0.021-0.026,0.03-0.063,0.051-0.087c0.054-0.06,0.138-0.124,0.174-0.174
		c0.011-0.014,0.007-0.04,0.019-0.053c0.042-0.048,0.097-0.09,0.14-0.139c0.044-0.05,0.079-0.106,0.122-0.157
		c0.087-0.101,0.191-0.195,0.279-0.296c0.044-0.05,0.077-0.107,0.121-0.156c0.043-0.05,0.098-0.091,0.141-0.14
		c0.011-0.012,0.008-0.04,0.017-0.052c0.05-0.066,0.132-0.124,0.174-0.174c0.025-0.029,0.029-0.061,0.054-0.087
		c0.04-0.048,0.097-0.091,0.139-0.14c0.043-0.05,0.079-0.106,0.122-0.157c0.088-0.102,0.19-0.196,0.279-0.296
		c0.021-0.025,0.03-0.063,0.052-0.087c0.053-0.061,0.138-0.125,0.176-0.175c0.009-0.013,0.005-0.039,0.016-0.052
		c0.042-0.048,0.098-0.09,0.14-0.14c0.093-0.105,0.181-0.201,0.261-0.296c0.045-0.05,0.08-0.106,0.122-0.157
		c0.043-0.048,0.099-0.091,0.141-0.14c0.022-0.025,0.029-0.061,0.053-0.087c0.022-0.026,0.063-0.043,0.087-0.069
		c0.012-0.013,0.008-0.041,0.017-0.052c0.054-0.069,0.128-0.12,0.175-0.175c0.021-0.024,0.03-0.061,0.053-0.087
		c0.088-0.1,0.191-0.194,0.279-0.296c0.176-0.204,0.339-0.416,0.523-0.61c0.003-0.022,0.026-0.036-0.019-0.035H39.068z
		 M51.149,14.765c-0.088-0.151-0.197-0.338-0.279-0.47c-0.036-0.059-0.058-0.104-0.088-0.158c-0.015-0.025-0.037-0.044-0.052-0.069
		c-0.028-0.049-0.037-0.133-0.104-0.156c-0.509,0.263-1.119,0.512-1.795,0.628c-0.654,0.11-1.411,0.041-1.918-0.105
		c-0.319-0.091-0.6-0.218-0.837-0.366c-0.031-0.02-0.054-0.045-0.087-0.069c-0.028-0.019-0.08-0.033-0.105-0.053
		c-0.023-0.018-0.044-0.049-0.068-0.069c-0.139-0.111-0.297-0.245-0.401-0.366c-0.012-0.013-0.009-0.04-0.019-0.053
		c-0.012-0.014-0.04-0.021-0.053-0.034c-0.01-0.014-0.008-0.04-0.016-0.054c-0.035-0.048-0.076-0.081-0.105-0.121
		c-0.068-0.095-0.124-0.198-0.175-0.296c-0.208-0.405-0.338-0.91-0.349-1.48h6.974c0.081-1.834-0.282-3.219-1.081-4.219
		c-0.583-0.731-1.408-1.247-2.528-1.446c-1.5-0.267-2.924,0.11-3.835,0.732c-0.018,0.013-0.054,0.024-0.068,0.035
		c-0.062,0.042-0.117,0.107-0.158,0.139c-0.022,0.019-0.048,0.018-0.068,0.035c-0.05,0.04-0.095,0.084-0.141,0.105
		c-0.005,0.002-0.012,0.03-0.019,0.035c-0.061,0.053-0.118,0.089-0.174,0.14c-0.105,0.098-0.213,0.217-0.296,0.313
		c-0.014,0.017-0.032,0.03-0.053,0.052c-0.015,0.018-0.018,0.05-0.034,0.07c-0.03,0.036-0.074,0.067-0.105,0.104
		c-0.104,0.13-0.223,0.29-0.296,0.418c-0.042,0.073-0.088,0.132-0.121,0.191c-0.014,0.023-0.005,0.048-0.018,0.07
		c-0.012,0.019-0.04,0.029-0.053,0.053c-0.023,0.043-0.047,0.092-0.069,0.139c-0.19,0.377-0.356,0.821-0.438,1.273
		c-0.004,0.025-0.029,0.047-0.033,0.07c-0.06,0.285-0.088,0.604-0.105,0.924c-0.052,0.979,0.139,1.948,0.488,2.736
		c0.645,1.46,1.945,2.514,3.661,2.842c0.455,0.086,1.025,0.114,1.533,0.086c0.565-0.028,1.107-0.157,1.553-0.278
		c0.159-0.043,0.321-0.085,0.471-0.139c0.152-0.056,0.31-0.12,0.436-0.176c0.067-0.028,0.15-0.062,0.209-0.087
		c0.368-0.15,0.673-0.374,1.029-0.522c-0.028-0.12-0.114-0.208-0.176-0.313C51.169,14.826,51.165,14.795,51.149,14.765z
		 M45.396,8.072c0.014-0.016,0.036-0.032,0.053-0.052c0.071-0.094,0.183-0.203,0.296-0.279c0.017-0.011,0.04-0.033,0.071-0.052
		c0.015-0.011,0.04-0.033,0.068-0.052c0.34-0.225,0.765-0.425,1.378-0.384c0.123,0.008,0.243,0.038,0.365,0.07
		c0.206,0.056,0.378,0.118,0.541,0.227c0.048,0.032,0.119,0.095,0.175,0.139c0.079,0.064,0.134,0.107,0.208,0.192
		c0.4,0.455,0.682,1.189,0.663,2.074h-4.516C44.749,9.184,45.014,8.539,45.396,8.072z"/>
	<path style="fill-rule:evenodd;clip-rule:evenodd;fill:#FAA71A;" d="M21.565,11.385c0.009-0.153,0.085-0.312,0.087-0.436
		c0.001-0.074-0.037-0.168-0.053-0.261c-0.031-0.196-0.066-0.374-0.087-0.541c-0.025-0.209-0.033-0.367-0.069-0.523
		c-0.046-0.198-0.106-0.415-0.139-0.576c-0.011-0.05-0.007-0.105-0.018-0.139C21.265,8.84,21.222,8.788,21.2,8.735
		c-0.053-0.129,0.029-0.321,0-0.454c-0.015-0.067-0.081-0.113-0.123-0.174c-0.011-0.016-0.009-0.039-0.017-0.053
		c-0.033-0.053-0.076-0.084-0.087-0.14c-0.013-0.057,0.014-0.174,0-0.227c-0.015-0.056-0.068-0.098-0.105-0.157
		c-0.011-0.017-0.008-0.038-0.017-0.053c-0.007-0.01-0.028-0.023-0.035-0.035c-0.039-0.063-0.057-0.122-0.087-0.174
		c-0.036-0.062-0.086-0.111-0.122-0.157c-0.026-0.033-0.039-0.052-0.053-0.087c-0.031-0.072-0.023-0.164-0.053-0.244
		c-0.012-0.035-0.048-0.063-0.069-0.104c-0.06-0.118-0.109-0.262-0.175-0.349c-0.04-0.054-0.108-0.099-0.157-0.157
		c-0.05-0.06-0.091-0.13-0.139-0.191c-0.057-0.074-0.131-0.165-0.174-0.227c0-0.001-0.015-0.015-0.018-0.017
		c-0.041-0.043-0.057-0.103-0.086-0.14c-0.08-0.098-0.201-0.162-0.278-0.262c-0.021-0.026-0.026-0.065-0.036-0.086
		c-0.002-0.006-0.031-0.011-0.035-0.017c-0.013-0.023-0.003-0.049-0.017-0.07c-0.038-0.056-0.097-0.073-0.14-0.122
		c-0.027-0.031-0.041-0.079-0.069-0.105c-0.066-0.059-0.162-0.083-0.227-0.139c-0.067-0.059-0.115-0.142-0.174-0.209
		c-0.013-0.015-0.039-0.021-0.053-0.035c-0.02-0.021-0.017-0.046-0.034-0.07c-0.013-0.015-0.041-0.021-0.053-0.035
		c-0.019-0.023-0.017-0.053-0.035-0.07c-0.033-0.031-0.096-0.058-0.14-0.087c-0.04-0.028-0.066-0.051-0.086-0.07
		c-0.036-0.033-0.076-0.045-0.105-0.07c-0.051-0.041-0.097-0.068-0.139-0.104c-0.107-0.091-0.195-0.19-0.296-0.279
		c-0.019-0.017-0.046-0.015-0.069-0.035c-0.033-0.028-0.064-0.071-0.087-0.087c-0.018-0.011-0.02-0.023-0.035-0.035
		c-0.092-0.077-0.213-0.104-0.331-0.157c-0.22-0.098-0.452-0.216-0.646-0.313c-0.045-0.023-0.092-0.062-0.122-0.07
		c-0.075-0.02-0.156,0.008-0.228-0.018c-0.005-0.002-0.024-0.029-0.035-0.035c-0.053-0.03-0.097-0.06-0.139-0.087
		c-0.1-0.064-0.162-0.122-0.278-0.139c-0.049-0.007-0.078-0.005-0.123-0.018c-0.089-0.024-0.19-0.077-0.262-0.104
		c-0.101-0.039-0.267-0.053-0.366-0.069c-0.129-0.021-0.275-0.052-0.383-0.07c-0.161-0.025-0.239-0.109-0.366-0.139
		c-0.099-0.023-0.21-0.008-0.314-0.018c-0.213-0.021-0.416-0.04-0.61-0.07c-0.098-0.015-0.185-0.055-0.279-0.07
		c-0.207-0.032-0.434,0.021-0.645-0.017c-0.105-0.019-0.192-0.104-0.295-0.104c-0.017,0-0.032,0.011-0.053,0.017
		c-0.063,0.017-0.16,0.031-0.244,0.052c-0.092,0.023-0.182,0.073-0.244,0.07c-0.083-0.004-0.161-0.083-0.244-0.087
		c-0.03-0.001-0.073,0.027-0.122,0.035c-0.041,0.007-0.099,0.011-0.14,0.018c-0.184,0.03-0.38,0.047-0.558,0.087
		c-0.2,0.044-0.428,0.149-0.592,0.209c-0.09,0.033-0.184,0.056-0.262,0.07c-0.149,0.027-0.32,0.027-0.436,0.07
		c-0.062,0.023-0.13,0.083-0.192,0.122C9.001,2.813,8.944,2.863,8.875,2.895C8.78,2.937,8.666,2.958,8.561,2.999
		c-0.162,0.063-0.287,0.18-0.505,0.157C7.972,3.23,7.896,3.31,7.811,3.383C7.79,3.4,7.765,3.399,7.741,3.417
		C7.668,3.476,7.631,3.56,7.549,3.592C7.511,3.606,7.451,3.6,7.41,3.609C7.368,3.619,7.327,3.625,7.288,3.644
		C7.163,3.705,7.068,3.88,6.957,3.975C6.849,4.067,6.702,4.137,6.573,4.219c-0.061,0.04-0.128,0.083-0.191,0.123
		C6.342,4.365,6.273,4.397,6.26,4.411C6.244,4.425,6.245,4.417,6.224,4.429c-0.049,0.029-0.07,0.069-0.087,0.104
		c-0.002,0.005-0.03,0.011-0.034,0.018C6.083,4.579,6.07,4.626,6.05,4.655C6.029,4.685,6.003,4.71,5.98,4.743
		C5.958,4.774,5.934,4.821,5.911,4.847c-0.029,0.031-0.082,0.05-0.123,0.087C5.752,4.967,5.719,5.008,5.684,5.039
		C5.625,5.089,5.553,5.14,5.51,5.178c-0.025,0.022-0.055,0.036-0.07,0.053C5.379,5.295,5.356,5.394,5.3,5.439
		C5.278,5.458,5.226,5.46,5.196,5.475C5.162,5.491,5.142,5.519,5.109,5.526C5.045,5.647,4.958,5.819,4.865,5.911
		c-0.025,0.024-0.056,0.022-0.07,0.034c-0.082,0.076-0.02,0.329-0.052,0.436C4.733,6.412,4.712,6.423,4.69,6.45
		c-0.14,0.187-0.276,0.345-0.384,0.541c-0.08,0.035-0.163,0.055-0.209,0.105C4.084,7.111,4.083,7.164,4.063,7.2
		C4.043,7.237,4,7.267,3.993,7.288C3.968,7.366,3.969,7.501,3.958,7.619C3.948,7.735,3.926,7.853,3.923,7.95
		C3.922,8.026,3.949,8.142,3.94,8.176c-0.013,0.057-0.084,0.12-0.139,0.174c-0.067,0.068-0.118,0.083-0.14,0.175
		c-0.02,0.084,0.021,0.205,0,0.313c-0.012,0.065-0.08,0.132-0.087,0.192C3.572,9.046,3.588,9.072,3.592,9.101
		C3.613,9.263,3.638,9.41,3.627,9.589C3.623,9.653,3.623,9.747,3.61,9.798C3.604,9.82,3.569,9.843,3.557,9.867
		C3.54,9.902,3.537,9.944,3.522,9.972c-0.029,0.059-0.075,0.107-0.087,0.174c-0.02,0.111-0.008,0.245-0.018,0.366
		c-0.01,0.125,0,0.256-0.035,0.366C3.367,10.93,3.332,10.969,3.313,11c-0.042,0.073-0.086,0.138-0.14,0.209
		c0.07,0.136,0.089,0.336,0.122,0.488c0.022,0.099,0.058,0.145,0.088,0.21c0.06,0.129,0.059,0.332,0.07,0.503
		c0.02,0.322,0.04,0.618,0.07,0.89c0.018,0.167,0.044,0.24,0.087,0.349c0.017,0.044,0.022,0.083,0.034,0.122
		c0.002,0.007,0.032,0.025,0.036,0.035c0.02,0.054,0.03,0.117,0.052,0.174c0.065,0.169,0.135,0.313,0.209,0.472
		c0.049,0.105,0.127,0.206,0.157,0.313c0.023,0.083,0.008,0.177,0.035,0.262c0.029,0.094,0.142,0.196,0.209,0.314
		c0.047,0.081,0.079,0.186,0.122,0.278c0.048,0.106,0.106,0.267,0.157,0.35c0.073,0.118,0.131,0.222,0.192,0.33
		c0.065,0.119,0.096,0.16,0.191,0.228c0.099,0.069,0.154,0.132,0.228,0.209c0.078,0.083,0.19,0.181,0.244,0.261
		c0.072,0.11,0.188,0.185,0.279,0.262c0.067,0.059,0.172,0.132,0.209,0.192c0.022,0.037,0.051,0.046,0.069,0.07
		c0.011,0.014,0.006,0.036,0.017,0.052c0.016,0.02,0.054,0.033,0.07,0.051c0.011,0.015,0.008,0.041,0.017,0.054
		c0.029,0.037,0.072,0.06,0.105,0.087c0.053,0.044,0.096,0.087,0.139,0.122c0.054,0.044,0.096,0.086,0.14,0.122
		c0.077,0.066,0.142,0.155,0.209,0.209c0.02,0.016,0.059,0.017,0.086,0.035c0.008,0.005,0.01,0.028,0.018,0.035
		c0.014,0.01,0.04,0.009,0.053,0.018c0.081,0.054,0.15,0.095,0.227,0.139c0.024,0.015,0.043,0.039,0.069,0.053
		c0.053,0.027,0.126,0.038,0.175,0.07c0.067,0.042,0.098,0.107,0.157,0.155c0.054,0.044,0.129,0.085,0.192,0.122
		c0.133,0.081,0.27,0.159,0.418,0.228c0.179,0.081,0.384,0.146,0.558,0.227c0.023,0.011,0.042,0.038,0.07,0.053
		c0.038,0.019,0.076,0.017,0.104,0.034c0.068,0.043,0.109,0.118,0.157,0.157c0.026,0.022,0.052,0.016,0.087,0.034
		c0.177,0.098,0.47,0.184,0.663,0.263c0.089,0.035,0.082,0.045,0.156,0.034c0.274-0.034,0.429,0.007,0.611,0.07
		c0.072,0.024,0.146,0.059,0.209,0.069c0.17,0.025,0.359,0.006,0.54,0.018c0.193,0.012,0.383,0.001,0.558,0.019
		c0.044,0.004,0.087,0.025,0.139,0.033c0.055,0.01,0.129,0.004,0.175,0.018c0.09,0.025,0.154,0.096,0.244,0.122
		c0.111-0.048,0.14-0.088,0.261-0.104c0.136-0.019,0.269,0.012,0.401,0.018c0.283,0.011,0.544-0.023,0.801-0.035
		c0.146-0.006,0.287,0.005,0.419-0.018c0.076-0.013,0.148-0.049,0.228-0.069c0.267-0.069,0.594-0.155,0.836-0.227
		c0.21-0.062,0.395-0.14,0.576-0.21c0.081-0.03,0.166-0.071,0.226-0.087c0.058-0.014,0.135,0.002,0.191-0.017
		c0.007-0.003,0.028-0.03,0.036-0.034c0.017-0.012,0.034-0.007,0.052-0.019c0.06-0.037,0.113-0.089,0.157-0.122
		c0.015-0.012,0.035-0.006,0.052-0.018c0.016-0.011,0.021-0.04,0.035-0.053c0.067-0.051,0.158-0.1,0.209-0.14
		c0.013-0.009,0.021-0.024,0.035-0.034C16.982,19,17,18.998,17.085,18.967c0.132-0.051,0.25-0.108,0.349-0.176
		c0.049-0.031,0.093-0.056,0.139-0.087c0.019-0.012,0.034-0.04,0.052-0.051c0.028-0.02,0.061-0.019,0.087-0.036
		c0.021-0.013,0.03-0.038,0.053-0.051c0.028-0.018,0.067-0.021,0.087-0.036c0.124-0.095,0.195-0.257,0.295-0.297
		c0.064-0.023,0.137,0.001,0.192-0.017c0.142-0.164,0.301-0.35,0.454-0.488c0.011-0.01,0.041-0.009,0.052-0.017
		c0.015-0.013,0.021-0.039,0.035-0.053c0.04-0.037,0.103-0.074,0.122-0.104c0.011-0.018,0.024-0.021,0.035-0.034
		c0.059-0.075,0.103-0.159,0.157-0.227c0.006-0.01,0.027-0.011,0.035-0.019c0.013-0.014,0.005-0.037,0.017-0.053
		c0.006-0.008,0.028-0.01,0.035-0.016c0.012-0.015,0.004-0.038,0.018-0.054c0.015-0.02,0.053-0.032,0.069-0.053
		c0.011-0.013,0.009-0.039,0.018-0.052c0.031-0.041,0.11-0.099,0.14-0.121c0.013-0.012,0.039-0.008,0.052-0.019
		c0.045-0.039,0.08-0.094,0.122-0.14c0.096-0.104,0.237-0.213,0.28-0.33c0.021-0.057,0.032-0.097,0.052-0.141
		c0.021-0.046,0.05-0.09,0.069-0.122c0.017-0.027,0.022-0.048,0.034-0.069c0.039-0.065,0.093-0.122,0.123-0.156
		c0.018-0.021,0.019-0.053,0.036-0.071c0.029-0.032,0.075-0.057,0.104-0.086c0.066-0.067,0.116-0.15,0.21-0.192
		c0.021-0.175,0.131-0.303,0.209-0.452c0.035-0.069,0.066-0.151,0.104-0.228c0.041-0.081,0.103-0.149,0.123-0.226
		c0.03-0.117,0.002-0.254,0.034-0.367c0.008-0.027,0.037-0.073,0.053-0.104c0.074-0.143,0.145-0.324,0.191-0.453
		c0.034-0.094,0.062-0.174,0.087-0.243c0.035-0.093,0.061-0.16,0.07-0.263c0.016-0.171,0.029-0.312,0.053-0.471
		c0.028-0.194,0.083-0.409,0.087-0.609c0.002-0.133-0.028-0.251-0.035-0.383C21.577,11.677,21.558,11.527,21.565,11.385z
		 M19.788,11.489c0.002,0.05-0.003,0.124,0,0.175c0.004,0.097,0.035,0.198,0.035,0.296c-0.001,0.151-0.046,0.327-0.07,0.486
		c-0.012,0.086-0.025,0.161-0.035,0.244c-0.009,0.079-0.002,0.173-0.018,0.244c-0.013,0.063-0.063,0.132-0.087,0.191
		c-0.013,0.033-0.022,0.074-0.035,0.105c-0.032,0.079-0.063,0.194-0.104,0.297c-0.026,0.063-0.071,0.112-0.087,0.174
		c-0.028,0.108-0.002,0.229-0.035,0.33c-0.008,0.025-0.038,0.061-0.052,0.087c-0.007,0.013-0.008,0.04-0.018,0.054
		c-0.005,0.006-0.032,0.01-0.035,0.018c-0.032,0.06-0.042,0.122-0.07,0.174c-0.061,0.116-0.147,0.205-0.174,0.332
		c0.002,0.053-0.085,0.061-0.104,0.104c-0.003,0.006,0.005,0.03,0,0.034c-0.013,0.013-0.041,0.005-0.053,0.018
		c-0.009,0.01-0.008,0.025-0.017,0.035c-0.079,0.083-0.177,0.209-0.244,0.331c-0.038,0.069-0.063,0.14-0.105,0.209
		c-0.004,0.007,0.007,0.029,0,0.035c-0.005,0.005-0.029-0.007-0.034,0c-0.01,0.01-0.009,0.025-0.017,0.034
		c-0.026,0.029-0.07,0.064-0.105,0.104c-0.05,0.058-0.083,0.116-0.157,0.174c-0.039,0.032-0.085,0.053-0.122,0.088
		c-0.035,0.034-0.055,0.081-0.087,0.122c-0.015,0.021-0.032,0.028-0.052,0.053c-0.015,0.019-0.022,0.052-0.035,0.069
		c-0.045,0.059-0.086,0.105-0.139,0.175c-0.004,0.007-0.033,0.012-0.035,0.017c-0.021,0.046-0.041,0.046-0.087,0.087
		c-0.04,0.037-0.077,0.077-0.122,0.123c-0.02,0.02-0.032,0.05-0.052,0.069c-0.012,0.012-0.04,0.008-0.053,0.018
		c-0.062,0.047-0.138,0.16-0.208,0.227c-0.072-0.014-0.089,0.026-0.157,0.018c-0.106,0.093-0.192,0.188-0.297,0.261
		c-0.064,0.046-0.137,0.096-0.209,0.14c-0.014,0.009-0.038,0.008-0.053,0.018c-0.024,0.017-0.043,0.057-0.069,0.071
		c-0.023,0.011-0.061,0.006-0.088,0.016c-0.029,0.012-0.043,0.024-0.069,0.035c-0.043,0.018-0.097,0.028-0.14,0.052
		c-0.085,0.048-0.152,0.133-0.226,0.191c-0.034,0.028-0.083,0.061-0.122,0.089c-0.04,0.028-0.089,0.072-0.122,0.087
		c-0.075,0.032-0.164,0.027-0.244,0.052c-0.12,0.037-0.235,0.097-0.349,0.14c-0.179,0.068-0.356,0.143-0.54,0.192
		c-0.068,0.018-0.138,0.018-0.21,0.034c-0.122,0.03-0.239,0.083-0.366,0.104c-0.134,0.022-0.286,0.011-0.436,0.018
		c-0.136,0.006-0.266,0.034-0.4,0.035c-0.14,0-0.28-0.038-0.436-0.019c-0.043,0.006-0.078,0.02-0.122,0.036
		c-0.032,0.011-0.072,0.035-0.105,0.035c-0.055-0.001-0.132-0.062-0.226-0.088c-0.069-0.02-0.169-0.045-0.244-0.052
		c-0.269-0.029-0.591,0.016-0.837-0.019c-0.124-0.016-0.226-0.089-0.331-0.104c-0.093-0.014-0.213-0.014-0.314,0
		c-0.027,0.003-0.04,0.021-0.069,0.018c-0.009-0.001-0.028-0.033-0.035-0.036c-0.14-0.042-0.292-0.114-0.436-0.174
		c-0.023-0.01-0.045-0.025-0.069-0.034c-0.033-0.013-0.07-0.009-0.087-0.019c-0.074-0.042-0.119-0.129-0.193-0.175
		c-0.036-0.021-0.092-0.03-0.139-0.051c-0.046-0.021-0.079-0.052-0.122-0.071c-0.095-0.04-0.19-0.063-0.278-0.103
		c-0.125-0.058-0.236-0.139-0.366-0.21c-0.037-0.021-0.092-0.032-0.122-0.053c-0.063-0.042-0.111-0.112-0.175-0.157
		c-0.086-0.059-0.187-0.084-0.279-0.14c-0.02-0.011-0.031-0.038-0.053-0.052c-0.025-0.016-0.048-0.021-0.069-0.035
		c-0.02-0.012-0.048-0.021-0.069-0.034c-0.007-0.005-0.012-0.033-0.018-0.034c-0.048-0.023-0.073-0.057-0.122-0.105
		c-0.115-0.114-0.301-0.217-0.401-0.365c-0.017-0.025-0.056-0.052-0.087-0.088c-0.032-0.039-0.039-0.065-0.088-0.104
		c-0.056-0.046-0.14-0.116-0.208-0.174c-0.014-0.013-0.021-0.042-0.035-0.053c-0.017-0.013-0.039-0.004-0.052-0.018
		c-0.013-0.013-0.024-0.04-0.035-0.052c-0.045-0.056-0.118-0.14-0.174-0.21c-0.049-0.061-0.098-0.121-0.175-0.174
		c-0.04-0.029-0.09-0.036-0.122-0.071c-0.014-0.014-0.05-0.12-0.07-0.156c-0.048-0.084-0.106-0.157-0.157-0.261
		c-0.036-0.072-0.067-0.147-0.105-0.228c-0.046-0.098-0.101-0.236-0.174-0.348c-0.026-0.039-0.063-0.059-0.087-0.122
		c-0.024-0.064-0.014-0.139-0.035-0.21c-0.025-0.084-0.082-0.171-0.123-0.261c-0.09-0.201-0.187-0.431-0.278-0.662
		c-0.037-0.093-0.037-0.133-0.053-0.28c-0.005-0.045-0.029-0.079-0.035-0.121c-0.027-0.198-0.025-0.379-0.034-0.592
		c-0.005-0.089-0.001-0.209-0.018-0.297c-0.015-0.078-0.081-0.146-0.104-0.226c-0.009-0.028-0.011-0.069-0.018-0.105
		c-0.011-0.067-0.011-0.128-0.034-0.208c-0.026-0.087-0.051-0.087,0-0.174c0.011-0.02,0.021-0.047,0.034-0.07
		c0.023-0.038,0.073-0.073,0.088-0.122c0.014-0.047,0.011-0.118,0.017-0.174c0.016-0.132,0.033-0.279,0-0.436
		c0.111-0.152,0.195-0.281,0.192-0.54c0-0.049-0.027-0.106-0.035-0.157C5.345,9.597,5.333,9.526,5.335,9.484
		c0.006-0.084,0.055-0.108,0.07-0.191c0.025-0.136-0.032-0.25,0.035-0.332C5.48,8.912,5.593,8.847,5.614,8.77
		c0.036-0.13,0.002-0.355,0.017-0.488c0.016-0.136,0.036-0.261,0.123-0.366C5.775,7.89,5.759,7.881,5.789,7.863
		c0.03-0.019,0.104-0.04,0.139-0.07c0.014-0.012,0.021-0.049,0.036-0.07c0.004-0.006,0.032-0.012,0.035-0.017
		c0.036-0.079,0.11-0.164,0.174-0.244C6.206,7.419,6.247,7.393,6.26,7.358c0.035-0.099-0.02-0.202,0.017-0.314
		c0.026-0.078,0.119-0.117,0.174-0.191C6.463,6.836,6.457,6.83,6.468,6.816c0.015-0.014,0.021-0.038,0.035-0.052
		c0.017-0.018,0.049-0.092,0.07-0.14c0.055-0.021,0.092-0.059,0.158-0.07c0.031-0.063,0.072-0.124,0.122-0.174
		c0.053-0.054,0.13-0.088,0.192-0.139c0.028-0.024,0.057-0.062,0.087-0.087c0.072-0.063,0.126-0.136,0.191-0.227
		c0.033-0.047,0.063-0.104,0.104-0.14c0.037-0.031,0.105-0.056,0.158-0.087c0.126-0.076,0.289-0.164,0.418-0.262
		C8.04,5.411,8.092,5.377,8.125,5.334C8.158,5.291,8.221,5.18,8.281,5.143C8.304,5.13,8.327,5.139,8.352,5.126
		c0.006-0.004,0.029-0.034,0.034-0.036c0.046-0.011,0.093,0.019,0.139,0c0.062-0.024,0.15-0.12,0.209-0.174
		c0.031-0.028,0.07-0.058,0.104-0.087c0.035-0.028,0.057-0.074,0.088-0.086c0.052-0.022,0.136,0,0.192-0.018
		c0.053-0.017,0.097-0.078,0.157-0.104c0.028-0.013,0.069-0.004,0.104-0.017c0.03-0.012,0.046-0.027,0.07-0.036
		c0.058-0.021,0.117-0.033,0.158-0.052C9.716,4.463,9.798,4.36,9.903,4.324c0.13-0.044,0.29-0.034,0.436-0.069
		c0.102-0.026,0.201-0.07,0.297-0.105c0.29-0.104,0.616-0.145,0.958-0.227c0.076,0.027,0.135,0.068,0.209,0.07
		c0.059,0.001,0.14-0.034,0.209-0.052c0.085-0.022,0.15-0.044,0.244-0.053c0.003-0.02,0.018-0.009,0.018,0
		c0.063,0.007,0.1,0.055,0.157,0.07c0.151,0.04,0.325-0.004,0.505,0.018c0.074,0.009,0.145,0.053,0.227,0.07
		c0.119,0.024,0.253,0.022,0.383,0.035c0.061,0.006,0.13,0.012,0.191,0.018c0.061,0.005,0.127,0.006,0.174,0.018
		c0.083,0.018,0.143,0.08,0.228,0.104c0.042,0.012,0.109,0.009,0.156,0.018c0.05,0.009,0.092,0.026,0.14,0.035
		c0.096,0.018,0.207,0.014,0.296,0.035c0.075,0.018,0.154,0.064,0.227,0.087C15,4.406,15.043,4.419,15.08,4.429
		c0.051,0.011,0.109,0.005,0.14,0.018c0.05,0.019,0.093,0.075,0.14,0.104c0.05,0.032,0.109,0.068,0.157,0.087
		c0.108,0.042,0.196,0.036,0.296,0.087c0.028,0.014,0.062,0.039,0.087,0.052c0.171,0.09,0.422,0.195,0.593,0.296
		c0.03,0.018,0.05,0.017,0.071,0.035c0.014,0.013,0.02,0.04,0.034,0.052c0.017,0.014,0.048,0.014,0.07,0.035
		c0.014,0.014,0.021,0.04,0.035,0.053c0.021,0.017,0.052,0.018,0.07,0.035c0.014,0.013,0.02,0.039,0.035,0.051
		c0.02,0.018,0.047,0.015,0.069,0.036c0.015,0.013,0.02,0.04,0.035,0.052c0.018,0.015,0.05,0.016,0.069,0.035
		c0.033,0.031,0.054,0.052,0.105,0.087c0.006,0.004,0.012,0.032,0.017,0.034c0.042,0.019,0.089,0.053,0.14,0.088
		c0.112,0.078,0.208,0.183,0.313,0.296c0.009,0.01,0.028,0.025,0.035,0.035c0.006,0.009,0.01,0.045,0.018,0.052
		c0.054,0.046,0.135,0.056,0.191,0.105c0.005,0.004,0.012,0.029,0.018,0.034c0.021,0.022,0.093,0.086,0.123,0.122
		c0.042,0.051,0.062,0.123,0.104,0.175c0.064,0.079,0.161,0.128,0.227,0.208c0.04,0.048,0.067,0.109,0.105,0.158
		c0.072,0.095,0.143,0.19,0.226,0.296c0.012,0.016,0.004,0.039,0.018,0.052c0.013,0.013,0.038,0.006,0.052,0.018
		c0.054,0.047,0.092,0.144,0.139,0.226c0.026,0.046,0.068,0.098,0.087,0.139c0.036,0.083,0.033,0.181,0.069,0.262
		c0.014,0.032,0.029,0.039,0.052,0.07c0.035,0.045,0.054,0.083,0.088,0.14c0.059,0.099,0.132,0.227,0.209,0.332
		c0.006,0.082-0.027,0.11-0.017,0.174c0.006,0.042,0.024,0.03,0.052,0.07c0.017,0.026,0.019,0.066,0.035,0.087
		c0.039,0.056,0.094,0.089,0.104,0.139c0.017,0.08-0.033,0.199-0.018,0.314c0.011,0.08,0.065,0.149,0.087,0.227
		c0.017,0.061,0.019,0.138,0.035,0.209c0.014,0.063,0.037,0.129,0.052,0.192c0.03,0.125,0.071,0.264,0.087,0.383
		c0.007,0.059-0.005,0.128,0,0.192c0.017,0.205,0.105,0.416,0.105,0.61c-0.001,0.121-0.063,0.234-0.071,0.348
		C19.767,11.38,19.784,11.435,19.788,11.489z M17.504,10.722c-0.018-0.05-0.11-0.161-0.14-0.209
		c-0.016-0.026-0.022-0.074-0.035-0.087c-0.054-0.059-0.173-0.097-0.227-0.139c-0.074-0.059-0.108-0.127-0.191-0.175
		c-0.123-0.07-0.192-0.083-0.348-0.104c-0.13-0.017-0.341-0.004-0.437-0.035c-0.128-0.041-0.277,0.019-0.418,0.017
		c-0.081,0-0.157-0.032-0.244-0.035c-0.043,0-0.108,0.014-0.156,0.018c-0.059,0.004-0.117,0.013-0.175,0.017
		c-0.295,0.024-0.622,0.013-0.854,0c-0.06-0.002-0.135-0.021-0.175-0.017c-0.057,0.005-0.108,0.047-0.173,0.052
		c-0.068,0.006-0.169-0.002-0.209-0.035c-0.005-0.003,0.002-0.028,0-0.035s-0.031-0.009-0.035-0.017
		c-0.043-0.084-0.027-0.176-0.035-0.279c-0.03-0.364,0.009-0.816,0-1.116c-0.005-0.129-0.036-0.265-0.036-0.401
		c0-0.199,0.026-0.47,0.018-0.593C13.626,7.43,13.6,7.281,13.599,7.166c0-0.119,0.031-0.2,0.017-0.313
		c-0.004-0.043-0.034-0.097-0.051-0.158c-0.02-0.064-0.019-0.141-0.036-0.174c-0.034-0.068-0.121-0.113-0.192-0.174
		c-0.077-0.067-0.134-0.138-0.208-0.175c-0.138-0.068-0.304-0.09-0.488-0.14c-0.034-0.031-0.139,0.049-0.174,0.052
		c-0.083,0.008-0.141-0.06-0.244-0.052c-0.021,0.002-0.061,0.037-0.104,0.052c-0.06,0.021-0.139,0.035-0.158,0.052
		c-0.028,0.028-0.057,0.037-0.086,0.052c-0.14,0.072-0.148,0.094-0.244,0.21c-0.047,0.056-0.109,0.104-0.14,0.156
		c-0.014,0.025-0.018,0.066-0.035,0.105c-0.029,0.067-0.059,0.124-0.087,0.192c-0.04,0.092-0.069,0.221-0.07,0.313
		c-0.001,0.091,0.033,0.184,0.035,0.279c0.003,0.107-0.038,0.219-0.035,0.332c0.002,0.089,0.03,0.174,0.035,0.262
		c0.013,0.228-0.033,0.417-0.035,0.592c-0.002,0.162,0.035,0.344,0.035,0.471c0,0.057-0.02,0.1-0.018,0.157
		c0.01,0.22,0.042,0.441,0,0.645c-0.137,0.121-0.323,0.102-0.505,0.104c-0.082,0.001-0.21,0.018-0.262,0.018
		c-0.066,0-0.179-0.036-0.245-0.035c-0.076,0.001-0.15,0.037-0.226,0.035C10.02,10.023,9.96,9.997,9.903,9.989
		c-0.193-0.026-0.338,0.004-0.523,0.018c-0.097,0.007-0.195,0.001-0.296,0c-0.157-0.001-0.324-0.021-0.436,0
		c-0.043,0.009-0.086,0.013-0.122,0.018c-0.086,0.013-0.187,0.018-0.244,0.035c-0.061,0.019-0.119,0.075-0.191,0.105
		c-0.082,0.033-0.186,0.037-0.244,0.069c-0.055,0.032-0.092,0.094-0.139,0.14c-0.049,0.046-0.09,0.095-0.157,0.122
		c-0.019,0.138-0.118,0.214-0.139,0.332c-0.014,0.078-0.004,0.206,0,0.314c0.006,0.159,0.019,0.306,0.052,0.383
		c0.053,0.123,0.118,0.252,0.174,0.35c0.012,0.021,0.038,0.027,0.052,0.051c0.02,0.032,0.02,0.073,0.035,0.086
		c0.088,0.089,0.23,0.073,0.262,0.192c0.107-0.029,0.177,0.04,0.261,0.069c0.084,0.028,0.205,0.066,0.278,0.07
		c0.125,0.006,0.26-0.053,0.401-0.053c0.083,0,0.217,0.035,0.331,0.034c0.104,0,0.228-0.034,0.349-0.034
		c0.091,0,0.185,0.037,0.279,0.034c0.152-0.003,0.301-0.045,0.453-0.034c0.04,0.003,0.093,0,0.105,0
		c0.041,0.002,0.077,0.018,0.122,0.018c0.157-0.004,0.575-0.036,0.645,0c0.004,0.002,0.041,0.032,0.053,0.052
		c0.016,0.03-0.015,0.034,0,0.07c0.021,0.057,0.063,0.112,0.069,0.156c0.028,0.181-0.003,0.39-0.018,0.575
		c-0.015,0.192-0.048,0.381-0.035,0.575c0.007,0.093,0.033,0.182,0.035,0.28c0.002,0.079-0.013,0.163-0.018,0.243
		c-0.004,0.066-0.002,0.129,0,0.192c0.003,0.084,0.015,0.16,0.018,0.244c0.003,0.089-0.021,0.176-0.018,0.261
		c0.002,0.044,0.029,0.09,0.035,0.139c0.021,0.165,0.037,0.328,0.087,0.437c0.023,0.049,0.052,0.068,0.069,0.087
		c0.011,0.013,0.006,0.039,0.018,0.054c0.02,0.021,0.046,0.031,0.069,0.052c0.042,0.035,0.104,0.063,0.156,0.104
		c0.056,0.043,0.117,0.112,0.157,0.14c0.086,0.057,0.141,0.089,0.244,0.121c0.148,0.049,0.214,0.013,0.401,0
		c0.109-0.007,0.236,0.012,0.313,0c0.116-0.017,0.22-0.114,0.297-0.156c0.042-0.024,0.09-0.024,0.105-0.035
		c0.022-0.02,0.043-0.07,0.07-0.104c0.101-0.133,0.213-0.265,0.261-0.418c0.03-0.095,0.071-0.19,0.087-0.28
		c0.037-0.197-0.01-0.349-0.017-0.557c-0.005-0.138-0.015-0.28-0.018-0.42c-0.002-0.108,0.021-0.21,0.018-0.313
		c-0.004-0.092-0.036-0.174-0.036-0.263c0.002-0.104,0.027-0.205,0.036-0.313c0.004-0.057-0.007-0.118,0-0.175
		c0.006-0.055,0.033-0.105,0.035-0.157c0.001-0.035-0.014-0.084-0.018-0.122c-0.02-0.198-0.029-0.315,0.088-0.435
		c0.106,0.013,0.207-0.01,0.313-0.019c0.108-0.007,0.221-0.011,0.331-0.017c0.168-0.008,0.349,0.006,0.523,0
		c0.051-0.003,0.123-0.021,0.174-0.018c0.1,0.006,0.192,0.051,0.296,0.053c0.132,0.001,0.36-0.057,0.488-0.053
		c0.099,0.003,0.196,0.034,0.296,0.034c0.191,0.001,0.488-0.02,0.61-0.052c0.109-0.029,0.29-0.135,0.384-0.19
		c0.122-0.074,0.116-0.075,0.174-0.192c0.047-0.094,0.079-0.157,0.122-0.244c0.059-0.116,0.069-0.16,0.087-0.314
		c0.02-0.169,0.008-0.269-0.017-0.4C17.522,10.849,17.522,10.774,17.504,10.722z M16.824,11.332
		c-0.013,0.022-0.057,0.053-0.088,0.088c-0.087,0.099-0.11,0.094-0.279,0.139c-0.062,0.016-0.131,0.044-0.192,0.051
		c-0.153,0.021-0.32,0.016-0.453,0.018c-0.29,0.005-0.582-0.011-0.871,0c-0.161,0.006-0.304-0.016-0.436-0.018
		c-0.139,0-0.276,0.018-0.419,0.018c-0.146,0-0.312-0.022-0.471,0c-0.07,0.01-0.153,0.056-0.244,0.087
		c-0.088,0.031-0.197,0.045-0.244,0.087c-0.012,0.009-0.007,0.042-0.018,0.052c-0.005,0.006-0.032,0.013-0.035,0.019
		c-0.026,0.046-0.03,0.113-0.053,0.174c-0.059,0.161-0.042,0.471-0.052,0.73c-0.008,0.208-0.019,0.414-0.017,0.61
		c0.003,0.433,0.044,0.869,0.017,1.255c-0.011,0.15-0.056,0.303-0.104,0.437c-0.025,0.067-0.037,0.143-0.07,0.192
		c-0.032,0.045-0.106,0.107-0.14,0.12c-0.028,0.014-0.195,0.043-0.244,0.036c-0.136-0.021-0.208-0.175-0.279-0.297
		c-0.08-0.136-0.114-0.343-0.122-0.592c-0.017-0.493-0.017-1.03-0.017-1.465c0-0.128,0.012-0.244,0.017-0.366
		c0.011-0.254,0.017-0.458-0.069-0.697c-0.064-0.173-0.07-0.232-0.262-0.313c-0.023-0.009-0.072-0.022-0.104-0.034
		c-0.177-0.067-0.557-0.044-0.75-0.054c-0.133-0.005-0.253,0.018-0.366,0.018c-0.266,0-0.518-0.017-0.767-0.018
		c-0.13,0-0.268,0.036-0.401,0.036c-0.075,0-0.165-0.028-0.261-0.036c-0.151-0.01-0.279-0.006-0.401-0.035
		c-0.132-0.029-0.313-0.096-0.401-0.191c-0.018-0.019-0.061-0.054-0.07-0.07c-0.022-0.041-0.024-0.053-0.035-0.105
		c-0.007-0.036-0.021-0.091-0.017-0.123c0.021-0.162,0.155-0.206,0.278-0.261c0.038-0.017,0.056-0.042,0.087-0.052
		c0.06-0.018,0.141-0.011,0.227-0.035c0.025-0.006,0.05-0.029,0.088-0.035c0.108-0.015,0.232-0.012,0.348-0.017
		c0.369-0.017,0.745-0.014,1.133-0.018c0.334-0.003,0.678,0.05,1.011,0.018c0.14-0.014,0.292-0.058,0.436-0.105
		c0.098-0.031,0.125-0.049,0.175-0.139c0.004-0.008,0.033-0.03,0.035-0.035c0.013-0.041,0.017-0.096,0.035-0.14
		c0.071-0.176,0.053-0.509,0.053-0.819c0-0.224,0.014-0.458,0.018-0.662c0.002-0.147-0.02-0.31-0.018-0.471c0-0.078,0-0.148,0-0.227
		c-0.003-0.402,0.003-0.816,0.175-1.099c0.012-0.02,0.002-0.02,0.017-0.035c0.036-0.036,0.087-0.125,0.175-0.157
		c0.049-0.017,0.237-0.026,0.296,0c0.071,0.032,0.138,0.179,0.192,0.279c0.113,0.209,0.079,0.673,0.087,0.976
		c0.006,0.275-0.008,0.561,0,0.854c0.001,0.054,0.018,0.104,0.017,0.157c-0.002,0.095-0.031,0.195-0.035,0.296
		c-0.007,0.202-0.03,0.443,0,0.663c0.009,0.064,0.052,0.162,0.087,0.262c0.064,0.185,0.059,0.25,0.244,0.313
		c0.021,0.008,0.057,0.008,0.087,0.018c0.352,0.116,1.046,0.04,1.5,0.052c0.22,0.006,0.425,0.015,0.627,0.018
		c0.057,0,0.115-0.02,0.174-0.018c0.127,0.004,0.334,0,0.506,0.018c0.077,0.007,0.144,0.039,0.209,0.052
		c0.167,0.032,0.292,0.024,0.401,0.122c0.034,0.031,0.091,0.101,0.104,0.157C16.9,11.125,16.868,11.256,16.824,11.332z M7.986,8.386
		C8.001,8.418,8.006,8.467,8.02,8.491C8.048,8.538,8.099,8.577,8.143,8.63c0.039,0.048,0.079,0.111,0.122,0.157
		C8.44,8.973,8.581,9.044,8.857,9.118C8.901,9.13,8.962,9.143,9.014,9.153c0.133,0.028,0.156,0.021,0.262,0
		c0.151-0.03,0.344-0.049,0.436-0.105c0.057-0.035,0.08-0.063,0.122-0.087c0.029-0.016,0.051-0.022,0.07-0.035
		c0.068-0.044,0.124-0.089,0.174-0.122c0.063-0.042,0.059-0.041,0.087-0.087c0.027-0.044,0.061-0.082,0.087-0.123
		c0.037-0.056,0.099-0.121,0.122-0.174c0.026-0.059,0.031-0.147,0.052-0.227c0.022-0.084,0.053-0.167,0.053-0.227
		c0-0.102-0.067-0.307-0.087-0.401c-0.013-0.057-0.002-0.116-0.018-0.157c-0.015-0.039-0.07-0.075-0.105-0.122
		c-0.013-0.018-0.021-0.05-0.034-0.069c-0.104-0.148-0.216-0.309-0.332-0.366C9.825,6.814,9.753,6.8,9.676,6.765
		C9.582,6.721,9.477,6.64,9.397,6.625C9.287,6.604,9.171,6.632,9.066,6.643c-0.011,0.001-0.023,0-0.034,0
		C8.807,6.65,8.701,6.697,8.561,6.782C8.535,6.797,8.5,6.818,8.473,6.834C8.365,6.901,8.267,7.02,8.177,7.096
		C8.144,7.124,8.101,7.149,8.09,7.166c-0.033,0.048-0.035,0.14-0.07,0.209C8.015,7.384,7.993,7.396,7.986,7.41
		C7.963,7.447,7.948,7.471,7.933,7.497C7.889,7.573,7.906,7.728,7.898,7.828c-0.016,0.198-0.02,0.345,0.034,0.488
		C7.943,8.343,7.971,8.356,7.986,8.386z M8.543,7.741c0.005-0.029,0.034-0.063,0.051-0.104C8.611,7.599,8.626,7.537,8.63,7.532
		c0.005-0.007,0.044-0.011,0.052-0.017C8.708,7.494,8.751,7.437,8.788,7.41c0.027-0.021,0.057-0.034,0.087-0.052
		c0.08-0.051,0.122-0.066,0.279-0.07c0.003,0,0.018-0.021,0.035-0.017c0.09,0.018,0.213,0.064,0.296,0.104
		C9.521,7.392,9.568,7.407,9.571,7.41c0.016,0.012,0.017,0.046,0.036,0.069C9.64,7.52,9.719,7.572,9.746,7.636
		c0.021,0.047,0.008,0.103,0.018,0.157C9.774,7.85,9.799,7.894,9.798,7.932C9.792,8.261,9.431,8.604,9.032,8.508
		c-0.176-0.042-0.42-0.241-0.471-0.418C8.535,8,8.522,7.846,8.543,7.741z M14.61,8.386c0.026,0.074,0.064,0.107,0.104,0.174
		c0.027,0.044,0.043,0.1,0.07,0.139c0.059,0.09,0.145,0.191,0.191,0.227c0.036,0.027,0.156,0.081,0.192,0.105
		c0.041,0.027,0.079,0.054,0.122,0.069c0.114,0.041,0.365,0.053,0.506,0.07c0.068,0.008,0.142,0.019,0.191,0.017
		c0.173-0.004,0.204-0.049,0.332-0.104c0.08-0.035,0.194-0.064,0.244-0.104c0.063-0.053,0.142-0.1,0.191-0.14
		c0.063-0.051,0.118-0.111,0.139-0.157c0.002-0.005,0.031-0.011,0.035-0.017c0.069-0.097,0.101-0.159,0.122-0.279
		c0.025-0.147,0.067-0.292,0.069-0.401c0-0.05-0.01-0.11-0.018-0.174c-0.017-0.139-0.037-0.209-0.07-0.296
		c-0.015-0.043-0.019-0.085-0.034-0.123c-0.04-0.092-0.125-0.184-0.174-0.244c-0.084-0.101-0.201-0.254-0.261-0.296
		c-0.016-0.011-0.04-0.01-0.053-0.018c-0.071-0.044-0.142-0.074-0.262-0.104c-0.078-0.02-0.182-0.046-0.261-0.052
		c-0.075-0.007-0.188,0.023-0.279,0.017c-0.048-0.003-0.137-0.054-0.14-0.017c-0.096,0.031-0.18,0.069-0.261,0.104
		c-0.035,0.014-0.066,0.036-0.105,0.052c-0.047,0.021-0.085,0.012-0.123,0.035c-0.017,0.011-0.061,0.079-0.069,0.087
		c-0.013,0.012-0.04,0.006-0.053,0.018c-0.051,0.046-0.121,0.123-0.174,0.191c-0.029,0.038-0.07,0.123-0.087,0.14
		c-0.063,0.065-0.078,0.12-0.105,0.209c-0.066,0.212-0.077,0.428-0.035,0.645C14.572,8.235,14.587,8.323,14.61,8.386z M15.342,7.532
		c0.069-0.083,0.181-0.162,0.332-0.192c0.049-0.01,0.145-0.013,0.244,0c0.138,0.018,0.194,0.018,0.279,0.087
		c0.015,0.012,0.017,0.023,0.035,0.035c0.019,0.013,0.064,0.058,0.087,0.087c0.012,0.015,0.004,0.039,0.016,0.052
		c0.025,0.026,0.047,0.066,0.071,0.139c0.032,0.099,0.029,0.127,0.017,0.262c-0.001,0.014,0.022,0.018,0.018,0.035
		c-0.001,0.003-0.016,0.002-0.018,0.017c-0.006,0.07-0.019,0.121-0.052,0.192c-0.016,0.035-0.045,0.096-0.052,0.104
		c-0.008,0.009-0.043,0.01-0.053,0.018c-0.024,0.019-0.064,0.063-0.104,0.087c-0.118,0.072-0.176,0.101-0.384,0.087
		c-0.097-0.006-0.164-0.026-0.226-0.052c-0.037-0.016-0.069-0.028-0.105-0.053c-0.042-0.028-0.121-0.105-0.157-0.174
		c-0.055-0.105-0.125-0.288-0.087-0.453C15.233,7.679,15.272,7.615,15.342,7.532z M16.963,13.911
		c-0.02-0.051-0.064-0.105-0.087-0.157c-0.006-0.014,0.005-0.036,0-0.052c-0.002-0.008-0.031-0.026-0.035-0.035
		c-0.016-0.037-0.021-0.083-0.035-0.104c-0.02-0.028-0.087-0.084-0.105-0.105c-0.009-0.011-0.023-0.042-0.035-0.052
		c-0.015-0.012-0.058-0.016-0.087-0.036c-0.028-0.017-0.045-0.038-0.07-0.051c-0.055-0.028-0.116-0.051-0.175-0.07
		c-0.225-0.073-0.406-0.114-0.696-0.104c-0.1,0.003-0.224-0.004-0.297,0.017c-0.087,0.023-0.161,0.103-0.244,0.157
		c-0.082,0.053-0.163,0.107-0.262,0.157c-0.034,0.18-0.152,0.279-0.227,0.4c-0.028,0.046-0.075,0.099-0.087,0.141
		c-0.02,0.065-0.015,0.187-0.017,0.278c-0.004,0.111-0.015,0.239,0,0.33c0.011,0.077,0.062,0.151,0.086,0.228
		c0.029,0.09,0.047,0.174,0.052,0.261c0.068,0.056,0.117,0.123,0.192,0.192c0.063,0.058,0.146,0.141,0.209,0.175
		c0.058,0.031,0.141,0.04,0.227,0.069c0.139,0.047,0.25,0.094,0.418,0.104c0.086,0.006,0.159,0.006,0.227,0
		c0.086-0.008,0.165-0.044,0.261-0.069c0.093-0.025,0.204-0.034,0.279-0.07c0.062-0.03,0.104-0.088,0.157-0.139
		c0.083-0.081,0.166-0.165,0.227-0.245c0.011-0.016,0.006-0.035,0.017-0.052c0.01-0.015,0.043-0.02,0.053-0.035
		c0.016-0.025,0.035-0.069,0.052-0.104c0.043-0.087,0.054-0.134,0.069-0.227c0.008-0.047,0.013-0.088,0.018-0.122
		c0.027-0.22,0.009-0.309-0.035-0.472C16.997,14.052,16.988,13.977,16.963,13.911z M16.335,14.643
		c-0.034,0.056-0.073,0.132-0.122,0.192c-0.065,0.081-0.243,0.169-0.417,0.174c-0.145,0.005-0.274-0.033-0.367-0.087
		c-0.048-0.027-0.091-0.048-0.122-0.087c-0.01-0.012-0.007-0.039-0.018-0.052c-0.024-0.029-0.064-0.042-0.07-0.054
		c-0.011-0.021-0.024-0.091-0.034-0.139c-0.021-0.093-0.052-0.224-0.018-0.366c0.019-0.08,0.064-0.1,0.087-0.139
		c0.042-0.073,0.039-0.134,0.14-0.192c0.055-0.032,0.128-0.068,0.227-0.087c0.161-0.031,0.415-0.007,0.541,0.069
		c0.006,0.004,0.011,0.033,0.017,0.035c0.081,0.035,0.094,0.095,0.14,0.208c0.05,0.13,0.093,0.199,0.07,0.401
		C16.382,14.574,16.358,14.606,16.335,14.643z M10.356,13.929c-0.039-0.1-0.091-0.154-0.14-0.209
		c-0.016-0.02-0.021-0.055-0.035-0.07c-0.076-0.087-0.208-0.178-0.296-0.244c-0.038-0.026-0.077-0.072-0.105-0.087
		c-0.034-0.02-0.102-0.031-0.157-0.053c-0.054-0.021-0.111-0.06-0.156-0.069c-0.127-0.03-0.38-0.024-0.471,0
		c-0.098,0.026-0.244,0.055-0.313,0.087c-0.083,0.04-0.174,0.082-0.244,0.122c-0.107,0.062-0.231,0.138-0.279,0.192
		c-0.005,0.005,0.004,0.026,0,0.033c-0.002,0.007-0.03,0.012-0.035,0.019c-0.005,0.008,0.004,0.026,0,0.035
		c-0.002,0.005-0.031,0.009-0.035,0.018c-0.029,0.052-0.038,0.144-0.07,0.227c-0.014,0.035-0.037,0.07-0.052,0.104
		c-0.038,0.092-0.062,0.149-0.069,0.263c-0.008,0.104,0.013,0.233,0.017,0.348c0.002,0.045-0.021,0.083-0.017,0.122
		c0.008,0.079,0.056,0.184,0.069,0.21c0.013,0.024,0.005,0.047,0.018,0.069c0.101,0.192,0.305,0.264,0.417,0.453
		c0.156,0.022,0.251,0.14,0.384,0.176c0.049,0.012,0.129,0.005,0.191,0.016c0.061,0.013,0.128,0.052,0.174,0.053
		c0.013,0,0.063-0.025,0.104-0.034c0.096-0.021,0.158-0.039,0.227-0.053c0.088-0.019,0.122-0.031,0.157-0.053
		c0.017-0.011,0.032-0.006,0.052-0.017c0.081-0.045,0.124-0.092,0.192-0.122c0.039-0.019,0.093-0.017,0.122-0.035
		c0.011-0.007,0.033-0.037,0.051-0.052c0.053-0.047,0.104-0.107,0.141-0.141c0.006-0.005,0.028,0.007,0.035,0
		c0.005-0.005-0.005-0.027,0-0.035c0.018-0.024,0.023-0.045,0.034-0.069c0.026-0.053,0.069-0.102,0.087-0.141
		c0.063-0.117,0.057-0.357,0.087-0.504c0.008-0.043,0.035-0.097,0.035-0.122s-0.028-0.082-0.035-0.123
		C10.418,14.108,10.387,14.007,10.356,13.929z M9.659,14.853c-0.012,0.01-0.024,0.007-0.035,0.017
		c-0.07,0.067-0.267,0.183-0.4,0.193c-0.065,0.004-0.183-0.019-0.262-0.036C8.896,15.012,8.8,14.94,8.735,14.888
		c-0.059-0.049-0.118-0.102-0.14-0.141c-0.013-0.023-0.007-0.043-0.017-0.069c-0.005-0.013-0.033-0.045-0.035-0.053
		c-0.014-0.063-0.006-0.305,0.017-0.384c0.009-0.028,0.049-0.066,0.07-0.104c0.025-0.047,0.045-0.113,0.052-0.12
		c-0.001,0,0.048-0.011,0.087-0.036c0.035-0.022,0.068-0.061,0.122-0.087c0.061-0.03,0.138-0.046,0.244-0.053
		c0.184-0.011,0.329,0.048,0.454,0.157c0.14,0.121,0.193,0.234,0.192,0.436C9.78,14.564,9.751,14.772,9.659,14.853z"/>
</g>
<g id="Layer_1">
</g>
</svg>
