<?xml version="1.0" encoding="iso-8859-1"?>
<!-- Generator: Adobe Illustrator 16.0.0, SVG Export Plug-In . SVG Version: 6.00 Build 0)  -->
<!DOCTYPE svg PUBLIC "-//W3C//DTD SVG 1.1//EN" "http://www.w3.org/Graphics/SVG/1.1/DTD/svg11.dtd">
<svg version="1.1" xmlns="http://www.w3.org/2000/svg" xmlns:xlink="http://www.w3.org/1999/xlink" x="0px" y="0px"
	 width="94.752px" height="16.916px" viewBox="0 0 94.752 16.916" style="enable-background:new 0 0 94.752 16.916;"
	 xml:space="preserve">
<g id="_x32_2-scotiabank">
	<path style="fill:#ED1C24;" d="M8.629,3.83c0.644,0.484,1.304,1.405,1.582,2.125h2.125C11.297,4.433,9.874,3.83,8.629,3.83z
		 M12.602,6.397H10.37c0.224,0.585,0.324,1.246,0.324,1.907h2.449C13.103,7.644,12.938,6.982,12.602,6.397z M4.314,10.595h2.242
		C6.339,9.934,6.221,9.283,6.221,8.688H3.771C3.831,9.331,3.99,9.992,4.314,10.595z M7.147,5.955h2.62
		c-0.276-0.602-0.82-1.262-1.304-1.699C7.968,4.693,7.425,5.354,7.147,5.955z M4.533,5.955h2.184
		c0.225-0.72,0.927-1.641,1.588-2.125C7.041,3.83,5.619,4.433,4.533,5.955z M3.771,8.305h2.449c0-0.661,0.119-1.322,0.336-1.907
		H4.314C3.99,6.982,3.831,7.644,3.771,8.305z M6.982,10.595h2.951c0.218-0.603,0.318-1.264,0.377-1.907H6.604
		C6.664,9.331,6.764,9.992,6.982,10.595z M12.336,10.973h-2.125c-0.277,0.708-0.938,1.629-1.582,2.13
		C9.874,13.103,11.297,12.56,12.336,10.973z M9.934,6.397H6.982C6.764,6.982,6.664,7.644,6.604,8.305h3.706
		C10.252,7.644,10.151,6.982,9.934,6.397z M13.527,8.463c0.06,2.894-2.555,5.076-4.739,5.076h-5.4L0,16.916h8.729
		c2.786,0,5.459-2.509,5.459-5.501c0-0.879-0.105-2.025-0.661-2.893V8.463z M8.305,13.103c-0.662-0.501-1.364-1.422-1.588-2.13
		H4.533C5.619,12.56,7.041,13.103,8.305,13.103z M9.768,10.973h-2.62c0.278,0.602,0.82,1.311,1.316,1.746
		C8.948,12.283,9.491,11.574,9.768,10.973z M13.144,8.688h-2.449c0,0.596-0.101,1.246-0.324,1.907h2.231
		C12.938,9.992,13.103,9.331,13.144,8.688z M66.239,6.571c-1.105,0-1.858,0.54-2.022,0.643h-0.025V3.978h-2.325v9.443h2.212
		l0.033-0.614h0.038c0.159,0.173,0.804,0.764,2.075,0.764c1.681,0,3.155-1.211,3.155-3.617C69.38,8.026,68.05,6.571,66.239,6.571z
		 M65.568,11.769c-0.896,0-1.413-0.705-1.413-1.696c0-1.023,0.63-1.691,1.413-1.691c0.89,0,1.4,0.796,1.4,1.691
		C66.969,11.097,66.378,11.769,65.568,11.769z M58.042,7.336h-0.06c-0.201-0.184-0.737-0.762-2.048-0.762
		c-1.929,0-3.185,1.553-3.185,3.498c0,2.096,1.417,3.502,3.035,3.502c1.459,0,1.981-0.597,2.232-0.823h0.049l0.034,0.676h2.263
		V6.729h-2.299L58.042,7.336z M56.635,11.81c-0.801,0-1.419-0.691-1.419-1.8c0-0.912,0.585-1.655,1.419-1.655
		c0.806,0,1.432,0.709,1.432,1.747C58.066,11.132,57.359,11.81,56.635,11.81z M75.507,7.333h-0.061
		c-0.2-0.185-0.736-0.763-2.048-0.763c-1.927,0-3.184,1.553-3.184,3.497c0,2.098,1.418,3.504,3.035,3.504
		c1.459,0,1.981-0.598,2.232-0.823h0.049l0.035,0.676h2.263V6.727H75.53L75.507,7.333z M74.1,11.807c-0.801,0-1.419-0.692-1.419-1.8
		c0-0.913,0.585-1.656,1.419-1.656c0.806,0,1.431,0.71,1.431,1.748C75.53,11.127,74.825,11.807,74.1,11.807z M83.553,6.577
		c-1.197,0-1.82,0.65-2.104,0.907h-0.047l-0.023-0.742h-2.042v6.685h2.266v-3.46c0-0.812,0.537-1.365,1.225-1.365
		c0.785,0,1.23,0.511,1.23,1.365v3.46h2.267V9.394C86.323,7.877,85.347,6.577,83.553,6.577z M92.262,9.877l2.427-3.138h-2.582
		L90.103,9.5h-0.024V3.985h-2.323v9.441h2.323v-3.099h0.024l2.063,3.099h2.586L92.262,9.877z M50.539,3.342
		c-0.719,0-1.309,0.591-1.309,1.309c0,0.719,0.59,1.309,1.309,1.309c0.718,0,1.308-0.59,1.308-1.309
		C51.847,3.933,51.257,3.342,50.539,3.342z M24.283,6.895c0-0.61,0.634-0.742,1.257-0.742c0.862,0,1.955,0.413,2.198,0.513
		l0.188-2.063c-0.603-0.205-1.519-0.321-2.377-0.321c-1.964,0-3.9,0.766-3.9,2.711c0,2.942,4.12,2.328,4.12,3.872
		c0,0.595-0.594,0.82-1.351,0.82c-1.039,0-2.017-0.521-2.439-0.708l-0.229,2.203c0.651,0.196,1.642,0.378,2.691,0.378
		c1.987,0,3.972-0.704,3.972-2.887C28.413,7.674,24.283,8.089,24.283,6.895z M33.295,8.448c0.519,0,0.979,0.241,1.152,0.326
		l0.113-1.941c-0.174-0.049-0.813-0.269-1.661-0.269c-2.099,0-3.672,1.313-3.672,3.502c0,1.987,1.412,3.501,3.578,3.501
		c0.922,0,1.601-0.247,1.755-0.293l-0.113-1.954c-0.179,0.082-0.645,0.349-1.18,0.349c-0.939,0-1.626-0.666-1.626-1.603
		C31.642,9.081,32.376,8.448,33.295,8.448z M2.727,5.519c0,0.879,0.117,2.025,0.661,2.887C3.329,5.619,5.955,3.418,8.127,3.418h5.4
		L16.915,0H8.186C5.4,0,2.727,2.526,2.727,5.519z M39.047,6.563c-2.209,0-3.892,1.401-3.892,3.506c0,2.133,1.624,3.495,3.892,3.495
		c2.255,0,3.892-1.362,3.892-3.495C42.938,7.955,41.257,6.563,39.047,6.563z M39.047,11.889c-0.944,0-1.503-0.83-1.503-1.819
		c0-1.001,0.486-1.831,1.503-1.831c0.973,0,1.503,0.83,1.503,1.831C40.55,11.059,39.993,11.889,39.047,11.889z M49.371,13.437h2.335
		V6.735h-2.335V13.437z M46.608,10.675V8.411h1.466V6.727h-1.466V4.57h-2.329v2.156h-1.02v1.685h1.02v2.649
		c0,1.456,0.676,2.5,2.399,2.5c0.5,0,0.959-0.067,1.275-0.127l0.287-1.832c-0.114,0.031-0.428,0.112-0.645,0.112
		C47.124,11.714,46.608,11.493,46.608,10.675z"/>
</g>
<g id="Layer_1">
</g>
</svg>
