<?xml version="1.0" encoding="iso-8859-1"?>
<!-- Generator: Adobe Illustrator 16.0.0, SVG Export Plug-In . SVG Version: 6.00 Build 0)  -->
<!DOCTYPE svg PUBLIC "-//W3C//DTD SVG 1.1//EN" "http://www.w3.org/Graphics/SVG/1.1/DTD/svg11.dtd">
<svg version="1.1" xmlns="http://www.w3.org/2000/svg" xmlns:xlink="http://www.w3.org/1999/xlink" x="0px" y="0px"
	 width="44.875px" height="13.688px" viewBox="0 0 44.875 13.688" style="enable-background:new 0 0 44.875 13.688;"
	 xml:space="preserve">
<g id="_x32_3-invex">
	<path style="fill:#AA1E33;" d="M0,2.813h3.125V0H0V2.813z M11.875,4.375H5.313v9.313h2.75V6.5h3c0,0,0.813,0.25,0.813,1.188v6h2.75
		V7.375h-0.041C14.449,6.55,13.901,4.375,11.875,4.375z M0,13.688h3.125V4.375H0V13.688z M22.375,4.813l-2.125,5.625L18.5,4.813
		h-3.188l3.375,8.875H22l3.125-8.875H22.375z M41.875,9.031l2.688-4.219h-2.938l-1.813,2.563L38.25,4.813H35l2.5,4.219l-1.75,2.531
		H30c0,0-1.625-0.188-1.813-1.813H34.5c0,0,1.125-5.375-4.188-5.375S25.125,9.75,25.125,9.75s0.438,3.938,4.438,3.938
		c3.313,0,8.313,0,8.313,0l1.75-2.938l1.688,2.938h3.563L41.875,9.031z M30.063,6.031C31.938,6.031,32,8.063,32,8.063h-3.875
		C28.125,8.063,28.188,6.031,30.063,6.031z"/>
</g>
<g id="Layer_1">
</g>
</svg>
