<?xml version="1.0" encoding="iso-8859-1"?>
<!-- Generator: Adobe Illustrator 16.0.0, SVG Export Plug-In . SVG Version: 6.00 Build 0)  -->
<!DOCTYPE svg PUBLIC "-//W3C//DTD SVG 1.1//EN" "http://www.w3.org/Graphics/SVG/1.1/DTD/svg11.dtd">
<svg version="1.1" xmlns="http://www.w3.org/2000/svg" xmlns:xlink="http://www.w3.org/1999/xlink" x="0px" y="0px"
	 width="89.602px" height="20.908px" viewBox="0 0 89.602 20.908" style="enable-background:new 0 0 89.602 20.908;"
	 xml:space="preserve">
<g id="_x32_4-liverpool">
	<g>
		<g>
			<path style="fill:#F58220;" d="M13.707,3.945L8.154,3.942L8.146,5.534c0,0,2.895,0.001,4.124,0.002
				c0.687,0,0.604,0.728,0.604,0.728L12.87,16.973l1.447,0.001c0,0,0.006-11.49,0.006-12.166
				C14.324,4.067,13.707,3.945,13.707,3.945z M11.493,6.137L8.146,6.135v1.58c0,0,0.569,0,2.198,0.001
				c0.632,0,0.542,0.614,0.542,0.614l-0.005,8.642l1.448,0.001c0,0,0.004-9.382,0.004-10.049C12.334,6.315,12.09,6.137,11.493,6.137
				z M16.584-0.45L8.148-0.454v1.602c0,0,6.866,0.003,7.757,0.003c0.951,0.001,0.951,1.065,0.951,1.065l-0.008,14.759h1.445
				c0,0,0.009-13.634,0.01-15.517C18.305-0.446,16.584-0.45,16.584-0.45z M15.461,1.753L8.155,1.75L8.154,3.331
				c0,0,1.242,0.007,5.876,0.002c0.938-0.002,0.835,0.982,0.835,0.982L14.86,16.974l1.439,0.001c0,0,0.003-13.662,0.007-14.284
				C16.314,1.818,15.461,1.753,15.461,1.753z"/>
		</g>
	</g>
	<path style="fill:#A54686;" d="M32.755,5.278h1.479v-1.66h-1.479V5.278z M27.71,14.838V3.618h-1.478l-0.001,11.486
		c0,1.288,0.933,2.333,2.112,2.333h3.876v-1.612h-3.634C28.087,15.825,27.71,15.384,27.71,14.838z M32.755,17.446h1.479V7.242
		h-1.479V17.446z M5.428,10.732L5.426,0.024H3.979c0,0,0,11.489,0,12.167c0,0.74,0.615,0.862,0.615,0.862h5.554l0.007-1.592
		c0,0-2.895,0-4.123,0C5.345,11.461,5.428,10.732,5.428,10.732z M1.446,14.784V0.024H0.002c0,0-0.002,13.635-0.002,15.518
		c0,1.902,1.72,1.906,1.72,1.906h8.436v-1.601c0,0-6.865,0-7.758,0C1.446,15.848,1.446,14.784,1.446,14.784z M7.417,8.666V0.024
		H5.968c0,0,0,9.382,0,10.048c0,0.609,0.243,0.789,0.841,0.789h3.347V9.28c0,0-0.57,0-2.199,0C7.324,9.28,7.417,8.666,7.417,8.666z
		 M2.842,15.244h7.307v-1.579c0,0-1.241-0.009-5.876,0c-0.937,0.003-0.835-0.982-0.835-0.982V0.024H1.996c0,0,0.005,13.661,0,14.284
		C1.989,15.181,2.842,15.244,2.842,15.244z M85.118,17.446h1.478V3.6h-1.478V17.446z M79.454,6.752c-1.773,0-3.33,1.024-4.199,2.562
		c-0.867-1.538-2.424-2.562-4.197-2.562c-1.775,0-3.33,1.024-4.198,2.562c-0.87-1.538-2.427-2.562-4.199-2.562
		c-2.724,0-4.934,2.414-4.934,5.393c0,0.12,0,8.764,0,8.764h1.492v-4.903c0.889,0.947,2.102,1.533,3.441,1.533
		c1.772,0,3.329-1.025,4.199-2.563c0.868,1.537,2.423,2.563,4.198,2.563c1.773,0,3.33-1.025,4.197-2.563
		c0.869,1.537,2.426,2.563,4.199,2.563c2.724,0,4.932-2.415,4.932-5.394C84.386,9.166,82.178,6.752,79.454,6.752z M62.66,15.925
		c-1.907,0-3.457-1.695-3.457-3.78c0-2.084,1.55-3.781,3.457-3.781c1.906,0,3.457,1.697,3.457,3.781
		C66.117,14.229,64.566,15.925,62.66,15.925z M71.058,15.925c-1.906,0-3.459-1.695-3.459-3.78c0-2.084,1.553-3.781,3.459-3.781
		c1.905,0,3.458,1.697,3.458,3.781C74.516,14.229,72.963,15.925,71.058,15.925z M79.454,15.925c-1.904,0-3.457-1.695-3.457-3.78
		c0-2.084,1.553-3.781,3.457-3.781c1.907,0,3.457,1.697,3.457,3.781C82.911,14.229,81.361,15.925,79.454,15.925z M88.522,4.833
		V4.825c0.215-0.014,0.361-0.175,0.361-0.399c0-0.151-0.105-0.365-0.419-0.365h-0.56v1.388h0.203V4.861h0.123
		c0.157,0,0.219,0.059,0.378,0.372l0.112,0.216h0.25l-0.154-0.27C88.713,4.994,88.631,4.875,88.522,4.833z M88.404,4.667h-0.296
		V4.25h0.33c0.137,0,0.229,0.081,0.229,0.207C88.667,4.601,88.562,4.667,88.404,4.667z M88.422,3.446
		c-0.655,0-1.181,0.574-1.181,1.289c0,0.714,0.525,1.292,1.181,1.292c0.652,0,1.18-0.578,1.18-1.292
		C89.602,4.02,89.074,3.446,88.422,3.446z M88.422,5.813c-0.545,0-0.985-0.483-0.985-1.078c0-0.596,0.44-1.076,0.985-1.076
		c0.542,0,0.985,0.479,0.985,1.076C89.407,5.33,88.964,5.813,88.422,5.813z M42.483,7.242l-2.979,8.214l-2.979-8.214h-1.686
		l3.701,10.205h1.929l3.702-10.205H42.483z M57.931,7.273h-1.552c-1.179,0-2.111,1.044-2.111,2.332v7.882h1.48L55.745,9.87
		c0-0.543,0.377-0.985,0.877-0.985h1.309V7.273z M48.606,6.809c-2.689,0-4.881,2.394-4.881,5.336c0,2.943,2.191,5.337,4.881,5.337
		c2.271,0,4.209-1.67,4.74-4.073h-1.43c-0.492,1.54-1.817,2.574-3.311,2.574c-1.813,0-3.323-1.495-3.499-3.524h8.379v-0.313
		C53.486,9.202,51.297,6.809,48.606,6.809z M45.269,10.957c0.492-1.616,1.849-2.65,3.338-2.65s2.843,1.034,3.335,2.65H45.269z"/>
</g>
<g id="Layer_1">
</g>
</svg>
