<?xml version="1.0" encoding="iso-8859-1"?>
<!-- Generator: Adobe Illustrator 16.0.0, SVG Export Plug-In . SVG Version: 6.00 Build 0)  -->
<!DOCTYPE svg PUBLIC "-//W3C//DTD SVG 1.1//EN" "http://www.w3.org/Graphics/SVG/1.1/DTD/svg11.dtd">
<svg version="1.1" xmlns="http://www.w3.org/2000/svg" xmlns:xlink="http://www.w3.org/1999/xlink" x="0px" y="0px"
	 width="94.592px" height="15.388px" viewBox="0 0 94.592 15.388" style="enable-background:new 0 0 94.592 15.388;"
	 xml:space="preserve">
<g id="_x32_5-banca_mifel">
	<path style="fill:#002856;" d="M30.972,9.832c0.354-0.166,0.637-0.351,0.85-0.552c0.388-0.359,0.667-0.837,0.839-1.429
		c0.16-0.575,0.16-1.069-0.004-1.482C32.383,5.696,31.688,5.35,30.57,5.33L26.12,5.322l-2.784,9.708l4.152,0.008
		c0.469,0.001,0.916-0.041,1.339-0.129c0.425-0.087,0.816-0.249,1.176-0.485c0.32-0.206,0.612-0.46,0.875-0.763
		c0.404-0.456,0.688-0.971,0.855-1.547c0.161-0.558,0.175-1.032,0.051-1.424C31.658,10.299,31.387,10.014,30.972,9.832z
		 M29.843,11.972c-0.173,0.596-0.493,1.001-0.963,1.21c-0.254,0.113-0.582,0.171-0.984,0.17l-2.25-0.005l0.739-2.588l2.281,0.004
		c0.398,0.006,0.693,0.062,0.883,0.167C29.887,11.12,29.986,11.467,29.843,11.972z M30.77,8.066
		c-0.117,0.408-0.325,0.691-0.622,0.852c-0.298,0.16-0.649,0.24-1.05,0.239l-2.251-0.006l0.614-2.14l2.015,0.004
		c0.443,0.001,0.795,0.052,1.056,0.153C30.816,7.314,30.896,7.612,30.77,8.066z M7.254,5.552H3.797C3.69,4.088,4.115,2.242,5.372,0
		H1.549c-2.136,3.454-2.746,9.154,2.698,9.746l3.414-0.051c-1.896-0.233-3.68-1.612-3.864-4.143
		c2.271,0.322,6.076,2.741,2.347,9.687h3.825C12.102,11.786,12.698,6.143,7.254,5.552z M16.402,5.567h-3.917
		c2.671,0.009,6.54,2.738,2.812,9.669h3.822C21.247,11.803,21.845,6.157,16.402,5.567z M79.876,5.367L78.08,5.363l-0.499,1.732
		l1.797,0.003L79.876,5.367z M11.834,5.567H7.976c2.725,0.083,6.478,2.738,2.733,9.669h3.825
		C16.677,11.803,17.274,6.157,11.834,5.567z M51.295,13.403c-0.241,0.236-0.569,0.354-0.982,0.353c-0.587,0-0.898-0.299-0.939-0.896
		c-0.021-0.321,0.044-0.744,0.194-1.271c0.157-0.553,0.344-0.996,0.554-1.331c0.398-0.626,0.895-0.94,1.493-0.939
		c0.418,0.001,0.687,0.146,0.801,0.438c0.077,0.215,0.094,0.458,0.049,0.725l1.816,0.004c0.196-1.023,0.08-1.738-0.343-2.142
		c-0.427-0.406-1.063-0.608-1.914-0.611c-0.997-0.002-1.879,0.34-2.645,1.023c-0.769,0.685-1.325,1.643-1.676,2.876
		c-0.314,1.095-0.313,1.984,0.003,2.669c0.316,0.687,1.017,1.03,2.108,1.031c1.089,0.003,2.031-0.405,2.823-1.225
		c0.496-0.51,0.845-1.049,1.046-1.62l-1.807-0.003C51.73,12.859,51.537,13.166,51.295,13.403z M89.724,12.088
		c0.185-0.618,0.302-1.094,0.345-1.423c0.086-0.563,0.056-1.057-0.089-1.483c-0.153-0.483-0.426-0.837-0.813-1.063
		c-0.39-0.225-0.866-0.338-1.427-0.338c-0.951-0.003-1.818,0.327-2.603,0.988c-0.784,0.663-1.354,1.616-1.712,2.857
		c-0.379,1.327-0.323,2.283,0.167,2.873c0.491,0.591,1.168,0.886,2.029,0.888c1.042,0.002,1.958-0.347,2.738-1.043
		c0.498-0.438,0.831-0.87,1.002-1.296l-1.811-0.003c-0.158,0.21-0.316,0.375-0.472,0.493c-0.293,0.218-0.62,0.328-0.986,0.327
		c-0.343,0-0.612-0.09-0.804-0.271c-0.318-0.292-0.386-0.796-0.204-1.518L89.724,12.088z M86.224,9.734
		c0.303-0.271,0.659-0.407,1.068-0.407c0.38,0.001,0.658,0.131,0.842,0.389c0.183,0.257,0.216,0.633,0.104,1.13l-2.755-0.005
		C85.674,10.376,85.918,10.007,86.224,9.734z M38.936,8.173c-0.486-0.312-1.1-0.47-1.842-0.47c-1.14-0.003-2.035,0.311-2.688,0.942
		c-0.408,0.403-0.721,0.919-0.941,1.547l1.709,0.004c0.124-0.276,0.27-0.497,0.438-0.658c0.237-0.221,0.567-0.329,0.985-0.328
		c0.373,0.001,0.64,0.058,0.801,0.169c0.16,0.112,0.198,0.316,0.115,0.61c-0.07,0.241-0.248,0.42-0.53,0.533
		c-0.159,0.065-0.412,0.119-0.755,0.163l-0.623,0.077c-0.711,0.092-1.273,0.245-1.686,0.459c-0.755,0.394-1.26,1.031-1.514,1.915
		c-0.196,0.68-0.147,1.206,0.147,1.578c0.293,0.372,0.746,0.558,1.36,0.56c0.48,0,0.946-0.114,1.396-0.347
		c0.374-0.197,0.723-0.437,1.052-0.717c-0.036,0.163-0.061,0.308-0.075,0.436c-0.016,0.127-0.017,0.264-0.005,0.407l1.927,0.004
		l0.074-0.276c-0.099-0.057-0.164-0.129-0.196-0.218c-0.031-0.088-0.019-0.255,0.04-0.5c0.082-0.325,0.156-0.603,0.222-0.83
		l0.949-3.293C39.543,9.075,39.425,8.486,38.936,8.173z M36.856,12.262c-0.195,0.627-0.488,1.061-0.876,1.296
		c-0.389,0.237-0.775,0.355-1.157,0.354c-0.24-0.001-0.423-0.072-0.55-0.215c-0.127-0.144-0.143-0.375-0.048-0.696
		c0.102-0.36,0.313-0.625,0.635-0.795c0.191-0.102,0.483-0.187,0.879-0.257l0.418-0.077c0.209-0.039,0.379-0.082,0.507-0.128
		c0.128-0.046,0.257-0.106,0.388-0.18L36.856,12.262z M77.334,7.952l-2.056,7.179l1.797,0.003l2.057-7.178L77.334,7.952z
		 M92.82,5.451l-2.785,9.709l1.772,0.003l2.784-9.709L92.82,5.451z M84.011,8.03L82.85,8.027c0.077-0.264,0.134-0.465,0.176-0.605
		c0.037-0.142,0.117-0.268,0.241-0.385c0.125-0.116,0.302-0.17,0.533-0.164c0.232,0.008,0.395,0.017,0.488,0.03l0.442-1.528
		c-0.154-0.013-0.277-0.024-0.366-0.03c-0.09-0.008-0.188-0.011-0.301-0.011c-0.983-0.001-1.665,0.212-2.044,0.642
		c-0.33,0.29-0.604,0.818-0.821,1.586l-0.133,0.461l-0.97-0.002l-0.383,1.324l0.988,0.002l-1.655,5.788l1.766,0.004l1.656-5.789
		l1.162,0.002L84.011,8.03z M45.225,7.718c-0.56-0.001-1.063,0.144-1.51,0.433c-0.252,0.161-0.544,0.427-0.879,0.794l0.303-1.046
		l-1.71-0.003l-2.055,7.163l1.767,0.005l1.112-3.886c0.126-0.442,0.287-0.807,0.487-1.093c0.378-0.539,0.867-0.808,1.466-0.808
		c0.491,0.001,0.77,0.186,0.837,0.555c0.04,0.203,0.005,0.492-0.106,0.87l-1.246,4.367l1.815,0.003l1.386-4.834
		c0.255-0.898,0.219-1.545-0.116-1.935S45.924,7.72,45.225,7.718z M60.763,8.215c-0.49-0.312-1.103-0.469-1.845-0.471
		c-1.142-0.002-2.034,0.313-2.686,0.943c-0.409,0.404-0.723,0.919-0.94,1.548l1.707,0.002c0.124-0.276,0.27-0.494,0.436-0.657
		c0.24-0.219,0.567-0.329,0.985-0.327c0.373,0.001,0.641,0.057,0.802,0.169c0.16,0.113,0.198,0.315,0.114,0.61
		c-0.068,0.241-0.246,0.42-0.528,0.533c-0.162,0.063-0.412,0.119-0.756,0.163l-0.622,0.077c-0.713,0.091-1.276,0.243-1.688,0.458
		c-0.754,0.395-1.26,1.032-1.514,1.915c-0.196,0.68-0.147,1.206,0.146,1.578c0.294,0.371,0.748,0.559,1.36,0.561
		c0.481,0,0.948-0.115,1.397-0.349c0.375-0.195,0.723-0.435,1.051-0.715c-0.035,0.161-0.06,0.308-0.074,0.434
		c-0.017,0.129-0.017,0.264-0.005,0.41l1.928,0.003l0.074-0.276c-0.099-0.058-0.166-0.131-0.196-0.218
		c-0.032-0.088-0.02-0.255,0.04-0.501c0.082-0.325,0.156-0.602,0.22-0.83l0.951-3.294C61.368,9.118,61.247,8.528,60.763,8.215z
		 M58.681,12.304c-0.196,0.628-0.487,1.061-0.876,1.296c-0.39,0.237-0.777,0.354-1.156,0.354c-0.241,0-0.423-0.071-0.551-0.214
		c-0.126-0.144-0.145-0.375-0.049-0.695c0.103-0.36,0.313-0.626,0.635-0.798c0.19-0.1,0.484-0.185,0.879-0.255l0.417-0.078
		c0.211-0.038,0.383-0.08,0.51-0.128c0.128-0.045,0.257-0.104,0.388-0.18L58.681,12.304z M73.687,5.414l-3.847,7.631l0.527-7.638
		l-2.786-0.005l-2.783,9.708l1.785,0.004l1.877-6.565c0.058-0.189,0.134-0.454,0.228-0.795c0.094-0.34,0.164-0.602,0.215-0.787
		l-0.61,8.15l1.857,0.004l4.067-8.143c-0.049,0.183-0.124,0.447-0.225,0.786c-0.104,0.341-0.184,0.606-0.243,0.795l-1.877,6.566
		l1.785,0.003l2.784-9.708L73.687,5.414z"/>
</g>
<g id="Layer_1">
</g>
</svg>
