<?xml version="1.0" encoding="iso-8859-1"?>
<!-- Generator: Adobe Illustrator 16.0.0, SVG Export Plug-In . SVG Version: 6.00 Build 0)  -->
<!DOCTYPE svg PUBLIC "-//W3C//DTD SVG 1.1//EN" "http://www.w3.org/Graphics/SVG/1.1/DTD/svg11.dtd">
<svg version="1.1" xmlns="http://www.w3.org/2000/svg" xmlns:xlink="http://www.w3.org/1999/xlink" x="0px" y="0px"
	 width="78.768px" height="22.705px" viewBox="0 0 78.768 22.705" style="enable-background:new 0 0 78.768 22.705;"
	 xml:space="preserve">
<g id="_x32_6-banjercito">
	<path style="fill:#2C52A3;" d="M14.032,3.509C12.676,1.4,10.315,0,7.622,0c-2.696,0-5.06,1.403-6.415,3.516l6.298,3.872
		L14.032,3.509z M6.999,2.275c0,0,0.28-0.968,1.124-0.937c0,0,1.749,0.031,1.563,1.593c0,0-1.063-0.813-1.25,0.438l0.5,2.342
		l-1.405,1l-1.5-1.094L6.999,2.275z M15.182,6.699l-7.551,5.217l-7.57-5.214C0.024,7.003,0,7.309,0,7.621
		c0,4.21,3.413,7.621,7.622,7.621s7.621-3.411,7.621-7.621C15.243,7.308,15.219,7.002,15.182,6.699z M7.842,14.675
		c0,0-2.623,0.03-3.311-0.844l0.5-2.686l2.562,1.656l2.467-1.75l0.5,2.717C10.56,13.769,9.966,14.613,7.842,14.675z M24.875,16.962
		c-0.663,0-1.127,0.373-1.326,0.754h-0.016l-0.042-0.662h-0.646c0.024,0.331,0.032,0.671,0.032,1.086v2.924h0.73v-2.41
		c0-0.125,0.016-0.249,0.05-0.341c0.124-0.406,0.496-0.745,0.978-0.745c0.688,0,0.928,0.538,0.928,1.184v2.313h0.729v-2.395
		C26.292,17.294,25.43,16.962,24.875,16.962z M29.756,17.551c0.397,0,0.671,0.09,0.845,0.19l0.166-0.564
		c-0.199-0.098-0.581-0.206-1.011-0.206c-1.31,0-2.155,0.896-2.155,2.129c0,1.227,0.787,2.056,1.997,2.056
		c0.539,0,0.962-0.141,1.152-0.24l-0.124-0.547c-0.208,0.091-0.481,0.198-0.896,0.198c-0.796,0-1.393-0.571-1.393-1.499
		C28.338,18.229,28.836,17.551,29.756,17.551z M43.139,4.078h0.014c0.634,0,1.172-0.413,1.172-1.118
		c0-0.594-0.414-0.979-0.992-0.979c-0.621,0-1.145,0.455-1.145,1.132C42.188,3.706,42.588,4.078,43.139,4.078z M8.377,16.962
		c-0.662,0-1.127,0.373-1.325,0.754H7.035l-0.042-0.662H6.348c0.024,0.331,0.032,0.671,0.032,1.086v2.924h0.73v-2.41
		c0-0.125,0.016-0.249,0.049-0.341c0.125-0.406,0.497-0.745,0.979-0.745c0.688,0,0.928,0.538,0.928,1.184v2.313h0.729v-2.395
		C9.795,17.294,8.933,16.962,8.377,16.962z M30.02,4.77c-3.32,0-4.823,2.43-4.823,4.709c0,1.409,0.827,2.348,2.04,2.348
		c0.786,0,1.64-0.373,2.26-1.491h0.041c-0.041,0.482-0.083,0.938-0.096,1.34h1.832c-0.027-0.843,0.097-2.168,0.262-3.039
		l0.717-3.535C31.687,4.922,30.819,4.77,30.02,4.77z M29.703,7.891c-0.304,1.657-1.034,2.334-1.627,2.334
		c-0.551,0-0.813-0.456-0.813-1.118c0-1.257,0.937-2.832,2.219-2.832c0.192,0,0.386,0.028,0.537,0.056L29.703,7.891z M22.95,10.984
		c0.73-0.483,1.268-1.216,1.268-2.21c0-1.022-0.564-1.754-1.461-2.03V6.703c1.006-0.291,1.875-1.036,1.875-2.21
		c0-0.787-0.455-1.381-1.075-1.698c-0.62-0.374-1.337-0.497-2.301-0.497c-0.923,0-1.778,0.097-2.439,0.221l-1.708,9.046
		c0.454,0.096,1.295,0.179,2.343,0.179C20.994,11.743,22.165,11.509,22.95,10.984z M20.525,3.913
		c0.151-0.041,0.427-0.068,0.771-0.068c0.759,0,1.309,0.29,1.309,0.966c0,0.788-0.743,1.257-1.832,1.257h-0.661L20.525,3.913z
		 M19.81,7.518h0.619c0.923,0,1.695,0.276,1.695,1.202c0,1.035-0.979,1.464-2.053,1.464c-0.29,0-0.524-0.015-0.759-0.042
		L19.81,7.518z M15.959,18.073v-0.017c0.589-0.216,0.944-0.688,0.944-1.228c0-0.438-0.174-0.771-0.464-0.986
		c-0.348-0.281-0.812-0.405-1.533-0.405c-0.505,0-1.002,0.05-1.317,0.116v5.494c0.24,0.032,0.622,0.065,1.119,0.065
		c0.912,0,1.541-0.166,1.931-0.521c0.281-0.273,0.472-0.639,0.472-1.118C17.11,18.644,16.489,18.205,15.959,18.073z M14.31,16.042
		c0.116-0.023,0.308-0.049,0.639-0.049c0.729,0,1.227,0.256,1.227,0.911c0,0.538-0.447,0.937-1.21,0.937H14.31V16.042z
		 M14.915,20.55c-0.257,0-0.464-0.008-0.605-0.033v-2.129h0.597c0.787,0,1.442,0.314,1.442,1.077
		C16.349,20.277,15.661,20.55,14.915,20.55z M21.287,18.604c0-0.805-0.298-1.642-1.525-1.642c-0.505,0-0.985,0.141-1.316,0.356
		l0.166,0.48c0.28-0.182,0.67-0.299,1.043-0.299c0.82,0,0.912,0.597,0.912,0.928v0.084c-1.55-0.009-2.412,0.522-2.412,1.491
		c0,0.58,0.414,1.152,1.228,1.152c0.57,0,1.002-0.282,1.226-0.597h0.024l0.059,0.505h0.663c-0.05-0.273-0.066-0.612-0.066-0.961
		V18.604z M20.583,19.713c0,0.075-0.017,0.158-0.042,0.232c-0.116,0.34-0.447,0.671-0.97,0.671c-0.372,0-0.688-0.223-0.688-0.696
		c0-0.777,0.904-0.919,1.699-0.903V19.713z M4.011,18.785c0,1.234-0.53,1.781-1.358,1.781c-0.746,0-1.301-0.529-1.301-1.781v-3.306
		H0.622v3.289c0,1.732,0.861,2.387,2.005,2.387c1.21,0,2.113-0.704,2.113-2.419v-3.257H4.011V18.785z M73.157,16.962
		c-1.109,0-1.988,0.787-1.988,2.13c0,1.268,0.838,2.063,1.922,2.063c0.971,0,1.997-0.646,1.997-2.131
		C75.088,17.799,74.31,16.962,73.157,16.962z M73.125,20.609c-0.713,0-1.219-0.664-1.219-1.542c0-0.763,0.374-1.559,1.235-1.559
		s1.202,0.861,1.202,1.542C74.344,19.953,73.82,20.609,73.125,20.609z M62.32,11.675h1.985l1.281-6.753h-1.984L62.32,11.675z
		 M65.022,1.98c-0.606,0-1.13,0.455-1.144,1.132c0,0.594,0.413,0.966,0.95,0.966h0.014c0.634,0,1.171-0.413,1.171-1.118
		C66.014,2.366,65.601,1.98,65.022,1.98z M61.26,11.467l-0.014-1.519c-0.344,0.138-0.758,0.276-1.336,0.276
		c-0.744,0-1.323-0.47-1.323-1.395c0-1.271,0.867-2.473,2.287-2.473c0.399,0,0.675,0.069,0.909,0.166l0.482-1.532
		C61.977,4.879,61.48,4.77,60.902,4.77c-2.564,0-4.396,1.878-4.396,4.281c0,1.753,1.171,2.775,2.838,2.775
		C60.144,11.826,60.833,11.675,61.26,11.467z M59.18,16.092l-0.714,0.225v0.737h-0.62v0.555h0.62v2.188
		c0,0.472,0.075,0.827,0.282,1.043c0.174,0.2,0.447,0.315,0.787,0.315c0.282,0,0.506-0.05,0.646-0.107l-0.033-0.547
		c-0.107,0.033-0.224,0.049-0.423,0.049c-0.406,0-0.546-0.281-0.546-0.778v-2.163h1.044v-0.555H59.18V16.092z M63.107,16.962
		c-1.111,0-1.99,0.787-1.99,2.13c0,1.268,0.838,2.063,1.924,2.063c0.969,0,1.997-0.646,1.997-2.131
		C65.038,17.799,64.259,16.962,63.107,16.962z M63.073,20.609c-0.712,0-1.218-0.664-1.218-1.542c0-0.763,0.373-1.559,1.235-1.559
		c0.861,0,1.201,0.861,1.201,1.542C64.292,19.953,63.771,20.609,63.073,20.609z M69.835,15.181h-0.729v2.395H69.09
		c-0.183-0.323-0.597-0.613-1.21-0.613c-0.979,0-1.807,0.821-1.798,2.155c0,1.218,0.745,2.038,1.715,2.038
		c0.654,0,1.144-0.34,1.367-0.787h0.017l0.033,0.695h0.654c-0.024-0.273-0.033-0.68-0.033-1.036V15.181z M69.105,19.382
		c0,0.116-0.009,0.216-0.032,0.314c-0.133,0.547-0.58,0.87-1.069,0.87c-0.787,0-1.185-0.672-1.185-1.483
		c0-0.886,0.447-1.549,1.201-1.549c0.547,0,0.944,0.381,1.053,0.845c0.023,0.092,0.032,0.216,0.032,0.307V19.382z M73.786,11.826
		c2.343,0,4.023-1.81,4.023-4.281c0-1.532-1.048-2.775-2.853-2.775c-2.397,0-4.023,1.919-4.023,4.268
		C70.934,10.708,72.078,11.826,73.786,11.826z M74.695,6.274c0.799,0,1.061,0.663,1.061,1.284c0,1.161-0.605,2.749-1.693,2.749
		c-0.689,0-1.075-0.524-1.075-1.313C72.973,7.945,73.552,6.274,74.695,6.274z M77.716,18.736c-0.522-0.2-0.763-0.349-0.763-0.68
		c0-0.299,0.24-0.548,0.671-0.548c0.373,0,0.662,0.132,0.82,0.232l0.182-0.53c-0.224-0.132-0.579-0.249-0.985-0.249
		c-0.861,0-1.384,0.53-1.384,1.178c0,0.479,0.34,0.877,1.061,1.135c0.539,0.199,0.746,0.39,0.746,0.738
		c0,0.331-0.249,0.597-0.779,0.597c-0.364,0-0.745-0.15-0.961-0.291l-0.183,0.555c0.281,0.167,0.688,0.282,1.128,0.282
		c0.952,0,1.499-0.506,1.499-1.21C78.768,19.348,78.411,19.001,77.716,18.736z M69.775,3.084l-2.039,0.567l-0.247,1.271h-0.868
		l-0.276,1.505h0.854l-0.523,2.68c-0.097,0.524-0.138,0.883-0.138,1.256c0,0.843,0.564,1.464,1.75,1.464
		c0.427,0,0.923-0.055,1.171-0.151l0.234-1.561c-0.18,0.027-0.372,0.027-0.551,0.027c-0.428,0-0.565-0.234-0.565-0.565
		c0-0.236,0.055-0.594,0.11-0.856l0.455-2.293h1.433l0.29-1.505h-1.434L69.775,3.084z M48.416,4.77
		c-2.438,0-3.926,2.141-3.926,4.198c0,1.753,0.991,2.858,2.921,2.858c0.743,0,1.722-0.138,2.508-0.538L49.78,9.852
		c-0.537,0.263-1.157,0.428-1.888,0.428c-0.578,0-1.033-0.179-1.295-0.524c-0.138-0.193-0.207-0.497-0.207-0.69
		c2.701,0.068,4.368-0.552,4.368-2.278C50.759,5.529,49.78,4.77,48.416,4.77z M48.898,6.799c0,0.608-0.771,0.83-2.314,0.815
		c0.138-0.635,0.661-1.396,1.585-1.396c0.454,0,0.729,0.235,0.729,0.567V6.799z M41.198,16.962c-0.654,0-1.127,0.29-1.425,0.779
		h-0.017l-0.033-0.688h-0.654c0.017,0.381,0.032,0.795,0.032,1.309v4.343h0.722v-2.179h0.016c0.241,0.396,0.705,0.629,1.236,0.629
		c0.944,0,1.822-0.713,1.822-2.154C42.897,17.783,42.168,16.962,41.198,16.962z M40.95,20.583c-0.521,0-0.961-0.348-1.094-0.854
		c-0.018-0.091-0.033-0.19-0.033-0.299v-0.687c0-0.101,0.024-0.208,0.05-0.299c0.141-0.547,0.605-0.902,1.102-0.902
		c0.771,0,1.193,0.687,1.193,1.491C42.168,19.953,41.72,20.583,40.95,20.583z M41.788,13.843c0.441-0.497,0.73-1.243,0.938-2.402
		l1.227-6.519h-1.985l-1.239,6.614c-0.221,1.216-0.606,1.45-1.062,1.45c-0.179,0-0.304-0.014-0.441-0.041l-0.233,1.505
		c0.316,0.083,0.646,0.11,0.95,0.11C40.645,14.561,41.348,14.34,41.788,13.843z M53.93,6.303h-0.043
		c0.043-0.47,0.083-0.926,0.124-1.381h-1.722c-0.069,0.58-0.151,1.712-0.345,2.734l-0.758,4.019h1.984l0.469-2.514
		c0.247-1.326,0.84-2.458,2.107-2.458c0.111,0,0.222,0.014,0.317,0.014l0.387-1.934C56.327,4.77,56.202,4.77,56.078,4.77
		C55.155,4.77,54.397,5.404,53.93,6.303z M39.692,6.606c0-1.16-0.619-1.837-1.722-1.837c-0.896,0-1.736,0.386-2.37,1.271h-0.027
		l0.137-1.118h-1.763c-0.083,0.594-0.192,1.34-0.358,2.195l-0.854,4.558h1.984l0.565-2.997c0.275-1.491,1.033-2.307,1.681-2.307
		c0.496,0,0.662,0.332,0.662,0.802c0,0.248-0.028,0.524-0.069,0.759l-0.703,3.743h1.984l0.744-3.923
		C39.638,7.421,39.692,6.91,39.692,6.606z M47.049,18.604c0-0.805-0.298-1.642-1.524-1.642c-0.506,0-0.986,0.141-1.317,0.356
		l0.165,0.48c0.282-0.182,0.671-0.299,1.045-0.299c0.819,0,0.911,0.597,0.911,0.928v0.084c-1.55-0.009-2.412,0.522-2.412,1.491
		c0,0.58,0.415,1.152,1.228,1.152c0.571,0,1.002-0.282,1.225-0.597h0.025l0.059,0.505h0.662c-0.049-0.273-0.065-0.612-0.065-0.961
		V18.604z M46.345,19.713c0,0.075-0.017,0.158-0.042,0.232c-0.116,0.34-0.447,0.671-0.969,0.671c-0.374,0-0.688-0.223-0.688-0.696
		c0-0.777,0.903-0.919,1.699-0.903V19.713z M54.539,18.604c0-0.805-0.298-1.642-1.524-1.642c-0.506,0-0.986,0.141-1.317,0.356
		l0.166,0.48c0.28-0.182,0.671-0.299,1.044-0.299c0.82,0,0.911,0.597,0.911,0.928v0.084c-1.549-0.009-2.41,0.522-2.41,1.491
		c0,0.58,0.413,1.152,1.225,1.152c0.572,0,1.003-0.282,1.228-0.597h0.024l0.058,0.505h0.663c-0.05-0.273-0.066-0.612-0.066-0.961
		V18.604z M53.835,19.713c0,0.075-0.017,0.158-0.041,0.232c-0.117,0.34-0.448,0.671-0.97,0.671c-0.373,0-0.688-0.223-0.688-0.696
		c0-0.777,0.902-0.919,1.698-0.903V19.713z M49.302,17.841H49.27l-0.025-0.787h-0.638c0.024,0.372,0.033,0.779,0.033,1.251v2.759
		h0.72v-2.137c0-0.125,0.018-0.241,0.034-0.341c0.1-0.547,0.464-0.936,0.978-0.936c0.1,0,0.174,0.008,0.249,0.025v-0.688
		c-0.067-0.017-0.125-0.025-0.208-0.025C49.924,16.962,49.484,17.302,49.302,17.841z M33.666,16.962
		c-1.109,0-1.988,0.787-1.988,2.13c0,1.268,0.837,2.063,1.922,2.063c0.97,0,1.998-0.646,1.998-2.131
		C35.598,17.799,34.818,16.962,33.666,16.962z M33.634,20.609c-0.713,0-1.218-0.664-1.218-1.542c0-0.763,0.372-1.559,1.233-1.559
		c0.862,0,1.202,0.861,1.202,1.542C34.852,19.953,34.329,20.609,33.634,20.609z"/>
</g>
<g id="Layer_1">
</g>
</svg>
