<?xml version="1.0" encoding="iso-8859-1"?>
<!-- Generator: Adobe Illustrator 16.0.0, SVG Export Plug-In . SVG Version: 6.00 Build 0)  -->
<!DOCTYPE svg PUBLIC "-//W3C//DTD SVG 1.1//EN" "http://www.w3.org/Graphics/SVG/1.1/DTD/svg11.dtd">
<svg version="1.1" xmlns="http://www.w3.org/2000/svg" xmlns:xlink="http://www.w3.org/1999/xlink" x="0px" y="0px"
	 width="89.943px" height="21.766px" viewBox="0 0 89.943 21.766" style="enable-background:new 0 0 89.943 21.766;"
	 xml:space="preserve">
<g id="_x32_9-inbursa">
	<path style="fill:#11284A;" d="M39.374,15.5c-0.305-0.203-0.657-0.307-1.057-0.307c-0.306,0-0.564,0.061-0.778,0.18
		c-0.215,0.119-0.407,0.297-0.577,0.535v-0.607H36.24v6.465h0.792V19.49c0.136,0.172,0.307,0.313,0.517,0.424
		c0.211,0.111,0.447,0.166,0.711,0.166c0.361,0,0.705-0.1,1.033-0.305c0.327-0.203,0.576-0.498,0.749-0.881
		c0.172-0.383,0.258-0.814,0.258-1.293c0-0.445-0.079-0.855-0.234-1.229C39.91,15.998,39.681,15.707,39.374,15.5z M39.112,18.982
		c-0.251,0.299-0.553,0.447-0.904,0.447c-0.346,0-0.643-0.145-0.886-0.432c-0.244-0.287-0.365-0.732-0.365-1.334
		s0.13-1.061,0.39-1.377c0.261-0.316,0.559-0.473,0.897-0.473s0.632,0.148,0.878,0.443c0.245,0.299,0.367,0.744,0.367,1.342
		C39.489,18.223,39.363,18.684,39.112,18.982z M34.206,17.805c0,0.398-0.044,0.705-0.131,0.914
		c-0.086,0.209-0.232,0.375-0.441,0.496c-0.21,0.123-0.432,0.184-0.669,0.184c-0.238,0-0.438-0.059-0.6-0.178
		c-0.161-0.119-0.267-0.283-0.317-0.492C32.018,18.586,32,18.307,32,17.893v-2.592h-0.792v2.895c0,0.338,0.017,0.586,0.048,0.742
		c0.046,0.23,0.128,0.426,0.245,0.588c0.115,0.158,0.293,0.293,0.532,0.398c0.238,0.104,0.497,0.156,0.772,0.156
		c0.625,0,1.119-0.262,1.484-0.791v0.686h0.708v-4.674h-0.792V17.805z M79.193,8.122h6.092l0.889,1.713h3.3l-5.33-9.645h-3.872
		l-5.266,9.645h3.362L79.193,8.122z M82.239,2.411l1.904,3.616h-3.808L82.239,2.411z M29.432,15.354
		c-0.154,0.105-0.323,0.324-0.505,0.654v-0.707h-0.713v4.674h0.792v-2.447c0-0.336,0.044-0.643,0.133-0.924
		c0.059-0.186,0.156-0.33,0.295-0.436c0.138-0.102,0.292-0.156,0.468-0.156c0.192,0,0.387,0.059,0.579,0.174l0.273-0.736
		c-0.276-0.17-0.547-0.256-0.813-0.256C29.755,15.193,29.585,15.248,29.432,15.354z M15.23,7.17L9.582,0.19H5.013v9.645h2.983V2.792
		l5.583,7.043h4.633V0.19H15.23V7.17z M43.151,15.193c-0.578,0-1.068,0.176-1.469,0.52c-0.482,0.416-0.724,1.059-0.724,1.924
		c0,0.791,0.202,1.395,0.606,1.814c0.403,0.422,0.934,0.629,1.586,0.629c0.41,0,0.784-0.096,1.131-0.285
		c0.344-0.191,0.606-0.459,0.787-0.805c0.18-0.344,0.271-0.816,0.271-1.42c0-0.742-0.203-1.322-0.611-1.744
		S43.795,15.193,43.151,15.193z M44.134,18.98c-0.261,0.299-0.589,0.449-0.982,0.449c-0.395,0-0.724-0.148-0.985-0.447
		s-0.393-0.746-0.393-1.346c0-0.598,0.131-1.047,0.393-1.342c0.262-0.297,0.591-0.445,0.985-0.445c0.391,0,0.717,0.148,0.979,0.447
		c0.264,0.297,0.395,0.736,0.395,1.314C44.525,18.225,44.395,18.682,44.134,18.98z M0,9.835h2.919V0.19H0V9.835z M24.331,17.443
		h1.896v1.201c-0.182,0.162-0.447,0.314-0.801,0.457c-0.352,0.141-0.712,0.215-1.084,0.215c-0.425,0-0.825-0.096-1.205-0.283
		c-0.378-0.188-0.667-0.475-0.865-0.863c-0.198-0.387-0.297-0.867-0.297-1.443c0-0.469,0.082-0.9,0.246-1.297
		c0.097-0.234,0.233-0.447,0.407-0.641c0.175-0.193,0.404-0.352,0.69-0.469c0.283-0.117,0.621-0.178,1.012-0.178
		c0.325,0,0.623,0.057,0.889,0.168c0.267,0.113,0.474,0.264,0.618,0.453c0.142,0.188,0.263,0.445,0.359,0.773l0.771-0.211
		c-0.113-0.436-0.275-0.787-0.49-1.057c-0.213-0.271-0.51-0.48-0.887-0.631c-0.377-0.152-0.799-0.227-1.265-0.227
		c-0.644,0-1.212,0.131-1.705,0.395c-0.492,0.264-0.871,0.668-1.133,1.215c-0.263,0.543-0.395,1.129-0.395,1.758
		c0,0.633,0.132,1.207,0.396,1.721s0.655,0.908,1.174,1.178c0.517,0.271,1.094,0.408,1.728,0.408c0.47,0,0.928-0.086,1.374-0.254
		s0.879-0.42,1.298-0.756v-2.395l-2.733,0.006V17.443z M31.728,9.391c0.508-0.444,0.825-1.142,0.825-2.094
		c0-0.761-0.127-1.332-0.381-1.649c-0.317-0.38-0.762-0.635-1.396-0.699V4.885c0.508-0.127,0.824-0.317,1.016-0.571
		c0.316-0.317,0.443-0.888,0.443-1.65c0-0.888-0.317-1.523-0.888-1.967c-0.571-0.38-1.46-0.507-2.666-0.507h-8.566v9.645h9.52
		C30.586,9.835,31.284,9.708,31.728,9.391z M23.098,2.474h5.268c0.571,0,0.888,0.254,0.888,0.762c0,0.507-0.316,0.761-0.888,0.761
		h-5.268V2.474z M28.428,7.487h-5.33V5.964h5.33c0.698,0,1.079,0.317,1.079,0.824C29.507,7.296,29.126,7.487,28.428,7.487z
		 M57.364,0.19h-9.011v9.645h2.982V7.36h4.695c0.444,0,0.762,0.064,0.952,0.253c0.19,0.191,0.254,0.571,0.254,1.079v1.142h2.982
		v-1.65c0-0.697-0.126-1.269-0.443-1.586c-0.254-0.253-0.636-0.444-1.143-0.571c0.635-0.127,1.078-0.444,1.332-0.825
		c0.19-0.381,0.317-0.889,0.317-1.586V3.045c0-0.952-0.189-1.649-0.571-2.094C59.204,0.38,58.442,0.19,57.364,0.19z M57.364,3.87
		c0,0.699-0.381,1.016-1.079,1.016h-4.949V2.538h4.695c0.795,0,1.333,0.135,1.333,1.015V3.87z M75.842,14.434h0.793v-0.912h-0.793
		V14.434z M75.842,19.975h0.793v-4.674h-0.793V19.975z M73.984,19.141c-0.21,0.193-0.468,0.289-0.779,0.289
		c-0.387,0-0.701-0.143-0.942-0.428s-0.361-0.742-0.361-1.369c0-0.619,0.125-1.072,0.374-1.357s0.574-0.43,0.973-0.43
		c0.266,0,0.491,0.08,0.678,0.238c0.186,0.158,0.314,0.395,0.389,0.707l0.771-0.117c-0.093-0.473-0.3-0.838-0.623-1.094
		c-0.321-0.256-0.737-0.387-1.246-0.387c-0.4,0-0.773,0.094-1.114,0.285c-0.343,0.188-0.597,0.473-0.765,0.852
		c-0.167,0.379-0.252,0.82-0.252,1.324c0,0.783,0.196,1.381,0.585,1.799c0.389,0.42,0.903,0.627,1.542,0.627
		c0.511,0,0.942-0.152,1.292-0.455c0.352-0.305,0.57-0.725,0.654-1.26l-0.778-0.104C74.324,18.66,74.193,18.951,73.984,19.141z
		 M84.065,15.354c-0.156,0.105-0.324,0.324-0.506,0.654v-0.707h-0.713v4.674h0.793v-2.447c0-0.336,0.043-0.643,0.131-0.924
		c0.06-0.186,0.157-0.33,0.295-0.436c0.139-0.102,0.294-0.156,0.468-0.156c0.193,0,0.388,0.059,0.58,0.174l0.273-0.736
		c-0.276-0.17-0.547-0.256-0.814-0.256C84.388,15.193,84.218,15.248,84.065,15.354z M89.332,15.826
		c-0.407-0.422-0.935-0.633-1.577-0.633c-0.578,0-1.067,0.176-1.47,0.52c-0.482,0.416-0.723,1.059-0.723,1.924
		c0,0.791,0.202,1.395,0.605,1.814c0.405,0.422,0.934,0.629,1.587,0.629c0.409,0,0.785-0.096,1.13-0.285
		c0.346-0.191,0.607-0.459,0.788-0.805c0.181-0.344,0.271-0.816,0.271-1.42C89.943,16.828,89.74,16.248,89.332,15.826z
		 M88.738,18.98c-0.261,0.299-0.59,0.449-0.983,0.449c-0.395,0-0.724-0.148-0.986-0.447c-0.261-0.299-0.391-0.746-0.391-1.346
		c0-0.598,0.13-1.047,0.391-1.342c0.263-0.297,0.592-0.445,0.986-0.445c0.391,0,0.717,0.148,0.98,0.447
		c0.263,0.297,0.394,0.736,0.394,1.314C89.129,18.225,88.998,18.682,88.738,18.98z M69.823,15.746
		c-0.118-0.166-0.294-0.299-0.531-0.4c-0.235-0.1-0.493-0.152-0.776-0.152c-0.648,0-1.144,0.256-1.488,0.771v-0.664h-0.713v4.674
		h0.793v-2.553c0-0.6,0.121-1.004,0.366-1.219c0.246-0.213,0.537-0.324,0.875-0.324c0.212,0,0.395,0.051,0.552,0.146
		c0.158,0.094,0.267,0.223,0.328,0.381c0.063,0.162,0.092,0.404,0.092,0.725v2.844h0.794v-2.873c0-0.367-0.015-0.625-0.043-0.771
		C70.022,16.104,69.94,15.908,69.823,15.746z M79.761,15.193c-0.646,0-1.171,0.217-1.576,0.652
		c-0.404,0.434-0.607,1.045-0.607,1.832c0,0.76,0.2,1.352,0.602,1.771c0.398,0.42,0.942,0.631,1.625,0.631
		c0.544,0,0.99-0.131,1.34-0.395c0.349-0.264,0.587-0.637,0.717-1.115l-0.819-0.102c-0.121,0.336-0.282,0.578-0.488,0.73
		c-0.205,0.154-0.454,0.23-0.743,0.23c-0.391,0-0.717-0.137-0.978-0.41c-0.262-0.273-0.407-0.664-0.437-1.18h3.486
		c0.003-0.094,0.006-0.164,0.006-0.211c0-0.771-0.198-1.371-0.597-1.797C80.896,15.406,80.386,15.193,79.761,15.193z M78.439,17.188
		c0.027-0.406,0.164-0.732,0.412-0.977s0.555-0.365,0.918-0.365c0.401,0,0.729,0.152,0.981,0.459
		c0.164,0.195,0.266,0.492,0.299,0.883H78.439z M54.286,14.434h0.793v-0.912h-0.793V14.434z M43.53,5.773
		c0,0.571-0.19,1.015-0.38,1.27c-0.254,0.317-0.763,0.444-1.333,0.444h-2.919c-0.635,0-1.015-0.127-1.332-0.444
		c-0.255-0.254-0.318-0.698-0.318-1.27V0.19h-2.982v6.219c0,1.205,0.317,2.095,0.953,2.665c0.634,0.635,1.649,0.889,2.981,0.889
		h4.315c1.333,0,2.349-0.254,2.982-0.889c0.634-0.57,0.952-1.459,0.952-2.665V0.19h-2.92V5.773z M54.286,19.975h0.793v-4.674h-0.793
		V19.975z M48.919,19.975h0.855v-2.932h3.027v-0.762h-3.027v-1.998h3.5v-0.762h-4.355V19.975z M59.793,15.746
		c-0.117-0.166-0.293-0.299-0.53-0.4c-0.236-0.1-0.494-0.152-0.776-0.152c-0.648,0-1.144,0.256-1.487,0.771v-0.664h-0.713v4.674
		h0.792v-2.553c0-0.6,0.121-1.004,0.366-1.219c0.247-0.213,0.536-0.324,0.875-0.324c0.212,0,0.396,0.051,0.553,0.146
		c0.157,0.094,0.266,0.223,0.327,0.381c0.063,0.162,0.092,0.404,0.092,0.725v2.844h0.795v-2.873c0-0.367-0.016-0.625-0.045-0.771
		C59.993,16.104,59.912,15.908,59.793,15.746z M65.086,18.016v-1.057c0-0.352-0.014-0.596-0.039-0.73
		c-0.048-0.217-0.129-0.396-0.246-0.539c-0.119-0.145-0.302-0.26-0.552-0.355c-0.249-0.092-0.573-0.141-0.972-0.141
		c-0.403,0-0.757,0.057-1.062,0.164c-0.306,0.111-0.539,0.27-0.7,0.473c-0.16,0.205-0.276,0.473-0.348,0.803l0.774,0.107
		c0.085-0.334,0.216-0.563,0.394-0.695c0.179-0.129,0.453-0.195,0.827-0.195c0.397,0,0.7,0.09,0.901,0.27
		c0.149,0.131,0.225,0.359,0.225,0.682c0,0.029-0.001,0.1-0.004,0.207c-0.302,0.107-0.773,0.197-1.414,0.273
		c-0.314,0.037-0.549,0.078-0.703,0.119c-0.212,0.057-0.401,0.145-0.572,0.26c-0.167,0.113-0.304,0.266-0.407,0.455
		c-0.105,0.189-0.156,0.398-0.156,0.629c0,0.389,0.138,0.709,0.413,0.961c0.276,0.25,0.669,0.375,1.185,0.375
		c0.31,0,0.602-0.051,0.874-0.154c0.27-0.104,0.553-0.277,0.847-0.527c0.022,0.221,0.078,0.414,0.158,0.576h0.828
		c-0.1-0.178-0.167-0.365-0.199-0.563C65.103,19.221,65.086,18.754,65.086,18.016z M64.285,17.92c0,0.348-0.042,0.611-0.128,0.791
		c-0.111,0.232-0.287,0.414-0.524,0.549s-0.51,0.199-0.815,0.199c-0.307,0-0.541-0.068-0.7-0.209c-0.16-0.143-0.24-0.316-0.24-0.529
		c0-0.139,0.036-0.264,0.11-0.377c0.072-0.113,0.178-0.197,0.313-0.258c0.133-0.059,0.365-0.109,0.691-0.158
		c0.574-0.082,1.006-0.182,1.294-0.299V17.92z M73.292,9.391c0.38-0.19,0.635-0.507,0.762-0.887c0.127-0.381,0.19-0.953,0.19-1.588
		c0-0.761-0.063-1.268-0.255-1.648c-0.127-0.446-0.443-0.763-0.824-0.953c-0.697-0.38-2.221-0.507-4.632-0.507L65.55,3.68
		c-0.189,0-0.38-0.127-0.443-0.254c-0.064-0.064-0.127-0.254-0.127-0.444c0-0.508,0.381-0.761,1.142-0.761h3.3
		c0.636,0,1.08,0.063,1.27,0.19c0.126,0.127,0.19,0.38,0.19,0.825h2.981V2.918c0-1.016-0.19-1.714-0.633-2.094
		C72.721,0.253,71.643,0,70.119,0h-4.188c-1.714,0-2.856,0.317-3.363,0.888c-0.381,0.444-0.571,1.206-0.571,2.221
		c0,0.698,0.063,1.142,0.19,1.522c0.063,0.381,0.317,0.636,0.634,0.888c0.635,0.381,1.968,0.572,4.188,0.572l3.554,0.127
		c0.253,0,0.443,0.126,0.508,0.253l0.126,0.509c0,0.316-0.126,0.57-0.381,0.697L69.93,7.805h-3.682l-0.951-0.191
		c-0.19-0.126-0.317-0.444-0.317-0.951h-2.982V7.36c0,1.016,0.316,1.713,0.889,2.093c0.507,0.319,1.521,0.509,2.918,0.509h3.617
		C71.389,9.962,72.721,9.772,73.292,9.391z"/>
</g>
<g id="Layer_1">
</g>
</svg>
