<?xml version="1.0" encoding="iso-8859-1"?>
<!-- Generator: Adobe Illustrator 16.0.0, SVG Export Plug-In . SVG Version: 6.00 Build 0)  -->
<!DOCTYPE svg PUBLIC "-//W3C//DTD SVG 1.1//EN" "http://www.w3.org/Graphics/SVG/1.1/DTD/svg11.dtd">
<svg version="1.1" xmlns="http://www.w3.org/2000/svg" xmlns:xlink="http://www.w3.org/1999/xlink" x="0px" y="0px"
	 width="69.625px" height="22.9px" viewBox="0 0 69.625 22.9" style="enable-background:new 0 0 69.625 22.9;" xml:space="preserve"
	>
<g id="_x34_-icbc">
	<path style="fill-rule:evenodd;clip-rule:evenodd;fill:#C42127;" d="M58.645,7.044h3.947v1.763h-3.52v5.279h3.52v1.76h-3.947v1.758
		h5.705v-5.277h-3.51v-1.76h3.51V5.284h-5.705V7.044z M52.041,10.56h3.504v1.762h-3.504v5.279h5.715v-1.758h-3.955v-1.762h3.516
		V8.798h-3.516V7.04h3.955V5.28h-5.715V10.56z M58.176,0c-6.33,0-11.451,5.123-11.451,11.448c0,6.325,5.121,11.452,11.451,11.452
		c6.322,0,11.449-5.127,11.449-11.452C69.625,5.123,64.498,0,58.176,0z M58.176,21.126c-5.346,0-9.68-4.335-9.68-9.678
		c0-5.34,4.334-9.678,9.68-9.678c5.342,0,9.674,4.338,9.674,9.678C67.85,16.791,63.518,21.126,58.176,21.126z"/>
	<path style="fill:#231F20;" d="M26.174,11.24l-0.053-0.021l0.049-0.026c0.537-0.283,1.249-0.853,1.249-2.556
		c0-0.933-0.357-1.776-1.002-2.371c-0.71-0.651-1.743-0.997-2.985-0.997L16.98,5.265v12.316l6.77,0.002
		c1.481,0,2.598-0.357,3.319-1.063c0.741-0.727,0.897-1.657,0.897-2.315C27.966,12.769,27.363,11.77,26.174,11.24z M19.324,7.532
		h3.906c0.687,0,1.839,0,1.839,1.354c0,0.498-0.217,0.849-0.642,1.047c-0.381,0.179-0.863,0.196-1.188,0.196h-3.915V7.532z
		 M25.285,14.895c-0.417,0.417-1.141,0.416-1.67,0.416h-4.307v-0.025l0.017-2.895v-0.027h4.266c0.391,0,0.953,0.062,1.401,0.355
		c0.421,0.274,0.632,0.681,0.632,1.205C25.623,14.344,25.51,14.67,25.285,14.895z M8.52,5.685C7.729,5.908,7.077,6.24,6.532,6.698
		c-0.778,0.656-2.08,2.126-2.08,4.623c0,1.19,0.201,2.174,0.617,3.006c0.346,0.69,0.833,1.274,1.541,1.835
		c1.097,0.872,2.645,1.318,4.594,1.318h3.363v-2.326H11.39c-1.764,0-3.044-0.435-3.805-1.298c-0.54-0.614-0.815-1.44-0.822-2.454
		c-0.01-1.094,0.295-1.959,0.912-2.577c0.767-0.773,2.017-1.167,3.715-1.167h3.178V5.355h-3.244
		C10.229,5.355,9.314,5.463,8.52,5.685z M0,17.584h2.457V5.269H0V17.584z M36.391,7.571h3.355V5.269H36.32
		c-1.093,0-2.008,0.106-2.803,0.33c-0.792,0.224-1.443,0.555-1.987,1.014c-0.628,0.526-2.083,2.039-2.083,4.708
		c0,1.189,0.208,2.239,0.618,3.114c0.357,0.763,0.875,1.416,1.542,1.945c1.033,0.822,2.494,1.203,4.596,1.203h3.543V15.26h-3.355
		c-1.764,0-3.046-0.456-3.809-1.354c-0.539-0.633-0.815-1.476-0.824-2.504c-0.009-1.123,0.309-2.016,0.942-2.657
		C33.474,7.967,34.713,7.571,36.391,7.571z"/>
</g>
<g id="Layer_1">
</g>
</svg>
