<?xml version="1.0" encoding="iso-8859-1"?>
<!-- Generator: Adobe Illustrator 16.0.0, SVG Export Plug-In . SVG Version: 6.00 Build 0)  -->
<!DOCTYPE svg PUBLIC "-//W3C//DTD SVG 1.1//EN" "http://www.w3.org/Graphics/SVG/1.1/DTD/svg11.dtd">
<svg version="1.1" xmlns="http://www.w3.org/2000/svg" xmlns:xlink="http://www.w3.org/1999/xlink" x="0px" y="0px" width="71.09px"
	 height="22.574px" viewBox="0 0 71.09 22.574" style="enable-background:new 0 0 71.09 22.574;" xml:space="preserve">
<g id="_x36_-hipotecario">
	<path style="fill:#231F20;" d="M64.039,8.972c-0.348,0-0.625,0.279-0.625,0.625c0,0.348,0.277,0.625,0.625,0.625
		c0.35,0,0.625-0.277,0.625-0.625C64.664,9.25,64.389,8.972,64.039,8.972z M15.882,6.892h0.767c0.734,0,1.057-0.453,1.057-0.954
		c0-0.473-0.271-0.764-0.729-0.838V5.09c0.285-0.117,0.474-0.303,0.474-0.696c0-0.376-0.239-0.833-0.964-0.833h-0.604
		c-0.15,0-0.207,0.063-0.207,0.178v2.978C15.675,6.834,15.731,6.892,15.882,6.892z M16.013,3.869h0.5
		c0.394,0,0.601,0.268,0.601,0.539c0,0.336-0.265,0.58-0.61,0.58h-0.49V3.869z M16.013,5.269h0.595c0.458,0,0.763,0.271,0.763,0.66
		c0,0.431-0.286,0.655-0.76,0.655h-0.598V5.269z M20.81,8.972c-0.312,0-0.51,0.21-0.51,0.614v3.125h-3.602V9.586
		c0-0.404-0.199-0.614-0.51-0.614c-0.313,0-0.511,0.21-0.511,0.614v7.154c0,0.404,0.197,0.615,0.511,0.615
		c0.311,0,0.51-0.211,0.51-0.615v-3.151H20.3v3.151c0,0.404,0.198,0.615,0.51,0.615c0.311,0,0.512-0.211,0.512-0.615V9.586
		C21.321,9.182,21.12,8.972,20.81,8.972z M23.389,11.055c-0.314,0-0.511,0.21-0.511,0.544v5.211c0,0.335,0.196,0.546,0.511,0.546
		c0.309,0,0.508-0.211,0.508-0.546v-5.211C23.896,11.265,23.697,11.055,23.389,11.055z M23.389,8.972
		c-0.348,0-0.625,0.279-0.625,0.625c0,0.348,0.277,0.625,0.625,0.625c0.346,0,0.624-0.277,0.624-0.625
		C24.013,9.25,23.734,8.972,23.389,8.972z M29.324,6.922c0.941,0,1.412-0.849,1.412-1.695s-0.471-1.694-1.412-1.694
		s-1.415,0.847-1.415,1.694S28.383,6.922,29.324,6.922z M29.324,3.841c0.781,0,1.048,0.758,1.048,1.386
		c0,0.628-0.267,1.383-1.048,1.383c-0.783,0-1.048-0.755-1.048-1.383C28.276,4.6,28.541,3.841,29.324,3.841z M50.17,11.937
		c0.691,0,0.846,0.322,1.238,0.322c0.244,0,0.418-0.22,0.418-0.427c0-0.417-0.615-0.777-1.656-0.777
		c-1.875,0-2.779,1.518-2.779,3.148c0,1.633,0.904,3.152,2.779,3.152c1.055,0,1.621-0.417,1.621-0.8
		c0-0.277-0.162-0.428-0.395-0.428c-0.324,0-0.51,0.347-1.227,0.347c-1.262,0-1.76-1.229-1.76-2.271
		C48.41,13.162,48.908,11.937,50.17,11.937z M18.367,6.922c0.115,0,0.144-0.071,0.184-0.155l0.224-0.6h1.617l0.22,0.6
		c0.036,0.084,0.071,0.155,0.188,0.155c0.098,0,0.149-0.06,0.149-0.133c0-0.039-0.014-0.094-0.032-0.14l-1.073-2.873
		c-0.04-0.108-0.092-0.244-0.261-0.244c-0.166,0-0.22,0.136-0.264,0.244L18.25,6.649c-0.02,0.046-0.035,0.102-0.035,0.14
		C18.215,6.863,18.269,6.922,18.367,6.922z M19.578,3.971h0.01l0.692,1.887h-1.395L19.578,3.971z M68.383,11.055
		c-1.738,0-2.711,1.518-2.711,3.148c0,1.633,0.973,3.152,2.711,3.152c1.734,0,2.707-1.52,2.707-3.152
		C71.09,12.572,70.117,11.055,68.383,11.055z M68.383,16.475c-1.252,0-1.691-1.229-1.691-2.271c0-1.041,0.439-2.267,1.691-2.267
		c1.246,0,1.689,1.226,1.689,2.267C70.072,15.246,69.629,16.475,68.383,16.475z M57.492,11.055c-0.207,0-0.473,0.141-0.473,0.498
		v0.326h-0.023c-0.477-0.52-0.973-0.823-1.68-0.823c-1.734,0-2.711,1.518-2.711,3.148c0,1.633,0.977,3.152,2.711,3.152
		c0.66,0,1.238-0.303,1.68-0.926h0.023v0.428c0,0.359,0.266,0.498,0.473,0.498c0.197,0,0.475-0.139,0.475-0.498v-5.305
		C57.967,11.196,57.689,11.055,57.492,11.055z M55.316,16.475c-1.25,0-1.691-1.229-1.691-2.271c0-1.041,0.441-2.267,1.691-2.267
		s1.689,1.226,1.689,2.267C57.006,15.246,56.566,16.475,55.316,16.475z M39.982,11.125h-0.418V9.794
		c0-0.336-0.193-0.543-0.508-0.543s-0.512,0.207-0.512,0.543v1.332h-0.414c-0.338,0-0.51,0.162-0.51,0.441
		c0,0.278,0.172,0.439,0.51,0.439h0.414v4.804c0,0.335,0.197,0.546,0.512,0.546s0.508-0.211,0.508-0.546v-4.804h0.418
		c0.336,0,0.508-0.162,0.508-0.439C40.49,11.287,40.318,11.125,39.982,11.125z M23.928,3.533c-0.108,0-0.169,0.072-0.169,0.215V6.27
		h-0.01l-1.788-2.616c-0.048-0.065-0.103-0.121-0.198-0.121c-0.092,0-0.165,0.064-0.165,0.194v2.979
		c0,0.138,0.059,0.215,0.165,0.215c0.109,0,0.17-0.077,0.17-0.215V4.15h0.011l1.813,2.651c0.054,0.079,0.091,0.122,0.181,0.122
		c0.093,0,0.16-0.048,0.16-0.207V3.748C24.097,3.605,24.035,3.533,23.928,3.533z M43.768,11.055c-1.725,0-2.768,1.483-2.768,3.148
		c0,1.633,0.857,3.152,2.826,3.152c1.203,0,2.467-0.764,2.467-1.262c0-0.291-0.188-0.452-0.371-0.452
		c-0.381,0-0.729,0.833-2.086,0.833c-1.148,0-1.816-0.823-1.816-1.875h3.83c0.443,0,0.568-0.187,0.568-0.543
		C46.418,12.572,45.447,11.055,43.768,11.055z M42.02,13.836c0.037-0.94,0.488-1.946,1.748-1.899c1.123,0,1.635,1.019,1.635,1.899
		H42.02z M34.359,11.055c-1.736,0-2.709,1.518-2.709,3.148c0,1.633,0.973,3.152,2.709,3.152c1.738,0,2.707-1.52,2.707-3.152
		C37.066,12.572,36.098,11.055,34.359,11.055z M34.359,16.475c-1.251,0-1.688-1.229-1.688-2.271c0-1.041,0.438-2.267,1.688-2.267
		c1.252,0,1.692,1.226,1.692,2.267C36.052,15.246,35.611,16.475,34.359,16.475z M27.397,6.452c0-0.116-0.059-0.167-0.144-0.167
		c-0.118,0-0.298,0.325-0.882,0.325c-0.806,0-1.145-0.649-1.145-1.337c0-0.678,0.382-1.432,1.082-1.432
		c0.553,0,0.725,0.369,0.864,0.369c0.07,0,0.153-0.06,0.153-0.177c0-0.164-0.451-0.5-1.015-0.5c-0.981,0-1.45,0.865-1.45,1.74
		c0,0.889,0.469,1.649,1.489,1.649C26.964,6.922,27.397,6.599,27.397,6.452z M61.922,11.055c-0.592,0-1.158,0.592-1.389,1.066
		h-0.025v-0.522c0-0.334-0.197-0.544-0.51-0.544s-0.512,0.21-0.512,0.544v5.211c0,0.335,0.199,0.546,0.512,0.546
		s0.51-0.211,0.51-0.546v-2.93c0-1.191,0.74-1.642,1.346-1.747c0.426-0.081,0.633-0.269,0.633-0.556
		C62.486,11.287,62.279,11.055,61.922,11.055z M64.039,11.055c-0.311,0-0.51,0.21-0.51,0.544v5.211c0,0.335,0.199,0.546,0.51,0.546
		c0.313,0,0.51-0.211,0.51-0.546v-5.211C64.549,11.265,64.352,11.055,64.039,11.055z M28.123,11.055
		c-0.811,0-1.354,0.291-1.646,0.847h-0.02v-0.303c0-0.334-0.198-0.544-0.511-0.544c-0.315,0-0.511,0.21-0.511,0.544v7.643
		c0,0.335,0.195,0.545,0.511,0.545c0.313,0,0.511-0.21,0.511-0.545V16.52h0.02c0.267,0.384,0.835,0.836,1.646,0.836
		c1.667,0,2.629-1.52,2.629-3.152C30.752,12.572,29.79,11.055,28.123,11.055z M28.042,16.475c-1.251,0-1.69-1.229-1.69-2.271
		c0-1.041,0.439-2.267,1.69-2.267c1.252,0,1.69,1.226,1.69,2.267C29.732,15.246,29.294,16.475,28.042,16.475z"/>
	<path style="fill:#EE7525;" d="M0,0v15.327l1.932-1.114l1.827-1.057l2.055-1.184l0.024-0.014c0.032-0.015,0.062-0.025,0.091-0.039
		c0.028-0.011,0.052-0.023,0.081-0.029c0.027-0.01,0.057-0.015,0.086-0.022c0.029-0.005,0.059-0.011,0.087-0.011
		c0.029-0.005,0.059-0.005,0.086-0.005c0.031,0,0.059,0,0.089,0.005c0.028,0,0.058,0.006,0.087,0.011
		c0.028,0.007,0.058,0.012,0.088,0.022c0.025,0.006,0.051,0.018,0.078,0.029c0.028,0.014,0.062,0.024,0.091,0.039l0.023,0.014
		l2.055,1.184l1.827,1.057l1.933,1.114V0H0z M8.779,15.268l-2.055-1.188l-0.008-0.006c-0.28-0.156-0.625-0.154-0.903,0.006
		l-2.055,1.188l-1.827,1.054L0,17.438v5.137h12.539v-5.137l-1.933-1.116L8.779,15.268z"/>
	<path style="fill:#FFFFFF;" d="M10.606,14.213l-1.827-1.057l-2.055-1.184l-0.023-0.014c-0.029-0.015-0.063-0.025-0.091-0.039
		c-0.027-0.011-0.053-0.023-0.078-0.029c-0.03-0.01-0.06-0.015-0.088-0.022c-0.029-0.005-0.059-0.011-0.087-0.011
		c-0.03-0.005-0.058-0.005-0.089-0.005c-0.027,0-0.057,0-0.086,0.005c-0.028,0-0.058,0.006-0.087,0.011
		C6.066,11.875,6.037,11.88,6.01,11.89c-0.029,0.006-0.053,0.018-0.081,0.029c-0.029,0.014-0.059,0.024-0.091,0.039l-0.024,0.014
		l-2.055,1.184l-1.827,1.057L0,15.327v2.11l1.932-1.116l1.827-1.054l2.055-1.188c0.278-0.16,0.623-0.162,0.903-0.006l0.008,0.006
		l2.055,1.188l1.827,1.054l1.933,1.116v-2.11L10.606,14.213z"/>
</g>
<g id="Layer_1">
</g>
</svg>
