<?xml version="1.0" encoding="iso-8859-1"?>
<!-- Generator: Adobe Illustrator 16.0.0, SVG Export Plug-In . SVG Version: 6.00 Build 0)  -->
<!DOCTYPE svg PUBLIC "-//W3C//DTD SVG 1.1//EN" "http://www.w3.org/Graphics/SVG/1.1/DTD/svg11.dtd">
<svg version="1.1" xmlns="http://www.w3.org/2000/svg" xmlns:xlink="http://www.w3.org/1999/xlink" x="0px" y="0px"
	 width="95.297px" height="18.211px" viewBox="0 0 95.297 18.211" style="enable-background:new 0 0 95.297 18.211;"
	 xml:space="preserve">
<g id="_x33_-provincia">
	<path style="fill:#828282;" d="M60.559,17.768H60.25c-0.108,0-0.185-0.021-0.229-0.06c-0.043-0.041-0.066-0.134-0.066-0.283V15.52
		h0.592c0.029,0,0.055-0.01,0.077-0.03c0.02-0.023,0.033-0.048,0.033-0.076v-0.187c0-0.028-0.014-0.055-0.033-0.076
		c-0.022-0.024-0.048-0.033-0.077-0.033h-0.592v-0.596c0-0.029-0.007-0.053-0.024-0.069c-0.016-0.016-0.034-0.023-0.056-0.023
		h-0.018l-0.284,0.043c-0.063,0.012-0.098,0.048-0.098,0.108v0.537h-0.531c-0.068,0-0.104,0.033-0.104,0.1v0.146
		c0,0.059,0.035,0.091,0.104,0.099l0.531,0.058v1.91c0,0.148,0.015,0.271,0.046,0.364c0.03,0.097,0.076,0.171,0.138,0.227
		c0.06,0.054,0.138,0.091,0.231,0.111c0.097,0.019,0.203,0.029,0.327,0.029c0.052,0,0.11-0.003,0.178-0.008
		c0.063-0.006,0.125-0.012,0.179-0.02c0.066-0.012,0.098-0.043,0.098-0.095v-0.194C60.672,17.794,60.634,17.768,60.559,17.768z
		 M53.62,14.43c-0.146-0.139-0.319-0.242-0.523-0.309c-0.203-0.065-0.431-0.097-0.683-0.097c-0.103,0-0.205,0-0.307,0.005
		c-0.102,0.004-0.197,0.007-0.288,0.014c-0.088,0.005-0.166,0.011-0.237,0.018c-0.067,0.004-0.125,0.01-0.163,0.018
		c-0.077,0.011-0.114,0.056-0.114,0.137v3.756c0,0.079,0.037,0.124,0.114,0.137c0.038,0.006,0.096,0.013,0.163,0.019
		c0.071,0.006,0.149,0.011,0.237,0.016c0.091,0.006,0.187,0.012,0.288,0.013c0.102,0.004,0.204,0.007,0.307,0.007
		c0.252,0,0.479-0.032,0.683-0.103c0.204-0.065,0.378-0.171,0.523-0.31c0.144-0.14,0.253-0.317,0.331-0.53
		c0.079-0.214,0.118-0.466,0.118-0.758v-0.738c0-0.294-0.039-0.549-0.118-0.761C53.873,14.749,53.764,14.57,53.62,14.43z
		 M53.571,16.459c0,0.244-0.029,0.448-0.086,0.613c-0.059,0.164-0.14,0.296-0.243,0.394c-0.103,0.099-0.225,0.168-0.368,0.21
		c-0.14,0.038-0.293,0.059-0.456,0.059h-0.334c-0.096,0-0.184-0.004-0.27-0.01v-3.263c0.088-0.01,0.182-0.014,0.271-0.016
		c0.093-0.001,0.203-0.001,0.332-0.001c0.163,0,0.316,0.02,0.456,0.059c0.144,0.042,0.266,0.109,0.368,0.204
		c0.104,0.099,0.185,0.229,0.243,0.395c0.057,0.163,0.086,0.37,0.086,0.618V16.459z M56.768,15.425
		c-0.1-0.109-0.226-0.196-0.374-0.257c-0.148-0.06-0.326-0.088-0.525-0.088c-0.394,0-0.693,0.112-0.902,0.343
		c-0.207,0.229-0.311,0.541-0.311,0.935v0.492c0,0.254,0.035,0.465,0.105,0.633c0.071,0.167,0.165,0.303,0.278,0.403
		c0.117,0.099,0.246,0.17,0.398,0.214c0.149,0.04,0.301,0.062,0.458,0.062c0.185,0,0.355-0.008,0.512-0.024
		c0.154-0.017,0.311-0.04,0.467-0.068c0.044-0.007,0.073-0.021,0.087-0.042c0.014-0.019,0.023-0.047,0.023-0.085v-0.184
		c0-0.03-0.011-0.05-0.029-0.063c-0.017-0.01-0.037-0.013-0.06-0.013h-0.027c-0.129,0.016-0.282,0.03-0.461,0.043
		c-0.18,0.01-0.353,0.017-0.512,0.017c-0.252,0-0.441-0.067-0.568-0.203c-0.129-0.135-0.192-0.363-0.192-0.688v-0.075h1.832
		c0.068,0,0.104-0.043,0.104-0.121v-0.296c0-0.191-0.024-0.368-0.076-0.527C56.942,15.672,56.868,15.536,56.768,15.425z
		 M56.59,16.407h-1.455v-0.05c0-0.295,0.063-0.511,0.19-0.651c0.126-0.137,0.308-0.207,0.546-0.207c0.24,0,0.423,0.066,0.54,0.196
		c0.119,0.133,0.179,0.353,0.179,0.662V16.407z M63.378,15.117h-0.27c-0.027,0-0.053,0.009-0.075,0.033
		C63.013,15.172,63,15.198,63,15.227v2.302c-0.126,0.062-0.253,0.111-0.377,0.153c-0.123,0.039-0.244,0.06-0.361,0.06
		c-0.102,0-0.19-0.014-0.267-0.035c-0.077-0.024-0.138-0.063-0.188-0.117c-0.05-0.057-0.086-0.129-0.11-0.223
		c-0.022-0.092-0.035-0.209-0.035-0.345v-1.795c0-0.028-0.011-0.055-0.033-0.076c-0.022-0.024-0.049-0.033-0.077-0.033h-0.263
		c-0.028,0-0.054,0.009-0.075,0.033c-0.022,0.021-0.033,0.048-0.033,0.076v1.797c0,0.365,0.075,0.646,0.226,0.842
		c0.152,0.198,0.395,0.296,0.725,0.296c0.164,0,0.313-0.021,0.444-0.064c0.132-0.041,0.271-0.106,0.425-0.19v0.105
		c0,0.028,0.01,0.057,0.031,0.077c0.021,0.022,0.043,0.034,0.072,0.034h0.274c0.029,0,0.055-0.012,0.072-0.032
		c0.021-0.022,0.032-0.048,0.032-0.077v-2.787c0-0.028-0.012-0.055-0.032-0.076C63.433,15.126,63.407,15.117,63.378,15.117z
		 M74.96,15.866c-0.053-0.164-0.128-0.305-0.229-0.421c-0.102-0.117-0.229-0.207-0.383-0.271c-0.152-0.063-0.329-0.094-0.53-0.094
		c-0.2,0-0.376,0.03-0.527,0.094c-0.152,0.064-0.278,0.154-0.381,0.271c-0.1,0.116-0.179,0.257-0.229,0.421
		c-0.052,0.162-0.076,0.347-0.076,0.545v0.416c0,0.199,0.024,0.382,0.076,0.548c0.05,0.163,0.129,0.304,0.229,0.419
		c0.103,0.119,0.229,0.208,0.381,0.271c0.151,0.064,0.327,0.096,0.527,0.096c0.201,0,0.378-0.031,0.53-0.096
		c0.153-0.063,0.281-0.152,0.383-0.271c0.102-0.115,0.177-0.256,0.229-0.419c0.052-0.166,0.076-0.349,0.076-0.548v-0.416
		C75.036,16.213,75.012,16.028,74.96,15.866z M74.555,16.827c0,0.285-0.058,0.509-0.177,0.67c-0.119,0.164-0.306,0.244-0.561,0.244
		c-0.258,0-0.446-0.082-0.56-0.245c-0.116-0.164-0.175-0.388-0.175-0.669v-0.416c0-0.283,0.062-0.506,0.177-0.668
		c0.115-0.164,0.302-0.244,0.558-0.244c0.258,0,0.445,0.083,0.563,0.246c0.116,0.163,0.174,0.387,0.174,0.666V16.827z
		 M71.859,14.012h-0.277c-0.028,0-0.053,0.01-0.073,0.031s-0.031,0.043-0.031,0.073v1.018c-0.105-0.02-0.218-0.031-0.335-0.042
		c-0.119-0.007-0.22-0.012-0.305-0.012c-0.4,0-0.698,0.116-0.896,0.345c-0.196,0.232-0.295,0.563-0.295,0.993v0.392
		c0,0.206,0.021,0.393,0.069,0.557c0.048,0.166,0.122,0.308,0.22,0.427c0.1,0.118,0.223,0.209,0.372,0.272
		c0.148,0.064,0.326,0.096,0.529,0.096c0.167,0,0.336-0.007,0.502-0.021c0.164-0.014,0.334-0.038,0.505-0.071
		c0.05-0.007,0.084-0.021,0.096-0.042c0.013-0.019,0.019-0.047,0.019-0.085v-3.825c0-0.03-0.009-0.052-0.027-0.073
		S71.892,14.012,71.859,14.012z M71.478,17.708c-0.093,0.006-0.202,0.015-0.318,0.02c-0.121,0.01-0.227,0.014-0.321,0.014
		c-0.269,0-0.455-0.08-0.557-0.242c-0.103-0.159-0.152-0.389-0.152-0.689v-0.392c0-0.292,0.052-0.518,0.154-0.679
		c0.104-0.16,0.29-0.24,0.555-0.24c0.089,0,0.194,0.001,0.319,0.007c0.121,0.004,0.229,0.014,0.32,0.033V17.708z M66.011,14.012
		h-0.282c-0.03,0-0.052,0.01-0.071,0.031c-0.019,0.021-0.026,0.043-0.026,0.073v3.897c0,0.029,0.008,0.055,0.026,0.077
		c0.02,0.021,0.041,0.032,0.071,0.032h0.282c0.031,0,0.054-0.012,0.073-0.032c0.019-0.022,0.026-0.048,0.026-0.077v-3.897
		c0-0.03-0.008-0.052-0.026-0.073C66.064,14.021,66.042,14.012,66.011,14.012z M67.937,15.08c-0.187,0-0.346,0.006-0.478,0.021
		c-0.135,0.014-0.257,0.031-0.369,0.05c-0.078,0.01-0.114,0.046-0.114,0.103v0.192c0,0.034,0.008,0.061,0.028,0.07
		c0.021,0.011,0.043,0.018,0.068,0.018h0.026c0.109-0.014,0.232-0.021,0.369-0.033c0.134-0.006,0.291-0.011,0.469-0.011
		c0.216,0,0.366,0.044,0.453,0.137c0.087,0.091,0.132,0.249,0.132,0.479v0.221h-0.405c-0.244,0-0.451,0.018-0.617,0.056
		c-0.168,0.034-0.303,0.091-0.407,0.165s-0.18,0.167-0.225,0.277c-0.045,0.109-0.067,0.238-0.067,0.386v0.066
		c0,0.173,0.024,0.313,0.074,0.427c0.049,0.113,0.113,0.204,0.196,0.272c0.08,0.07,0.176,0.118,0.283,0.146
		c0.108,0.027,0.222,0.041,0.337,0.041c0.153,0,0.3-0.024,0.436-0.077c0.14-0.052,0.274-0.113,0.406-0.189v0.119
		c0,0.029,0.011,0.055,0.034,0.077c0.02,0.021,0.048,0.032,0.075,0.032h0.251c0.029,0,0.056-0.012,0.075-0.032
		c0.024-0.022,0.033-0.048,0.033-0.077v-1.909c0-0.322-0.081-0.574-0.248-0.757C68.587,15.168,68.315,15.08,67.937,15.08z
		 M68.521,17.548c-0.132,0.075-0.256,0.13-0.372,0.164c-0.116,0.037-0.238,0.056-0.365,0.056c-0.162,0-0.285-0.033-0.373-0.101
		c-0.087-0.069-0.13-0.201-0.13-0.398v-0.063c0-0.1,0.012-0.182,0.038-0.249c0.025-0.066,0.068-0.122,0.132-0.164
		c0.062-0.042,0.146-0.072,0.256-0.094c0.109-0.021,0.246-0.027,0.409-0.027h0.405V17.548z"/>
	<path style="fill:#0C713C;" d="M22.861,5.996c-0.13-0.037-0.323-0.072-0.577-0.103c-0.255-0.032-0.559-0.046-0.912-0.046
		c-0.379,0-0.729,0.058-1.046,0.174c-0.321,0.116-0.597,0.29-0.831,0.524c-0.236,0.235-0.42,0.528-0.555,0.877
		c-0.136,0.352-0.203,0.761-0.203,1.231v1.073c0,0.472,0.066,0.88,0.203,1.231c0.135,0.35,0.319,0.643,0.555,0.879
		c0.234,0.233,0.51,0.41,0.831,0.525c0.318,0.113,0.667,0.174,1.046,0.174c0.353,0,0.657-0.017,0.912-0.046
		c0.254-0.033,0.447-0.065,0.577-0.108c0.099-0.02,0.165-0.053,0.193-0.095c0.033-0.044,0.048-0.109,0.048-0.202v-0.751
		c0-0.063-0.019-0.104-0.058-0.135c-0.038-0.026-0.089-0.039-0.15-0.039h-0.033c-0.117,0.018-0.224,0.029-0.323,0.039
		c-0.102,0.013-0.206,0.021-0.313,0.024c-0.11,0.006-0.23,0.007-0.371,0.013c-0.137,0.002-0.3,0.005-0.483,0.005
		c-0.139,0-0.276-0.023-0.406-0.07c-0.13-0.045-0.248-0.123-0.353-0.235c-0.103-0.111-0.188-0.265-0.253-0.462
		c-0.065-0.196-0.099-0.446-0.099-0.747V8.654c0-0.3,0.033-0.548,0.099-0.744s0.15-0.352,0.253-0.462
		c0.105-0.113,0.223-0.192,0.353-0.237c0.13-0.046,0.267-0.069,0.406-0.069c0.183,0,0.346,0,0.483,0.004
		c0.14,0.004,0.261,0.008,0.371,0.013c0.107,0.005,0.211,0.012,0.313,0.023c0.099,0.012,0.206,0.024,0.323,0.039h0.033
		c0.062,0,0.112-0.012,0.15-0.039c0.04-0.028,0.058-0.073,0.058-0.133V6.296c0-0.09-0.015-0.157-0.048-0.2
		C23.026,6.054,22.959,6.021,22.861,5.996z M9.217,5.847c-0.401,0-0.763,0.019-1.091,0.056C7.798,5.942,7.519,5.986,7.287,6.031
		c-0.146,0.029-0.216,0.109-0.216,0.24v0.732c0,0.082,0.016,0.138,0.055,0.162c0.04,0.022,0.089,0.033,0.15,0.033h0.058
		c0.191-0.023,0.462-0.044,0.809-0.065C8.49,7.115,8.847,7.107,9.217,7.107c0.346,0,0.602,0.062,0.77,0.186
		c0.164,0.125,0.246,0.376,0.246,0.757v0.511H9.507c-1.002,0-1.721,0.167-2.162,0.503c-0.438,0.334-0.658,0.833-0.658,1.495v0.048
		c0,0.394,0.061,0.711,0.18,0.957c0.118,0.248,0.273,0.442,0.459,0.59c0.191,0.146,0.404,0.247,0.643,0.3
		c0.238,0.054,0.477,0.083,0.716,0.083c0.276,0,0.549-0.046,0.821-0.136c0.268-0.088,0.537-0.213,0.808-0.374v0.186
		c0,0.062,0.023,0.115,0.068,0.161c0.045,0.047,0.099,0.07,0.161,0.07h0.983c0.062,0,0.115-0.023,0.161-0.07
		c0.047-0.046,0.07-0.1,0.07-0.161V8.051c0-0.744-0.219-1.3-0.653-1.66C10.671,6.029,10.04,5.847,9.217,5.847z M10.233,11
		c-0.17,0.093-0.358,0.166-0.563,0.229c-0.205,0.061-0.414,0.093-0.623,0.093c-0.293,0-0.506-0.048-0.638-0.145
		c-0.131-0.096-0.197-0.286-0.197-0.571v-0.048c0-0.159,0.016-0.304,0.052-0.426c0.035-0.125,0.101-0.227,0.198-0.306
		C8.56,9.744,8.69,9.683,8.857,9.64c0.166-0.042,0.381-0.063,0.646-0.063h0.73V11z M4.943,8.088c0.355-0.154,0.621-0.386,0.797-0.7
		c0.178-0.312,0.266-0.66,0.266-1.045V6.112c0-0.439-0.087-0.807-0.259-1.103C5.574,4.714,5.329,4.472,5.013,4.288
		C4.696,4.105,4.322,3.972,3.888,3.889C3.451,3.808,2.972,3.767,2.448,3.767c-0.454,0-0.849,0.015-1.189,0.042
		C0.92,3.835,0.674,3.859,0.521,3.884C0.334,3.913,0.203,3.973,0.122,4.063C0.041,4.151,0,4.3,0,4.507v7.278
		C0,12,0.045,12.147,0.132,12.23c0.091,0.08,0.23,0.141,0.423,0.178c0.177,0.037,0.435,0.067,0.779,0.093
		c0.343,0.022,0.749,0.035,1.22,0.035c0.538,0,1.022-0.046,1.455-0.136c0.432-0.088,0.797-0.231,1.104-0.425
		c0.302-0.197,0.537-0.453,0.703-0.771c0.165-0.313,0.248-0.705,0.248-1.166V9.842c0-0.438-0.098-0.802-0.294-1.091
		S5.298,8.242,4.943,8.088z M1.604,5.109C1.729,5.1,1.865,5.094,2.017,5.09C2.165,5.086,2.31,5.083,2.448,5.083
		c0.37,0,0.682,0.021,0.937,0.058c0.254,0.04,0.459,0.104,0.617,0.193c0.16,0.089,0.272,0.205,0.341,0.35
		c0.07,0.142,0.103,0.313,0.103,0.514V6.36c0,0.149-0.021,0.289-0.062,0.424C4.34,6.919,4.269,7.039,4.165,7.139
		c-0.106,0.1-0.247,0.178-0.422,0.239c-0.178,0.058-0.402,0.086-0.67,0.086H1.604V5.109z M4.494,10.016
		c0,0.202-0.031,0.375-0.091,0.526c-0.064,0.15-0.17,0.273-0.319,0.37c-0.151,0.098-0.351,0.17-0.602,0.22
		c-0.25,0.049-0.56,0.073-0.929,0.073c-0.124,0-0.277-0.004-0.462-0.009c-0.184-0.009-0.348-0.014-0.487-0.014V8.64h1.468
		c0.269,0,0.496,0.036,0.683,0.106c0.182,0.068,0.328,0.159,0.436,0.271c0.11,0.111,0.185,0.24,0.231,0.386
		C4.47,9.551,4.494,9.705,4.494,9.866V10.016z M17.554,6.585c-0.145-0.229-0.346-0.409-0.608-0.542
		c-0.26-0.132-0.599-0.196-1.015-0.196c-0.193,0-0.367,0.011-0.52,0.03c-0.155,0.018-0.304,0.05-0.451,0.093
		c-0.146,0.042-0.289,0.097-0.433,0.168c-0.141,0.068-0.299,0.157-0.468,0.265V6.159c0-0.062-0.023-0.116-0.071-0.163
		c-0.045-0.045-0.099-0.068-0.159-0.068h-1.004c-0.065,0-0.116,0.023-0.164,0.068c-0.045,0.047-0.068,0.102-0.068,0.163v6.039
		c0,0.063,0.023,0.119,0.068,0.17c0.048,0.049,0.099,0.075,0.164,0.075h1.06c0.063,0,0.116-0.026,0.164-0.075
		c0.044-0.051,0.068-0.107,0.068-0.17V7.556c0.245-0.13,0.475-0.232,0.687-0.306c0.213-0.072,0.417-0.108,0.618-0.108
		c0.224,0,0.401,0.021,0.532,0.063c0.131,0.043,0.229,0.111,0.296,0.208c0.064,0.096,0.108,0.226,0.126,0.39
		c0.019,0.168,0.029,0.378,0.029,0.632v3.763c0,0.063,0.022,0.119,0.067,0.17c0.048,0.049,0.102,0.075,0.164,0.075h1.063
		c0.059,0,0.113-0.026,0.161-0.075c0.043-0.051,0.068-0.107,0.068-0.17V8.435c0-0.371-0.025-0.712-0.08-1.028
		C17.793,7.09,17.697,6.817,17.554,6.585z M28.531,6.666c-0.231-0.252-0.518-0.452-0.861-0.6c-0.343-0.146-0.74-0.219-1.196-0.219
		c-0.453,0-0.851,0.073-1.195,0.219c-0.341,0.148-0.63,0.348-0.86,0.6c-0.23,0.253-0.407,0.557-0.525,0.908
		c-0.122,0.349-0.18,0.735-0.18,1.147v0.938c0,0.416,0.058,0.798,0.18,1.15c0.118,0.351,0.295,0.651,0.525,0.906
		c0.229,0.254,0.519,0.454,0.86,0.599c0.344,0.147,0.742,0.223,1.195,0.223c0.456,0,0.854-0.075,1.196-0.223
		c0.343-0.145,0.629-0.345,0.861-0.599c0.229-0.255,0.404-0.556,0.525-0.906c0.12-0.352,0.18-0.734,0.18-1.15V8.721
		c0-0.412-0.06-0.798-0.18-1.147C28.936,7.223,28.761,6.919,28.531,6.666z M27.71,9.659c0,0.478-0.101,0.856-0.31,1.138
		c-0.208,0.281-0.517,0.421-0.926,0.421c-0.408,0-0.714-0.14-0.923-0.421c-0.209-0.282-0.311-0.66-0.311-1.138V8.721
		c0-0.474,0.102-0.856,0.311-1.136c0.208-0.28,0.515-0.42,0.923-0.42c0.409,0,0.718,0.14,0.926,0.42
		c0.209,0.28,0.31,0.662,0.31,1.136V9.659z M36.44,4.388c-0.307-0.209-0.658-0.354-1.059-0.438
		c-0.399-0.085-0.821-0.126-1.271-0.126c-0.423,0-0.831,0.012-1.222,0.039c-0.395,0.028-0.74,0.065-1.04,0.111
		c-0.116,0.016-0.206,0.047-0.272,0.099c-0.064,0.051-0.098,0.132-0.098,0.248v7.946c0,0.063,0.023,0.116,0.068,0.163
		c0.048,0.046,0.103,0.069,0.164,0.069h1.154c0.063,0,0.114-0.023,0.156-0.069c0.042-0.047,0.063-0.101,0.063-0.163V9.25
		c0.132,0.009,0.296,0.016,0.498,0.028c0.199,0.013,0.377,0.018,0.529,0.018c0.45,0,0.872-0.044,1.271-0.133
		c0.401-0.087,0.752-0.238,1.059-0.451c0.301-0.211,0.545-0.49,0.727-0.835c0.18-0.349,0.27-0.773,0.27-1.283V6.49
		c0-0.509-0.09-0.935-0.27-1.276C36.986,4.871,36.742,4.596,36.44,4.388z M35.831,6.588c0,0.463-0.132,0.813-0.395,1.044
		c-0.267,0.232-0.709,0.347-1.33,0.347c-0.045,0-0.116-0.002-0.213-0.006c-0.095-0.004-0.194-0.008-0.298-0.012
		c-0.105-0.002-0.203-0.006-0.3-0.01c-0.094-0.005-0.165-0.007-0.212-0.007V5.185c0.053-0.007,0.124-0.014,0.212-0.019
		c0.089-0.002,0.182-0.007,0.282-0.012c0.099-0.005,0.196-0.007,0.295-0.01c0.096-0.005,0.174-0.006,0.234-0.006
		c0.575,0,1.006,0.101,1.295,0.306c0.288,0.207,0.43,0.552,0.43,1.038V6.588z M69.198,5.981h-1.063c-0.061,0-0.113,0.023-0.16,0.069
		c-0.047,0.045-0.068,0.101-0.068,0.161v6.041c0,0.062,0.021,0.119,0.068,0.168c0.047,0.052,0.1,0.077,0.16,0.077h1.063
		c0.06,0,0.115-0.025,0.161-0.077c0.048-0.049,0.068-0.106,0.068-0.168V6.211c0-0.06-0.021-0.115-0.068-0.161
		C69.313,6.004,69.258,5.981,69.198,5.981z M41.25,5.901c-0.23,0-0.492,0.035-0.785,0.109c-0.294,0.071-0.582,0.221-0.866,0.442
		V6.211c0-0.06-0.024-0.115-0.068-0.161c-0.048-0.046-0.101-0.069-0.164-0.069h-1.005c-0.061,0-0.114,0.023-0.161,0.069
		c-0.045,0.045-0.068,0.101-0.068,0.161v6.041c0,0.062,0.023,0.119,0.068,0.168c0.047,0.052,0.101,0.077,0.161,0.077h1.065
		c0.06,0,0.114-0.025,0.16-0.077c0.046-0.049,0.069-0.106,0.069-0.168v-4.64c0.247-0.134,0.494-0.234,0.745-0.307
		c0.251-0.074,0.534-0.111,0.85-0.111c0.063,0,0.116-0.023,0.163-0.068c0.045-0.048,0.067-0.101,0.067-0.163v-0.83
		c0-0.063-0.022-0.118-0.067-0.163C41.366,5.924,41.313,5.901,41.25,5.901z M74.447,6.443c-0.434-0.362-1.065-0.542-1.889-0.542
		c-0.4,0-0.763,0.018-1.092,0.058c-0.329,0.037-0.606,0.079-0.837,0.123c-0.146,0.032-0.22,0.112-0.22,0.243v0.732
		c0,0.084,0.021,0.136,0.059,0.159c0.038,0.023,0.089,0.035,0.149,0.035h0.059c0.192-0.022,0.461-0.043,0.809-0.064
		c0.346-0.019,0.705-0.029,1.073-0.029c0.347,0,0.602,0.064,0.767,0.187c0.168,0.126,0.251,0.378,0.251,0.756v0.516h-0.729
		c-1.002,0-1.72,0.165-2.159,0.499c-0.439,0.336-0.658,0.834-0.658,1.497v0.047c0,0.394,0.061,0.712,0.18,0.959
		c0.118,0.246,0.274,0.443,0.461,0.588c0.189,0.147,0.402,0.247,0.642,0.301c0.238,0.056,0.478,0.08,0.717,0.08
		c0.276,0,0.549-0.042,0.818-0.132c0.271-0.087,0.539-0.213,0.811-0.374v0.184c0,0.063,0.022,0.116,0.067,0.163
		c0.045,0.046,0.101,0.069,0.161,0.069h0.982c0.061,0,0.116-0.023,0.163-0.069c0.044-0.047,0.068-0.101,0.068-0.163V8.106
		C75.1,7.361,74.883,6.807,74.447,6.443z M73.576,11.053c-0.171,0.092-0.359,0.17-0.564,0.231c-0.206,0.061-0.41,0.092-0.621,0.092
		c-0.294,0-0.507-0.047-0.639-0.146c-0.132-0.095-0.198-0.285-0.198-0.571v-0.047c0-0.161,0.019-0.305,0.052-0.426
		c0.035-0.124,0.102-0.226,0.198-0.31c0.097-0.076,0.229-0.14,0.396-0.183c0.165-0.041,0.381-0.062,0.643-0.062h0.734V11.053z
		 M69.233,3.852h-1.121c-0.061,0-0.118,0.022-0.168,0.069c-0.049,0.046-0.073,0.1-0.073,0.162v1.016
		c0,0.062,0.024,0.115,0.073,0.162c0.05,0.047,0.107,0.07,0.168,0.07h1.121c0.063,0,0.114-0.023,0.161-0.07
		c0.046-0.046,0.067-0.1,0.067-0.162V4.083c0-0.063-0.021-0.116-0.067-0.162C69.348,3.875,69.296,3.852,69.233,3.852z M61.44,6.64
		c-0.142-0.229-0.345-0.411-0.607-0.544c-0.261-0.131-0.601-0.194-1.015-0.194c-0.193,0-0.368,0.008-0.52,0.028
		c-0.155,0.019-0.305,0.05-0.452,0.094c-0.146,0.041-0.289,0.097-0.433,0.165c-0.142,0.07-0.298,0.159-0.466,0.264V6.211
		c0-0.06-0.023-0.115-0.071-0.161c-0.045-0.046-0.103-0.069-0.163-0.069H56.71c-0.061,0-0.115,0.023-0.161,0.069
		c-0.048,0.045-0.069,0.101-0.069,0.161v6.041c0,0.062,0.021,0.119,0.069,0.168c0.046,0.052,0.101,0.077,0.161,0.077h1.063
		c0.062,0,0.115-0.025,0.162-0.077c0.046-0.049,0.069-0.106,0.069-0.168v-4.64c0.245-0.134,0.475-0.234,0.688-0.307
		c0.211-0.074,0.418-0.111,0.618-0.111c0.221,0,0.398,0.023,0.53,0.064c0.129,0.041,0.229,0.112,0.293,0.207
		c0.066,0.097,0.109,0.227,0.128,0.396c0.021,0.165,0.028,0.374,0.028,0.629v3.763c0,0.062,0.024,0.119,0.069,0.168
		c0.047,0.052,0.102,0.077,0.163,0.077h1.061c0.062,0,0.116-0.025,0.161-0.077c0.048-0.049,0.07-0.106,0.07-0.168V8.489
		c0-0.371-0.025-0.714-0.079-1.029C61.681,7.144,61.583,6.871,61.44,6.64z M66.747,6.05c-0.131-0.038-0.322-0.073-0.577-0.104
		c-0.254-0.031-0.56-0.045-0.912-0.045c-0.378,0-0.726,0.058-1.046,0.174c-0.318,0.114-0.599,0.29-0.832,0.524
		c-0.233,0.234-0.42,0.527-0.554,0.877c-0.137,0.35-0.203,0.762-0.203,1.229v1.075c0,0.47,0.066,0.88,0.203,1.233
		c0.134,0.349,0.32,0.642,0.554,0.876s0.514,0.409,0.832,0.523c0.32,0.116,0.668,0.174,1.046,0.174c0.353,0,0.658-0.014,0.912-0.045
		c0.255-0.031,0.446-0.066,0.577-0.104c0.099-0.025,0.165-0.057,0.196-0.099c0.032-0.043,0.046-0.109,0.046-0.202v-0.752
		c0-0.06-0.019-0.104-0.058-0.133c-0.037-0.026-0.089-0.039-0.149-0.039h-0.035c-0.115,0.017-0.224,0.03-0.322,0.039
		c-0.102,0.013-0.204,0.019-0.313,0.026c-0.109,0.003-0.232,0.005-0.37,0.01c-0.139,0.004-0.3,0.007-0.484,0.007
		c-0.139,0-0.274-0.024-0.405-0.072c-0.129-0.045-0.247-0.123-0.354-0.235c-0.101-0.111-0.185-0.265-0.252-0.461
		c-0.066-0.196-0.1-0.447-0.1-0.747V8.706c0-0.298,0.033-0.545,0.1-0.745c0.067-0.195,0.151-0.349,0.252-0.46
		c0.106-0.112,0.225-0.191,0.354-0.237c0.131-0.047,0.267-0.07,0.405-0.07c0.185,0,0.346,0.003,0.484,0.006
		c0.138,0.005,0.261,0.008,0.37,0.012c0.108,0.004,0.211,0.011,0.313,0.023c0.099,0.01,0.207,0.025,0.322,0.04h0.035
		c0.061,0,0.112-0.013,0.149-0.04c0.039-0.027,0.058-0.07,0.058-0.132V6.352c0-0.093-0.014-0.162-0.046-0.202
		C66.912,6.107,66.846,6.075,66.747,6.05z M52.966,5.981h-1.154c-0.124,0-0.206,0.077-0.242,0.229l-1.11,4.83
		c-0.021,0.109-0.052,0.182-0.091,0.225c-0.04,0.042-0.08,0.063-0.128,0.063c-0.046,0-0.089-0.021-0.127-0.063
		c-0.038-0.043-0.07-0.115-0.091-0.225l-1.109-4.83c-0.04-0.152-0.114-0.229-0.229-0.229h-1.156c-0.125,0-0.185,0.062-0.185,0.184
		l0.011,0.081l1.456,5.255c0.062,0.217,0.143,0.393,0.242,0.532c0.099,0.138,0.213,0.246,0.341,0.329
		c0.127,0.081,0.265,0.14,0.409,0.173c0.147,0.034,0.294,0.051,0.439,0.051c0.146,0,0.294-0.017,0.438-0.051
		c0.146-0.033,0.285-0.092,0.417-0.173c0.131-0.083,0.248-0.191,0.352-0.329c0.106-0.14,0.183-0.315,0.237-0.532l1.455-5.255
		l0.012-0.081C53.151,6.043,53.09,5.981,52.966,5.981z M46.498,6.72c-0.23-0.253-0.518-0.453-0.857-0.599
		c-0.344-0.147-0.743-0.219-1.197-0.219c-0.454,0-0.854,0.072-1.196,0.219c-0.343,0.146-0.628,0.346-0.859,0.599
		c-0.232,0.255-0.409,0.558-0.525,0.906c-0.122,0.352-0.18,0.733-0.18,1.15v0.937c0,0.417,0.058,0.798,0.18,1.151
		c0.117,0.349,0.293,0.649,0.525,0.905c0.231,0.254,0.516,0.454,0.859,0.603c0.342,0.145,0.743,0.216,1.196,0.216
		c0.455,0,0.854-0.071,1.197-0.216c0.339-0.148,0.627-0.349,0.857-0.603c0.232-0.256,0.408-0.557,0.528-0.905
		c0.119-0.353,0.178-0.734,0.178-1.151V8.776c0-0.417-0.059-0.799-0.178-1.15C46.906,7.277,46.73,6.975,46.498,6.72z M45.678,9.712
		c0,0.478-0.104,0.856-0.311,1.138c-0.208,0.279-0.517,0.421-0.923,0.421c-0.409,0-0.716-0.142-0.924-0.421
		c-0.209-0.282-0.311-0.66-0.311-1.138V8.776c0-0.479,0.101-0.856,0.311-1.137c0.208-0.282,0.515-0.422,0.924-0.422
		c0.406,0,0.715,0.14,0.923,0.422c0.208,0.281,0.311,0.659,0.311,1.137V9.712z M55.239,3.852h-1.12
		c-0.062,0-0.117,0.022-0.168,0.069c-0.05,0.046-0.075,0.1-0.075,0.162v1.016c0,0.062,0.025,0.115,0.075,0.162
		c0.051,0.047,0.106,0.07,0.168,0.07h1.12c0.061,0,0.115-0.023,0.163-0.07c0.045-0.046,0.067-0.1,0.067-0.162V4.083
		c0-0.063-0.022-0.116-0.067-0.162C55.354,3.875,55.3,3.852,55.239,3.852z M55.206,5.981h-1.063c-0.063,0-0.116,0.023-0.162,0.069
		c-0.045,0.045-0.069,0.101-0.069,0.161v6.041c0,0.062,0.024,0.119,0.069,0.168c0.046,0.052,0.1,0.077,0.162,0.077h1.063
		c0.06,0,0.113-0.025,0.16-0.077c0.047-0.049,0.069-0.106,0.069-0.168V6.211c0-0.06-0.022-0.115-0.069-0.161
		C55.319,6.004,55.266,5.981,55.206,5.981z"/>
	<path style="fill:#6CB144;" d="M88.861,7.45h0.678c1.063,0,1.928-0.87,1.928-1.936c0-1.064-0.864-1.927-1.928-1.927h-0.7
		c-0.195,0-0.428,0.167-0.428,0.429v3.015C88.411,7.225,88.59,7.45,88.861,7.45z M95.26,7.113c-0.017-0.006-0.049-0.013-0.074,0.045
		c-1.716,4.166-6.462,3.51-6.462,3.51c-0.194-0.012-0.336,0.069-0.347,0.252v3.13c0.003,0.2-0.125,0.239-0.252,0.258
		c-3.046,0.105-3.832-1.931-3.845-3.338c-0.004-0.383-0.02-0.658-0.02-0.704V2.162c0-0.188,0.144-0.259,0.269-0.259h1.636
		c0.471,0.004,0.59-0.042,0.856-0.295l1.327-1.441C88.496-0.016,88.258,0,88.258,0h-7.229c-0.976,0-1.18,0.687-1.18,1.092v9.832
		c0.024,0.931-0.043,7.286,7.144,7.286h6.835c1.101,0,1.47-0.739,1.47-1.361V7.196L95.26,7.113z"/>
</g>
<g id="Layer_1">
</g>
</svg>
