<?xml version="1.0" encoding="iso-8859-1"?>
<!-- Generator: Adobe Illustrator 16.0.0, SVG Export Plug-In . SVG Version: 6.00 Build 0)  -->
<!DOCTYPE svg PUBLIC "-//W3C//DTD SVG 1.1//EN" "http://www.w3.org/Graphics/SVG/1.1/DTD/svg11.dtd">
<svg version="1.1" xmlns="http://www.w3.org/2000/svg" xmlns:xlink="http://www.w3.org/1999/xlink" x="0px" y="0px"
	 width="93.189px" height="22.152px" viewBox="0 0 93.189 22.152" style="enable-background:new 0 0 93.189 22.152;"
	 xml:space="preserve">
<g id="_x31_4-bancociudad">
	<path style="fill:#1DA5DE;" d="M32.087,17.379c-0.416,0-0.742,0.137-1.008,0.445c-0.286,0.322-0.408,0.707-0.408,1.285
		c0,1.053,0.584,1.723,1.515,1.723c0.441,0,0.837-0.145,1.183-0.436l-0.28-0.436c-0.247,0.215-0.514,0.324-0.819,0.324
		c-0.644,0-0.813-0.48-0.813-0.936v-0.053h1.964v-0.148c0-0.768-0.143-1.17-0.428-1.432C32.712,17.465,32.413,17.379,32.087,17.379z
		 M31.464,18.771c0-0.533,0.22-0.854,0.623-0.854c0.358,0,0.591,0.32,0.591,0.854H31.464z M44.813,17.379
		c-0.417,0-0.743,0.137-1.008,0.445c-0.286,0.322-0.409,0.707-0.409,1.285c0,1.053,0.585,1.723,1.514,1.723
		c0.442,0,0.839-0.145,1.184-0.436l-0.279-0.436c-0.248,0.215-0.514,0.324-0.819,0.324c-0.643,0-0.813-0.48-0.813-0.936v-0.053
		h1.964v-0.148c0-0.768-0.143-1.17-0.429-1.432C45.436,17.465,45.137,17.379,44.813,17.379z M44.188,18.771
		c0-0.533,0.22-0.854,0.624-0.854c0.357,0,0.591,0.32,0.591,0.854H44.188z M31.062,16.248h-3.116v0.625h1.138v3.873h0.748v-3.873
		h1.132L31.062,16.248z M37.273,17.775c-0.168-0.252-0.5-0.402-0.838-0.402c-0.827,0-1.327,0.664-1.327,1.801
		c0,1.125,0.611,1.65,1.327,1.65c0.298,0,0.545-0.104,0.772-0.332c0,0-0.012,0.203-0.012,0.438v1.223l0.676-0.178v-3.58
		c0-0.391,0.027-0.734,0.079-0.936h-0.618C37.299,17.543,37.28,17.615,37.273,17.775z M37.189,19.877
		c-0.13,0.199-0.365,0.357-0.611,0.357c-0.423,0-0.697-0.256-0.697-1.176c0-0.658,0.195-1.08,0.677-1.08
		c0.241,0,0.486,0.131,0.631,0.324V19.877z M42.44,16.016c-0.266,0-0.475,0.213-0.475,0.48c0,0.26,0.2,0.475,0.46,0.475
		c0.267,0,0.483-0.215,0.483-0.475C42.908,16.223,42.692,16.016,42.44,16.016z M47.423,17.893c0-0.18-0.045-0.369-0.121-0.52
		l-0.657,0.17c0.07,0.201,0.116,0.467,0.116,0.883v2.32h0.716v-2.223c0.064-0.266,0.317-0.486,0.617-0.486
		c0.078,0,0.13,0.02,0.202,0.043l0.22-0.66c-0.085-0.041-0.149-0.053-0.252-0.053C47.943,17.367,47.684,17.535,47.423,17.893z
		 M41.205,17.379l-0.688,0.131v2.355c-0.109,0.232-0.402,0.428-0.643,0.428c-0.423,0-0.482-0.301-0.482-0.709v-2.205l-0.703,0.131
		v2.23c0,0.41,0.053,0.623,0.183,0.781c0.164,0.193,0.449,0.322,0.819,0.322c0.377,0,0.695-0.129,0.936-0.402
		c0.058,0.188,0.143,0.305,0.286,0.41l0.494-0.338c0,0-0.203-0.164-0.203-0.658V17.379z M42.068,20.746h0.723v-3.367l-0.723,0.131
		V20.746z M68.428,17.379c-0.416,0-0.74,0.137-1.007,0.445c-0.286,0.322-0.411,0.707-0.411,1.285c0,1.053,0.586,1.723,1.516,1.723
		c0.442,0,0.838-0.145,1.182-0.436l-0.277-0.436c-0.248,0.215-0.514,0.324-0.819,0.324c-0.644,0-0.813-0.48-0.813-0.936v-0.053
		h1.964v-0.148c0-0.768-0.145-1.17-0.43-1.432C69.052,17.465,68.753,17.379,68.428,17.379z M67.804,18.771
		c0-0.533,0.222-0.854,0.624-0.854c0.357,0,0.592,0.32,0.592,0.854H67.804z M71.619,20.285c-0.176,0-0.333-0.072-0.437-0.188
		c-0.148-0.164-0.221-0.449-0.221-0.896c0-0.41,0.038-0.717,0.138-0.916c0.103-0.217,0.292-0.332,0.52-0.332
		c0.188,0,0.357,0.076,0.552,0.254l0.358-0.475c-0.293-0.273-0.553-0.359-0.91-0.359c-0.735,0-1.451,0.572-1.451,1.77
		c0,1.059,0.501,1.689,1.399,1.689c0.441,0,0.753-0.137,1.052-0.436l-0.339-0.436C72.066,20.176,71.846,20.285,71.619,20.285z
		 M65.887,17.893c0-0.18-0.045-0.369-0.124-0.52l-0.656,0.17c0.07,0.201,0.116,0.467,0.116,0.883v2.32h0.717v-2.223
		c0.063-0.266,0.317-0.486,0.617-0.486c0.078,0,0.131,0.02,0.201,0.043l0.221-0.66c-0.084-0.041-0.148-0.053-0.254-0.053
		C66.406,17.367,66.146,17.535,65.887,17.893z M74.27,17.379c-0.416,0-0.741,0.137-1.007,0.445
		c-0.287,0.322-0.411,0.707-0.411,1.285c0,1.053,0.586,1.723,1.516,1.723c0.442,0,0.838-0.145,1.183-0.436l-0.279-0.436
		c-0.245,0.215-0.514,0.324-0.819,0.324c-0.643,0-0.812-0.48-0.812-0.936v-0.053h1.962v-0.148c0-0.768-0.143-1.17-0.428-1.432
		C74.894,17.465,74.596,17.379,74.27,17.379z M73.645,18.771c0-0.533,0.223-0.854,0.625-0.854c0.358,0,0.592,0.32,0.592,0.854
		H73.645z M77.722,17.367c-0.319,0-0.58,0.168-0.839,0.525c0-0.18-0.046-0.369-0.124-0.52l-0.656,0.17
		c0.071,0.201,0.118,0.467,0.118,0.883v2.32h0.714v-2.223c0.064-0.266,0.318-0.486,0.618-0.486c0.077,0,0.129,0.02,0.201,0.043
		l0.22-0.66C77.891,17.379,77.824,17.367,77.722,17.367z M59.817,17.893c0-0.18-0.045-0.369-0.123-0.52l-0.657,0.17
		c0.071,0.201,0.117,0.467,0.117,0.883v2.32h0.715v-2.223c0.064-0.266,0.319-0.486,0.617-0.486c0.077,0,0.13,0.02,0.202,0.043
		l0.222-0.66c-0.085-0.041-0.151-0.053-0.255-0.053C60.337,17.367,60.076,17.535,59.817,17.893z M54.41,19.129
		c-0.125,0.371-0.196,0.76-0.196,0.76h-0.012c0,0-0.092-0.389-0.202-0.734l-0.571-1.775l-0.734,0.105l1.183,3.275h0.631l1.195-3.301
		h-0.747L54.41,19.129z M57.204,17.379c-0.415,0-0.74,0.137-1.007,0.445c-0.286,0.322-0.41,0.707-0.41,1.285
		c0,1.053,0.585,1.723,1.515,1.723c0.443,0,0.839-0.145,1.183-0.436l-0.278-0.436c-0.247,0.215-0.514,0.324-0.819,0.324
		c-0.645,0-0.813-0.48-0.813-0.936v-0.053h1.963v-0.148c0-0.768-0.143-1.17-0.428-1.432C57.828,17.465,57.53,17.379,57.204,17.379z
		 M56.58,18.771c0-0.533,0.222-0.854,0.624-0.854c0.357,0,0.592,0.32,0.592,0.854H56.58z M63.768,20.285
		c-0.174,0-0.331-0.072-0.435-0.188c-0.148-0.164-0.222-0.449-0.222-0.896c0-0.41,0.038-0.717,0.139-0.916
		c0.104-0.217,0.291-0.332,0.518-0.332c0.19,0,0.358,0.076,0.555,0.254l0.355-0.475c-0.291-0.273-0.552-0.359-0.91-0.359
		c-0.734,0-1.448,0.572-1.448,1.77c0,1.059,0.5,1.689,1.396,1.689c0.442,0,0.757-0.137,1.053-0.436l-0.337-0.436
		C64.217,20.176,63.995,20.285,63.768,20.285z M49.966,17.379c-0.416,0-0.741,0.137-1.008,0.445c-0.287,0.322-0.41,0.707-0.41,1.285
		c0,1.053,0.585,1.723,1.515,1.723c0.441,0,0.838-0.145,1.184-0.436l-0.279-0.436c-0.246,0.215-0.514,0.324-0.82,0.324
		c-0.643,0-0.813-0.48-0.813-0.936v-0.053h1.964v-0.148c0-0.768-0.144-1.17-0.429-1.432C50.589,17.465,50.289,17.379,49.966,17.379z
		 M49.341,18.771c0-0.533,0.221-0.854,0.625-0.854c0.356,0,0.592,0.32,0.592,0.854H49.341z"/>
	<path style="fill:#0158A3;" d="M27.915,10.762V6.637c0-0.759-0.082-1.476-0.521-2.014c-0.442-0.535-1.226-0.855-2.557-0.854
		c-0.806,0-1.509,0.146-2.009,0.563c-0.515,0.397-0.804,1.078-0.803,2.092v0.104h2.238V6.424c0-0.324,0.018-0.628,0.11-0.833
		c0.096-0.203,0.235-0.319,0.567-0.323c0.355,0.002,0.511,0.106,0.611,0.285c0.099,0.183,0.127,0.475,0.125,0.821V6.91
		c-0.1-0.002-0.201-0.002-0.301-0.002c-0.895,0.001-1.769,0.065-2.434,0.469c-0.669,0.407-1.097,1.161-1.094,2.452
		c0,0.731,0.133,1.409,0.462,1.914c0.328,0.503,0.864,0.826,1.615,0.822h0.012c0.832,0,1.443-0.361,1.882-1.064l0.072,0.902h2.136
		l-0.01-0.111C27.974,11.782,27.915,11.26,27.915,10.762z M25.523,10.357c-0.14,0.356-0.352,0.575-0.773,0.578
		c-0.299-0.003-0.441-0.141-0.542-0.37c-0.097-0.23-0.122-0.548-0.122-0.835c0.005-0.725,0.183-1.011,0.457-1.154
		c0.262-0.138,0.663-0.143,1.136-0.163c0.002,0.194,0.011,0.423,0.011,0.659C25.689,9.521,25.658,10.004,25.523,10.357z
		 M33.364,3.77c-0.395,0-0.752,0.068-1.064,0.241c-0.226,0.119-0.434,0.299-0.613,0.55V3.933h-2.283v8.469h2.283V6.604
		c-0.002-0.362,0.031-0.678,0.13-0.888c0.104-0.205,0.245-0.314,0.548-0.319c0.302,0.005,0.442,0.114,0.544,0.319
		c0.101,0.21,0.133,0.525,0.132,0.888v5.798h2.282V5.671c0.002-0.598-0.229-1.08-0.591-1.405C34.37,3.94,33.881,3.77,33.364,3.77z
		 M18.929,6.15c1.033-0.375,1.554-1.352,1.549-2.604c0.001-1.277-0.357-2.083-0.95-2.556c-0.592-0.473-1.389-0.608-2.247-0.608
		h-4.048v12.021h4.034c0.477,0,1.315-0.031,2.047-0.455c0.734-0.42,1.342-1.251,1.34-2.773C20.665,7.668,20.28,6.51,18.929,6.15z
		 M15.661,2.404h1.268c0.685,0.001,1.174,0.575,1.179,1.401c-0.007,1.103-0.626,1.396-1.062,1.404h-1.385V2.404z M17.682,10.183
		c-0.292,0.191-0.651,0.197-0.886,0.197h-1.134V7.231h1.192c1.069,0.014,1.352,0.551,1.372,1.582
		C18.222,9.621,17.973,9.991,17.682,10.183z M76.237,4.528c-0.414-0.551-0.938-0.764-1.62-0.758
		c-1.036-0.005-1.594,0.623-1.856,1.428c-0.268,0.807-0.279,1.807-0.279,2.638v0.612c0,0.847,0.015,1.86,0.289,2.675
		c0.269,0.814,0.84,1.447,1.892,1.441h0.023c0.701,0,1.265-0.234,1.656-0.837v0.675h2.18V0.382h-2.284V4.528z M76.085,10.32
		c-0.127,0.46-0.282,0.609-0.583,0.615c-0.328-0.006-0.493-0.157-0.624-0.617c-0.123-0.456-0.158-1.188-0.158-2.225V7.937
		c-0.001-0.783,0.005-1.441,0.112-1.883c0.118-0.449,0.286-0.647,0.67-0.655c0.356,0.006,0.516,0.204,0.628,0.652
		c0.103,0.443,0.107,1.1,0.106,1.881c0.001,0.053,0.001,0.107,0.001,0.164C76.237,9.131,76.202,9.863,76.085,10.32z M5.113,0
		C2.289,0,0,2.859,0,6.388c0,3.525,2.289,6.384,5.113,6.384c2.825,0,5.113-2.858,5.113-6.384C10.226,2.859,7.938,0,5.113,0z
		 M90.906,0.382v4.144c-0.413-0.549-0.938-0.761-1.62-0.756c-1.036-0.007-1.596,0.623-1.857,1.428
		c-0.266,0.806-0.278,1.807-0.278,2.637v0.612c0,0.848,0.015,1.861,0.289,2.676c0.27,0.814,0.84,1.447,1.89,1.441h0.027
		c0.698,0,1.264-0.234,1.652-0.837v0.675h2.181V0.382H90.906z M90.906,8.094c0.001,1.037-0.033,1.769-0.149,2.226
		c-0.128,0.46-0.286,0.609-0.588,0.615c-0.327-0.006-0.49-0.157-0.623-0.617c-0.122-0.456-0.158-1.188-0.157-2.225
		c-0.001-0.055-0.001-0.105-0.001-0.158c0-0.783,0.006-1.441,0.113-1.883c0.12-0.449,0.285-0.647,0.668-0.655
		c0.357,0.006,0.518,0.204,0.628,0.652c0.104,0.443,0.109,1.1,0.109,1.881V8.094z M61.511,2.404h2.281V0.382h-2.281V2.404z
		 M40.552,9.256c0,0.529-0.078,0.95-0.223,1.223c-0.149,0.274-0.344,0.404-0.631,0.409c-0.36-0.011-0.522-0.093-0.667-0.514
		c-0.138-0.425-0.188-1.187-0.188-2.445c0-0.856,0.02-1.498,0.144-1.907c0.13-0.405,0.307-0.565,0.711-0.574
		c0.304,0.003,0.483,0.085,0.619,0.307c0.134,0.225,0.206,0.621,0.206,1.228v0.101h2.282V6.982c0.001-1.097-0.277-1.905-0.813-2.439
		C41.452,4.01,40.67,3.768,39.698,3.77c-1.392-0.004-2.204,0.501-2.634,1.301c-0.432,0.796-0.503,1.857-0.503,2.99
		c0,1.297,0.086,2.411,0.523,3.22c0.439,0.809,1.246,1.284,2.598,1.284h0.016c0.987,0.002,1.778-0.244,2.319-0.792
		c0.54-0.548,0.818-1.38,0.818-2.516V9.152h-2.284V9.256z M61.511,12.402h2.281V3.933h-2.281V12.402z M71.216,10.663V3.932h-2.283
		v5.831c0.001,0.362-0.031,0.67-0.132,0.869c-0.102,0.196-0.241,0.299-0.546,0.304c-0.305-0.005-0.444-0.108-0.546-0.304
		c-0.1-0.198-0.132-0.506-0.132-0.869v-5.83h-2.282v6.73c-0.001,0.598,0.23,1.08,0.592,1.405c0.363,0.326,0.852,0.496,1.367,0.496
		h0.021c0.695,0,1.25-0.223,1.658-0.791v0.629h2.363l-0.007-0.111C71.244,11.753,71.216,11.199,71.216,10.663z M85.81,10.761V6.637
		c0-0.759-0.082-1.476-0.522-2.014c-0.441-0.535-1.224-0.855-2.555-0.854c-0.808,0-1.509,0.146-2.009,0.563
		c-0.517,0.397-0.807,1.078-0.804,2.092v0.104h2.238V6.424c-0.001-0.324,0.018-0.628,0.109-0.833
		c0.097-0.203,0.235-0.319,0.568-0.323c0.354,0.002,0.511,0.106,0.609,0.285c0.102,0.183,0.127,0.473,0.127,0.821V6.91
		c-0.101-0.001-0.201-0.002-0.301-0.002c-0.896,0.001-1.768,0.065-2.435,0.469c-0.668,0.407-1.098,1.161-1.095,2.452
		c0.002,0.731,0.134,1.409,0.465,1.914c0.326,0.503,0.863,0.826,1.612,0.822h0.015c0.831,0,1.44-0.361,1.88-1.062l0.072,0.9h2.137
		l-0.01-0.111C85.868,11.782,85.81,11.26,85.81,10.761z M83.417,10.357c-0.141,0.356-0.351,0.575-0.772,0.578
		c-0.297-0.003-0.44-0.141-0.543-0.37c-0.097-0.23-0.12-0.548-0.119-0.835h-0.001c0.003-0.724,0.181-1.011,0.456-1.154
		c0.262-0.139,0.661-0.143,1.135-0.163c0.003,0.194,0.011,0.422,0.011,0.658C83.583,9.521,83.552,10.002,83.417,10.357z
		 M47.032,3.77c-1.392-0.004-2.205,0.501-2.634,1.301c-0.432,0.797-0.502,1.857-0.503,2.99c0.001,1.297,0.086,2.411,0.525,3.22
		c0.438,0.811,1.25,1.29,2.612,1.284h0.016c1.352,0,2.159-0.475,2.596-1.284c0.44-0.81,0.524-1.923,0.526-3.22
		c-0.002-1.133-0.071-2.193-0.503-2.99C49.235,4.271,48.424,3.765,47.032,3.77z M47.7,10.374c-0.146,0.421-0.309,0.503-0.668,0.514
		c-0.358-0.011-0.521-0.093-0.668-0.514c-0.137-0.425-0.188-1.187-0.186-2.445c-0.002-0.856,0.018-1.498,0.141-1.907
		c0.132-0.405,0.309-0.565,0.713-0.574c0.403,0.009,0.579,0.169,0.711,0.574c0.123,0.41,0.144,1.051,0.143,1.907
		C47.887,9.187,47.836,9.949,47.7,10.374z M57.857,8.319c-0.015,0.47-0.012,1.064-0.129,1.532c-0.125,0.47-0.33,0.771-0.784,0.774
		c-0.584-0.007-0.875-0.273-1.077-0.957c-0.192-0.685-0.233-1.766-0.233-3.276c0-1.513,0.041-2.593,0.233-3.276
		c0.202-0.684,0.493-0.95,1.077-0.958c0.3,0.006,0.47,0.113,0.612,0.428c0.133,0.318,0.198,0.85,0.197,1.628v0.104h2.384l0.003-0.1
		c0.002-0.113,0.006-0.222,0.006-0.33c0-1.177-0.234-2.102-0.76-2.74c-0.526-0.637-1.34-0.964-2.442-0.963
		c-1.86-0.006-2.839,0.774-3.303,1.944c-0.471,1.166-0.464,2.698-0.468,4.263c0.004,1.546-0.003,3.08,0.467,4.249
		c0.464,1.168,1.436,1.956,3.281,1.956h0.022c1.054,0.002,1.895-0.26,2.464-0.94c0.565-0.677,0.85-1.745,0.85-3.335V8.22h-2.396
		L57.857,8.319z"/>
	<path style="fill:#FFFFFF;" d="M9.138,6.484V5.77L7.741,4.35V3.594H7.229v0.764L5.357,6.251V5.109H4.845v1.154L2.99,4.393V3.594
		H2.477v0.783L1.083,5.77v0.715l1.394-1.392v2.536L1.591,8.443l0.004,0.75l1.181-1.178l1.198,1.165L5.125,8l1.227,1.158L7.53,7.994
		l1.164,1.182V8.429L7.741,7.512V5.065L9.138,6.484z M4.845,7.599L3.944,8.447L2.99,7.546V5.077l1.855,1.872V7.599z M7.229,7.529
		L6.379,8.434L5.357,7.522V6.968l1.871-1.892V7.529z"/>
</g>
<g id="Layer_1">
</g>
</svg>
