<?xml version="1.0" encoding="iso-8859-1"?>
<!-- Generator: Adobe Illustrator 16.0.0, SVG Export Plug-In . SVG Version: 6.00 Build 0)  -->
<!DOCTYPE svg PUBLIC "-//W3C//DTD SVG 1.1//EN" "http://www.w3.org/Graphics/SVG/1.1/DTD/svg11.dtd">
<svg version="1.1" xmlns="http://www.w3.org/2000/svg" xmlns:xlink="http://www.w3.org/1999/xlink" x="0px" y="0px"
	 width="95.393px" height="11.908px" viewBox="0 0 95.393 11.908" style="enable-background:new 0 0 95.393 11.908;"
	 xml:space="preserve">
<g id="_x37_-patagonia">
	<path style="fill:#1D4C7C;" d="M56.592,0.182c-1.054,3.681-2.103,7.361-3.144,11.048c0.478-0.002,0.957-0.002,1.434-0.005
		c0.842-3.191,1.694-6.379,2.536-9.571c0.401,1.468,0.773,2.941,1.175,4.41c-0.391,0-0.779,0.002-1.169,0.007
		c-0.109,0.425-0.224,0.853-0.335,1.281c0.613-0.002,1.227-0.002,1.841-0.002c0.341,1.292,0.69,2.583,1.023,3.876
		c0.479,0.003,0.957,0.003,1.437,0.003c-1.044-3.685-2.094-7.367-3.151-11.046C57.688,0.183,57.139,0.183,56.592,0.182z
		 M54.294,1.482c-0.002-0.433-0.004-0.868-0.007-1.299c-1.979,0.013-3.96-0.014-5.939,0.015c0,0.426,0,0.853,0.002,1.281
		c0.767,0.003,1.531,0,2.294,0.003c-0.003,3.25-0.003,6.499,0,9.748c0.453-0.002,0.907-0.002,1.362-0.005
		c0-3.244,0.007-6.493-0.005-9.741C52.767,1.477,53.53,1.479,54.294,1.482z M44.402,0.194c-1.042,3.678-2.083,7.357-3.137,11.033
		c0.473,0,0.948,0,1.426,0.002c0.882-3.179,1.677-6.384,2.565-9.565c0.377,1.47,0.768,2.935,1.164,4.399h-1.164
		c-0.114,0.427-0.232,0.854-0.352,1.277c0.615,0.011,1.231,0.011,1.849,0.009c0.347,1.292,0.682,2.589,1.032,3.881
		c0.476-0.002,0.951-0.002,1.429,0c-1.049-3.687-2.095-7.372-3.161-11.054C45.502,0.183,44.954,0.183,44.402,0.194z M42.11,2.178
		c-0.123-0.881-0.758-1.692-1.654-1.868c-1.227-0.231-3.723-0.115-3.723-0.115v11.714h1.35c0-2.367,0.004-3.77-0.004-5.484
		c1.062-0.009,2.262-0.032,3.15-0.747C42.219,4.898,42.291,3.326,42.11,2.178z M40.383,4.315c-0.578,0.648-1.537,0.452-2.304,0.48
		c0.008-1.104,0.008-2.208,0-3.312c0.771,0.043,1.757-0.209,2.319,0.473C40.815,2.649,40.834,3.637,40.383,4.315z M92.24,0.179
		c-0.551,0.007-1.101,0.007-1.646,0.004c-1.055,3.68-2.102,7.362-3.14,11.046c0.477-0.002,0.954-0.002,1.436-0.005
		c0.838-3.188,1.681-6.376,2.533-9.563c0.394,1.465,0.772,2.935,1.172,4.399c-0.391,0.002-0.782,0.004-1.172,0.009
		C91.314,6.495,91.2,6.922,91.09,7.349c0.613,0.002,1.224,0,1.84,0c0.347,1.292,0.688,2.583,1.028,3.876
		c0.479,0.003,0.956,0.003,1.435,0.005C94.348,7.543,93.298,3.861,92.24,0.179z M64.905,4.798c0.003,0.429,0.003,0.858,0.004,1.29
		c0.654-0.007,1.309-0.004,1.965-0.003c-0.002,1.216,0.002,2.431-0.002,3.647C66,10.137,64.82,10.326,64.048,9.625
		c-0.835-0.803-0.958-2.036-1.056-3.127c-0.051-1.373-0.105-2.82,0.471-4.099c0.31-0.718,1.085-1.218,1.875-1.079
		c0.536,0.027,0.912,0.446,1.186,0.865c0.337-0.382,0.678-0.764,1.025-1.138c-1.06-1.199-3.017-1.371-4.329-0.503
		c-1.087,0.769-1.504,2.142-1.66,3.407c-0.146,1.474-0.11,2.987,0.262,4.43c0.279,1.069,0.876,2.151,1.908,2.657
		c1.426,0.679,3.22,0.355,4.396-0.685c-0.017-1.852-0.008-3.704-0.01-5.557C67.046,4.796,65.974,4.798,64.905,4.798z M85.426,11.228
		h1.344c0.003-3.683,0.003-7.365,0-11.046c-0.446,0.001-0.896,0.001-1.344,0.001C85.426,3.866,85.423,7.547,85.426,11.228z
		 M82.8,8.798c-1.215-2.872-2.408-5.753-3.632-8.621c-0.563,0.006-1.126,0.006-1.688,0.019c0.025,3.678-0.044,7.36,0.035,11.039
		c0.395-0.005,0.794-0.007,1.19-0.01c0.015-2.948-0.008-5.899,0.011-8.851c1.246,2.954,2.472,5.917,3.745,8.86
		c0.521-0.006,1.045-0.006,1.566-0.009c0.007-3.678,0-7.354,0.004-11.03c-0.407-0.006-0.813-0.013-1.222-0.017
		C82.794,3.051,82.818,5.924,82.8,8.798z M74.933,0.73c-0.797-0.714-1.96-0.842-2.972-0.629c-1.006,0.214-1.778,1.035-2.146,1.968
		c-0.585,1.451-0.616,3.054-0.548,4.592c0.091,1.275,0.313,2.634,1.138,3.658c0.896,1.131,2.593,1.341,3.864,0.778
		c1.05-0.474,1.612-1.582,1.876-2.65c0.356-1.525,0.364-3.122,0.162-4.672C76.142,2.667,75.79,1.504,74.933,0.73z M74.19,9.35
		c-0.467,0.774-1.625,0.989-2.329,0.419c-0.747-0.617-0.933-1.638-1.061-2.547c-0.134-1.335-0.133-2.707,0.179-4.02
		c0.185-0.743,0.57-1.569,1.354-1.823c0.678-0.228,1.462,0.058,1.847,0.658c0.681,1.044,0.738,2.344,0.762,3.551
		C74.933,6.864,74.895,8.241,74.19,9.35z"/>
	<path style="fill:#48A55B;" d="M3.685,5.34c1.371-0.619,1.625-2.385,1.208-3.678c-0.268-0.82-1.066-1.415-1.924-1.45
		C1.981,0.169,0.99,0.212,0,0.194c0,3.674-0.002,7.349,0.002,11.022c1.047-0.027,2.098,0.046,3.144-0.04
		c0.857-0.064,1.712-0.543,2.052-1.356c0.407-0.969,0.413-2.103,0.064-3.089C5.012,6.027,4.387,5.541,3.685,5.34z M1.348,1.479
		c0.677,0.034,1.515-0.142,2.028,0.42C3.843,2.566,3.84,3.547,3.41,4.23C2.931,4.873,2.047,4.74,1.348,4.752
		C1.354,3.661,1.352,2.57,1.348,1.479z M3.6,9.473c-0.603,0.576-1.49,0.422-2.25,0.44c0-1.291,0.005-2.583-0.004-3.875
		C2.12,6.036,3.029,5.945,3.621,6.551C4.354,7.322,4.35,8.716,3.6,9.473z M24.551,9.495c-0.918-1.07-0.946-2.578-1.011-3.913
		c0.021-1.264,0.026-2.68,0.826-3.732c0.627-0.831,2.017-0.667,2.448,0.283c0.335-0.393,0.678-0.782,1.018-1.174
		c-0.929-1.004-2.513-1.214-3.722-0.633c-0.973,0.498-1.507,1.542-1.759,2.561c-0.365,1.532-0.367,3.136-0.149,4.688
		c0.2,1.308,0.708,2.746,1.927,3.429c1.267,0.692,2.811,0.368,4.031-0.266c-0.126-0.412-0.249-0.827-0.366-1.24
		C26.861,10.149,25.4,10.412,24.551,9.495z M35.45,4.858c-0.086-1.405-0.327-2.949-1.351-3.997
		c-0.773-0.804-1.986-0.978-3.037-0.767c-0.875,0.168-1.607,0.785-2.015,1.565c-0.666,1.256-0.758,2.72-0.781,4.113
		c0.043,1.501,0.16,3.116,1.048,4.387c1.178,1.721,4.136,1.642,5.214-0.152C35.477,8.481,35.503,6.599,35.45,4.858z M33.969,6.484
		c-0.079,1.042-0.19,2.179-0.867,3.025c-0.551,0.721-1.733,0.777-2.356,0.126c-0.589-0.619-0.782-1.494-0.896-2.312
		c-0.132-1.322-0.15-2.673,0.131-3.975c0.182-0.808,0.582-1.737,1.451-1.983c0.776-0.236,1.61,0.219,1.946,0.932
		C34.017,3.587,34.009,5.079,33.969,6.484z M19.742,8.771c-1.16-2.873-2.402-5.71-3.585-8.572c-0.561-0.004-1.125-0.004-1.685-0.004
		c0.002,3.677,0.002,7.356,0,11.034h1.212c0.013-2.945-0.017-5.895,0.015-8.844c1.228,2.955,2.478,5.895,3.718,8.839
		c0.526,0.003,1.052,0.005,1.579,0.005c0.002-3.678-0.002-7.357,0-11.035c-0.401,0.001-0.803,0.003-1.205,0.005
		C19.764,3.057,19.853,5.916,19.742,8.771z M8.984,0.183C7.935,3.865,6.88,7.543,5.844,11.229c0.481-0.002,0.961-0.002,1.438-0.007
		C8.117,8.031,8.97,4.844,9.819,1.655c0.389,1.47,0.771,2.939,1.167,4.408c-0.387,0-0.776,0.002-1.163,0.002
		C9.709,6.491,9.596,6.917,9.479,7.345c0.617,0.004,1.23,0.004,1.844,0.004c0.348,1.292,0.688,2.583,1.029,3.876
		c0.48,0.003,0.958,0.003,1.437,0.003C12.74,7.543,11.69,3.863,10.631,0.179C10.082,0.183,9.534,0.183,8.984,0.183z"/>
</g>
<g id="Layer_1">
</g>
</svg>
