<?xml version="1.0" encoding="iso-8859-1"?>
<!-- Generator: Adobe Illustrator 16.0.0, SVG Export Plug-In . SVG Version: 6.00 Build 0)  -->
<!DOCTYPE svg PUBLIC "-//W3C//DTD SVG 1.1//EN" "http://www.w3.org/Graphics/SVG/1.1/DTD/svg11.dtd">
<svg version="1.1" xmlns="http://www.w3.org/2000/svg" xmlns:xlink="http://www.w3.org/1999/xlink" x="0px" y="0px"
	 width="94.391px" height="16.713px" viewBox="0 0 94.391 16.713" style="enable-background:new 0 0 94.391 16.713;"
	 xml:space="preserve">
<g id="_x31_7-santander">
	<path style="fill:#D13239;" d="M46.98,14.752v-4.118c0-0.986-1.058-2.39-2.39-2.359c-1.124,0.024-1.919,0.697-2.494,1.33V8.25
		h-0.22c-0.677,0.478-1.434,0.796-2.246,1.002v0.561c0,0,0.581-0.333,0.878-0.17c0.299,0.163,0.304,0.481,0.304,0.796v4.296
		c0,0.386-0.292,0.597-0.559,0.609l-0.624,0.035v0.491h3.529v-0.526h-0.522c-0.267,0-0.541-0.324-0.541-0.593v-4.605
		c0.533-0.332,1.552-0.922,2.064-0.922c0.718,0.001,1.535,0.713,1.535,1.517v3.994c0,0.386-0.291,0.597-0.559,0.609l-0.625,0.035
		v0.491h3.531v-0.526h-0.522C47.251,15.345,46.98,15.021,46.98,14.752z M28.014,9.496c-0.729-0.366-2.212-0.926-2.747-1.362
		c-0.534-0.438-1.141-1.509-0.997-2.262c0.147-0.752,0.876-1.29,1.582-1.41c0.704-0.122,1.433-0.195,2.162,0.292
		c0.73,0.486,0.949,1.069,1.021,1.481c0.073,0.414,0.123,0.754,0.123,0.754h0.63V4.17c0,0-1.994-0.51-3.087-0.51
		c-1.095,0-2.203,0.316-2.918,1.094C23.07,5.531,22.91,6.14,22.86,6.674c-0.047,0.535,0.024,1.75,0.949,2.48
		c0.923,0.728,3.039,1.653,3.5,1.897c0.463,0.241,1.192,0.727,1.435,1.336c0.244,0.607,0.146,1.507-0.196,2.018
		c-0.34,0.512-1.214,1.096-2.016,1.096c-0.802,0-1.751-0.172-2.262-0.78c-0.51-0.606-0.656-0.947-0.729-1.216
		c-0.074-0.268-0.098-0.558-0.098-0.558h-0.56v2.796c0,0,1.873,0.291,2.675,0.339c0.802,0.049,1.968,0,2.723-0.438
		c0.753-0.438,1.726-1.264,1.896-2.407c0.17-1.144-0.048-1.773-0.463-2.333C29.304,10.346,28.745,9.858,28.014,9.496z
		 M38.181,14.819c-0.136,0.068-0.507,0.102-0.728,0.018c-0.219-0.085-0.235-0.884-0.235-0.884s0-3.835,0-4.057
		c0-0.985-1.038-1.458-1.707-1.578C34.842,8.2,34.104,8.274,33.479,8.66c-0.624,0.383-1.162,0.83-1.279,1.236
		c-0.12,0.408,0.235,1.172,0.235,1.172l1.082-0.492c0,0-0.135-0.339-0.17-0.544c-0.033-0.202,0.035-0.475,0.288-0.745
		c0.253-0.272,0.784-0.43,1.367-0.323c0.583,0.106,0.874,0.743,0.897,1.12c0.022,0.376,0.017,1.324,0.017,1.324
		s-1.386,0.51-1.976,0.729c-0.592,0.22-1.639,0.661-2.011,1.46c-0.373,0.797-0.036,1.51,0.471,2.037
		c0.507,0.525,1.455,0.406,2.146,0.236c0.692-0.169,1.436-0.78,1.436-0.78c0.026,0.307,0.11,0.688,0.337,0.85
		c0.227,0.16,0.609-0.086,0.609-0.086l1.503-0.764l-0.017-0.406C38.417,14.685,38.314,14.752,38.181,14.819z M33.82,14.989
		c-0.783-0.441-0.86-1.181-0.523-1.679c0.338-0.503,2.635-1.274,2.635-1.274l0.017,2.41C35.952,14.518,34.604,15.43,33.82,14.989z
		 M13.018,7.975C13,7.509,13.056,6.822,12.718,6.063c-0.491-1.106-1.577-2.343-2.454-3.563C9.388,1.286,9.589,0.382,9.538,0
		C9.148,0.241,8.182,1.258,8.671,2.989c0.486,1.717,2.293,3.612,2.851,4.599c0.559,0.987,0.465,1.89,0.305,2.448
		c-0.161,0.557-0.462,0.784-0.711,0.944c0.018-0.37,0.005-0.871-0.222-1.407c-0.227-0.535-1.327-1.816-2.126-2.759
		c-0.798-0.942-1.574-2.356-1.226-3.48C7.197,3.544,6.461,4.468,6.5,5.542C6.539,6.62,7.434,8.079,7.988,8.769
		c0.555,0.688,1.519,2.071,1.708,2.832c0.189,0.76,0.122,1.304-0.041,1.697c-0.138,0.325-0.598,0.691-0.598,0.691
		s0.042-0.531-0.148-0.937c-0.189-0.406-2.392-3.395-2.608-3.708C6.103,9.061,5.587,8.469,5.615,7.922C2.32,8.621,0,10.249,0,12.137
		c0,2.52,4.133,4.576,9.2,4.576c5.066,0,9.2-2.057,9.2-4.576C18.399,10.293,16.188,8.699,13.018,7.975z M87.982,11.585
		c-0.082-1.999-1.428-3.372-3.297-3.372c-2.018,0-3.715,1.784-3.715,3.939s1.697,3.94,3.715,3.94c1.029,0,2.26-0.212,3.008-0.847
		l0.023-0.577c0,0-1.898,0.949-3.031,0.58c-1.131-0.37-1.635-0.948-1.949-1.924c-0.316-0.976-0.291-1.74-0.291-1.74H87.982z
		 M82.43,10.965c0.021-1.244,0.969-2.045,2.148-2.083c1.18-0.037,1.932,1.089,1.963,2.083H82.43z M93.348,8.246
		c-0.502,0.01-0.984,0.345-1.367,0.718c-0.227,0.222-0.488,0.707-0.668,1.07V8.25h-0.221c-0.676,0.478-1.434,1.002-2.246,1.208
		v0.562c0,0,0.58-0.334,0.879-0.17c0.297,0.164,0.303,0.479,0.303,0.797v4.089c0,0.386-0.289,0.597-0.559,0.609l-0.623,0.035v0.491
		h3.531v-0.526h-0.525c-0.268,0-0.539-0.324-0.539-0.593v-3.737c0.031-0.11,0.07-0.216,0.115-0.31
		c0.227-0.463,0.77-1.043,1.506-1.26c0.74-0.217,1.182,0.61,1.182,0.61l0.275,0.01V8.462C94.391,8.462,93.848,8.237,93.348,8.246z
		 M78.727,14.277V2.664h-0.221C77.828,3.142,77.07,3.46,76.26,3.666v0.561c0,0,0.58-0.333,0.877-0.17
		c0.299,0.164,0.307,0.48,0.307,0.798v4.01c-0.506-0.385-1.205-0.583-2.105-0.573c-2.264,0.027-3.822,1.752-3.822,3.901
		c0,2.147,1.295,3.898,3.4,3.898c1.053,0,1.918-0.472,2.531-1.238c0.016,0.538,0.086,0.76,0.377,1.24l2.277-0.936l0.008-0.517
		l-0.842,0.232C79.008,14.942,78.727,14.544,78.727,14.277z M77.443,14.144c-0.377,0.549-0.982,0.895-1.854,0.895
		c-1.691,0-2.787-1.357-2.787-3.085c0-1.726,0.938-3.087,2.756-3.03c0.941,0.031,1.529,0.483,1.885,1.126V14.144z M70.266,14.752
		v-4.118c0-0.986-1.059-2.39-2.389-2.359c-1.125,0.024-1.92,0.697-2.496,1.33V8.25h-0.217c-0.678,0.478-1.438,0.796-2.248,1.002
		v0.561c0,0,0.58-0.333,0.879-0.17s0.303,0.481,0.303,0.796v4.296c0,0.386-0.289,0.597-0.557,0.609l-0.625,0.035v0.491h3.531v-0.526
		h-0.523c-0.268,0-0.543-0.324-0.543-0.593v-4.605c0.535-0.332,1.553-0.922,2.066-0.922c0.717,0.001,1.533,0.713,1.533,1.517v3.994
		c0,0.386-0.289,0.597-0.559,0.609l-0.623,0.035v0.491h3.529v-0.526h-0.521C70.539,15.345,70.266,15.021,70.266,14.752z
		 M61.127,14.819c-0.137,0.068-0.508,0.102-0.729,0.018c-0.219-0.085-0.234-0.884-0.234-0.884s0-3.835,0-4.057
		c0-0.985-1.037-1.458-1.707-1.578c-0.67-0.119-1.406-0.044-2.031,0.341c-0.625,0.383-1.162,0.83-1.281,1.236
		c-0.119,0.408,0.238,1.172,0.238,1.172l1.08-0.492c0,0-0.133-0.339-0.168-0.544C56.262,9.83,56.33,9.558,56.58,9.287
		c0.256-0.272,0.787-0.43,1.369-0.323c0.584,0.106,0.873,0.743,0.896,1.12c0.023,0.376,0.016,1.324,0.016,1.324
		s-1.383,0.51-1.975,0.729s-1.641,0.661-2.01,1.46c-0.373,0.797-0.035,1.51,0.471,2.037c0.508,0.525,1.455,0.406,2.146,0.236
		c0.691-0.169,1.438-0.78,1.438-0.78c0.023,0.307,0.107,0.688,0.336,0.85c0.229,0.16,0.607-0.086,0.607-0.086l1.504-0.764
		l-0.018-0.406C61.361,14.685,61.262,14.752,61.127,14.819z M56.768,14.989c-0.785-0.441-0.863-1.181-0.523-1.679
		c0.336-0.503,2.635-1.274,2.635-1.274l0.016,2.41C58.896,14.518,57.549,15.43,56.768,14.989z M52.289,14.781
		c-0.877-0.448-0.779-1.793-0.779-1.793V9.13h2.416l0.273-0.78H51.51V5.993l-0.254-0.019c-0.668,1.306-1.604,2.247-2.688,2.98V9.11
		h1.635V13.3c0,1.269,0.371,1.987,1.17,2.357c0.801,0.372,1.908,0.214,1.908,0.214l1.248-1.052l-0.293-0.352
		C54.236,14.468,53.168,15.23,52.289,14.781z"/>
</g>
<g id="Layer_1">
</g>
</svg>
