<?xml version="1.0" encoding="iso-8859-1"?>
<!-- Generator: Adobe Illustrator 16.0.0, SVG Export Plug-In . SVG Version: 6.00 Build 0)  -->
<!DOCTYPE svg PUBLIC "-//W3C//DTD SVG 1.1//EN" "http://www.w3.org/Graphics/SVG/1.1/DTD/svg11.dtd">
<svg version="1.1" xmlns="http://www.w3.org/2000/svg" xmlns:xlink="http://www.w3.org/1999/xlink" x="0px" y="0px"
	 width="94.385px" height="16.375px" viewBox="0 0 94.385 16.375" style="enable-background:new 0 0 94.385 16.375;"
	 xml:space="preserve">
<g id="_x31_8-hsbc">
	<path style="fill:#EA2327;" d="M61.978,8.114l8.103,8.102V0.014L61.978,8.114z M86.284,0.014H70.08l8.101,8.101L86.284,0.014z
		 M86.284,0.014v16.202l8.101-8.102L86.284,0.014z M70.08,16.216h16.204l-8.104-8.102L70.08,16.216z"/>
	<path style="fill:#231F20;" d="M9.491,0.785h0.553c0.37,0,0.722,0.09,1.052,0.276c0.244,0.138,0.406,0.303,0.485,0.497
		c0.099,0.251,0.15,0.78,0.15,1.58V7.62H4.454V3.138c0-0.769,0.047-1.277,0.142-1.529c0.09-0.249,0.256-0.438,0.498-0.56
		C5.424,0.871,5.77,0.785,6.141,0.785h0.568v-0.43H0v0.43h0.552c0.37,0,0.725,0.09,1.063,0.276C1.852,1.198,2.01,1.364,2.088,1.558
		c0.099,0.251,0.15,0.78,0.15,1.58v10.108c0,0.937-0.095,1.533-0.276,1.776c-0.296,0.379-0.765,0.568-1.411,0.568H0v0.426h6.709
		v-0.426H6.141c-0.371,0-0.717-0.095-1.047-0.281c-0.249-0.138-0.412-0.303-0.49-0.496c-0.098-0.251-0.149-0.776-0.149-1.567V8.476
		h7.277v4.771c0,0.937-0.094,1.533-0.288,1.776c-0.292,0.379-0.761,0.568-1.399,0.568H9.491v0.426h6.698v-0.426h-0.555
		c-0.367,0-0.722-0.095-1.062-0.281c-0.24-0.138-0.397-0.303-0.472-0.496c-0.104-0.251-0.151-0.776-0.151-1.567V3.138
		c0-0.769,0.043-1.277,0.131-1.529c0.091-0.249,0.256-0.438,0.504-0.56c0.332-0.178,0.683-0.264,1.049-0.264h0.555v-0.43H9.491
		V0.785z M25.842,8.746c-0.532-0.422-1.533-1.025-2.996-1.807c-1.792-0.962-2.929-1.732-3.406-2.312
		c-0.331-0.39-0.497-0.828-0.497-1.304c0-0.623,0.259-1.179,0.786-1.668c0.524-0.489,1.186-0.733,1.987-0.733
		c0.709,0,1.391,0.182,2.052,0.544c0.664,0.359,1.175,0.847,1.535,1.467c0.354,0.614,0.603,1.443,0.745,2.482h0.425V0h-0.425
		c-0.08,0.358-0.182,0.599-0.308,0.721c-0.127,0.119-0.293,0.177-0.494,0.177c-0.172,0-0.481-0.094-0.911-0.288
		C23.407,0.201,22.523,0,21.692,0c-1.333,0-2.429,0.406-3.292,1.218c-0.864,0.812-1.292,1.778-1.292,2.901
		c0,0.646,0.145,1.242,0.436,1.782c0.296,0.536,0.722,1.029,1.29,1.478c0.568,0.446,1.518,1.045,2.859,1.794
		c1.34,0.752,2.159,1.241,2.459,1.475c0.446,0.338,0.776,0.701,0.989,1.096c0.209,0.395,0.314,0.78,0.314,1.167
		c0,0.695-0.28,1.293-0.835,1.801c-0.56,0.509-1.32,0.762-2.282,0.762c-0.833,0-1.597-0.186-2.291-0.553
		c-0.697-0.369-1.214-0.836-1.552-1.392c-0.339-0.559-0.612-1.399-0.813-2.522h-0.425v5.369h0.425
		c0.055-0.364,0.139-0.604,0.249-0.718c0.114-0.114,0.264-0.174,0.458-0.174c0.202,0,0.678,0.123,1.426,0.368
		c0.75,0.239,1.246,0.382,1.482,0.416c0.403,0.072,0.828,0.107,1.285,0.107c1.447,0,2.628-0.429,3.551-1.29
		c0.92-0.858,1.38-1.879,1.38-3.066c0-0.622-0.146-1.218-0.433-1.79C26.792,9.662,26.378,9.166,25.842,8.746z M57.064,12.113
		c-0.929,1.293-1.785,2.157-2.562,2.59c-0.781,0.438-1.675,0.655-2.692,0.655c-1.17,0-2.212-0.276-3.123-0.832
		c-0.914-0.556-1.597-1.353-2.049-2.389c-0.457-1.041-0.683-2.271-0.683-3.686c0-1.714,0.241-3.153,0.723-4.309
		c0.48-1.155,1.139-1.995,1.978-2.523c0.841-0.528,1.779-0.792,2.818-0.792c1.243,0,2.302,0.351,3.189,1.052
		c0.884,0.701,1.566,1.849,2.042,3.442h0.358L56.706,0h-0.403c-0.086,0.366-0.227,0.658-0.43,0.863
		c-0.153,0.146-0.334,0.221-0.538,0.221c-0.138,0-0.37-0.086-0.695-0.256C53.54,0.275,52.421,0,51.291,0
		c-1.456,0-2.797,0.358-4.026,1.077c-1.226,0.721-2.192,1.734-2.894,3.042c-0.699,1.308-1.049,2.748-1.049,4.309
		c0,1.94,0.533,3.627,1.593,5.058c1.422,1.928,3.433,2.89,6.027,2.89c1.442,0,2.684-0.324,3.733-0.971
		c1.043-0.646,1.963-1.666,2.745-3.063L57.064,12.113z M38.661,8.026c0.934-0.305,1.64-0.761,2.117-1.38
		c0.476-0.624,0.713-1.324,0.713-2.109c0-0.918-0.303-1.726-0.91-2.432c-0.608-0.706-1.491-1.195-2.645-1.471
		c-0.762-0.185-1.775-0.279-3.04-0.279h-6.765v0.43h0.587c0.592,0,1.042,0.169,1.342,0.509c0.224,0.251,0.333,0.863,0.333,1.832
		v10.121c0,0.878-0.09,1.449-0.268,1.718c-0.285,0.419-0.754,0.627-1.408,0.627h-0.587v0.426h7.391c1.763,0,3.07-0.165,3.931-0.492
		c0.858-0.329,1.533-0.845,2.026-1.56c0.493-0.712,0.741-1.457,0.741-2.233c0-1.025-0.375-1.888-1.12-2.599
		C40.561,8.626,39.748,8.254,38.661,8.026z M32.61,1.383c0.617-0.17,1.308-0.252,2.081-0.252c1.431,0,2.521,0.324,3.268,0.97
		c0.745,0.647,1.12,1.427,1.12,2.341c0,0.596-0.152,1.144-0.449,1.64c-0.299,0.5-0.734,0.875-1.301,1.115
		c-0.563,0.245-1.412,0.364-2.535,0.364c-0.438,0-0.84-0.013-1.207-0.04c-0.366-0.028-0.688-0.068-0.976-0.124V1.383z
		 M38.443,14.254c-0.733,0.628-1.794,0.941-3.188,0.941c-0.867,0-1.751-0.103-2.645-0.311V8.463c0.208-0.039,0.48-0.066,0.819-0.082
		c0.338-0.012,0.75-0.021,1.226-0.021c1.102,0,2.026,0.162,2.772,0.485c0.745,0.323,1.284,0.766,1.616,1.328
		c0.332,0.561,0.497,1.147,0.497,1.755C39.54,12.851,39.174,13.628,38.443,14.254z"/>
</g>
<g id="Layer_1">
</g>
</svg>
