<?xml version="1.0" encoding="iso-8859-1"?>
<!-- Generator: Adobe Illustrator 16.0.0, SVG Export Plug-In . SVG Version: 6.00 Build 0)  -->
<!DOCTYPE svg PUBLIC "-//W3C//DTD SVG 1.1//EN" "http://www.w3.org/Graphics/SVG/1.1/DTD/svg11.dtd">
<svg version="1.1" xmlns="http://www.w3.org/2000/svg" xmlns:xlink="http://www.w3.org/1999/xlink" x="0px" y="0px"
	 width="23.102px" height="23.075px" viewBox="0 0 23.102 23.075" style="enable-background:new 0 0 23.102 23.075;"
	 xml:space="preserve">
<g id="_x35_-itau">
	<path style="fill-rule:evenodd;clip-rule:evenodd;fill:#224385;" d="M3.854,0h15.394c1.07,0,1.965,0.383,2.705,1.123
		c0.766,0.74,1.148,1.659,1.148,2.731v15.392c0,1.047-0.383,1.966-1.148,2.705c-0.74,0.742-1.635,1.124-2.705,1.124H3.854
		c-1.072,0-1.99-0.382-2.731-1.124C0.383,21.212,0,20.293,0,19.246V3.854c0-1.073,0.383-1.991,1.123-2.731
		C1.864,0.383,2.782,0,3.854,0L3.854,0z"/>
	<path style="fill-rule:evenodd;clip-rule:evenodd;fill:#FDEE1C;" d="M17.639,13.094h1.252l1.529-1.556h-1.684L17.639,13.094
		L17.639,13.094z M17.18,13.478h-1.787v3.344c0,0.895,0.229,1.557,0.664,1.991c0.383,0.382,0.895,0.562,1.529,0.562
		c0.896,0,1.561-0.357,1.967-1.045h0.025v0.917h1.584v-5.769h-1.787v3.37c0,0.153-0.025,0.281-0.053,0.357
		c-0.205,0.484-0.561,0.738-1.098,0.738c-0.688,0-1.045-0.484-1.045-1.43V13.478L17.18,13.478z M12.584,15.391
		c-1.173,0-2.068,0.18-2.68,0.564c-0.638,0.382-0.97,0.944-0.97,1.685c0,0.458,0.179,0.866,0.512,1.199
		c0.382,0.355,0.866,0.535,1.454,0.535c0.792,0,1.378-0.254,1.786-0.74h0.052v0.612h1.635V15.85c0-0.764-0.207-1.35-0.59-1.785
		c-0.459-0.485-1.147-0.741-2.065-0.741c-0.944,0-1.737,0.181-2.35,0.563L9.7,15.01c0.51-0.308,1.073-0.461,1.711-0.461
		c0.789,0,1.173,0.255,1.173,0.792V15.391L12.584,15.391z M8.22,13.478H7.122v-1.939H5.386v1.939H4.569v1.326h0.817v2.325
		c0,0.79,0.154,1.377,0.485,1.71c0.331,0.355,0.817,0.535,1.403,0.535c0.384,0,0.689-0.051,0.972-0.151L8.22,17.867
		c-0.053,0.052-0.153,0.076-0.332,0.076c-0.28,0-0.486-0.102-0.613-0.304c-0.103-0.153-0.152-0.409-0.152-0.792v-2.044H8.22V13.478
		L8.22,13.478z M10.594,17.486c0-0.688,0.689-0.996,2.042-0.973v0.615l-0.026,0.33c-0.076,0.23-0.23,0.408-0.434,0.536
		c-0.204,0.18-0.458,0.255-0.741,0.255C10.875,18.25,10.594,17.995,10.594,17.486L10.594,17.486z M1.915,11.538v7.708h1.812v-7.708
		H1.915L1.915,11.538z"/>
</g>
<g id="Layer_1">
</g>
</svg>
