<?xml version="1.0" encoding="iso-8859-1"?>
<!-- Generator: Adobe Illustrator 16.0.0, SVG Export Plug-In . SVG Version: 6.00 Build 0)  -->
<!DOCTYPE svg PUBLIC "-//W3C//DTD SVG 1.1//EN" "http://www.w3.org/Graphics/SVG/1.1/DTD/svg11.dtd">
<svg version="1.1" xmlns="http://www.w3.org/2000/svg" xmlns:xlink="http://www.w3.org/1999/xlink" x="0px" y="0px"
	 width="94.715px" height="19.271px" viewBox="0 0 94.715 19.271" style="enable-background:new 0 0 94.715 19.271;"
	 xml:space="preserve">
<g id="_x31_0-comafi">
	<g id="Layer_28">
		<path style="fill:#C0D094;" d="M93.895,6.871h0.816C94.586,3.056,91.461,0,87.615,0v1.073c0.082-0.003,0.162-0.012,0.244-0.012
			C91.119,1.061,93.77,3.641,93.895,6.871z M93.898,7.277c-0.092,3.259-2.756,5.877-6.039,5.877c-0.082,0-0.162-0.009-0.244-0.013
			v1.073c3.867,0,7.008-3.092,7.1-6.938H93.898z"/>
		<path style="fill:#A2B37E;" d="M87.859,1.061c-0.082,0-0.162,0.009-0.244,0.012v5.798h6.279
			C93.77,3.641,91.119,1.061,87.859,1.061z M87.615,7.277v5.864c0.082,0.004,0.162,0.013,0.244,0.013
			c3.283,0,5.947-2.618,6.039-5.877H87.615z"/>
		<path style="fill:#61823B;" d="M27.371,9.324H26.2c-0.03,0.18-0.095,0.511-0.373,0.809c-0.328,0.343-0.774,0.459-1.246,0.459
			c-1.756,0-2.171-1.567-2.171-3.014c0-1.276,0.33-3.174,2.185-3.174c1.476,0,1.617,1.067,1.661,1.333h1.138
			c-0.137-1.749-1.674-2.186-2.757-2.186c-2.74,0-3.368,2.418-3.368,4.037c0,1.492,0.522,3.878,3.229,3.878
			C25.818,11.466,27.211,10.836,27.371,9.324z M71.922,7.854h3.289V6.96h-3.289V4.565h3.494V3.659h-4.58v7.689h1.086V7.854z
			 M28.951,15.941c0-0.575-0.229-1.029-1.109-1.029c-0.729,0-1.137,0.262-1.166,1.029h0.607c-0.033-0.356,0.16-0.61,0.533-0.61
			c0.6,0,0.594,0.496,0.579,0.952c-0.779-0.02-1.795,0.028-1.795,1.067c0,0.658,0.208,1.128,0.932,1.128
			c0.432,0,0.697-0.171,0.864-0.564h0.016v0.492h0.61c-0.041-0.263-0.07-0.541-0.07-0.813V15.941z M27.691,18.021
			c-0.373,0-0.536-0.298-0.536-0.631c0-0.725,0.711-0.681,1.24-0.686C28.45,17.81,28.031,18.021,27.691,18.021z M35.233,7.427
			c0-2.608-1.341-3.971-3.473-3.971c-0.716,0-1.77,0.17-2.567,1.033c-0.84,0.905-0.989,2.194-0.989,3.067
			c0,2.105,0.85,3.971,3.472,3.971C34.411,11.527,35.233,9.472,35.233,7.427z M29.323,7.494c0-1.578,0.497-3.144,2.448-3.144
			c1.759,0,2.336,1.321,2.336,3.068c0,0.524-0.066,1.736-0.696,2.503c-0.446,0.533-1.074,0.701-1.702,0.701
			c-0.608,0-1.268-0.157-1.706-0.701C29.471,9.26,29.323,8.333,29.323,7.494z M54.82,4.467l2.424,6.881h1.016l2.525-6.925v6.925
			h1.039V3.659h-1.758l-2.223,6.335l-2.176-6.335h-1.881v7.689h1.033V4.467z M24.643,17.889H24.63l-0.766-2.906h-0.631l1.021,3.424
			h0.728l1.071-3.424h-0.582L24.643,17.889z M17.458,17.498v-2.099h0.75v-0.417h-0.75v-0.911l-0.557,0.25v0.661h-0.564v0.417h0.564
			v2.438c0,0.395,0.238,0.612,0.768,0.612c0.186,0,0.367-0.043,0.549-0.053v-0.43c-0.121,0.017-0.21,0.025-0.251,0.025
			C17.458,17.992,17.458,17.714,17.458,17.498z M3.932,7.333c0.372-0.138,1.297-0.469,1.297-1.736c0-0.607-0.212-1.056-0.542-1.375
			c-0.48-0.465-1.002-0.562-1.939-0.562H0v7.689h2.801c0.607,0,1.203,0,1.736-0.352c0.258-0.169,0.926-0.704,0.926-1.747
			C5.463,7.78,4.378,7.46,3.932,7.333z M1.033,4.531h1.534c0.584,0,1.554,0,1.554,1.162c0,1.217-1.235,1.217-1.598,1.217h-1.49
			V4.531z M2.854,10.485h-1.82V7.824h1.864c0.936,0,1.471,0.563,1.471,1.331C4.368,10.035,3.695,10.485,2.854,10.485z
			 M13.815,18.406h0.554v-3.424h-0.554V18.406z M9.105,3.659l-3.237,7.689h1.098l0.831-2.002h3.567l0.833,2.002h1.159l-3.112-7.689
			H9.105z M8.136,8.484l1.491-3.773l1.418,3.773H8.136z M20.29,11.349V3.659H19.31v6.357l-3.78-6.357h-1.484v7.689h0.969V4.819
			l3.909,6.529H20.29z M13.781,14.106h0.623v-0.599h-0.623V14.106z M10.726,14.667c0-0.529,0.378-0.719,0.754-0.719
			c0.593,0,0.759,0.354,0.753,0.889h0.652c0.04-0.998-0.461-1.433-1.36-1.433c-0.821,0-1.438,0.459-1.438,1.333
			c0,1.472,2.2,1.346,2.2,2.436c0,0.585-0.381,0.794-0.875,0.794c-0.402,0-0.822-0.209-0.822-0.873v-0.146H9.971
			c-0.013,0.47-0.013,1.579,1.435,1.565c0.808,0,1.518-0.334,1.518-1.365C12.924,15.593,10.726,15.747,10.726,14.667z
			 M19.978,14.912c-1.189,0-1.305,0.828-1.305,1.833c0,1.515,0.58,1.735,1.305,1.735c0.72,0,1.189-0.351,1.196-1.112h-0.612
			c-0.02,0.346-0.218,0.652-0.599,0.652c-0.435,0-0.692-0.188-0.692-1.145H21.2v-0.293C21.2,15.45,20.957,14.912,19.978,14.912z
			 M19.272,16.453c0.008-0.952,0.3-1.122,0.654-1.122c0.405,0,0.686,0.124,0.686,1.122H19.272z M75.271,14.912
			c-0.443,0-0.701,0.123-0.914,0.508H74.33v-0.438h-0.594c0.021,0.235,0.033,0.473,0.033,0.712v2.712h0.561V16.38
			c0-0.47,0.084-1.014,0.695-1.014c0.479,0,0.602,0.3,0.602,0.664v2.376h0.563V16.03C76.189,15.354,76.008,14.912,75.271,14.912z
			 M32.925,14.912c-0.327,0-0.565,0.144-0.753,0.416h-0.021v-1.82h-0.558v4.898h0.558v-0.404h0.013
			c0.19,0.32,0.428,0.477,0.785,0.477c0.551,0,1.108-0.219,1.108-1.731C34.057,15.896,34.031,14.912,32.925,14.912z M32.776,18.021
			c-0.686,0-0.625-0.941-0.625-1.465c0-0.452,0.027-1.189,0.644-1.189c0.6,0,0.682,0.479,0.682,1.393
			C33.477,17.278,33.477,18.021,32.776,18.021z M65.789,3.659l-3.236,7.689h1.098l0.83-2.002h3.566l0.83,2.002h1.162L66.93,3.659
			H65.789z M64.82,8.484l1.492-3.773l1.418,3.773H64.82z M68.822,14.106h0.625v-0.599h-0.625V14.106z M58.572,17.889h-0.014
			l-0.77-2.906h-0.623l1.016,3.424h0.729l1.076-3.424h-0.584L58.572,17.889z M66.854,14.912c-0.324,0-0.561,0.144-0.752,0.416
			h-0.023v-1.82h-0.555v4.898h0.555v-0.404h0.016c0.189,0.32,0.424,0.477,0.787,0.477c0.551,0,1.107-0.219,1.107-1.731
			C67.988,15.896,67.957,14.912,66.854,14.912z M66.705,18.021c-0.688,0-0.627-0.941-0.627-1.465c0-0.452,0.027-1.189,0.645-1.189
			c0.598,0,0.682,0.479,0.682,1.393C67.404,17.278,67.404,18.021,66.705,18.021z M62.883,15.941c0-0.575-0.229-1.029-1.111-1.029
			c-0.727,0-1.133,0.262-1.164,1.029h0.607c-0.037-0.356,0.16-0.61,0.535-0.61c0.598,0,0.59,0.496,0.574,0.952
			c-0.777-0.02-1.795,0.028-1.795,1.067c0,0.658,0.209,1.128,0.936,1.128c0.43,0,0.691-0.171,0.859-0.564h0.016v0.492h0.609
			c-0.039-0.263-0.066-0.541-0.066-0.813V15.941z M61.623,18.021c-0.377,0-0.537-0.298-0.537-0.631c0-0.725,0.709-0.681,1.238-0.686
			C62.381,17.81,61.959,18.021,61.623,18.021z M71.627,14.912c-1.188,0-1.309,0.828-1.309,1.833c0,1.515,0.58,1.735,1.309,1.735
			c0.721,0,1.188-0.351,1.193-1.112h-0.611c-0.016,0.346-0.217,0.652-0.592,0.652c-0.438,0-0.699-0.188-0.699-1.145h1.932v-0.293
			C72.85,15.45,72.605,14.912,71.627,14.912z M70.918,16.453c0.01-0.952,0.301-1.122,0.654-1.122c0.408,0,0.684,0.124,0.684,1.122
			H70.918z M76.686,11.349h1.066V3.659h-1.066V11.349z M93.895,6.871h-6.279V1.073c-3.146,0.126-5.668,2.65-5.791,5.798
			c-0.002,0.079-0.012,0.157-0.012,0.236c0,0.058,0.008,0.113,0.01,0.17c0.088,3.177,2.625,5.737,5.793,5.864V7.277h6.283
			c0.002-0.057,0.008-0.112,0.008-0.17C93.906,7.028,93.898,6.95,93.895,6.871z M77.113,18.406h0.639v-0.704h-0.639V18.406z
			 M68.855,18.406h0.555v-3.424h-0.555V18.406z M53.533,15.796c0-0.3,0.234-0.465,0.533-0.465c0.352,0,0.543,0.193,0.539,0.553
			h0.609c0.053-0.683-0.471-0.972-1.082-0.972c-0.963,0-1.182,0.575-1.182,0.938c0,1.026,1.711,1.04,1.711,1.648
			c0,0.353-0.256,0.522-0.592,0.522c-0.561,0-0.568-0.463-0.568-0.657h-0.631c-0.025,0.785,0.441,1.115,1.18,1.115
			c0.678,0,1.197-0.293,1.197-1.046C55.248,16.389,53.533,16.398,53.533,15.796z M37.697,14.912c-1.189,0-1.304,0.828-1.304,1.833
			c0,1.515,0.577,1.735,1.304,1.735c0.72,0,1.188-0.351,1.194-1.112H38.28c-0.018,0.346-0.215,0.652-0.597,0.652
			c-0.432,0-0.694-0.188-0.694-1.145h1.93v-0.293C38.919,15.45,38.674,14.912,37.697,14.912z M36.989,16.453
			c0.009-0.952,0.299-1.122,0.654-1.122c0.406,0,0.686,0.124,0.686,1.122H36.989z M34.893,14.106h0.625v-0.599h-0.625V14.106z
			 M42.98,19.271h0.434l0.619-1.569h-0.701L42.98,19.271z M34.929,18.406h0.555v-3.424h-0.555V18.406z M41.342,14.912
			c-0.441,0-0.699,0.123-0.915,0.508h-0.028v-0.438h-0.59c0.02,0.235,0.033,0.473,0.033,0.712v2.712h0.557V16.38
			c0-0.47,0.089-1.014,0.699-1.014c0.477,0,0.604,0.3,0.604,0.664v2.376h0.557V16.03C42.259,15.354,42.078,14.912,41.342,14.912z
			 M49.264,3.457c-0.717,0-1.774,0.17-2.571,1.033c-0.841,0.905-0.99,2.194-0.99,3.067c0,2.105,0.854,3.971,3.468,3.971
			c2.744,0,3.563-2.056,3.563-4.1C52.732,4.819,51.391,3.457,49.264,3.457z M50.908,9.921c-0.447,0.533-1.072,0.701-1.703,0.701
			c-0.606,0-1.268-0.157-1.703-0.701c-0.533-0.661-0.683-1.588-0.683-2.428c0-1.578,0.501-3.144,2.452-3.144
			c1.754,0,2.332,1.321,2.332,3.068C51.604,7.943,51.537,9.155,50.908,9.921z M50.855,14.912c-1.188,0-1.303,0.828-1.303,1.833
			c0,1.515,0.574,1.733,1.303,1.733c0.725,0,1.303-0.219,1.303-1.733C52.158,15.74,52.041,14.912,50.855,14.912z M50.855,18.021
			c-0.58,0-0.721-0.397-0.721-1.514c0-0.936,0.291-1.141,0.721-1.141c0.424,0,0.715,0.205,0.715,1.141
			C51.57,17.623,51.43,18.021,50.855,18.021z M42.092,4.403c1.477,0,1.619,1.067,1.662,1.333h1.139
			c-0.139-1.749-1.674-2.186-2.759-2.186c-2.736,0-3.363,2.418-3.363,4.037c0,1.492,0.521,3.878,3.224,3.878
			c1.323,0,2.718-0.63,2.876-2.142h-1.17c-0.034,0.18-0.097,0.511-0.374,0.809c-0.33,0.343-0.779,0.459-1.246,0.459
			c-1.759,0-2.174-1.567-2.174-3.014C39.907,6.302,40.239,4.403,42.092,4.403z M47.749,14.912c-0.44,0-0.698,0.123-0.914,0.508
			h-0.029v-0.438h-0.589c0.021,0.235,0.033,0.473,0.033,0.712v2.712h0.556V16.38c0-0.47,0.088-1.014,0.701-1.014
			c0.474,0,0.604,0.3,0.604,0.664v2.376h0.557V16.03C48.668,15.354,48.482,14.912,47.749,14.912z"/>
	</g>
</g>
<g id="Layer_1">
</g>
</svg>
