<?xml version="1.0" encoding="iso-8859-1"?>
<!-- Generator: Adobe Illustrator 16.0.0, SVG Export Plug-In . SVG Version: 6.00 Build 0)  -->
<!DOCTYPE svg PUBLIC "-//W3C//DTD SVG 1.1//EN" "http://www.w3.org/Graphics/SVG/1.1/DTD/svg11.dtd">
<svg version="1.1" xmlns="http://www.w3.org/2000/svg" xmlns:xlink="http://www.w3.org/1999/xlink" x="0px" y="0px"
	 width="31.258px" height="31.186px" viewBox="0 0 31.258 31.186" style="enable-background:new 0 0 31.258 31.186;"
	 xml:space="preserve">
<g id="_x33_-american">
	
		<radialGradient id="SVGID_1_" cx="-143.5698" cy="298.8604" r="29.1594" gradientTransform="matrix(1 0 0 -1 149.0522 304.3086)" gradientUnits="userSpaceOnUse">
		<stop  offset="0" style="stop-color:#9ED3F3"/>
		<stop  offset="0.0711" style="stop-color:#98D1F2"/>
		<stop  offset="0.1575" style="stop-color:#8ACCF1"/>
		<stop  offset="0.2516" style="stop-color:#71C5ED"/>
		<stop  offset="0.3514" style="stop-color:#51BAE9"/>
		<stop  offset="0.4546" style="stop-color:#24ACE3"/>
		<stop  offset="0.5" style="stop-color:#19A4DE"/>
		<stop  offset="1" style="stop-color:#2F78BB"/>
	</radialGradient>
	<path style="fill:url(#SVGID_1_);" d="M31.072,0H0v31.186h31.072V20.894c0.123-0.178,0.186-0.408,0.186-0.688
		c0-0.319-0.063-0.517-0.186-0.683"/>
	<path style="fill:#FFFFFF;" d="M23.025,12.038l-0.599,1.456h1.204L23.025,12.038z M16.063,12.914
		c0.113-0.059,0.178-0.188,0.178-0.348c0-0.156-0.068-0.27-0.183-0.324c-0.103-0.059-0.261-0.064-0.413-0.064h-1.076v0.811h1.062
		C15.801,12.989,15.942,12.986,16.063,12.914z M15.549,18.462h-1.138v0.931h1.126c0.336,0,0.545-0.166,0.545-0.483
		C16.083,18.59,15.863,18.462,15.549,18.462z M29.549,16.979c-0.487,0-0.842,0.118-1.093,0.299v-0.299h-2.39
		c-0.384,0-0.832,0.095-1.044,0.299v-0.299h-4.27v0.299c-0.339-0.245-0.914-0.299-1.176-0.299H16.76v0.299
		c-0.271-0.26-0.867-0.299-1.231-0.299h-3.151l-0.722,0.78l-0.676-0.78H6.271v5.1h4.619l0.744-0.792l0.7,0.792l2.848,0.004v-1.2
		h0.279c0.378,0.006,0.822-0.009,1.218-0.18v1.376h2.348v-1.329h0.111c0.146,0,0.159,0.006,0.159,0.149v1.18h7.136
		c0.453,0,0.926-0.117,1.188-0.327v0.327h2.263c0.473,0,0.931-0.065,1.28-0.235v-0.949c-0.211,0.311-0.625,0.467-1.183,0.467h-1.69
		v-0.783h1.683c0.166,0,0.281-0.021,0.354-0.092c0.061-0.056,0.103-0.137,0.103-0.236c0-0.107-0.042-0.192-0.104-0.242
		c-0.065-0.058-0.159-0.081-0.311-0.081c-0.821-0.027-1.843,0.023-1.843-1.133c0-0.53,0.336-1.088,1.253-1.088h1.739v-0.727H29.549z
		 M15.499,20.135h-1.087v1.226h-1.699l-1.074-1.21l-1.118,1.21H7.06v-3.655h3.514l1.074,1.2l1.111-1.2h2.791
		c0.692,0,1.472,0.193,1.472,1.204C17.021,19.926,16.264,20.135,15.499,20.135z M20.756,19.969c0.125,0.18,0.143,0.345,0.146,0.669
		v0.723h-0.878v-0.457c0-0.221,0.022-0.545-0.14-0.715c-0.13-0.132-0.322-0.163-0.641-0.163H18.31v1.335h-0.878v-3.655h2.016
		c0.443,0,0.764,0.02,1.051,0.174c0.275,0.167,0.45,0.394,0.45,0.811c0,0.584-0.388,0.88-0.62,0.973
		C20.523,19.733,20.683,19.862,20.756,19.969z M24.345,18.462h-2.043v0.664h1.996v0.744h-1.996v0.729l2.043,0.003v0.759h-2.912
		v-3.655h2.912V18.462z M26.572,21.36H24.87v-0.783h1.694c0.164,0,0.283-0.021,0.357-0.092c0.06-0.056,0.102-0.137,0.102-0.236
		c0-0.107-0.045-0.192-0.105-0.242c-0.066-0.058-0.16-0.081-0.313-0.081c-0.815-0.027-1.837,0.023-1.837-1.133
		c0-0.53,0.333-1.088,1.248-1.088h1.75v0.779h-1.602c-0.159,0-0.263,0.004-0.35,0.065c-0.096,0.06-0.133,0.147-0.133,0.264
		c0,0.139,0.084,0.23,0.19,0.271c0.094,0.032,0.193,0.042,0.342,0.042l0.469,0.013c0.475,0.011,0.801,0.093,0.999,0.293
		c0.17,0.176,0.26,0.398,0.26,0.773C27.942,20.993,27.453,21.36,26.572,21.36z M29.221,18.55c-0.094,0.06-0.128,0.147-0.128,0.264
		c0,0.139,0.078,0.23,0.19,0.271c0.092,0.032,0.193,0.041,0.336,0.041l0.475,0.014c0.478,0.011,0.798,0.093,0.991,0.293
		c0.036,0.028,0.057,0.06,0.08,0.091v-1.039h-1.591C29.416,18.484,29.309,18.488,29.221,18.55z M7.931,18.462v0.664h1.917v0.744
		H7.931v0.729h2.146l0.999-1.072l-0.956-1.064H7.931z M13.54,21.028v-2.93l-1.34,1.439L13.54,21.028z M19.801,18.528
		c-0.106-0.063-0.262-0.066-0.416-0.066H18.31v0.819h1.062c0.168,0,0.313-0.004,0.43-0.075c0.114-0.066,0.183-0.193,0.183-0.352
		C19.983,18.699,19.915,18.588,19.801,18.528z M7.996,15.159v0.631h7.296l-0.003-1.333h0.142c0.098,0.003,0.127,0.012,0.127,0.176
		v1.158h3.775v-0.312c0.303,0.163,0.777,0.312,1.4,0.312h1.587l0.339-0.812h0.754l0.334,0.812h3.059v-0.772l0.463,0.772h2.451
		v-5.098h-2.425v0.603l-0.341-0.603h-2.491v0.603l-0.31-0.603h-3.365c-0.561,0-1.057,0.079-1.455,0.298v-0.298H17.01v0.298
		c-0.254-0.226-0.602-0.298-0.986-0.298H7.545l-0.569,1.316l-0.584-1.316h-2.67v0.603l-0.293-0.603H1.15l-1.058,2.424v2.674h1.492
		l0.336-0.812h0.753L3.01,15.79h2.936v-0.622l0.263,0.624h1.524L7.996,15.159z M19.502,11.843c0.281-0.292,0.725-0.426,1.326-0.426
		h0.845V12.2h-0.829c-0.317,0-0.498,0.047-0.67,0.216c-0.15,0.155-0.251,0.445-0.251,0.829c0,0.391,0.077,0.672,0.24,0.857
		c0.134,0.145,0.379,0.188,0.608,0.188h0.394l1.228-2.873h1.309l1.481,3.456v-3.456h1.329l1.536,2.544v-2.544h0.894v3.653h-1.238
		l-1.655-2.742v2.742H24.27l-0.339-0.814h-1.816l-0.328,0.814h-1.022c-0.426,0-0.963-0.093-1.268-0.405
		c-0.305-0.31-0.467-0.729-0.467-1.394C19.029,12.73,19.126,12.234,19.502,11.843z M17.71,11.417h0.893v3.653H17.71V11.417z
		 M13.697,11.417h2.007c0.446,0,0.777,0.011,1.057,0.173c0.276,0.165,0.443,0.403,0.443,0.811c0,0.583-0.389,0.883-0.617,0.973
		c0.192,0.073,0.355,0.203,0.433,0.308c0.123,0.182,0.145,0.343,0.145,0.671v0.717h-0.882l-0.001-0.461
		c0-0.22,0.02-0.535-0.138-0.712c-0.128-0.128-0.324-0.156-0.638-0.156h-0.938v1.33h-0.872V11.417z M10.172,11.417h2.919v0.761
		h-2.045v0.658h1.995v0.749h-1.995v0.73h2.045v0.756h-2.919V11.417z M6.591,15.071L5.32,12.207v2.864H3.544l-0.335-0.814H1.391
		l-0.339,0.814H0.103l1.563-3.653h1.297l1.486,3.459v-3.459h1.425l1.144,2.479l1.049-2.479h1.455v3.653H8.627l-0.002-2.861
		l-1.268,2.861H6.591z M1.701,13.494h1.192l-0.598-1.456L1.701,13.494z"/>
</g>
<g id="Layer_1">
</g>
</svg>
