<?xml version="1.0" encoding="iso-8859-1"?>
<!-- Generator: Adobe Illustrator 16.0.0, SVG Export Plug-In . SVG Version: 6.00 Build 0)  -->
<!DOCTYPE svg PUBLIC "-//W3C//DTD SVG 1.1//EN" "http://www.w3.org/Graphics/SVG/1.1/DTD/svg11.dtd">
<svg version="1.1" xmlns="http://www.w3.org/2000/svg" xmlns:xlink="http://www.w3.org/1999/xlink" x="0px" y="0px"
	 width="46.789px" height="27.996px" viewBox="0 0 46.789 27.996" style="enable-background:new 0 0 46.789 27.996;"
	 xml:space="preserve">
<g id="_x31_-mastercard">
	<circle style="fill:#ED1C2E;" cx="13.998" cy="13.998" r="13.998"/>
	<path style="fill:#FCB131;" d="M32.789,0c-3.616,0-6.912,1.372-9.396,3.623c-0.506,0.459-0.977,0.956-1.412,1.482h2.828
		c0.384,0.47,0.74,0.965,1.066,1.482h-4.964c-0.296,0.477-0.565,0.971-0.806,1.482h6.575c0.225,0.48,0.424,0.975,0.594,1.481h-7.761
		c-0.162,0.483-0.299,0.978-0.408,1.483h8.574c0.207,0.956,0.314,1.946,0.314,2.963c0,1.556-0.252,3.053-0.72,4.449h-7.761
		c0.17,0.507,0.367,1,0.592,1.482h6.575c-0.24,0.511-0.509,1.005-0.807,1.481h-4.963c0.325,0.518,0.682,1.013,1.069,1.479h2.828
		c-0.436,0.528-0.908,1.024-1.415,1.484c2.482,2.251,5.778,3.621,9.395,3.621c7.732,0,14-6.266,14-13.998
		C46.789,6.269,40.521,0,32.789,0z M45.376,21.35c-0.252,0-0.453,0.204-0.453,0.453c0,0.248,0.201,0.452,0.453,0.452
		c0.249,0,0.453-0.204,0.453-0.452C45.829,21.554,45.625,21.35,45.376,21.35z M45.376,22.146c-0.189,0-0.344-0.154-0.344-0.344
		c0-0.192,0.154-0.345,0.344-0.345s0.344,0.152,0.344,0.345C45.72,21.992,45.565,22.146,45.376,22.146z M45.542,21.725
		c0-0.041-0.02-0.079-0.053-0.103c-0.03-0.02-0.063-0.02-0.099-0.02h-0.169v0.396h0.093v-0.154h0.068l0.06,0.154h0.104l-0.072-0.173
		C45.517,21.81,45.542,21.768,45.542,21.725z M45.421,21.768c-0.017,0.008-0.036,0.008-0.055,0.008h-0.052v-0.102h0.049
		c0.018,0,0.043-0.002,0.06,0.008c0.012,0.007,0.023,0.025,0.023,0.039C45.446,21.74,45.438,21.758,45.421,21.768z"/>
	<path style="fill:#003473;" d="M15.058,13.566c0.299,0,0.706,0.031,1.093,0.086l0.215-1.339c-0.392-0.063-0.989-0.112-1.337-0.112
		c-1.7,0-2.287,0.888-2.282,1.954c0,0.73,0.354,1.235,1.156,1.612c0.616,0.289,0.711,0.375,0.711,0.638
		c0,0.36-0.271,0.521-0.872,0.521c-0.454,0-0.875-0.07-1.361-0.228c0,0-0.199,1.273-0.209,1.335
		c0.345,0.073,0.653,0.145,1.581,0.168c1.603,0,2.344-0.609,2.344-1.927c0-0.795-0.31-1.261-1.07-1.61
		c-0.638-0.292-0.711-0.358-0.711-0.628C14.314,13.725,14.567,13.566,15.058,13.566z M12.412,13.895
		c0-1.107-0.691-1.693-1.995-1.693c-0.563,0-1.062,0.083-1.819,0.306c0,0-0.195,1.202-0.211,1.298
		c0.252-0.081,0.865-0.268,1.608-0.26c0.711,0,0.976,0.145,0.976,0.526c0,0.103-0.012,0.185-0.06,0.374
		c-0.226-0.028-0.448-0.044-0.62-0.044c-1.685,0-2.668,0.818-2.668,2.224c0,0.935,0.564,1.577,1.389,1.577
		c0.695,0,1.208-0.223,1.593-0.697l-0.029,0.601c0,0,1.057,0,1.26,0c0.038-0.438,0.321-2.231,0.453-3.066
		C12.364,14.557,12.413,14.191,12.412,13.895z M9.637,16.975c-0.331,0-0.544-0.228-0.544-0.589c0-0.583,0.436-0.877,1.297-0.877
		c0.109,0,0.181,0.005,0.34,0.023C10.703,16.386,10.256,16.975,9.637,16.975z M5.731,11.004l-1.333,3.974l-0.132-3.974H2.081
		l-1.188,7.102h1.422l0.916-5.429l0.127,5.429h1.035l1.945-5.459l-0.872,5.459h1.521l1.176-7.102H5.731z M17.859,16.367
		c0.002-0.183,0.253-1.552,0.428-2.649h0.916l0.206-1.387h-0.911l0.176-0.875h-1.511c0,0-0.572,3.401-0.66,3.941
		c-0.096,0.611-0.219,1.282-0.207,1.536c0,0.823,0.423,1.269,1.201,1.269c0.351,0,0.675-0.054,1.091-0.185l0.201-1.28
		c-0.103,0.041-0.236,0.055-0.409,0.055C18.019,16.792,17.859,16.664,17.859,16.367z M23.781,14.29c0-1.275-0.794-2.089-2.041-2.089
		c-1.522,0-2.643,1.453-2.643,3.427c0,1.692,0.882,2.574,2.572,2.574c0.53,0.006,1.03-0.073,1.549-0.232l0.252-1.434
		c-0.542,0.248-1.03,0.36-1.57,0.36c-0.88,0-1.415-0.349-1.313-1.186h3.008C23.727,15.127,23.781,14.715,23.781,14.29z
		 M22.371,14.547h-1.668c0.139-0.663,0.482-1.031,0.965-1.031C22.53,13.516,22.38,14.426,22.371,14.547z M43.477,11.004
		l-0.336,2.052c-0.416-0.547-0.864-0.942-1.451-0.942c-0.77,0-1.467,0.58-1.922,1.437c-0.637-0.131-1.295-0.356-1.295-0.356
		L38.471,13.2c0.052-0.479,0.073-0.771,0.069-0.869h-1.396c-0.19,1.787-0.529,3.598-0.793,5.386l-0.068,0.389h1.52
		c0.204-1.333,0.363-2.44,0.477-3.319c0.52-0.47,0.78-0.878,1.307-0.852c-0.234,0.563-0.369,1.211-0.369,1.873
		c0,1.444,0.729,2.395,1.835,2.395c0.557,0,0.984-0.189,1.401-0.635l-0.071,0.536h1.438l1.156-7.1H43.477z M41.575,16.771
		c-0.518,0-0.778-0.385-0.778-1.139c0-1.135,0.49-1.939,1.179-1.939c0.521,0,0.804,0.397,0.804,1.132
		C42.779,15.969,42.284,16.771,41.575,16.771z M34.357,12.201c-0.563,0-1.063,0.083-1.82,0.306c0,0-0.196,1.202-0.212,1.298
		c0.253-0.081,0.867-0.268,1.612-0.26c0.709,0,0.972,0.145,0.972,0.526c0,0.103-0.012,0.185-0.06,0.374
		c-0.225-0.028-0.445-0.044-0.618-0.044c-1.687,0-2.668,0.818-2.668,2.224c0,0.935,0.563,1.577,1.388,1.577
		c0.697,0,1.208-0.223,1.593-0.697l-0.028,0.601c0,0,1.056,0,1.26,0c0.037-0.438,0.322-2.231,0.452-3.066
		c0.076-0.482,0.125-0.848,0.123-1.145C36.353,12.787,35.661,12.201,34.357,12.201z M33.579,16.975
		c-0.333,0-0.545-0.228-0.545-0.589c0-0.583,0.434-0.877,1.296-0.877c0.109,0,0.181,0.005,0.34,0.023
		C34.642,16.386,34.196,16.975,33.579,16.975z M28.682,15.012c0-1.563,0.795-2.659,1.929-2.659c0.422,0,0.815,0.11,1.359,0.384
		l0.248-1.541c-0.223-0.087-1.008-0.601-1.672-0.601c-1.015,0-1.875,0.505-2.48,1.337c-0.882-0.292-1.244,0.299-1.69,0.887
		l-0.394,0.092c0.03-0.192,0.057-0.386,0.049-0.579h-1.396c-0.19,1.787-0.529,3.598-0.794,5.386l-0.068,0.389h1.519
		c0.254-1.65,0.394-2.705,0.479-3.42l0.572-0.317c0.085-0.318,0.354-0.426,0.891-0.414c-0.07,0.378-0.107,0.774-0.107,1.185
		c0,1.891,1.02,3.063,2.655,3.063c0.421,0,0.783-0.054,1.343-0.206l0.268-1.617c-0.505,0.246-0.918,0.363-1.293,0.363
		C29.216,16.742,28.682,16.09,28.682,15.012z"/>
	<path style="fill:#FFFFFF;" d="M19.504,13.297l0.206-1.387h-0.775l0.177-0.875h-1.511c0,0-0.572,3.4-0.66,3.94
		c-0.097,0.614-0.218,1.282-0.207,1.541c0,0.821,0.425,1.267,1.201,1.267c0.352,0,0.675-0.057,1.091-0.188l0.201-1.278
		c-0.104,0.038-0.235,0.055-0.408,0.055c-0.363,0-0.522-0.131-0.522-0.427c0.003-0.183,0.254-1.55,0.429-2.648H19.504z
		 M6.239,10.583l-1.475,4.395l-0.062-4.395H2.519L1.33,17.684h1.423l0.915-5.427l0.128,5.427h1.035l1.943-5.459l-0.87,5.459h1.521
		l1.176-7.101H6.239z M12.85,13.474c0-1.107-0.691-1.694-1.995-1.694c-0.563,0-1.062,0.084-1.819,0.306c0,0-0.193,1.202-0.21,1.299
		c0.251-0.083,0.865-0.268,1.608-0.258c0.71,0,0.974,0.142,0.974,0.522c0,0.104-0.012,0.187-0.059,0.377
		c-0.227-0.029-0.447-0.045-0.62-0.045c-1.686,0-2.667,0.818-2.667,2.226c0,0.934,0.563,1.577,1.388,1.577
		c0.695,0,1.208-0.226,1.592-0.697l-0.028,0.598c0,0,1.057,0,1.259,0c0.039-0.437,0.322-2.231,0.454-3.067
		C12.802,14.137,12.852,13.77,12.85,13.474z M10.074,16.555c-0.33,0-0.544-0.229-0.544-0.588c0-0.586,0.436-0.881,1.298-0.881
		c0.109,0,0.18,0.007,0.339,0.024C11.14,15.965,10.694,16.555,10.074,16.555z M24.219,13.87c0-1.276-0.795-2.091-2.041-2.091
		c-1.522,0-2.644,1.454-2.644,3.428c0,1.691,0.881,2.576,2.573,2.576c0.529,0.002,1.03-0.074,1.55-0.233l0.251-1.436
		c-0.543,0.253-1.029,0.362-1.57,0.362c-0.879,0-1.415-0.349-1.313-1.186h3.008C24.164,14.707,24.219,14.294,24.219,13.87z
		 M22.808,14.125h-1.667c0.141-0.663,0.483-1.03,0.964-1.03C22.968,13.095,22.817,14.004,22.808,14.125z M15.496,13.145
		c0.298,0,0.706,0.032,1.092,0.087l0.217-1.339c-0.394-0.063-0.99-0.113-1.338-0.113c-1.701,0-2.288,0.889-2.283,1.955
		c0,0.73,0.354,1.233,1.157,1.613c0.615,0.289,0.71,0.375,0.71,0.636c0,0.36-0.271,0.523-0.871,0.523
		c-0.455,0-0.876-0.07-1.362-0.228c0,0-0.2,1.274-0.208,1.333c0.345,0.075,0.652,0.145,1.58,0.171c1.604,0,2.344-0.61,2.344-1.931
		c0-0.794-0.31-1.259-1.07-1.608c-0.638-0.293-0.711-0.357-0.711-0.628C14.752,13.304,15.004,13.145,15.496,13.145z M45.542,17.151
		c0-0.039-0.02-0.077-0.053-0.099c-0.03-0.02-0.066-0.021-0.102-0.021h-0.166v0.398h0.093v-0.156h0.066l0.062,0.156h0.104
		l-0.072-0.176C45.513,17.237,45.542,17.197,45.542,17.151z M45.421,17.197c-0.017,0.009-0.038,0.007-0.058,0.007h-0.049v-0.102
		h0.049c0.018,0,0.043-0.002,0.058,0.007c0.014,0.01,0.023,0.026,0.023,0.04C45.444,17.169,45.438,17.185,45.421,17.197z
		 M43.915,10.583l-0.339,2.052c-0.415-0.547-0.861-0.787-1.449-0.787c-1.339,0-2.476,1.618-2.476,3.541
		c0,1.444,0.732,2.395,1.838,2.395c0.556,0,0.984-0.192,1.399-0.638l-0.071,0.538h1.437l1.157-7.101H43.915z M42.014,16.351
		c-0.517,0-0.778-0.384-0.778-1.139c0-1.138,0.489-1.94,1.179-1.94c0.522,0,0.804,0.398,0.804,1.132
		C43.218,15.547,42.723,16.351,42.014,16.351z M45.376,16.778c-0.252,0-0.453,0.204-0.453,0.452c0,0.249,0.201,0.453,0.453,0.453
		c0.249,0,0.45-0.204,0.45-0.453C45.826,16.982,45.625,16.778,45.376,16.778z M45.376,17.574c-0.192,0-0.344-0.154-0.344-0.344
		s0.151-0.344,0.344-0.344c0.189,0,0.344,0.154,0.344,0.344S45.565,17.574,45.376,17.574z M29.117,14.593
		c0-1.563,0.796-2.661,1.932-2.661c0.422,0,0.815,0.11,1.356,0.384l0.249-1.541c-0.223-0.088-1.005-0.369-1.67-0.369
		c-2.013,0-3.424,1.774-3.424,4.313c0,1.889,1.02,3.064,2.656,3.064c0.422,0,0.782-0.055,1.342-0.209l0.268-1.617
		c-0.502,0.249-0.915,0.365-1.29,0.365C29.653,16.322,29.117,15.67,29.117,14.593z M26.375,12.784
		c0.038-0.295,0.104-0.582,0.092-0.874h-1.396c-0.19,1.786-0.529,3.597-0.793,5.385l-0.069,0.389h1.521
		c0.544-3.531,0.674-4.222,1.526-4.135c0.137-0.723,0.389-1.355,0.578-1.675C27.197,11.742,26.842,12.102,26.375,12.784z
		 M34.795,11.779c-0.563,0-1.062,0.084-1.82,0.306c0,0-0.194,1.202-0.209,1.299c0.251-0.083,0.863-0.268,1.607-0.258
		c0.709,0,0.975,0.142,0.975,0.522c0,0.104-0.012,0.187-0.06,0.377c-0.228-0.029-0.447-0.045-0.618-0.045
		c-1.688,0-2.667,0.818-2.667,2.226c0,0.934,0.563,1.577,1.387,1.577c0.694,0,1.209-0.226,1.591-0.697l-0.028,0.598
		c0,0,1.057,0,1.261,0c0.039-0.437,0.32-2.231,0.453-3.067c0.075-0.479,0.126-0.847,0.121-1.143
		C36.79,12.366,36.1,11.779,34.795,11.779z M34.016,16.555c-0.332,0-0.544-0.229-0.544-0.588c0-0.586,0.435-0.881,1.296-0.881
		c0.11,0,0.18,0.007,0.338,0.024C35.08,15.965,34.634,16.555,34.016,16.555z M40.345,11.874c-0.639-0.132-0.994,0.228-1.459,0.91
		c0.037-0.295,0.104-0.582,0.092-0.874h-1.396c-0.19,1.786-0.529,3.597-0.795,5.385l-0.069,0.389h1.521
		c0.543-3.531,0.677-4.222,1.529-4.135C39.902,12.826,40.154,12.193,40.345,11.874z"/>
</g>
<g id="Layer_1">
</g>
</svg>
