<?xml version="1.0" encoding="iso-8859-1"?>
<!-- Generator: Adobe Illustrator 16.0.0, SVG Export Plug-In . SVG Version: 6.00 Build 0)  -->
<!DOCTYPE svg PUBLIC "-//W3C//DTD SVG 1.1//EN" "http://www.w3.org/Graphics/SVG/1.1/DTD/svg11.dtd">
<svg version="1.1" xmlns="http://www.w3.org/2000/svg" xmlns:xlink="http://www.w3.org/1999/xlink" x="0px" y="0px"
	 width="30.502px" height="30.5px" viewBox="0 0 30.502 30.5" style="enable-background:new 0 0 30.502 30.5;" xml:space="preserve"
	>
<g id="_x34_-cabal">
	<rect style="fill:#004282;" width="30.502" height="30.5"/>
	<path style="fill:#FFFFFF;" d="M12.08,25.715c0-0.039,0.008-0.162,0.016-0.359l0.152-3.84h-0.152L8.772,25.48
		c-0.243,0.289-0.423,0.479-0.559,0.568c-0.096,0.068-0.201,0.111-0.327,0.133l-0.034,0.129h1.395v-0.129
		c-0.137-0.006-0.23-0.037-0.292-0.082c-0.056-0.049-0.085-0.098-0.085-0.15c0-0.057,0.007-0.107,0.032-0.162
		c0.032-0.07,0.081-0.143,0.144-0.232l0.327-0.395l0.295-0.361h1.451l-0.026,0.598c-0.017,0.254-0.047,0.432-0.1,0.539
		c-0.055,0.096-0.111,0.164-0.173,0.195c-0.036,0.014-0.149,0.031-0.348,0.051l-0.043,0.129h2.028l0.038-0.129
		c-0.147-0.012-0.252-0.053-0.313-0.123C12.116,25.982,12.08,25.873,12.08,25.715z M11.119,24.518H9.903l1.304-1.529L11.119,24.518z
		 M15.996,23.803c0.422-0.092,0.729-0.199,0.931-0.313c0.202-0.111,0.355-0.258,0.45-0.426c0.105-0.174,0.157-0.342,0.157-0.512
		c0-0.197-0.063-0.381-0.187-0.543c-0.131-0.156-0.312-0.266-0.546-0.322c-0.176-0.039-0.468-0.064-0.884-0.064h-1.854l-0.035,0.129
		c0.23,0.008,0.375,0.039,0.445,0.096c0.072,0.049,0.098,0.115,0.098,0.199c0,0.096-0.038,0.291-0.126,0.582l-0.83,2.885
		c-0.068,0.229-0.132,0.383-0.181,0.459c-0.049,0.068-0.111,0.121-0.197,0.156c-0.079,0.033-0.213,0.053-0.404,0.053l-0.044,0.129
		h1.948c0.727,0,1.23-0.059,1.511-0.16c0.271-0.109,0.486-0.277,0.655-0.506c0.167-0.234,0.249-0.469,0.249-0.705
		c0-0.258-0.082-0.48-0.249-0.666C16.732,24.08,16.438,23.922,15.996,23.803z M15.654,21.875l0.19-0.004
		c0.188-0.008,0.342,0.049,0.452,0.162c0.112,0.109,0.169,0.258,0.169,0.438c0,0.191-0.054,0.393-0.164,0.607
		c-0.108,0.217-0.257,0.375-0.434,0.467c-0.186,0.094-0.428,0.145-0.745,0.145L15.654,21.875z M15.775,25.611
		c-0.205,0.285-0.56,0.434-1.07,0.434c-0.061,0-0.146-0.004-0.258-0.01l0.596-2.084c0.292,0,0.496,0.029,0.618,0.074
		c0.122,0.043,0.221,0.129,0.301,0.25c0.077,0.125,0.114,0.26,0.114,0.416C16.076,25.018,15.974,25.328,15.775,25.611z
		 M14.608,16.258l-4.168-4.165l4.168-4.163V4.083l-8.007,8.006l8.007,8.007V16.258z M24.001,22.07c0,0.094-0.018,0.225-0.067,0.393
		l-0.872,3.006c-0.087,0.305-0.183,0.498-0.286,0.582c-0.102,0.09-0.263,0.131-0.492,0.131l-0.033,0.129h3.744l0.517-1.316h-0.149
		c-0.244,0.35-0.541,0.611-0.901,0.785c-0.355,0.172-0.726,0.266-1.104,0.266c-0.114,0-0.198-0.025-0.255-0.063
		c-0.045-0.039-0.075-0.086-0.075-0.127c0-0.078,0.055-0.291,0.152-0.639l0.798-2.754c0.081-0.285,0.174-0.473,0.283-0.566
		c0.104-0.094,0.268-0.139,0.485-0.145l0.04-0.129h-2.251l-0.041,0.129c0.205,0.008,0.342,0.043,0.404,0.098
		C23.977,21.902,24.001,21.979,24.001,22.07z M15.44,4.085v3.845l4.161,4.163l-4.161,4.165v3.836l8-8.005L15.44,4.085z
		 M21.527,25.715c0-0.039,0-0.162,0.003-0.359l0.154-3.84H21.53l-3.321,3.965c-0.235,0.289-0.422,0.479-0.551,0.568
		c-0.097,0.068-0.208,0.111-0.335,0.133l-0.034,0.129h1.401v-0.129c-0.141-0.006-0.238-0.037-0.294-0.082
		c-0.06-0.049-0.088-0.098-0.088-0.15c0-0.057,0.01-0.107,0.033-0.162c0.029-0.07,0.077-0.143,0.142-0.232l0.332-0.395l0.298-0.361
		h1.446l-0.031,0.598c-0.015,0.254-0.042,0.432-0.099,0.539c-0.059,0.096-0.111,0.164-0.177,0.195
		c-0.027,0.014-0.145,0.031-0.349,0.051l-0.03,0.129h2.023l0.037-0.129c-0.149-0.012-0.256-0.053-0.317-0.123
		C21.553,25.982,21.527,25.873,21.527,25.715z M20.56,24.518h-1.211l1.298-1.529L20.56,24.518z M5.874,26.418
		c0.422,0,0.777-0.09,1.072-0.264c0.289-0.172,0.578-0.473,0.864-0.896H7.643c-0.233,0.266-0.457,0.463-0.687,0.58
		c-0.223,0.121-0.473,0.18-0.753,0.18c-0.336,0-0.6-0.102-0.793-0.309c-0.199-0.211-0.295-0.516-0.295-0.91
		c0-0.441,0.089-0.891,0.264-1.346c0.219-0.551,0.487-0.977,0.803-1.246c0.313-0.271,0.634-0.404,0.952-0.404
		c0.293,0,0.535,0.094,0.717,0.295c0.18,0.197,0.285,0.504,0.301,0.908h0.132l0.345-1.49H8.5c-0.118,0.121-0.23,0.188-0.348,0.188
		c-0.057,0-0.163-0.023-0.308-0.066c-0.287-0.076-0.527-0.121-0.718-0.121c-0.509,0-1.025,0.145-1.537,0.434
		c-0.516,0.293-0.914,0.672-1.187,1.137c-0.271,0.469-0.412,0.963-0.412,1.48c0,0.551,0.176,0.998,0.521,1.332
		C4.857,26.244,5.312,26.418,5.874,26.418z"/>
</g>
<g id="Layer_1">
</g>
</svg>
