<?xml version="1.0" encoding="iso-8859-1"?>
<!-- Generator: Adobe Illustrator 16.0.0, SVG Export Plug-In . SVG Version: 6.00 Build 0)  -->
<!DOCTYPE svg PUBLIC "-//W3C//DTD SVG 1.1//EN" "http://www.w3.org/Graphics/SVG/1.1/DTD/svg11.dtd">
<svg version="1.1" xmlns="http://www.w3.org/2000/svg" xmlns:xlink="http://www.w3.org/1999/xlink" x="0px" y="0px" width="88.25px"
	 height="22.864px" viewBox="0 0 88.25 22.864" style="enable-background:new 0 0 88.25 22.864;" xml:space="preserve">
<g id="_x39_-diners">
	<path style="fill:#004A97;" d="M16.91,22.864c6.249,0.031,11.953-5.096,11.953-11.332c0-6.82-5.704-11.534-11.953-11.532h-5.379
		C5.206-0.001,0,4.713,0,11.533c0,6.238,5.206,11.363,11.531,11.332H16.91z"/>
	<path style="fill:#FFFFFF;" d="M13.931,17.604V5.221c2.489,0.955,4.257,3.365,4.261,6.192
		C18.188,14.239,16.42,16.647,13.931,17.604 M4.923,11.413c0.005-2.826,1.771-5.234,4.258-6.192v12.382
		C6.693,16.645,4.928,14.238,4.923,11.413 M11.557,0.946C5.776,0.948,1.093,5.631,1.092,11.413
		c0.001,5.78,4.685,10.463,10.465,10.464c5.781-0.001,10.464-4.685,10.466-10.464C22.021,5.631,17.338,0.948,11.557,0.946"/>
	<path style="fill:#231F20;" d="M42.727,11.979v-0.313h-0.203c-0.337,0-0.602,0-0.602-0.397V6.652c0-0.097-0.022-0.168-0.082-0.168
		c-0.062,0-0.134,0.013-0.219,0.061c-0.047,0.036-0.722,0.263-1.286,0.433v0.192c0.446,0.238,0.625,0.312,0.625,0.841v3.258
		c0,0.397-0.24,0.397-0.576,0.397h-0.229v0.313c0.443-0.012,0.877-0.024,1.311-0.024S42.319,11.979,42.727,11.979z M43.47,14.364
		l-0.001,0.03c-0.012,0.173-0.145,0.175-0.327,0.177h-3.41c-0.165-0.002-0.287-0.004-0.332-0.169l-0.003-0.021h-0.208v0.028
		c0,0.188-0.013,0.369-0.04,0.551c-0.02,0.19-0.053,0.374-0.079,0.557l-0.004,0.034h0.253l0.005-0.022
		c0.105-0.482,0.097-0.566,0.579-0.574h1.045v3.467c-0.008,0.508-0.153,0.512-0.513,0.521h-0.153v0.253h0.026
		c0.258,0,0.717-0.026,1.108-0.026c0.351,0,0.81,0.026,1.066,0.026h0.027v-0.253h-0.153c-0.312-0.006-0.508-0.041-0.514-0.535
		v-3.452h1.045c0.413,0,0.438,0.355,0.457,0.603l0.001,0.038l0.231-0.085l0.019-0.007v-0.021c0-0.177,0-0.354,0.014-0.528
		c0.018-0.176,0.045-0.353,0.07-0.527l0.004-0.028L43.5,14.371L43.47,14.364z M34.779,11.979c4.258,0,4.954-2.994,4.954-4.185
		c0-2.13-1.695-4.209-4.808-4.209c-0.893,0-1.578,0.023-2.082,0.023c-0.471,0-0.95,0-1.42-0.023v0.312
		c0.541,0.012,1.105-0.06,1.105,1.021v5.833c-0.035,0.817-0.383,0.842-1.105,0.914v0.313c0.541-0.012,1.07-0.024,1.612-0.024
		C33.601,11.955,34.167,11.979,34.779,11.979z M33.709,4.018c0.218-0.012,0.444-0.047,0.938-0.047c2.32,0,3.764,1.623,3.764,3.871
		c0,1.792-0.853,3.752-3.452,3.752c-0.588,0-1.25-0.109-1.25-1.034V4.018z M32.38,14.597c-0.318,0-0.712-0.025-0.968-0.025h-0.029
		v0.254h0.119c0.237,0.004,0.453,0.025,0.456,0.345v3.428c-0.003,0.319-0.219,0.339-0.456,0.345h-0.119v0.253h0.029
		c0.256,0,0.641-0.026,0.961-0.026c0.326,0,0.717,0.026,1.035,0.026h0.029v-0.253h-0.123c-0.237-0.006-0.453-0.025-0.455-0.345
		V15.17c0.002-0.319,0.218-0.341,0.455-0.345h0.123v-0.254h-0.029C33.098,14.571,32.706,14.597,32.38,14.597z M76.47,7.65v3.079
		c0,1.009,0.674,1.43,1.322,1.43c0.855,0,1.409-0.421,2.129-1.01v0.974l0.062,0.036c0.229-0.072,1.214-0.325,1.731-0.372v-0.253
		c-0.156,0-0.336,0.012-0.481,0.012c-0.205,0-0.335-0.012-0.335-0.23V6.88c0-0.133,0-0.216-0.099-0.216
		c-0.119,0-0.792,0.096-1.874,0.169v0.216c0.432,0.121,1.009,0.252,1.009,0.492v3.237c-0.505,0.419-1.045,0.732-1.454,0.732
		c-1.047,0-1.047-1.034-1.047-1.396V7.013c0-0.266,0-0.349-0.132-0.349c-0.157,0-1.117,0.072-1.551,0.083v0.23
		C76.422,7.036,76.47,7.337,76.47,7.65z M82.327,4.572v5.171c0,0.733-0.06,1.431-0.167,2.14l0.253,0.131l0.358-0.275
		c0.314,0.132,0.783,0.421,1.672,0.421c1.721,0,2.874-1.576,2.874-3.151c0-1.31-0.84-2.525-2.235-2.525
		c-0.663,0-1.313,0.458-1.793,0.865V2.96c0-0.096-0.024-0.17-0.096-0.17c-0.036,0-0.133,0.062-0.266,0.133
		c-0.253,0.145-0.756,0.362-1.238,0.518v0.192C82.146,3.766,82.327,3.79,82.327,4.572z M83.289,7.698
		c0.325-0.277,0.697-0.565,1.143-0.565c0.938,0,1.924,1.082,1.924,2.38c0,1.07-0.541,2.333-1.827,2.333
		c-0.806,0-1.239-0.77-1.239-1.227V7.698z M75.748,11.979v-0.313h-0.202c-0.337,0-0.603,0-0.603-0.397V2.96
		c0-0.096-0.022-0.17-0.095-0.17c-0.037,0-0.136,0.062-0.266,0.133c-0.253,0.145-0.757,0.362-1.237,0.518v0.192
		c0.457,0.132,0.636,0.156,0.636,0.938v6.697c0,0.397-0.241,0.397-0.579,0.397h-0.226v0.313c0.444-0.012,0.877-0.024,1.31-0.024
		C74.921,11.955,75.341,11.979,75.748,11.979z M56.917,11.979v-0.313h-0.673c-0.337,0-0.577,0-0.577-0.397V8.444
		c0-0.722,0.674-0.999,0.878-0.999c0.42,0,0.42,0.29,0.795,0.29c0.336,0,0.564-0.29,0.564-0.615c0-0.432-0.384-0.636-0.687-0.636
		c-0.732,0-1.238,0.769-1.538,1.239h-0.025V6.64c0-0.121-0.035-0.157-0.106-0.157c-0.109,0-0.59,0.313-1.469,0.686v0.179
		c0.182,0.097,0.625,0.169,0.625,0.542v3.378c0,0.397-0.239,0.397-0.575,0.397h-0.325v0.313c0.432-0.012,0.938-0.024,1.432-0.024
		C55.752,11.955,56.255,11.967,56.917,11.979z M59.948,11.775c-0.878,0-1.358-0.674-1.516-1.468l-0.217,0.06l0.133,1.383
		c0.421,0.24,0.985,0.409,1.467,0.409c1.432,0,2.068-0.843,2.068-1.636c0-1.888-2.788-1.454-2.788-2.861
		c0-0.518,0.454-0.794,0.938-0.794c0.77,0,1.189,0.433,1.31,1.189h0.277l-0.084-1.225c-0.471-0.242-0.987-0.35-1.371-0.35
		c-1.322,0-1.865,0.865-1.865,1.54c0,1.935,2.622,1.479,2.622,2.897C60.922,11.342,60.658,11.775,59.948,11.775z M51.363,12.159
		c0.984,0,1.671-0.625,2.223-1.359l-0.167-0.168c-0.444,0.444-0.962,0.805-1.623,0.805c-0.961,0-1.697-0.937-1.769-2.08
		c-0.023-0.409-0.023-0.588,0-0.697h3.379l0.109-0.072c0.01-0.074,0.01-0.144,0.01-0.218c-0.01-1.274-1.057-1.887-2.031-1.887
		c-0.843,0-2.429,0.698-2.429,3.054C49.065,10.307,49.45,12.159,51.363,12.159z M51.446,6.868c0.673,0,1.045,0.493,1.045,1.106
		c0,0.144-0.034,0.301-0.335,0.301h-2.093C50.208,7.407,50.714,6.868,51.446,6.868z M41.442,4.631c0.323,0,0.589-0.275,0.589-0.601
		c0-0.325-0.278-0.578-0.589-0.578c-0.301,0-0.589,0.277-0.589,0.578C40.854,4.343,41.129,4.631,41.442,4.631z M38.117,14.597
		c-0.306,0-0.606-0.025-0.915-0.025h-0.028v0.254h0.172c0.19,0.004,0.538,0.065,0.541,0.587v2.407l-2.875-3.237
		c-0.222-0.011-0.41,0.015-0.605,0.015c-0.245,0-0.501-0.025-0.752-0.025h-0.028v0.254h0.114c0.28,0,0.566,0.211,0.567,0.561v2.754
		c-0.004,0.522-0.13,0.801-0.56,0.803h-0.122v0.253h0.028c0.298,0,0.598-0.026,0.892-0.026c0.278,0,0.56,0.026,0.843,0.026h0.029
		v-0.253h-0.14c-0.493-0.006-0.58-0.168-0.588-0.737v-2.621l3.321,3.699l0.27,0.011h0.034l-0.007-0.033
		c-0.032-0.199-0.037-0.428-0.037-0.656v-2.978c0.007-0.771,0.284-0.795,0.554-0.802h0.126v-0.254h-0.029
		C38.651,14.571,38.384,14.597,38.117,14.597z M47.38,18.047l-0.007,0.026c-0.197,0.734-0.513,0.773-1.302,0.777
		c-0.425-0.001-0.769,0-0.77-0.397v-1.496h0.758c0.435,0.005,0.437,0.225,0.482,0.624l0.001,0.03l0.229-0.046l0.024-0.006
		l-0.001-0.022c-0.014-0.249-0.021-0.496-0.021-0.745c0-0.255,0.008-0.509,0.021-0.765l0.001-0.028h-0.253l-0.001,0.024
		c-0.045,0.353-0.112,0.546-0.489,0.549h-0.751v-1.655h0.882c0.673,0.006,0.731,0.313,0.77,0.738l0.003,0.033l0.229-0.06
		l0.021-0.007v-0.023c-0.013-0.186-0.02-0.434-0.02-0.66c0-0.122,0.002-0.238,0.007-0.337v-0.03h-0.029
		c-0.445,0-1.124,0.025-1.675,0.025c-0.548,0-1.229-0.025-1.627-0.025h-0.03v0.254h0.121c0.236,0.005,0.452,0.025,0.454,0.345v3.428
		c-0.002,0.319-0.218,0.341-0.454,0.345h-0.121v0.253h0.03c0.372,0,1.149-0.026,1.739-0.026c0.588,0,1.341,0.026,1.76,0.026h0.022
		l0.006-0.022c0.06-0.347,0.137-0.693,0.222-1.04l0.007-0.026l-0.211-0.054L47.38,18.047z M67.602,14.597
		c-0.319,0-0.713-0.025-0.969-0.025h-0.028v0.254h0.121c0.236,0.004,0.453,0.025,0.453,0.345v3.428c0,0.319-0.217,0.341-0.453,0.345
		h-0.121v0.253h0.028c0.256,0,0.643-0.026,0.964-0.026c0.325,0,0.717,0.026,1.033,0.026h0.028v-0.253h-0.12
		c-0.239-0.004-0.454-0.025-0.458-0.345V15.17c0.004-0.319,0.219-0.341,0.458-0.345h0.12v-0.254H68.63
		C68.32,14.571,67.927,14.597,67.602,14.597z M71.238,14.474c-1.374,0.002-2.439,1.065-2.442,2.442
		c0.003,1.423,1.078,2.374,2.476,2.378c1.407-0.004,2.5-1.014,2.502-2.535C73.771,15.349,72.646,14.476,71.238,14.474z
		 M71.339,18.949c-1.037-0.002-1.568-1.098-1.571-2.262c0.005-0.873,0.337-1.868,1.458-1.869c1.065,0.002,1.574,1.137,1.574,2.086
		C72.798,17.858,72.582,18.948,71.339,18.949z M83.271,18.698c-0.085-0.194-0.163-0.437-0.241-0.665l-1.203-3.423
		c-0.021-0.052-0.041-0.112-0.062-0.163c-0.02-0.036-0.055-0.04-0.07-0.039c-0.027,0-0.046,0.009-0.062,0.015
		c-0.128,0.079-0.391,0.21-0.595,0.28c-0.059,0.26-0.177,0.587-0.261,0.829l-1.046,3.004c-0.097,0.265-0.3,0.405-0.546,0.406h-0.064
		v0.255l0.029-0.002c0.235-0.012,0.47-0.026,0.706-0.026c0.258,0,0.526,0.015,0.788,0.026l0.029,0.002v-0.255h-0.1
		c-0.215,0-0.463-0.04-0.463-0.201c0-0.105,0.079-0.277,0.144-0.502l0.202-0.661h1.444l0.248,0.741
		c0.074,0.21,0.132,0.387,0.131,0.462c0,0.126-0.226,0.161-0.378,0.161h-0.1v0.255l0.028-0.002c0.334-0.012,0.663-0.026,0.98-0.026
		c0.313,0,0.607,0.015,0.901,0.026l0.029,0.002v-0.255h-0.066C83.467,18.94,83.347,18.872,83.271,18.698z M80.602,17.156
		l0.575-1.752l0.568,1.752H80.602z M87.56,14.414c-0.394,0-0.688,0.304-0.688,0.691c0,0.387,0.295,0.687,0.688,0.687
		c0.396,0,0.69-0.3,0.69-0.687C88.25,14.718,87.956,14.414,87.56,14.414z M87.56,15.664c-0.308,0-0.545-0.263-0.545-0.559
		c0-0.298,0.237-0.563,0.545-0.563c0.313,0,0.547,0.265,0.547,0.563C88.106,15.401,87.869,15.664,87.56,15.664z M87.756,15.284
		l-0.112-0.158c0.096-0.029,0.161-0.104,0.161-0.208c0-0.125-0.11-0.183-0.23-0.183h-0.353v0.035
		c0.088-0.004,0.096,0.021,0.096,0.093v0.51c0,0.053-0.015,0.051-0.1,0.062v0.035h0.333v-0.035
		c-0.085-0.011-0.101-0.009-0.101-0.054v-0.229h0.075c0.128,0.182,0.184,0.318,0.249,0.318h0.135v-0.023
		C87.869,15.424,87.81,15.354,87.756,15.284z M87.531,15.105H87.45v-0.324h0.078c0.07,0,0.134,0.038,0.134,0.149
		C87.662,15.038,87.62,15.105,87.531,15.105z M87.422,18.048c-0.04,0.144-0.098,0.322-0.197,0.462
		c-0.112,0.157-0.342,0.311-0.609,0.342c-0.167,0.019-0.334,0.025-0.496,0.025c-0.124,0-0.246-0.005-0.36-0.013
		c-0.206-0.028-0.365-0.094-0.366-0.338V15.15c0.005-0.33,0.163-0.319,0.414-0.325H86v-0.254h-0.028
		c-0.335,0-0.661,0.025-0.995,0.025c-0.344,0-0.687-0.025-1.034-0.025h-0.027v0.254h0.119c0.237,0.004,0.462,0.025,0.463,0.344
		v3.363c-0.001,0.389-0.226,0.404-0.463,0.41h-0.119v0.253h0.027c0.577,0,1.153-0.026,1.729-0.026s1.15,0.026,1.728,0.026h0.022
		l0.005-0.022c0.08-0.372,0.169-0.738,0.243-1.111l0.006-0.035h-0.247L87.422,18.048z M79.204,14.571h-0.03
		c-0.27,0-0.536,0.025-0.805,0.025c-0.305,0-0.605-0.025-0.915-0.025h-0.028v0.254h0.172c0.19,0.004,0.54,0.065,0.542,0.587v2.407
		l-2.875-3.237c-0.222-0.011-0.409,0.015-0.604,0.015c-0.246,0-0.502-0.025-0.752-0.025h-0.027v0.254h0.112
		c0.281,0,0.565,0.211,0.567,0.56v2.755c-0.005,0.522-0.129,0.801-0.561,0.802h-0.119v0.254h0.027c0.297,0,0.596-0.026,0.891-0.026
		c0.279,0,0.561,0.026,0.843,0.026h0.03v-0.254h-0.143c-0.491-0.006-0.579-0.167-0.586-0.736v-2.621l3.321,3.699l0.271,0.011h0.032
		l-0.005-0.032c-0.033-0.2-0.039-0.429-0.039-0.657v-2.978c0.006-0.771,0.284-0.795,0.554-0.802h0.127V14.571z M51.743,18.563
		l-1.101-1.646c0.505-0.206,0.895-0.574,0.895-1.165c-0.002-0.95-0.76-1.179-1.587-1.18c-0.348,0-0.662,0.025-1.051,0.025
		c-0.4,0-0.804-0.025-1.016-0.025h-0.028v0.254h0.146c0.204,0.006,0.43,0.005,0.437,0.468v3.325
		c-0.002,0.22-0.199,0.322-0.437,0.324h-0.146v0.253h0.028c0.33,0,0.637-0.026,0.948-0.026c0.371,0,0.751,0.026,1.124,0.026h0.03
		v-0.253h-0.146c-0.304-0.007-0.501-0.004-0.509-0.496v-1.369h0.387c0.423,0.746,0.854,1.449,1.355,2.107
		c0.228,0.011,0.437-0.016,0.636-0.016c0.216,0,0.425,0.026,0.642,0.026h0.029v-0.25l-0.022-0.003
		C52.038,18.901,51.924,18.833,51.743,18.563z M49.625,16.783h-0.293v-1.896c0.084-0.009,0.167-0.023,0.343-0.023
		c0.569,0.001,0.927,0.356,0.931,0.928C50.597,16.552,50.272,16.777,49.625,16.783z M57.845,14.571h-0.028
		c-0.271,0-0.54,0.025-0.804,0.025c-0.308,0-0.608-0.025-0.92-0.025h-0.026v0.254h0.173c0.19,0.002,0.538,0.065,0.54,0.586v2.408
		l-2.876-3.24c-0.219-0.008-0.411,0.018-0.603,0.018c-0.247,0-0.503-0.025-0.751-0.025h-0.031v0.254h0.116
		c0.279,0,0.565,0.211,0.565,0.56v2.754c-0.005,0.523-0.128,0.802-0.56,0.804h-0.122v0.253h0.031c0.294,0,0.596-0.026,0.887-0.026
		c0.281,0,0.562,0.026,0.847,0.026h0.026v-0.253h-0.138c-0.493-0.006-0.581-0.168-0.588-0.737v-2.621l3.32,3.7l0.271,0.01h0.032
		l-0.005-0.032c-0.032-0.201-0.04-0.429-0.04-0.657v-2.978c0.008-0.771,0.285-0.796,0.556-0.802h0.127V14.571z M49.113,11.666
		h-0.217c-0.336,0-0.601,0-0.601-0.397V8.167c0-0.938-0.36-1.683-1.383-1.683c-0.805,0-1.396,0.409-2.081,0.902V6.603
		c0-0.095-0.036-0.12-0.072-0.12c-0.577,0.252-1.069,0.409-1.586,0.577v0.229c0.563,0.229,0.696,0.349,0.696,0.793v3.187
		c0,0.397-0.238,0.397-0.576,0.397h-0.216v0.313c0.432-0.012,0.864-0.024,1.298-0.024c0.433,0,0.854,0.024,1.273,0.024v-0.313
		h-0.214c-0.338,0-0.604,0-0.604-0.397V7.71c0.397-0.265,1.011-0.577,1.396-0.577c0.685,0,1.104,0.336,1.104,1.022v3.114
		c0,0.397-0.239,0.397-0.577,0.397H46.54v0.313c0.433-0.012,0.866-0.024,1.299-0.024s0.854,0.024,1.274,0.024V11.666z
		 M61.911,18.698c-0.086-0.194-0.163-0.437-0.242-0.665l-1.204-3.423c-0.02-0.052-0.039-0.111-0.059-0.164
		c-0.021-0.035-0.058-0.039-0.072-0.039c-0.027,0-0.045,0.01-0.063,0.016c-0.125,0.079-0.388,0.211-0.593,0.28
		c-0.059,0.26-0.176,0.587-0.261,0.829l-1.049,3.004c-0.093,0.267-0.297,0.404-0.539,0.405H57.76v0.256l0.03-0.002
		c0.234-0.013,0.473-0.026,0.706-0.026c0.26,0,0.528,0.014,0.79,0.026l0.028,0.002v-0.256h-0.1c-0.219,0-0.463-0.039-0.465-0.199
		c0-0.106,0.078-0.278,0.146-0.503l0.203-0.661h1.443l0.248,0.741c0.072,0.209,0.132,0.387,0.131,0.462
		c-0.003,0.126-0.226,0.16-0.378,0.16h-0.1v0.256l0.028-0.002c0.337-0.013,0.661-0.026,0.982-0.026c0.312,0,0.605,0.014,0.9,0.026
		l0.029,0.002v-0.256h-0.065C62.106,18.94,61.986,18.872,61.911,18.698z M59.24,17.157l0.577-1.755l0.568,1.755H59.24z
		 M66.208,14.364l-0.001,0.03c-0.012,0.173-0.144,0.175-0.323,0.177h-3.412c-0.166-0.002-0.286-0.004-0.332-0.169l-0.006-0.021
		h-0.206v0.028c0,0.188-0.013,0.369-0.039,0.553c-0.021,0.188-0.052,0.372-0.079,0.556l-0.005,0.033h0.254l0.003-0.022
		c0.107-0.482,0.097-0.566,0.582-0.574h1.043l0.001,3.467c-0.009,0.508-0.153,0.512-0.513,0.521H63.02v0.253h0.029
		c0.255,0,0.715-0.026,1.104-0.026c0.353,0,0.813,0.026,1.068,0.026h0.028v-0.253h-0.153c-0.312-0.006-0.507-0.041-0.515-0.535
		v-3.452h1.046c0.413,0,0.438,0.355,0.455,0.603l0.002,0.038l0.231-0.085l0.019-0.007v-0.021c0-0.177,0-0.354,0.013-0.528
		c0.02-0.176,0.046-0.353,0.072-0.527l0.004-0.028l-0.186-0.028L66.208,14.364z M72.479,11.521l0.275-1.755l-0.275-0.072
		c-0.241,1.262-1.229,2.081-2.419,2.081c-1.852,0-3.584-1.743-3.584-4.174c0-2.886,2.009-3.812,3.392-3.812
		c1.347,0,2.344,0.566,2.575,1.972h0.299l-0.12-1.718c-0.926-0.326-1.864-0.639-2.838-0.639c-2.356,0-4.556,1.768-4.556,4.234
		c0,2.706,1.778,4.521,4.592,4.521C70.614,12.159,71.974,11.834,72.479,11.521z"/>
</g>
<g id="Layer_1">
</g>
</svg>
