<?xml version="1.0" encoding="iso-8859-1"?>
<!-- Generator: Adobe Illustrator 16.0.0, SVG Export Plug-In . SVG Version: 6.00 Build 0)  -->
<!DOCTYPE svg PUBLIC "-//W3C//DTD SVG 1.1//EN" "http://www.w3.org/Graphics/SVG/1.1/DTD/svg11.dtd">
<svg version="1.1" xmlns="http://www.w3.org/2000/svg" xmlns:xlink="http://www.w3.org/1999/xlink" x="0px" y="0px" width="47.34px"
	 height="15.291px" viewBox="0 0 47.34 15.291" style="enable-background:new 0 0 47.34 15.291;" xml:space="preserve">
<g id="_x35_-visa">
	<path style="fill:#003473;" d="M13.957,0.272L9.975,10.336L8.363,1.78C8.175,0.824,7.43,0.272,6.6,0.272H0.091L0,0.701
		C1.336,0.992,2.854,1.46,3.772,1.96c0.564,0.305,0.726,0.572,0.911,1.298l3.049,11.801h4.042l6.199-14.787H13.957z M19.615,0.272
		l-3.164,14.787h3.826L23.44,0.272H19.615z M28.457,4.37c0.016-0.529,0.52-1.095,1.625-1.239c0.547-0.071,2.059-0.126,3.771,0.662
		l0.672-3.135C33.604,0.324,32.42,0,30.947,0c-3.783,0-6.442,2.011-6.467,4.888c-0.022,2.129,1.9,3.319,3.35,4.025
		c1.492,0.724,1.99,1.189,1.984,1.836c-0.01,0.993-1.188,1.433-2.289,1.447c-1.922,0.03-3.04-0.519-3.929-0.933l-0.693,3.24
		c0.893,0.408,2.543,0.767,4.254,0.786c4.02,0,6.646-1.985,6.66-5.061C33.836,6.328,28.422,6.112,28.457,4.37z M44.252,0.272h-3.264
		c-0.736,0-1.355,0.427-1.631,1.084l-5.738,13.702h4.016l0.797-2.209h4.91l0.461,2.209h3.537L44.252,0.272z M39.533,9.818
		l2.016-5.551l1.156,5.551H39.533z"/>
</g>
<g id="Layer_1">
</g>
</svg>
