<?xml version="1.0" encoding="UTF-8"?>
<svg width="16px" height="16px" viewBox="0 0 16 16" version="1.1" xmlns="http://www.w3.org/2000/svg" xmlns:xlink="http://www.w3.org/1999/xlink">
    <!-- Generator: sketchtool 52.2 (67145) - http://www.bohemiancoding.com/sketch -->
    <title>4951D63E-2A19-407C-A16E-A3A3AA56E967</title>
    <desc>Created with sketchtool.</desc>
    <g id="CHO" stroke="none" stroke-width="1" fill="none" fill-rule="evenodd">
        <g id="0.3_CHO_Gracias" transform="translate(-232.000000, -88.000000)" fill="#6DB122" fill-rule="nonzero">
            <g id="check-circle" transform="translate(232.000000, 88.000000)">
                <path d="M8,3.55271368e-16 C10.1217319,1.77635684e-16 12.1565632,0.842854723 13.6568542,2.34314575 C15.1571453,3.84343678 16,5.87826808 16,8 C16,12.418278 12.418278,16 8,16 C5.87826808,16 3.84343678,15.1571453 2.34314575,13.6568542 C0.842854723,12.1565632 1.77635684e-16,10.1217319 0,8 C-1.0658141e-15,5.87826808 0.842854723,3.84343678 2.34314575,2.34314575 C3.84343678,0.842854723 5.87826808,3.55271368e-16 8,0 Z M7.2,11.6 L12.8,6 L11.672,4.872 L7.2,9.336 L4.728,6.872 L3.6,8 L7.2,11.6 Z" id="Shape"></path>
            </g>
        </g>
    </g>
</svg>